<?xml version="1.0" encoding="utf-8"?>
<!-- Generator: Adobe Illustrator 28.0.0, SVG Export Plug-In . SVG Version: 6.00 Build 0)  -->
<svg version="1.1" id="Layer_1" xmlns="http://www.w3.org/2000/svg" xmlns:xlink="http://www.w3.org/1999/xlink" x="0px" y="0px"
	 viewBox="0 0 2404.17 573.12" style="enable-background:new 0 0 2404.17 573.12;" xml:space="preserve">
<style type="text/css">
	
		.st0{clip-path:url(#SVGID_00000006667823835997923810000011304230355271069570_);fill-rule:evenodd;clip-rule:evenodd;fill:#853135;}
	.st1{clip-path:url(#SVGID_00000006667823835997923810000011304230355271069570_);fill-rule:evenodd;clip-rule:evenodd;}
	.st2{clip-path:url(#SVGID_00000006667823835997923810000011304230355271069570_);}
	.st3{clip-path:url(#SVGID_00000006667823835997923810000011304230355271069570_);fill:#853135;}
	.st4{clip-path:url(#SVGID_00000148619883760831038620000005921918589189632914_);fill:#853135;}
	.st5{clip-path:url(#SVGID_00000148619883760831038620000005921918589189632914_);}
	.st6{fill-rule:evenodd;clip-rule:evenodd;fill:#853135;}
	.st7{fill-rule:evenodd;clip-rule:evenodd;}
	.st8{fill:#853135;}
</style>
<g>
	<defs>
		<rect id="SVGID_00000065049256782886310200000011624940543033315512_" x="17.6" y="10.74" width="2371.88" height="549.05"/>
	</defs>
	<clipPath id="SVGID_00000121251771436074455860000016362748600594585487_">
		<use xlink:href="#SVGID_00000065049256782886310200000011624940543033315512_"  style="overflow:visible;"/>
	</clipPath>
	<path style="clip-path:url(#SVGID_00000121251771436074455860000016362748600594585487_);fill:#853135;" d="M1430.26,338.14
		c2.21,3.61,3.62,7.19,4.99,10.67c2.39,6.03,4.64,11.73,10.56,16.92c5.64,4.99,17.21,13.02,31.34,10.63
		c20.96-3.73,28.12-16.71,35.72-30.45c2.35-4.26,4.79-8.66,7.67-12.85c2.78,3.99,4.6,7.56,6.22,10.73
		c4.09,8.01,7.32,14.34,22.07,21.17c14.66,6.72,26.57,5.22,35.42-4.51c19.18-21.14,17.65-75.92,12.83-88.59
		c-1.06-2.78-1.9-5.09-2.59-6.99c-3.36-9.18-3.57-9.71-7.86-10.28c-0.81-0.1-1.79-0.24-3.05-0.5l-0.82-0.17l-0.24,0.89
		c-1.49,5.36-2.44,12.33-3.37,19.08c-0.65,4.81-1.28,9.36-2.08,13.31c-1.79,8.66-1.7,9.27-0.37,11.54c0.52,0.88,1.23,2.1,2.07,4.79
		c2.18,7.05,1.77,11.53-1.23,13.31c-7.1,4.25-27.23-6.88-32.89-14.88c-7.92-11.24-9.11-19.14-10.16-26.11
		c-0.71-4.77-1.39-9.3-4.12-14.09l-0.75-1.31l-7.01,10.89c-1.07,2.35-1.62,4.22-2.2,6.2c-0.27,0.92-0.55,1.88-0.9,2.95
		c-9.01,27.23-27.69,41.2-42.22,42.94c-10.3,1.18-18.98-3.26-24.42-12.66c-5.94-10.32-5.19-16.71-4.47-22.88
		c0.58-4.96,1.12-9.61-1.75-15.64l-0.42-0.9l-0.82,0.44c-7.57,4.16-11.9,11.31-16.93,19.57c-6.45,10.58-13.74,22.58-30.1,31.6
		c-15.79,8.71-28.44,10.17-38.62,4.45c-22.03-12.36-28.57-56.17-34.89-98.53c-5.45-36.53-10.6-71.03-25.55-82.46l-0.64-0.48
		l-0.56,0.61c-8.46,9.36-9.78,21.36-11.19,34.06c-1.71,15.41-3.66,32.87-19.25,48.61c-9.96,10.09-19.69,14.88-29.01,14.04
		c-14.71-1.22-25.25-15.66-31.53-24.29c-2.31-3.18-3.99-5.48-5.27-6.28l-0.76-0.47l-0.48,0.8c-5.82,9.7-10.32,31.09-10.45,43.73
		c-0.14,6.21,5.07,16.29,11.68,29.05c13.2,25.55,31.29,60.52,11.58,80.51c-16.36,16.55-31.77,31.47-54.94,46.27
		c-19.64,12.68-41.09,25.72-64.95,35.31c-60.83,24.04-111.59,17.56-150.84-19.28c-43.18-40.48-34.67-89.13-27.82-128.21
		c2.07-11.78,4.01-22.91,4.08-32.12l0.01-1.43l-1.23,0.43c-14.47,5.05-29.35,72.29-19.06,132.21
		c7.53,43.85,34.19,114.96,127.66,114.96c4.69,0,9.56-0.17,14.59-0.55c23.7-1.8,54.04-14.54,75.29-24.89
		c30.06-14.7,95.9-63.24,108.99-95.34c12.26-30.71,13.28-78.26,13.3-92.54c2.08-4.42,2.1-4.42,3.46-4.52
		c1.26-0.1,3.37-0.29,7.49-2.12c32.06-14.19,38.18-49.71,41.84-70.94c0.67-3.86,1.27-7.35,1.93-10.16
		c4.98,17.94,7.62,38.2,10.18,57.84c4.21,32.32,8.56,65.74,23.53,88.16c15.09,22.72,33.25,25.95,45.85,24.74
		C1395.31,381.89,1418.72,363.07,1430.26,338.14"/>
	<path style="clip-path:url(#SVGID_00000121251771436074455860000016362748600594585487_);fill:#853135;" d="M367.07,288.33
		c0.25-9.3,9.57-15.87,19.02-14.36c7.2,1.09,15.04,9.17,18.02,14.36C392.18,291.35,377.64,294.76,367.07,288.33 M369.19,239.08
		c-22.37,26.14-38.4,88.93-2.12,98.24c13.18,3.43,59.41-14.77,66.36,15.74c6.84,29.27-152.73,128.48-176.71,140.38l-91.22,46.39
		c-9.57,4.51-23.73,7.66-25.22,18.47l140.55-36.27c23.23-5.47,131.97-80.99,153.97-121.9C476.56,321.85,412.69,188.31,369.19,239.08
		"/>
	<path style="clip-path:url(#SVGID_00000121251771436074455860000016362748600594585487_);fill:#853135;" d="M597.21,285.76
		c3.71,2.27,7.49,4.46,11.3,6.56c1.07-3.45,2.08-6.73,2.98-9.78c2.24-7.27,5.73-18.16,4.98-25.97c0-0.39-0.75-2.68-0.99-3.23
		C610.12,257.26,603.3,269.22,597.21,285.76"/>
	<path style="clip-path:url(#SVGID_00000121251771436074455860000016362748600594585487_);fill:#853135;" d="M854.07,419.99
		c17.15-17.38,23.48-29.97,28.08-53.77c9.2-47.2,3.97-68.14-49.33-73.33c4.09-12.73,8.07-19.15,12.3-36.4
		c13.79-55.28-16.9-87.57-23.61-111.51c9.32,4.24,12.3,11.77,21.62,11.49c1.86-10.68-3.36-13.69-8.08-20.4
		c-4.22-6.16-7.71-10.39-12.68-17.23c-13.91-18.75-14.04-30.65-26.96-32.71c-3.11,5.62-11.19,40.1-11.94,47.21
		c13.79,14.09,10.93,26.27,24.24,57.33c5.71,13.69,24.36,41.6,25.6,55.68c-17.15,22.17-53.45,23.55-73.95,27.51
		c-11.68,2.18-18.4,34.48-17.02,44.61c22.62,5.19,39.26,14.64,66.36,18.06c26.1,3.43,50.45,0,61.88,23.26
		c-3.1,9.71-27.7,31.89-37.16,39.68c-36.53,30.52-108.49,67.19-160.43,54.87c-4.14-0.99-8.03-2.09-11.77-3.27l-0.2,0.14
		c-3.79,3.14-7.27,6.17-10.68,9.15c-6.67,5.8-12.96,11.3-20.77,16.7c-1.06,0.73-2.34,1.65-3.48,2.44c3.9,3.28,7.92,6.28,12.11,8.76
		c21.13,12.72,59.53,17.11,85.24,10.41c31.33-8.08,47.34-15.74,72.71-31.34C821.13,452.14,833.93,440.52,854.07,419.99"/>
	<path style="clip-path:url(#SVGID_00000121251771436074455860000016362748600594585487_);fill:#853135;" d="M649.24,458.71
		c3.39-2.95,6.86-5.99,10.68-9.14l2.17-1.77c31.82-25.93,35.91-29.26,37.13-72.03c0.63-21.89-6.35-30.83-16.28-41.09
		c-6.13-6.24-20.68-13.22-37.52-21.28c-25.76-12.34-59.23-28.38-80.52-50.05c-4.79-4.98-8.97-10.26-12.28-15.9
		c2.44,0.01,4.98,0.27,7.52,0.56c2.6,0.3,5.19,0.59,7.62,0.59c2.97,0,5.27-0.43,7.44-1.74c-0.1-3.14,0.08-4.72,0.17-5.53
		c0.12-0.95,0.1-1.27-0.77-1.48c-0.69-0.16-2.16-0.51-5.3-2.78l-23.01-14.66c-1.63-0.92-3.66-2.1-5.92-3.43
		c-9.66-5.63-22.92-13.36-28.41-13.95c-2.26,10.39-4.34,41.54-2.24,51.05c2.54,2.21,4.31,3.18,6.04,4.12
		c1.61,0.88,3.15,1.73,5.27,3.54c6.52,5.46,10.79,11.4,15.3,17.69c3.12,4.35,6.35,8.85,10.64,13.74
		c30.92,35.6,64.42,50.99,91.32,63.36c19.9,9.14,35.6,16.34,41.62,28.19c-12.03,17.32-90.2,71.75-99.06,77.9l-1.31,0.9
		c-21.69,15.09-66.81,46.49-97.21,46.49c-7.99,0-14.54-2.17-19.49-6.46c-13.45-11.66-6.63-38.48-0.6-62.14
		c4.04-15.91,7.53-29.65,4.16-36.29c-0.67-1.01-1.23-1.78-1.92-1.78c-1.14,0-1.9,1.8-4.41,7.77l-1.03,2.43
		c-11.37,27.34-27.81,104.5-8.01,129.87c4.73,6.14,20.81,13.28,34.48,13.28c2.12,0,4.11-0.18,5.88-0.55
		c30.79-6.26,80-41.76,115.93-67.67c7.96-5.75,15.19-10.96,21.28-15.17C636.33,469.96,642.6,464.5,649.24,458.71"/>
	<path style="clip-path:url(#SVGID_00000121251771436074455860000016362748600594585487_);fill:#853135;" d="M585.58,332.32
		c-5.43,31.69-5.9,67.52,5.4,96.71c2.65,6.82,5.87,13.26,9.43,19.36c7.22-5.16,15.57-11.2,24.19-17.6
		c-11.92-11.3-20.49-26.83-27.16-48.98c-3.7-12.42-3.05-27.25-0.52-42.18C593.17,337.36,589.39,334.93,585.58,332.32"/>
	<path style="clip-path:url(#SVGID_00000121251771436074455860000016362748600594585487_);fill:#853135;" d="M999.02,186.26
		c0.85-23.76-44.32-104.51-45.86-111.54c-10.13,4.31-22.64,35.57-22.64,36.07c-1.27,8,5.77,12.32,8.01,20.32
		c1.97,6.52,1.69,16.87,2.25,23.62l23.91,191.43c2.68,15.14,5.07,34.48,5.49,50.48c0.29,8.25,0.85,15.75,0.42,22.64
		c-0.69,9.86-1.19,21.35,3.1,22.16c2.71,0.51,6.05-6.28,8.01-13.78c1.56-5.91,3.24-10.59,4.65-16.13
		c2.38-9.84,4.77-23.39,5.48-32.99c1.97-24.5-0.27-49.62-4.08-72.39c-2.54-15.51-17.58-131.11-16.17-138.36
		C986.08,171.49,983.27,185.65,999.02,186.26"/>
	<path style="clip-path:url(#SVGID_00000121251771436074455860000016362748600594585487_);fill:#853135;" d="M850.03,452.41
		l-17.65,36.95c5.23,6.29,28.83,23.94,35.55,27.49c6.96-9.16,13.41-26.27,17.89-39.26C879.85,468.69,863.08,453.37,850.03,452.41"/>
	<path style="clip-path:url(#SVGID_00000121251771436074455860000016362748600594585487_);fill:#853135;" d="M1297.69,130.87
		c4.6-6.29,14.67-32.97,14.92-40.91c-5.35-4.79-30.7-20.8-37.16-23.68c-7.58,6.98-13.54,26-17.65,38.18
		C1263.27,110.34,1290.61,131.27,1297.69,130.87"/>
	<path style="clip-path:url(#SVGID_00000121251771436074455860000016362748600594585487_);" d="M1344.7,21.25
		c1.83-2.55,6.12-6.94,5.54-10.26c-1.14,0.04-8.34,2.17-10.35,2.86c-41.16,14.45-83.06,22.91-124.41,34.8
		c-16.12,4.75-14.45,1.61-20.75,8.93c-3.44,4.59-6.25,9.15-9.34,13.95c-1.2,1.83-2.42,3.8-2.85,5.53
		c20.04-4.76,131.87-33.95,149.36-41.62C1336.01,33.66,1339.57,28.27,1344.7,21.25"/>
	<path style="clip-path:url(#SVGID_00000121251771436074455860000016362748600594585487_);fill:#853135;" d="M1100.88,196.24
		c-5.87-5.26-33.69-22.97-40.78-25.98c-8.32,7.5-14.87,28.38-19.23,41.89c6,6.46,36.01,29.44,43.64,28.99
		C1089.7,234.23,1100.75,204.94,1100.88,196.24"/>
	<path style="clip-path:url(#SVGID_00000121251771436074455860000016362748600594585487_);fill:#853135;" d="M943.42,71.43
		c7.32-4.51,15.04-9.16,23.04-13.99l0.95-0.65c0.93-0.64,1.49-1.02,1.83-1.43c0.52-0.56,1.2-1.67,1.99-3.27l5.27-14.9l-15.95,7.6
		c-0.18,0.03-0.42,0.08-0.69,0.13l-0.54,0.12c-0.46,0-0.84,0.05-1.18,0.09c-0.2,0.03-0.39,0.05-0.58,0.05
		c-0.46,0-1.54-0.1-3.69-0.78c-1.75-0.55-3.41-1.2-4.97-2c-1.48-0.71-2.86-1.65-4.34-2.97c-1.44-1.29-1.61-2.3-1.61-2.94
		c0-1.09,0.88-1.91,2.63-2.46c2.63-0.9,4.2-1.05,4.9-1.05c0.98,0,1.37,0.26,1.61,0.63c0.76,0.84,1.82,1.29,2.98,1.29h1.1l0.31-0.56
		c0.38-0.69,0.89-1.67,1.41-2.85c0.41-1.01,0.73-2,1.11-3.15l0.29-0.9c0.51-1.52,0.9-2.95,1.12-4.13c0.37-1.2,0.56-2.29,0.56-3.24
		c0-2.03-0.94-3.57-2.77-4.48c-1.54-0.71-3.06-1.06-4.63-1.06c-2.76,0-6.01,0.99-9.4,2.86c-3.65,1.93-6.48,4.99-8.51,9.31
		c-1.11,3.99-1.97,7.14-2.61,9.53c-0.33,1.5-0.64,2.78-0.9,3.79c-0.13,0.54-0.25,0.99-0.35,1.41c-0.35,1.76-0.39,2.38-0.39,2.72
		v2.75c0,1.84,0.9,4.03,2.6,6.33c1.48,2.03,3.01,3.73,4.63,5.18c-2,2.43-4.46,4.77-7.16,6.84c-3.53,2.84-5.8,6.01-6.99,9.83
		c-0.5,1.65-1.23,4.08-2.09,7.03c-0.86,2.97-1.36,5.03-1.63,6.24l-0.94,4.18l2.72-3.1C929.25,81.75,936.07,75.88,943.42,71.43"/>
	<path style="clip-path:url(#SVGID_00000121251771436074455860000016362748600594585487_);fill:#853135;" d="M447.28,110.72
		l23.74,239.32c2.65,18.76,5.03,43.07,5.45,62.9c0.27,10.3,0.84,19.69,0.42,28.31c-0.69,12.3-2.65,19.53,3.07,27.83
		c6.98-4.92,6.01-8,7.96-17.23c1.54-7.53,3.22-13.37,4.62-20.29c2.37-12.16,4.75-29.23,5.44-41.22c1.96-30.45-0.27-61.98-4.04-90.43
		c-2.52-19.39-17.47-163.81-16.07-172.72c14.38,4.62,11.6,22.3,27.23,23.06c0.84-29.84-43.99-130.73-45.54-139.5
		c-10.05,5.54-22.49,44.45-22.49,45.07c-1.26,10.16,5.73,15.39,7.96,25.38C447.01,89.34,446.72,102.42,447.28,110.72"/>
	<path style="clip-path:url(#SVGID_00000121251771436074455860000016362748600594585487_);" d="M653.62,22.48
		c1.37-2.88,4.72-8.07,3.73-11.22c-1.11,0.27-7.83,3.83-9.69,4.92C609.62,38.76,569.86,55.6,531.22,75.7
		c-15.05,7.94-13.92,4.51-18.89,13c-2.73,5.2-4.6,10.26-6.84,15.6c-0.86,2.2-1.74,4.25-1.99,6.03
		c19.01-8.76,124.02-60.21,139.8-71.29C647.16,36.43,649.76,30.41,653.62,22.48"/>
	<path style="clip-path:url(#SVGID_00000121251771436074455860000016362748600594585487_);" d="M103.26,102.66
		c-2.73,5.2-4.6,10.26-6.84,15.6c-0.86,2.18-1.74,4.25-1.99,6.03c19.01-8.76,148.13-74.68,163.91-85.77
		c3.84-2.59,6.46-8.62,10.32-16.55c1.36-2.88,4.72-8.07,3.73-11.22c-1.12,0.27-7.83,3.83-9.7,4.93
		C224.67,38.24,160.8,69.54,122.16,89.66C107.12,97.6,108.23,94.17,103.26,102.66"/>
	<path style="clip-path:url(#SVGID_00000121251771436074455860000016362748600594585487_);" d="M401.59,45.21
		c0.13,0.97,0.38,2.75,0.38,4.11c0,0.69,0,1.65-0.25,2.2c-0.18,0.33-0.22,0.5-0.24,0.6c-0.09-0.03-0.27-0.03-0.64,0.08
		c-0.75,0.27-5.09-1.23-6.09-1.63c-4.97-2.33-5.83-3.15-8.2-8.21C383.07,34.69,399.1,31.67,401.59,45.21 M281.92,167.68
		c1.12-0.55,1.87-0.95,3.11-1.65c2.6-1.5,22.61-8.2,27.09-9.57c2.73-0.95,4.09-1.5,6.71-2.6l18.51-9.84
		c4.47-2.6,17.27-13.01,20.88-17.39l13.43-14.63c4.97-5.88,22.49-32.16,24.85-32.99c1.74-0.54,12.3,0,16.28-0.95
		c13.66-3.15,11.56-3.69,16.77-21.21c4.6-15.32-0.75-0.55-21.74-3.7c-0.38-4.24,2.73-3.96,3.6-16.55
		c0.88-11.09,1.87-28.19-12.55-25.59c-5.71,1.1-9.07,4.38-11.43,8.49c-3.48,6.01-9.32,21.35-11.56,29.29
		c-1.74,6.42-1.62,11.9,0.86,17.51c3.36,7.94,3.11,6.3,9.57,10.26c-1.61,3.56-3.48,4.51-5.46,7.39c-4.97,7.66-23.99,26-30.82,31.61
		l-13.3,11.62c-11.56,9.86-23.36,18.34-35.91,26.82l-22.25,13.96C278.94,168.36,278.56,169.18,281.92,167.68"/>
	<path style="clip-path:url(#SVGID_00000121251771436074455860000016362748600594585487_);" d="M1531.32,43.56
		c0-0.81,0.33-1.77,0.98-2.85c4.77-4.08,8.51-6.11,11.22-6.11h0.5c0.98,0,2.05,0.26,3.2,0.81c2.88,2.44,4.31,7.06,4.31,13.85v0.13
		c0,3.53-0.46,6.88-1.36,10.04h-0.12C1537.55,52.46,1531.32,47.18,1531.32,43.56 M1502.59,116.71
		c-13.39,9.5-37.51,25.56-72.35,48.18c-6.9,4.17-10.35,7.1-10.35,8.83v0.41c0,0.27,0.12,0.41,0.37,0.41h0.25
		c3.12,0,14.21-4.21,33.29-12.62c17.01-6.34,32.29-14.43,45.85-24.29c7.23-5.07,14.5-10.68,21.81-16.84
		c2.64-2.61,4.08-3.94,4.33-3.94c3.69-3.88,5.7-5.83,6.04-5.83c8.71-9.86,14.5-17.23,17.38-22.12c0.58,0,0.86,0.09,0.86,0.27
		c6.73,4.43,10.11,7.56,10.11,9.36c0,0.37-1.15,4.3-3.45,11.81c-7.65,23.79-11.47,41.12-11.47,51.98v3.12c0,2.26,0.13,4.93,0.37,8
		c1.73,13.57,7.03,20.36,15.91,20.36c10.84,0,18.45-14.11,22.8-42.35v-2.03l-0.25-0.41c-0.82,0-1.84,1.31-3.09,3.94
		c-5.5,11.03-10.15,16.55-13.92,16.55h-0.75c-1.31,0-2.71-0.41-4.18-1.22c-4.35-3.18-6.54-10.46-6.54-21.86
		c0-12.84,3.91-29.53,11.71-50.07c2.71-6.6,4.07-11.31,4.07-14.12v-2.03c0-4.98-3.82-10.09-11.47-15.34h-0.25
		c3.78-12.22,5.67-23.26,5.67-33.12c0-5.16-0.61-9.37-1.86-12.63c-2.3-5.43-6.08-8.13-11.34-8.13c-2.8,0-6.29,1.16-10.47,3.52
		c-16.53,11.58-24.78,25.02-24.78,40.31v0.68c0,9.87,7.81,19.27,23.42,28.24c-4.03,4.51-8.22,8.72-12.58,12.62
		C1520.02,103.23,1511.63,110.02,1502.59,116.71"/>
	<path style="clip-path:url(#SVGID_00000121251771436074455860000016362748600594585487_);fill:#853135;" d="M796.52,495.1
		c-0.85,0-1.77,0.71-2.76,2.13l-10.66,24.54c-5.32-4.86-10.56-9.19-15.73-12.97c-8.2-6.12-13.87-9.84-17-11.15
		c-0.8,0-1.52,0.46-2.16,1.39l-10.43,23.47c-2.64,5.7-3.96,8.98-3.96,9.86l0.16,0.9c8.75,6.13,17.36,12.63,25.86,19.53
		c4.58,3.94,7.13,5.91,7.67,5.91h0.16c0.75,0,1.52-0.5,2.3-1.48c5.27-10.01,9.1-18.41,11.48-25.19h0.3l21.62,16
		c6.46,5.31,9.95,7.96,10.5,7.96c0.65-0.12,1.24-0.47,1.79-1.07c2.89-5.03,5.54-9.9,7.98-14.6c4.47-9.09,6.71-15.32,6.71-18.71
		v-0.75c0-0.17-0.81-1.18-2.46-3.03C811.75,504.44,801.29,496.85,796.52,495.1"/>
	<path style="clip-path:url(#SVGID_00000121251771436074455860000016362748600594585487_);fill:#853135;" d="M289.31,369.2
		c0-57.06-39.64-50.49-83.88-85.65c-15.04-12.04-41.63-28.59-50.45-45.98c7.2-5.61,24.11,3.57,30.82,0.42
		c-0.86-8.63,1.24-4.93-15.4-13.82c-13.05-6.98-48.71-25.73-59.66-26.82l-0.5,45.01c5.1,5.19,6.22,3.28,11.69,8.49
		c9.94,9.44,17.52,28.45,43.5,52.13c18.76,17.23,44.11,34.2,66.73,46.79c17.77,9.99,34.67,17.92,40.39,35.03
		c-13.18,22.85-168.76,127.53-211.76,127.53c-40.75,0-26.71-39.55-20.5-67.59c5.01-22.4,19.1-55.96,17.96-68.26
		c0.67-2.99,1.29-6.14,1.86-9.54c-0.18-1.07-0.39-1.6-0.64-1.6h-0.09l-1.48,1.5c-0.48,1.19-1.44,3.05-2.85,5.57
		c-5.33,9.18-9.88,13.77-13.62,13.77c-8.22,0-12.34-7.79-12.34-23.39c0-9.44,3.07-24.84,9.22-46.23c4.9-15.65,7.36-24.3,7.36-25.94
		h-0.46l-0.27,0.09c-1.18,1.39-2.52,3.53-4.05,6.42c-15.35,28.49-23.02,55.5-23.02,81.03v3.02c0,3.96,0.29,7.48,0.84,10.56
		c1.96,12.51,7.45,18.77,16.47,18.77h0.64c1.54,0,2.99-0.33,4.41-0.85c-2.93,8.34-6.35,18.19-10.49,29.86
		C18.54,471.14-0.24,558.29,58.79,558.29c35.8,0,140.3-68.4,169.39-91.68C260.49,440.75,289.31,425.15,289.31,369.2"/>
	<path style="clip-path:url(#SVGID_00000121251771436074455860000016362748600594585487_);" d="M1148.06,171.31h0.52
		c9.22,0,15.82-12.73,19.82-38.19c-0.14-0.94-0.33-1.41-0.52-1.41h-0.08l-1.2,1.33c-0.39,1.05-1.18,2.67-2.33,4.88
		c-4.35,8.04-8.05,12.07-11.1,12.07c-6.71,0-10.07-6.84-10.07-20.5c0-8.26,2.51-21.77,7.5-40.5c4.01-13.73,6.01-21.3,6.01-22.74
		h-0.38l-0.22,0.09c-0.95,1.2-2.05,3.07-3.31,5.61c-12.51,24.97-18.77,48.64-18.77,71.01v2.65c0,3.46,0.24,6.55,0.68,9.26
		C1136.23,165.83,1140.7,171.31,1148.06,171.31"/>
	<path style="clip-path:url(#SVGID_00000121251771436074455860000016362748600594585487_);" d="M1063.54,315.49h-0.38l-0.22,0.08
		c-0.95,1.22-2.05,3.09-3.31,5.62c-12.51,24.97-18.76,48.64-18.76,71.01v2.64c0,3.48,0.22,6.56,0.68,9.27
		c1.6,10.96,6.08,16.45,13.43,16.45h0.54c9.2,0,15.81-12.73,19.82-38.19c-0.16-0.94-0.33-1.41-0.54-1.41h-0.07l-1.2,1.32
		c-0.41,1.06-1.18,2.68-2.33,4.88c-4.35,8.05-8.07,12.08-11.11,12.08c-6.71,0-10.07-6.84-10.07-20.5c0-8.28,2.51-21.77,7.52-40.5
		C1061.54,324.5,1063.54,316.93,1063.54,315.49"/>
	<path style="clip-path:url(#SVGID_00000121251771436074455860000016362748600594585487_);" d="M1138.58,361.39h0.52
		c9.22,0,15.82-12.73,19.82-38.19c-0.14-0.93-0.33-1.4-0.52-1.4h-0.08l-1.2,1.32c-0.39,1.05-1.18,2.67-2.33,4.88
		c-4.35,8.04-8.05,12.07-11.11,12.07c-6.71,0-10.05-6.84-10.05-20.5c0-8.26,2.5-21.77,7.5-40.5c4.01-13.73,6.01-21.3,6.01-22.74
		h-0.38l-0.22,0.09c-0.95,1.2-2.05,3.09-3.31,5.62c-12.51,24.96-18.77,48.62-18.77,70.99v2.65c0,3.46,0.24,6.55,0.68,9.26
		C1126.75,355.91,1131.22,361.39,1138.58,361.39"/>
	<path style="clip-path:url(#SVGID_00000121251771436074455860000016362748600594585487_);" d="M1384.56,254.57h0.52
		c9.22,0,15.82-12.73,19.82-38.19c-0.14-0.94-0.33-1.4-0.52-1.4h-0.08l-1.2,1.32c-0.39,1.05-1.18,2.67-2.33,4.88
		c-4.35,8.04-8.05,12.07-11.1,12.07c-6.71,0-10.07-6.84-10.07-20.5c0-8.26,2.5-21.77,7.5-40.5c4.01-13.73,6.01-21.3,6.01-22.74
		h-0.38l-0.22,0.08c-0.95,1.22-2.05,3.1-3.31,5.62c-12.51,24.97-18.77,48.64-18.77,71.01v2.65c0,3.46,0.24,6.55,0.68,9.26
		C1372.73,249.09,1377.2,254.57,1384.56,254.57"/>
	<path style="clip-path:url(#SVGID_00000121251771436074455860000016362748600594585487_);" d="M1037.33,53.16
		c2.12,0,3.48-0.5,4.09-1.48c0.31-0.99,1.19-1.49,2.63-1.49h0.61c2.89,0,8.47,10.68,16.77,32.02c2.82,8.35,4.25,13.66,4.25,15.94
		c0,4.01,0.54,6.01,1.62,6.01h0.3c0.42,0,0.95-0.22,1.62-0.67c2.12-2.08,3.48-3.96,4.11-5.63c1.79-3.27,3.75-9.54,5.87-18.83
		c5.71-31.34,11.66-47,17.85-47h0.3c2.73,0,5.28,1.39,7.65,4.16c2.73,3.5,4.54,5.26,5.41,5.26h0.16c1.12,0,2.29-1.06,3.48-3.18
		c1.95-4.5,2.93-7.91,2.93-10.24v-0.52c0-1.12-0.35-2.44-1.09-3.92c-4.58-8.41-9.32-12.6-14.21-12.6c-6.64,0-12.7,5.88-18.15,17.64
		c-0.78,1.29-1.78,4.33-3.02,9.13c-3.19,11.22-5.84,22.3-7.95,33.27c0,1.29-0.52,3.11-1.56,5.49l-0.3-0.14l-1.93-10.32
		c-1.91-7.95-3.94-14.25-6.11-18.89c-8.55-17.94-18.46-26.91-29.74-26.91h-0.24c-0.2,0-0.46,0.12-0.77,0.37
		c-2.26,2.67-4.65,6.28-7.18,10.83c-2.99,4.89-4.48,7.58-4.48,8.08c0,1.39,1.03,3.19,3.09,5.41
		C1029.36,50.41,1034.03,53.16,1037.33,53.16"/>
	<path style="clip-path:url(#SVGID_00000121251771436074455860000016362748600594585487_);" d="M714.73,53.16
		c2.12,0,3.48-0.5,4.09-1.48c0.31-0.99,1.19-1.49,2.63-1.49h0.61c2.89,0,8.47,10.68,16.77,32.02c2.82,8.35,4.25,13.66,4.25,15.94
		c0,4.01,0.54,6.01,1.62,6.01h0.3c0.42,0,0.95-0.22,1.62-0.67c2.12-2.08,3.48-3.96,4.11-5.63c1.79-3.27,3.75-9.54,5.87-18.83
		c5.71-31.34,11.66-47,17.85-47h0.3c2.73,0,5.28,1.39,7.65,4.16c2.73,3.5,4.54,5.26,5.41,5.26h0.16c1.12,0,2.29-1.06,3.48-3.18
		c1.95-4.5,2.93-7.91,2.93-10.24v-0.52c0-1.12-0.35-2.44-1.09-3.92c-4.58-8.41-9.32-12.6-14.21-12.6c-6.64,0-12.7,5.88-18.15,17.64
		c-0.78,1.29-1.78,4.33-3.02,9.13c-3.19,11.22-5.84,22.3-7.95,33.27c0,1.29-0.52,3.11-1.56,5.49l-0.3-0.14l-1.93-10.32
		c-1.91-7.95-3.94-14.25-6.11-18.89c-8.55-17.94-18.46-26.91-29.74-26.91h-0.24c-0.2,0-0.46,0.12-0.77,0.37
		c-2.26,2.67-4.65,6.28-7.18,10.83c-2.99,4.89-4.48,7.58-4.48,8.08c0,1.39,1.03,3.19,3.09,5.41
		C706.77,50.41,711.44,53.16,714.73,53.16"/>
	<path style="clip-path:url(#SVGID_00000121251771436074455860000016362748600594585487_);" d="M34.67,52.92
		c2.12,0,3.48-0.5,4.09-1.48c0.31-0.99,1.19-1.49,2.63-1.49h0.61c2.89,0,8.47,10.68,16.77,32.02c2.82,8.35,4.25,13.66,4.25,15.94
		c0,4,0.54,6,1.62,6h0.3c0.42,0,0.95-0.22,1.62-0.67c2.12-2.07,3.48-3.95,4.11-5.62c1.8-3.27,3.75-9.54,5.87-18.83
		c5.71-31.34,11.66-47,17.85-47h0.3c2.73,0,5.28,1.39,7.65,4.16c2.73,3.5,4.54,5.26,5.41,5.26h0.16c1.12,0,2.29-1.06,3.48-3.19
		c1.95-4.5,2.93-7.9,2.93-10.22v-0.52c0-1.14-0.35-2.44-1.09-3.92c-4.58-8.41-9.32-12.6-14.21-12.6c-6.64,0-12.7,5.88-18.15,17.64
		c-0.78,1.29-1.78,4.33-3.02,9.13c-3.19,11.22-5.84,22.3-7.95,33.27c0,1.29-0.52,3.11-1.56,5.49l-0.3-0.16l-1.93-10.3
		c-1.91-7.95-3.94-14.25-6.11-18.89c-8.55-17.94-18.46-26.91-29.74-26.91h-0.22c-0.21,0-0.47,0.12-0.78,0.37
		c-2.26,2.67-4.65,6.28-7.18,10.83c-2.99,4.89-4.48,7.58-4.48,8.08c0,1.39,1.03,3.19,3.09,5.41C26.71,50.18,31.38,52.92,34.67,52.92
		"/>
	<path style="clip-path:url(#SVGID_00000121251771436074455860000016362748600594585487_);" d="M1396.08,53.16
		c2.12,0,3.48-0.5,4.09-1.48c0.31-0.99,1.19-1.49,2.63-1.49h0.61c2.89,0,8.47,10.68,16.77,32.02c2.82,8.35,4.25,13.66,4.25,15.94
		c0,4.01,0.54,6.01,1.62,6.01h0.3c0.42,0,0.95-0.22,1.62-0.67c2.12-2.08,3.48-3.96,4.11-5.63c1.8-3.27,3.75-9.54,5.87-18.83
		c5.71-31.34,11.66-47,17.85-47h0.3c2.73,0,5.28,1.39,7.65,4.16c2.73,3.5,4.54,5.26,5.41,5.26h0.16c1.12,0,2.29-1.06,3.48-3.18
		c1.95-4.5,2.93-7.91,2.93-10.24v-0.52c0-1.12-0.35-2.44-1.09-3.92c-4.58-8.41-9.32-12.6-14.21-12.6c-6.64,0-12.69,5.88-18.15,17.64
		c-0.77,1.29-1.78,4.33-3.02,9.13c-3.19,11.22-5.84,22.3-7.95,33.27c0,1.29-0.52,3.11-1.56,5.49l-0.3-0.14l-1.93-10.32
		c-1.91-7.95-3.94-14.25-6.11-18.89c-8.55-17.94-18.46-26.91-29.74-26.91h-0.22c-0.21,0-0.47,0.12-0.78,0.37
		c-2.26,2.67-4.65,6.28-7.18,10.83c-2.99,4.89-4.48,7.58-4.48,8.08c0,1.39,1.03,3.19,3.1,5.41
		C1388.12,50.41,1392.79,53.16,1396.08,53.16"/>
	<path style="clip-path:url(#SVGID_00000121251771436074455860000016362748600594585487_);" d="M1321.98,462.84
		c-7.22,0-13.79,6.12-19.73,18.36c-0.84,1.33-1.92,4.5-3.27,9.49c-3.46,11.66-6.35,23.21-8.64,34.63c0,1.33-0.56,3.23-1.69,5.7
		l-0.33-0.16l-2.1-10.72c-2.07-8.28-4.28-14.83-6.63-19.66c-9.3-18.67-20.07-28-32.32-28h-0.25c-0.22,0-0.51,0.13-0.84,0.39
		c-2.47,2.77-5.07,6.52-7.82,11.26c-3.24,5.1-4.86,7.9-4.86,8.41c0,1.44,1.12,3.32,3.36,5.63c6.55,5.7,11.61,8.56,15.19,8.56
		c2.29,0,3.78-0.51,4.45-1.54c0.34-1.03,1.29-1.54,2.86-1.54h0.67c3.14,0,9.2,11.1,18.21,33.31c3.07,8.69,4.62,14.22,4.62,16.59
		c0,4.16,0.59,6.25,1.77,6.25h0.34c0.44,0,1.03-0.24,1.76-0.69c2.29-2.17,3.77-4.12,4.45-5.87c1.96-3.39,4.08-9.92,6.38-19.59
		c6.21-32.61,12.67-48.91,19.39-48.91h0.34c2.95,0,5.73,1.45,8.3,4.33c2.97,3.65,4.93,5.48,5.87,5.48h0.17
		c1.23,0,2.5-1.11,3.78-3.32c2.13-4.68,3.19-8.22,3.19-10.64v-0.54c0-1.19-0.39-2.55-1.18-4.09
		C1332.44,467.21,1327.3,462.84,1321.98,462.84"/>
	<path style="clip-path:url(#SVGID_00000121251771436074455860000016362748600594585487_);" d="M2283.3,462.84
		c-7.22,0-13.79,6.12-19.73,18.36c-0.84,1.33-1.92,4.5-3.27,9.49c-3.48,11.66-6.35,23.21-8.64,34.63c0,1.33-0.56,3.23-1.69,5.7
		l-0.34-0.16l-2.09-10.72c-2.07-8.28-4.28-14.83-6.63-19.66c-9.3-18.67-20.07-28-32.32-28h-0.25c-0.22,0-0.51,0.13-0.85,0.39
		c-2.46,2.77-5.06,6.52-7.81,11.26c-3.24,5.1-4.86,7.9-4.86,8.41c0,1.44,1.12,3.32,3.36,5.63c6.55,5.7,11.61,8.56,15.19,8.56
		c2.29,0,3.78-0.51,4.45-1.54c0.34-1.03,1.29-1.54,2.85-1.54h0.68c3.14,0,9.2,11.1,18.21,33.31c3.07,8.69,4.61,14.22,4.61,16.59
		c0,4.16,0.59,6.25,1.76,6.25h0.34c0.44,0,1.03-0.24,1.75-0.69c2.3-2.17,3.78-4.12,4.46-5.87c1.96-3.39,4.08-9.92,6.38-19.59
		c6.21-32.61,12.67-48.91,19.39-48.91h0.33c2.97,0,5.74,1.45,8.31,4.33c2.97,3.65,4.93,5.48,5.87,5.48h0.17
		c1.23,0,2.5-1.11,3.78-3.32c2.13-4.68,3.19-8.22,3.19-10.64v-0.54c0-1.19-0.39-2.55-1.18-4.09
		C2293.76,467.21,2288.62,462.84,2283.3,462.84"/>
	<path style="clip-path:url(#SVGID_00000121251771436074455860000016362748600594585487_);fill:#853135;" d="M1718.15,251.88
		c8.81-10.67,16.73-16,23.78-16c7.94,0,15.13,7.61,21.59,22.8c5.57,12.6,8.37,22.3,8.37,29.08c0,6.47-9.4,15.05-28.19,25.7
		c-25.83-6.46-38.75-17.77-38.75-33.94C1704.95,271.77,1709.34,262.55,1718.15,251.88 M1788.18,269.83
		c45.51,27.14,67.08,45.41,64.73,54.78c-0.58,4.54-6.89,6.8-18.93,6.8c-13.2,0-33.9-3.4-62.09-10.18
		C1777.76,312.82,1783.19,295.69,1788.18,269.83 M1731.37,365.35c25.83,10.34,55.49,15.51,88.96,15.51
		c18.21,0,29.95-6.62,35.23-19.87c7.33-15.83,11.01-33.29,11.01-52.36c0-19.4-3.67-33.63-11.01-42.67
		c-5.87-8.73-19.96-20.04-42.28-33.94c-22.3-13.91-36.11-25.22-41.39-33.95c9.69,4.21,14.53,4.21,14.53,0
		c0-1.93-1.61-3.87-4.84-5.82c-29.36-21.65-47.12-32.48-53.29-32.48c-2.34,0-4.39,5.74-6.16,17.21
		c-1.77,11.48-2.35,17.86-1.77,19.15c1.18,3.56,3.52,6.3,7.03,8.25c-8.8,11.31-17.75,28.53-26.85,51.63
		c-9.1,23.12-13.66,40.97-13.66,53.59c0,11.96,2.5,22.13,7.49,30.54c-23.48,11.32-44.92,21.66-64.3,31.04
		c-34.35,16.49-67.37,43.31-99.09,80.48c-39.63,45.59-71.49,68.38-95.57,68.38c-27.59,0-41.38-16.49-41.38-49.46
		c0-25.21,7.19-50.75,21.57-76.61c12.04-22.62,18.06-34.59,18.06-35.89c0-1.93-0.88-2.9-2.64-2.9c-3.82,0-12.04,10.34-24.66,31.03
		c-17.91,29.1-26.87,59.81-26.87,92.15c0,26.5,7.19,47.03,21.57,61.58c12.04,13.24,27.31,19.87,45.81,19.87
		c22.89,0,50.06-17.94,81.47-53.83c26.42-29.73,45.37-49.62,56.82-59.64c18.49-16.47,39.48-29.57,62.97-39.26
		C1687.18,390.24,1714.93,376.35,1731.37,365.35"/>
	<path style="clip-path:url(#SVGID_00000121251771436074455860000016362748600594585487_);fill:#853135;" d="M1882.36,232.45
		c1.46,20.79,4.38,41.31,7.15,60.31l12.54,119.97c1.18,12.88-1.6,55.08,2.34,61.84c40.56-21.04,9.33-226.43,5.54-266.99
		l-8.67-106.37c7.82,9.27,27.99,16.24,30.23,13.24c0.61-0.84,0.07-1.45-0.8-3.84c-3.99-10.9-14.42-28.82-23.73-43.73
		c-5.79-9.27-11.91-21.85-17.17-30.78c-4.81-8.16-10.66-22.06-18.53-25.12c-8.6,6.89-5.11,14.79-8.03,25.89
		c-8.9,33.54-12.7,27.53-0.58,51.89C1872.15,107.89,1880.75,208.6,1882.36,232.45"/>
	<path style="clip-path:url(#SVGID_00000121251771436074455860000016362748600594585487_);" d="M1753.47,500.1
		c-49.7,20.83-54.57,20.23-104.72,41.26c-3.35,3.69-8.15,13.24-10.04,18.43c49.05-18.24,55.49-19.34,105.17-40.27
		C1745.05,517.24,1757.55,496.91,1753.47,500.1"/>
	<path style="clip-path:url(#SVGID_00000121251771436074455860000016362748600594585487_);" d="M1151.06,500.1
		c-63.41,20.83-69.65,20.23-133.62,41.26c-4.28,3.69-10.39,13.24-12.83,18.43c62.6-18.24,70.8-19.34,134.21-40.27
		C1140.32,517.24,1156.25,496.91,1151.06,500.1"/>
	<path style="clip-path:url(#SVGID_00000121251771436074455860000016362748600594585487_);" d="M2328.57,396.79l-1.01,1.1
		c-0.33,0.88-0.98,2.22-1.95,4.05c-3.63,6.69-6.73,10.04-9.3,10.04c-5.61,0-8.41-5.69-8.41-17.05c0-6.88,2.09-18.11,6.28-33.69
		c3.35-11.4,5.02-17.7,5.02-18.91h-0.31l-0.18,0.08c-0.8,1.01-1.71,2.56-2.76,4.67c-10.47,20.76-15.7,40.45-15.7,59.06v2.2
		c0,2.89,0.18,5.45,0.56,7.7c1.33,9.13,5.09,13.69,11.24,13.69h0.43c7.71,0,13.23-10.59,16.58-31.77c-0.12-0.77-0.26-1.16-0.43-1.16
		H2328.57z"/>
	<path style="clip-path:url(#SVGID_00000121251771436074455860000016362748600594585487_);" d="M1851.82,391.51h-0.31l-0.18,0.07
		c-0.8,1.01-1.73,2.56-2.77,4.68c-10.46,20.76-15.7,40.44-15.7,59.06v2.2c0,2.89,0.2,5.45,0.58,7.7
		c1.33,9.11,5.09,13.68,11.23,13.68h0.44c7.7,0,13.23-10.59,16.58-31.76c-0.13-0.78-0.27-1.18-0.44-1.18h-0.05l-1.01,1.11
		c-0.34,0.86-0.98,2.22-1.95,4.05c-3.65,6.69-6.75,10.04-9.3,10.04c-5.61,0-8.42-5.69-8.42-17.06c0-6.86,2.09-18.09,6.29-33.68
		C1850.15,399,1851.82,392.7,1851.82,391.51"/>
	<path style="clip-path:url(#SVGID_00000121251771436074455860000016362748600594585487_);" d="M1703.95,405.18h-0.31l-0.18,0.07
		c-0.8,1.01-1.73,2.56-2.77,4.68c-10.46,20.76-15.7,40.44-15.7,59.06v2.2c0,2.89,0.2,5.45,0.58,7.7
		c1.33,9.11,5.09,13.68,11.23,13.68h0.44c7.7,0,13.23-10.59,16.58-31.76c-0.12-0.78-0.27-1.18-0.44-1.18h-0.05l-1.01,1.11
		c-0.34,0.86-0.98,2.22-1.95,4.05c-3.65,6.69-6.75,10.04-9.3,10.04c-5.61,0-8.42-5.69-8.42-17.05c0-6.88,2.1-18.11,6.29-33.69
		C1702.28,412.67,1703.95,406.37,1703.95,405.18"/>
	<path style="clip-path:url(#SVGID_00000121251771436074455860000016362748600594585487_);" d="M1454.96,395.01h-0.31l-0.18,0.07
		c-0.8,1.01-1.73,2.58-2.77,4.68c-10.46,20.76-15.7,40.45-15.7,59.06v2.2c0,2.89,0.2,5.45,0.58,7.7
		c1.33,9.13,5.09,13.68,11.23,13.68h0.44c7.7,0,13.23-10.58,16.58-31.76c-0.12-0.78-0.27-1.16-0.43-1.16h-0.07l-1.01,1.1
		c-0.34,0.86-0.98,2.22-1.95,4.05c-3.65,6.69-6.75,10.04-9.3,10.04c-5.61,0-8.42-5.69-8.42-17.05c0-6.88,2.1-18.11,6.29-33.69
		C1453.29,402.5,1454.96,396.2,1454.96,395.01"/>
	<path style="clip-path:url(#SVGID_00000121251771436074455860000016362748600594585487_);" d="M867.01,118.78h0.55
		c9.49,0,16.32-13.06,20.45-39.18c-0.16-0.95-0.34-1.44-0.55-1.44h-0.08l-1.23,1.35c-0.42,1.09-1.22,2.75-2.41,5.01
		c-4.5,8.26-8.32,12.38-11.47,12.38c-6.92,0-10.38-7.01-10.38-21.02c0-8.49,2.58-22.34,7.74-41.56c4.13-14.08,6.2-21.86,6.2-23.32
		h-0.38l-0.24,0.09c-0.98,1.24-2.12,3.16-3.41,5.77c-12.9,25.61-19.36,49.89-19.36,72.85v2.71c0,3.57,0.24,6.73,0.69,9.5
		C854.8,113.16,859.41,118.78,867.01,118.78"/>
	<path style="clip-path:url(#SVGID_00000121251771436074455860000016362748600594585487_);" d="M1830.25,203.44h0.44
		c7.7,0,13.23-10.59,16.58-31.76c-0.13-0.78-0.27-1.18-0.44-1.18h-0.07l-1.01,1.1c-0.33,0.88-0.98,2.24-1.93,4.07
		c-3.65,6.69-6.75,10.03-9.3,10.03c-5.61,0-8.42-5.67-8.42-17.05c0-6.86,2.09-18.09,6.28-33.68c3.36-11.41,5.03-17.72,5.03-18.91
		h-0.31l-0.2,0.07c-0.8,1.01-1.71,2.56-2.76,4.68c-10.47,20.76-15.7,40.44-15.7,59.04v2.21c0,2.89,0.18,5.45,0.56,7.7
		C1820.35,198.88,1824.09,203.44,1830.25,203.44"/>
	<path style="clip-path:url(#SVGID_00000121251771436074455860000016362748600594585487_);fill:#853135;" d="M1990.72,288.18
		c-15.99-1.1-23.98-5.32-23.98-12.66c0-3.29,2.08-6.41,6.25-9.35c4.16-2.92,7.57-4.38,10.24-4.38c12.32,1.09,24.46,9.7,36.45,25.82
		C2011.7,288.73,2002.03,288.91,1990.72,288.18 M2377.54,228.44c9.28-16.02,13.17-24.03,11.61-24.03
		c-43.04,0-67.38-4.67-149.11-32.62c-27.25-9.88-59.6-23.18-97.06-39.89c-24.78-10.58-41.5-15.86-50.17-15.86
		c-4.64,0-15.68-0.08-27.76,2.31c-13.92,3.41-19.3,7.41-21.47,9.45c-2.16,2.04-7.35,9.88-15.55,23.52
		c-8.21,13.64-13.7,21.91-12.32,25.94c1.83,5.33,25.18,7.03,33.78,7.73c15.75,1.29,42.45,3.73,63.14,6.16
		c3.12,0.37,6.26-0.73,8.59-3.06c0.03-0.03,0.07-0.07,0.09-0.09c2.99-3.01,7.3-3.88,11.11-2.41
		c46.31,17.78,86.41,35.56,111.82,44.02c-48.24,11.47-98.06,44.01-180.58,51.7c-3.71-9.65-8.67-19.62-15.04-29.98
		c-16.63-26.76-33.95-40.87-51.93-42.33c-16.97-1.1-31.95,8.62-44.95,29.14c-11.65,18.32-17.48,36.83-17.48,55.54
		c0,31.89,17.98,47.84,53.94,47.84c25.64,0,42.9-4.52,60.42-8.81c7.49-1.83,6.5,15.04,6.5,24.2c0,14.66-23.96,41.79-71.91,81.37
		c-52.6,43.25-97.21,64.87-133.83,64.87c-25.98,0-46.37-9.52-61.19-28.58c-14.81-19.06-22.23-42.71-22.23-70.94
		c0-9.74,1.46-35.33-3.94-23.89c-1.49,3.16-8.81,31.93-8.81,58.53c0,35.56,3.43,64.15,18.75,85.78
		c16.64,23.82,40.78,35.73,72.4,35.73c33.63,0,73.24-18.15,118.86-54.44c39.61-31.14,69.58-63.21,89.9-96.21
		c11.2-18.02,17.26-44.35,18.26-78.78c113.1-13.06,238.53-76.76,274.03-76.76c13.94,0,13.82-1.14,14.43-1.14
		C2362.36,252.46,2368.24,244.46,2377.54,228.44"/>
	<path style="clip-path:url(#SVGID_00000121251771436074455860000016362748600594585487_);" d="M2217.16,11.35
		c-63.84,20.27-118.98,34.73-183.4,55.19c-4.52,4.65-11.43,17.36-14.3,24.62c62.78-16.51,120.02-33.4,183.86-53.66
		C2204.98,34.57,2222.53,7.56,2217.16,11.35"/>
	<path style="clip-path:url(#SVGID_00000121251771436074455860000016362748600594585487_);fill:#853135;" d="M2220.69,429.84h0.29
		c0.25,0,0.89-0.25,1.91-0.73c3.07-4.93,7.06-12.3,11.98-22.15c6.33-13.07,9.48-22.07,9.48-27c0-1.05-1.11-2.71-3.35-4.96
		c-23.94-19.61-39.04-30.54-45.3-32.79h-0.67c-0.71,0-1.59,0.6-2.68,1.79c-13.99,31.5-20.97,47.45-20.97,47.88
		c0,1.12,0.69,2.07,2.1,2.84c13.4,9.22,27.19,19.62,41.37,31.22C2217.65,428.54,2219.6,429.84,2220.69,429.84"/>
	<path style="clip-path:url(#SVGID_00000121251771436074455860000016362748600594585487_);" d="M2258.98,133.09h0.6
		c10.6,0,18.21-14.66,22.83-43.97c-0.18-1.07-0.38-1.61-0.61-1.61h-0.08l-1.39,1.52c-0.46,1.2-1.36,3.07-2.68,5.62
		c-5.02,9.26-9.28,13.88-12.79,13.88c-7.73,0-11.58-7.87-11.58-23.6c0-9.52,2.88-25.06,8.64-46.62c4.6-15.81,6.92-24.53,6.92-26.17
		h-0.43l-0.26,0.09c-1.1,1.4-2.37,3.56-3.8,6.47c-14.41,28.74-21.61,55.98-21.61,81.74v3.05c0,4,0.26,7.56,0.78,10.67
		C2245.36,126.77,2250.51,133.09,2258.98,133.09"/>
	<path style="clip-path:url(#SVGID_00000121251771436074455860000016362748600594585487_);" d="M2155.65,515.59l-1.49,1.48
		c-0.5,1.16-1.46,2.98-2.89,5.44c-5.4,8.98-10,13.48-13.78,13.48c-8.33,0-12.49-7.64-12.49-22.89c0-9.23,3.11-24.29,9.32-45.21
		c4.96-15.32,7.44-23.78,7.44-25.38h-0.46l-0.27,0.09c-1.19,1.35-2.55,3.44-4.11,6.28c-15.52,27.86-23.29,54.28-23.29,79.27v2.95
		c0,3.87,0.27,7.32,0.84,10.34c1.99,12.24,7.54,18.36,16.67,18.36h0.65c11.43,0,19.62-14.21,24.59-42.63
		c-0.18-1.05-0.41-1.57-0.65-1.57H2155.65z"/>
	<path style="clip-path:url(#SVGID_00000121251771436074455860000016362748600594585487_);" d="M1291.96,314.68h-0.47l-0.27,0.09
		c-1.18,1.35-2.55,3.45-4.09,6.28c-15.53,27.87-23.29,54.3-23.29,79.27v2.95c0,3.88,0.27,7.32,0.84,10.34
		c1.99,12.24,7.54,18.36,16.67,18.36h0.65c11.43,0,19.61-14.21,24.58-42.63c-0.18-1.05-0.39-1.57-0.64-1.57h-0.1l-1.49,1.48
		c-0.48,1.18-1.45,2.99-2.88,5.45c-5.41,8.98-10,13.47-13.79,13.47c-8.32,0-12.47-7.62-12.47-22.88c0-9.23,3.1-24.3,9.31-45.22
		C1289.47,324.73,1291.96,316.27,1291.96,314.68"/>
	<path style="clip-path:url(#SVGID_00000121251771436074455860000016362748600594585487_);" d="M1627.75,515.59l-1.49,1.48
		c-0.5,1.16-1.46,2.98-2.89,5.44c-5.4,8.98-9.99,13.48-13.78,13.48c-8.33,0-12.49-7.64-12.49-22.89c0-9.23,3.11-24.29,9.32-45.21
		c4.97-15.32,7.44-23.78,7.44-25.38h-0.46l-0.27,0.09c-1.19,1.35-2.55,3.44-4.11,6.28c-15.52,27.86-23.29,54.28-23.29,79.27v2.95
		c0,3.87,0.27,7.32,0.84,10.34c1.99,12.24,7.54,18.36,16.67,18.36h0.65c11.43,0,19.62-14.21,24.59-42.63
		c-0.18-1.05-0.41-1.57-0.65-1.57H1627.75z"/>
	<path style="clip-path:url(#SVGID_00000121251771436074455860000016362748600594585487_);" d="M897.72,228.9
		c9.54,0,16.4-11.87,20.55-35.64c-0.16-0.86-0.34-1.31-0.55-1.31h-0.08l-1.24,1.24c-0.42,0.97-1.22,2.48-2.42,4.55
		c-4.51,7.5-8.35,11.26-11.52,11.26c-6.96,0-10.43-6.38-10.43-19.13c0-7.71,2.6-20.32,7.79-37.8c4.14-12.8,6.22-19.87,6.22-21.21
		h-0.39l-0.24,0.08c-0.98,1.12-2.12,2.88-3.43,5.24c-12.97,23.29-19.45,45.38-19.45,66.25v2.47c0,3.24,0.24,6.12,0.71,8.64
		c1.65,10.24,6.3,15.35,13.92,15.35H897.72z"/>
	<path style="clip-path:url(#SVGID_00000121251771436074455860000016362748600594585487_);" d="M728.24,147.05h-0.47l-0.27,0.09
		c-1.18,1.35-2.55,3.45-4.09,6.28c-15.53,27.87-23.3,54.3-23.3,79.27v2.95c0,3.88,0.29,7.32,0.85,10.34
		c1.99,12.24,7.54,18.36,16.67,18.36h0.65c11.43,0,19.61-14.21,24.58-42.63c-0.18-1.05-0.39-1.57-0.64-1.57h-0.09l-1.5,1.48
		c-0.48,1.18-1.45,2.99-2.88,5.45c-5.41,8.98-10,13.47-13.79,13.47c-8.32,0-12.47-7.62-12.47-22.88c0-9.23,3.1-24.3,9.31-45.22
		C725.76,157.11,728.24,148.65,728.24,147.05"/>
	<path style="clip-path:url(#SVGID_00000121251771436074455860000016362748600594585487_);" d="M640.9,158.33
		c-0.18-1.05-0.41-1.57-0.65-1.57h-0.09l-1.49,1.48c-0.5,1.16-1.46,2.98-2.89,5.44c-5.4,8.98-9.99,13.48-13.78,13.48
		c-8.32,0-12.49-7.64-12.49-22.89c0-9.22,3.11-24.29,9.32-45.21c4.97-15.32,7.45-23.78,7.45-25.38h-0.47l-0.27,0.09
		c-1.19,1.35-2.55,3.44-4.11,6.28c-15.52,27.86-23.29,54.28-23.29,79.27v2.95c0,3.87,0.29,7.32,0.84,10.34
		c1.99,12.24,7.54,18.36,16.67,18.36h0.65C627.74,200.97,635.93,186.76,640.9,158.33"/>
	<path style="clip-path:url(#SVGID_00000121251771436074455860000016362748600594585487_);" d="M233.58,109.9h-0.47l-0.27,0.09
		c-1.18,1.36-2.55,3.45-4.09,6.28c-15.53,27.87-23.29,54.3-23.29,79.27v2.95c0,3.88,0.27,7.32,0.84,10.34
		c1.99,12.24,7.54,18.36,16.67,18.36h0.65c11.43,0,19.61-14.2,24.58-42.63c-0.18-1.05-0.39-1.57-0.64-1.57h-0.1l-1.49,1.48
		c-0.48,1.18-1.45,2.99-2.88,5.45c-5.41,8.98-10,13.47-13.79,13.47c-8.32,0-12.47-7.62-12.47-22.88c0-9.23,3.1-24.3,9.31-45.22
		C231.1,119.95,233.58,111.49,233.58,109.9"/>
	<path style="clip-path:url(#SVGID_00000121251771436074455860000016362748600594585487_);" d="M300.32,128.04h0.65
		c11.43,0,19.62-14.21,24.59-42.63c-0.2-1.05-0.41-1.57-0.65-1.57h-0.09l-1.49,1.48c-0.5,1.16-1.46,2.98-2.89,5.44
		c-5.4,8.98-10,13.48-13.79,13.48c-8.32,0-12.47-7.64-12.47-22.89c0-9.23,3.1-24.29,9.31-45.21c4.97-15.32,7.45-23.78,7.45-25.39
		h-0.46l-0.29,0.1c-1.18,1.35-2.55,3.44-4.09,6.28c-15.53,27.86-23.29,54.28-23.29,79.27v2.95c0,3.87,0.27,7.32,0.84,10.33
		C285.64,121.92,291.2,128.04,300.32,128.04"/>
	<path style="clip-path:url(#SVGID_00000121251771436074455860000016362748600594585487_);" d="M125.4,335.66h-0.47l-0.27,0.09
		c-1.18,1.36-2.55,3.45-4.09,6.28c-15.53,27.87-23.3,54.3-23.3,79.27v2.95c0,3.88,0.29,7.32,0.85,10.34
		c1.99,12.24,7.54,18.36,16.67,18.36h0.65c11.43,0,19.61-14.2,24.58-42.63c-0.18-1.05-0.39-1.57-0.64-1.57h-0.1l-1.49,1.48
		c-0.5,1.18-1.45,2.99-2.88,5.45c-5.41,8.98-10,13.47-13.79,13.47c-8.32,0-12.47-7.62-12.47-22.88c0-9.23,3.1-24.3,9.31-45.22
		C122.92,345.71,125.4,337.25,125.4,335.66"/>
	<path style="clip-path:url(#SVGID_00000121251771436074455860000016362748600594585487_);" d="M35.11,249.45h0.65
		c11.43,0,19.62-14.21,24.59-42.63c-0.2-1.05-0.41-1.57-0.65-1.57h-0.09l-1.49,1.48c-0.5,1.16-1.46,2.98-2.89,5.44
		c-5.4,8.98-10,13.48-13.79,13.48c-8.32,0-12.47-7.64-12.47-22.89c0-9.23,3.1-24.29,9.31-45.21c4.97-15.32,7.45-23.78,7.45-25.39
		h-0.46l-0.29,0.1c-1.18,1.35-2.55,3.44-4.09,6.28c-15.53,27.86-23.29,54.28-23.29,79.27v2.95c0,3.87,0.27,7.32,0.84,10.33
		C20.43,243.33,25.99,249.45,35.11,249.45"/>
	<path style="clip-path:url(#SVGID_00000121251771436074455860000016362748600594585487_);" d="M2388.74,515.59l-1.49,1.48
		c-0.5,1.16-1.45,2.98-2.89,5.44c-5.4,8.98-9.99,13.48-13.78,13.48c-8.33,0-12.49-7.64-12.49-22.89c0-9.23,3.11-24.29,9.32-45.21
		c4.97-15.32,7.45-23.78,7.45-25.38h-0.47l-0.27,0.09c-1.19,1.35-2.55,3.44-4.11,6.28c-15.52,27.86-23.29,54.28-23.29,79.27v2.95
		c0,3.87,0.29,7.32,0.84,10.34c1.99,12.24,7.54,18.36,16.67,18.36h0.65c11.43,0,19.62-14.21,24.59-42.63
		c-0.18-1.05-0.41-1.57-0.65-1.57H2388.74z"/>
	<path style="clip-path:url(#SVGID_00000121251771436074455860000016362748600594585487_);" d="M1977.86,128.28h0.65
		c11.43,0,19.62-14.21,24.59-42.63c-0.2-1.05-0.41-1.57-0.65-1.57h-0.09l-1.49,1.48c-0.5,1.16-1.46,2.98-2.89,5.44
		c-5.4,8.98-10,13.48-13.79,13.48c-8.32,0-12.47-7.64-12.47-22.89c0-9.23,3.1-24.3,9.31-45.22c4.97-15.31,7.45-23.77,7.45-25.38
		h-0.46l-0.29,0.09c-1.18,1.36-2.55,3.45-4.09,6.28c-15.53,27.87-23.28,54.3-23.28,79.28v2.95c0,3.87,0.27,7.32,0.84,10.33
		C1963.18,122.16,1968.73,128.28,1977.86,128.28"/>
	<path style="clip-path:url(#SVGID_00000121251771436074455860000016362748600594585487_);" d="M1778.57,128.28h0.65
		c11.43,0,19.62-14.21,24.59-42.63c-0.2-1.05-0.41-1.57-0.65-1.57h-0.09l-1.49,1.48c-0.5,1.16-1.46,2.98-2.89,5.44
		c-5.4,8.98-10,13.48-13.79,13.48c-8.32,0-12.47-7.64-12.47-22.89c0-9.23,3.1-24.3,9.31-45.22c4.97-15.31,7.45-23.77,7.45-25.38
		h-0.47l-0.27,0.09c-1.18,1.36-2.55,3.45-4.09,6.28c-15.53,27.87-23.29,54.3-23.29,79.28v2.95c0,3.87,0.27,7.32,0.84,10.33
		C1763.89,122.16,1769.44,128.28,1778.57,128.28"/>
	<path style="clip-path:url(#SVGID_00000121251771436074455860000016362748600594585487_);" d="M2061.78,523.26l-1.11,1.22
		c-0.37,0.97-1.09,2.47-2.14,4.5c-4.01,7.43-7.44,11.14-10.25,11.14c-6.2,0-9.28-6.3-9.28-18.92c0-7.62,2.3-20.08,6.93-37.37
		c3.69-12.67,5.53-19.66,5.53-20.98h-0.34l-0.21,0.08c-0.88,1.11-1.9,2.85-3.05,5.19c-11.54,23.04-17.32,44.87-17.32,65.53v2.43
		c0,3.2,0.21,6.05,0.63,8.55c1.48,10.12,5.61,15.18,12.39,15.18h0.48c8.5,0,14.6-11.75,18.29-35.25c-0.13-0.86-0.3-1.29-0.48-1.29
		H2061.78z"/>
	<path style="clip-path:url(#SVGID_00000121251771436074455860000016362748600594585487_);" d="M419.74,523.26l-1.11,1.22
		c-0.37,0.97-1.09,2.47-2.14,4.5c-4.01,7.43-7.44,11.14-10.25,11.14c-6.2,0-9.28-6.3-9.28-18.92c0-7.62,2.3-20.08,6.93-37.37
		c3.69-12.67,5.53-19.66,5.53-20.98h-0.34l-0.21,0.08c-0.88,1.11-1.9,2.85-3.05,5.19c-11.54,23.04-17.32,44.87-17.32,65.53v2.43
		c0,3.2,0.21,6.05,0.63,8.55c1.48,10.12,5.61,15.18,12.39,15.18H402c8.5,0,14.6-11.75,18.29-35.25c-0.13-0.86-0.3-1.29-0.48-1.29
		H419.74z"/>
	<path style="clip-path:url(#SVGID_00000121251771436074455860000016362748600594585487_);" d="M409.42,93.84h-0.35l-0.2,0.08
		c-0.89,1.11-1.9,2.85-3.06,5.19c-11.54,23.04-17.31,44.87-17.31,65.51v2.44c0,3.2,0.21,6.05,0.61,8.55
		c1.48,10.12,5.62,15.18,12.41,15.18h0.48c8.5,0,14.59-11.75,18.29-35.25c-0.14-0.86-0.3-1.29-0.48-1.29h-0.07l-1.11,1.22
		c-0.37,0.97-1.09,2.47-2.16,4.51c-4.01,7.41-7.43,11.13-10.25,11.13c-6.18,0-9.28-6.3-9.28-18.92c0-7.62,2.31-20.08,6.93-37.38
		C407.58,102.16,409.42,95.16,409.42,93.84"/>
	<path style="clip-path:url(#SVGID_00000121251771436074455860000016362748600594585487_);" d="M2388.87,332.99l-1.23,1.35
		c-0.41,1.07-1.2,2.73-2.37,4.98c-4.45,8.21-8.22,12.32-11.35,12.32c-6.84,0-10.26-6.97-10.26-20.92c0-8.43,2.55-22.21,7.66-41.34
		c4.09-14,6.13-21.73,6.13-23.19h-0.38l-0.24,0.08c-0.97,1.24-2.09,3.15-3.37,5.74c-12.77,25.48-19.15,49.63-19.15,72.47v2.69
		c0,3.54,0.24,6.69,0.69,9.45c1.63,11.19,6.21,16.77,13.72,16.77h0.54c9.4,0,16.13-12.98,20.23-38.96
		c-0.16-0.95-0.34-1.44-0.54-1.44H2388.87z"/>
	<path style="clip-path:url(#SVGID_00000121251771436074455860000016362748600594585487_);" d="M2388.87,146.29l-1.23,1.35
		c-0.41,1.07-1.2,2.73-2.37,4.98c-4.45,8.21-8.22,12.32-11.35,12.32c-6.84,0-10.26-6.97-10.26-20.92c0-8.43,2.55-22.21,7.66-41.34
		c4.09-14,6.13-21.73,6.13-23.19h-0.38l-0.24,0.08c-0.97,1.24-2.09,3.15-3.37,5.74c-12.77,25.48-19.15,49.63-19.15,72.47v2.69
		c0,3.54,0.24,6.69,0.69,9.45c1.63,11.19,6.21,16.79,13.72,16.79h0.54c9.4,0,16.13-13,20.23-38.97c-0.16-0.95-0.34-1.44-0.54-1.44
		H2388.87z"/>
	<path style="clip-path:url(#SVGID_00000121251771436074455860000016362748600594585487_);" d="M2388.4,23.59
		c-4.59-8.41-9.32-12.6-14.21-12.6c-6.64,0-12.7,5.88-18.16,17.64c-0.77,1.29-1.78,4.33-3.01,9.13c-3.19,11.22-5.84,22.3-7.96,33.27
		c0,1.29-0.51,3.12-1.54,5.49l-0.31-0.14l-1.92-10.32c-1.91-7.95-3.95-14.25-6.11-18.89c-8.55-17.94-18.47-26.91-29.74-26.91h-0.24
		c-0.21,0-0.47,0.12-0.77,0.37c-2.26,2.67-4.67,6.28-7.19,10.83c-2.98,4.89-4.47,7.58-4.47,8.08c0,1.39,1.02,3.19,3.09,5.41
		c6.03,5.48,10.68,8.22,13.99,8.22c2.1,0,3.46-0.5,4.09-1.48c0.3-0.99,1.18-1.49,2.63-1.49h0.61c2.88,0,8.47,10.68,16.76,32.02
		c2.84,8.35,4.25,13.66,4.25,15.94c0,4.01,0.55,6,1.62,6h0.31c0.41,0,0.95-0.21,1.62-0.65c2.1-2.08,3.48-3.96,4.09-5.63
		c1.8-3.27,3.77-9.54,5.87-18.83c5.73-31.34,11.68-47,17.85-47h0.31c2.73,0,5.28,1.39,7.65,4.16c2.73,3.5,4.52,5.26,5.4,5.26h0.16
		c1.14,0,2.3-1.06,3.48-3.19c1.96-4.48,2.94-7.9,2.94-10.22v-0.52C2389.49,26.38,2389.12,25.06,2388.4,23.59"/>
	<path style="clip-path:url(#SVGID_00000121251771436074455860000016362748600594585487_);" d="M1682.06,35.24
		c0.13-0.03,0.13-0.03,0.27-0.04c0,0-0.03-0.16,0.1-0.33c2.88-1.78,5.4-2.89,8.56-1.02c2.44,1.82,3.27,2.94,4.45,5.86
		c0.01,1.37,0.01,2.61,0.17,3.97c-0.26,1.41-0.78,3.03-1.48,4.2c-4.22-0.18-7.31-2.68-10.51-5.01c-0.01-0.16-0.04-0.31,0.08-0.48
		c-1.27-0.13-2.42-2.89-2.95-3.9C1680.75,37.27,1681.49,36.39,1682.06,35.24 M1592.78,138.76c3.69-2.05,8.62-1.8,12.43-3.87
		c8.25-2.51,16.5-5.03,24.89-7.57c4.79-2.2,9.18-5.41,13.74-8.35c0.9-0.73,1.93-1.49,2.97-2.25c2.04-1.82,4.21-3.66,6.38-5.49
		c1.69-1.16,3.22-2.44,4.86-3.91c3.26-2.13,6.22-5.62,9.15-8.18c2.98-3.33,5.96-6.65,8.94-9.99c4.25-5.67,8.72-11.98,13.74-16.97
		c4.17,0.97,8.9,0.77,13.13,0.97c3.69-0.82,4.16-0.42,6.45-3.66c3.18-5.36,5.11-11.64,7.11-17.44c-0.07-0.61-0.13-1.22-0.21-1.82
		c-4.47,1.23-10.6,1.45-14.87-0.27c-0.05-0.44-0.12-1.06-0.05-1.69c2.35-6.47,4.52-13.23,6.13-19.93c0.1-2.78,0.21-5.57,0.31-8.34
		c-0.6-1.62-1.2-3.23-1.65-4.71c-1.75-1.75-3.46-3.37-5.79-4.13c-1.41-0.1-2.97-0.21-4.35-0.17c-3.4,0.93-6.01,2.52-8.88,4.46
		c-1.4,1.27-2.65,2.51-4.05,3.79c-4.12,5.63-7.67,12.43-11.19,18.46c-1.67,5.01-3.87,10.22-4.12,15.49
		c0.26,1.05,0.41,2.25,0.67,3.45c1.23,4.6,3.66,7.49,7.2,10.39c1.36,0.89,2.71,1.62,4.2,2.35c-0.35,0.65-0.71,1.18-1.07,1.69
		c-0.14,0.01-0.14,0.01-0.27,0.03c-0.3,1.12-2.82,3.48-3.57,4.34c-2.77,2.69-5.41,5.36-8.04,8.03c-3.09,2.43-5.91,4.67-8.72,7.05
		c-9.61,9.02-20.08,16.62-30.87,23.94c-9.86,5.67-19.57,11.31-29.44,16.83c-1.28,0.94-2.58,1.9-3.87,2.84
		c-1.19,0.63-3.87,1.61-4.45,2.77C1589.61,139.19,1591.09,138.68,1592.78,138.76"/>
	<path style="clip-path:url(#SVGID_00000121251771436074455860000016362748600594585487_);" d="M1649.14,201.17h-0.31l-0.18,0.07
		c-0.8,1.01-1.73,2.58-2.77,4.68c-10.46,20.76-15.7,40.44-15.7,59.06v2.2c0,2.89,0.2,5.45,0.58,7.7
		c1.33,9.11,5.09,13.68,11.23,13.68h0.44c7.7,0,13.23-10.59,16.58-31.76c-0.12-0.78-0.27-1.16-0.44-1.16h-0.05l-1.01,1.1
		c-0.34,0.86-0.98,2.22-1.95,4.05c-3.65,6.69-6.75,10.04-9.3,10.04c-5.61,0-8.42-5.69-8.42-17.05c0-6.88,2.1-18.11,6.29-33.69
		C1647.46,208.66,1649.14,202.36,1649.14,201.17"/>
	<path style="clip-path:url(#SVGID_00000121251771436074455860000016362748600594585487_);" d="M1504.09,157h-0.31l-0.18,0.07
		c-0.8,1.01-1.73,2.58-2.77,4.68c-10.46,20.76-15.7,40.44-15.7,59.06v2.2c0,2.89,0.2,5.45,0.58,7.7
		c1.33,9.11,5.09,13.68,11.23,13.68h0.44c7.7,0,13.23-10.59,16.58-31.76c-0.13-0.78-0.27-1.16-0.44-1.16h-0.05l-1.01,1.1
		c-0.34,0.86-0.98,2.22-1.95,4.05c-3.65,6.69-6.75,10.04-9.3,10.04c-5.61,0-8.42-5.69-8.42-17.05c0-6.88,2.09-18.11,6.29-33.69
		C1502.42,164.5,1504.09,158.19,1504.09,157"/>
</g>
</svg>
