<?xml version="1.0" encoding="utf-8"?>
<!-- Generator: Adobe Illustrator 28.0.0, SVG Export Plug-In . SVG Version: 6.00 Build 0)  -->
<svg version="1.1" id="Layer_1" xmlns="http://www.w3.org/2000/svg" xmlns:xlink="http://www.w3.org/1999/xlink" x="0px" y="0px"
	 viewBox="0 0 2500 573.12" style="enable-background:new 0 0 2500 573.12;" xml:space="preserve">
<style type="text/css">
	
		.st0{clip-path:url(#SVGID_00000082334586784861958800000008231615394567635599_);fill-rule:evenodd;clip-rule:evenodd;fill:#853135;}
	.st1{clip-path:url(#SVGID_00000082334586784861958800000008231615394567635599_);fill-rule:evenodd;clip-rule:evenodd;}
	.st2{clip-path:url(#SVGID_00000082334586784861958800000008231615394567635599_);}
	.st3{clip-path:url(#SVGID_00000082334586784861958800000008231615394567635599_);fill:#853135;}
	.st4{clip-path:url(#SVGID_00000005966373500159043060000001287627380725972874_);fill:#853135;}
	.st5{clip-path:url(#SVGID_00000005966373500159043060000001287627380725972874_);}
	.st6{fill-rule:evenodd;clip-rule:evenodd;fill:#853135;}
	.st7{fill-rule:evenodd;clip-rule:evenodd;}
	.st8{fill:#853135;}
</style>
<g>
	<defs>
		<rect id="SVGID_1_" x="20.66" y="16.8" width="2462.25" height="538.61"/>
	</defs>
	<clipPath id="SVGID_00000158009900357574471170000005775460824266435456_">
		<use xlink:href="#SVGID_1_"  style="overflow:visible;"/>
	</clipPath>
	
		<path style="clip-path:url(#SVGID_00000158009900357574471170000005775460824266435456_);fill-rule:evenodd;clip-rule:evenodd;fill:#853135;" d="
		M1044.94,401.29c0,6.95-1.62,24.37,1.77,29.48c11.53-0.39,11.24-11.28,15.68-32.63c17.44-85.43-24.11-286.55-18.05-298.74
		c9.47,4.19,7.24,2.88,14.49,9.83c5.48,5.1,18.94,14.15,17.76,1.31c-0.74-7.86-46-86.87-53.99-90.41
		c-6.35,5.64-15.38,27.39-19.22,36.29c-7.11,15.99,11.38,14.68,11.68,40.23C1016.25,192.29,1044.94,296.72,1044.94,401.29"/>
	
		<path style="clip-path:url(#SVGID_00000158009900357574471170000005775460824266435456_);fill-rule:evenodd;clip-rule:evenodd;" d="
		M244.38,288.43l8.15-24.39c-7.46-8.22-18.64-13.09-26.93-23c19.83-25.9,235.26-96.78,282.3-114.27c5.32-1.97,9.27-6.49,10.51-12.06
		l0.04-0.14c1.08-4.89,2.7-15.83,2.7-15.83l-186.37,64.82c-26.22,10.03-73.85,30.37-98.7,43.76c-16.84,8.93-27.33,19.8-27.33,41.53
		c0.14,16.58,1.11,15.05,10.9,24.11C226.43,279.37,233.75,286.75,244.38,288.43"/>
	
		<path style="clip-path:url(#SVGID_00000158009900357574471170000005775460824266435456_);fill-rule:evenodd;clip-rule:evenodd;" d="
		M901.84,180.06c-2.77,5.16-10.49,17.42-9.94,23.83l48.86-0.84c-1.92,3.06,0.28,0.56-3.17,3.48c-13.81,11.85-45,17-59.91,22.58
		l30.1,1.26c7.6-0.98,20.42-3.48,26.91-6.69c7.04-3.48,27.88-30.23,25.13-43.06C950.02,177.27,915.1,179.78,901.84,180.06"/>
	
		<path style="clip-path:url(#SVGID_00000158009900357574471170000005775460824266435456_);fill-rule:evenodd;clip-rule:evenodd;" d="
		M1218.49,104.44c21.81-6.83,142.73-48.09,161.37-57.56c4.41-2.23,7.86-8.09,12.84-15.75c1.79-2.65,6.06-7.67,5.24-11.01
		c-1.24,0.28-9.12,3.2-11.18,4.04c-44.18,18.96-89.87,31.77-134.46,48.09c-17.39,6.4-15.87,3.2-22.08,11.15
		c-3.45,5.02-6.21,10.03-9.11,15.19C1220.01,100.55,1218.77,102.63,1218.49,104.44"/>
	<path style="clip-path:url(#SVGID_00000158009900357574471170000005775460824266435456_);" d="M609.27,104.44h0.09
		c0.78,0,2.75,1.33,5.92,3.99c21.96,18.12,32.93,42.07,32.93,71.83c0,10.39-2.3,20.75-6.9,31.07c-1.13,1.82-2.06,2.73-2.78,2.73
		h-0.36c-0.89,0-1.35-0.88-1.35-2.63c0-0.55,0.57-4.2,1.71-10.97c0.35-3.31,0.54-6.42,0.54-9.32v-2.27
		c0-20.11-11.16-40.76-33.48-61.96c-0.11,0-1.04-0.81-2.78-2.44c-1.67-1.33-2.5-2.51-2.5-3.54v-0.72c0-1.08,1.16-3.53,3.5-7.34
		c2.75-5.19,4.28-7.87,4.58-8.05C608.66,104.57,608.96,104.44,609.27,104.44"/>
	<path style="clip-path:url(#SVGID_00000158009900357574471170000005775460824266435456_);fill:#853135;" d="M1333.63,182.94
		c0.23,0,0.8-0.2,1.72-0.61c2.75-4.06,6.35-10.16,10.78-18.27c5.68-10.79,8.54-18.22,8.54-22.28c0-0.88-1.01-2.23-3.02-4.09
		c-21.56-16.19-35.15-25.22-40.79-27.07h-0.6c-0.63,0-1.43,0.5-2.41,1.47c-12.58,26-18.88,39.17-18.88,39.52
		c0,0.93,0.64,1.71,1.9,2.35c12.07,7.61,24.49,16.19,37.24,25.76c2.53,2.15,4.29,3.23,5.26,3.23H1333.63z"/>
	<path style="clip-path:url(#SVGID_00000158009900357574471170000005775460824266435456_);fill:#853135;" d="M1155.37,276.6
		c0.24,0,0.84-0.22,1.81-0.63c2.91-4.28,6.68-10.69,11.34-19.24c5.97-11.35,8.97-19.16,8.97-23.44c0-0.91-1.06-2.35-3.17-4.3
		c-22.68-17.03-36.97-26.51-42.9-28.47h-0.63c-0.67,0-1.51,0.52-2.54,1.55c-13.24,27.35-19.86,41.2-19.86,41.57
		c0,0.98,0.67,1.8,1.99,2.48c12.7,8,25.76,17.03,39.18,27.1c2.67,2.26,4.52,3.39,5.53,3.39H1155.37z"/>
	<path style="clip-path:url(#SVGID_00000158009900357574471170000005775460824266435456_);fill:#853135;" d="M940.02,506.77
		c0.21,0,0.77-0.19,1.65-0.58c2.63-3.87,6.05-9.68,10.26-17.42c5.42-10.29,8.14-17.36,8.14-21.23c0-0.83-0.96-2.13-2.88-3.9
		c-20.54-15.43-33.49-24.04-38.86-25.8h-0.57c-0.6,0-1.37,0.47-2.3,1.41c-12,24.77-18,37.33-18,37.66c0,0.89,0.6,1.64,1.81,2.23
		c11.49,7.25,23.33,15.44,35.49,24.56c2.41,2.04,4.07,3.07,5.01,3.07H940.02z"/>
	<path style="clip-path:url(#SVGID_00000158009900357574471170000005775460824266435456_);fill:#853135;" d="M792.3,313.38
		c0.23,0,0.82-0.2,1.75-0.62c2.79-4.11,6.44-10.29,10.92-18.51c5.77-10.93,8.65-18.46,8.65-22.58c0-0.89-1.02-2.27-3.06-4.15
		c-21.85-16.41-35.62-25.55-41.33-27.43h-0.6c-0.64,0-1.46,0.5-2.45,1.5c-12.75,26.35-19.13,39.69-19.13,40.05
		c0,0.94,0.64,1.73,1.92,2.37c12.22,7.71,24.8,16.41,37.73,26.11c2.57,2.17,4.34,3.26,5.33,3.26H792.3z"/>
	<path style="clip-path:url(#SVGID_00000158009900357574471170000005775460824266435456_);fill:#853135;" d="M397.42,551.1
		c0.2,0,0.72-0.18,1.55-0.55c2.48-3.64,5.7-9.1,9.66-16.39c5.11-9.68,7.66-16.34,7.66-19.99c0-0.77-0.91-2.01-2.7-3.67
		c-19.33-14.51-31.52-22.6-36.57-24.28h-0.54c-0.57,0-1.28,0.44-2.16,1.33c-11.29,23.31-16.93,35.12-16.93,35.44
		c0,0.83,0.57,1.54,1.7,2.11c10.83,6.82,21.96,14.51,33.4,23.11c2.26,1.92,3.84,2.88,4.72,2.88H397.42z"/>
	<path style="clip-path:url(#SVGID_00000158009900357574471170000005775460824266435456_);" d="M68.6,105.12l-1.7,1.71
		c-0.57,1.36-1.67,3.47-3.29,6.34c-6.16,10.45-11.41,15.67-15.73,15.67c-9.5,0-14.25-8.88-14.25-26.61
		c0-10.73,3.55-28.27,10.64-52.59c5.66-17.82,8.5-27.64,8.5-29.51h-0.54l-0.31,0.11c-1.35,1.57-2.91,4-4.68,7.29
		c-17.71,32.42-26.57,63.15-26.57,92.19v3.44c0,4.51,0.33,8.51,0.96,12.02c2.28,14.23,8.61,21.34,19.03,21.34h0.74
		c13.04,0,22.4-16.52,28.07-49.57c-0.21-1.22-0.47-1.83-0.75-1.83H68.6z"/>
	<path style="clip-path:url(#SVGID_00000158009900357574471170000005775460824266435456_);fill:#853135;" d="M1634.25,282.92
		c-2.1-9.73-6.04-16.37-11.7-19.74l-1.7-1.02l-1.19,1.57c-4.99,6.49-6.14,12.98-7.47,20.48c-0.44,2.43-0.89,4.98-1.51,7.72
		c-2.92,13.42-2.54,15.12-0.79,18.97c0.75,1.7,1.77,3.95,2.68,9.31c-13.72,3.86-24.05,3.42-31.52-1.37
		c-11.83-7.58-14.41-24.85-16.68-40.09l-0.7-4.63l-2.06,0.18c-10.07,0.83-14.2,10.34-18.98,21.36
		c-5.12,11.8-10.92,25.18-25.37,32.82c-11.51,6.18-26.39,5.02-36.22-2.84c-9.87-7.91-9.77-11.45-9.55-19.2
		c0.11-3.57,0.25-8.02-0.54-13.89l-0.31-2.36l-2.31,0.44c-8.74,1.7-13.04,10.5-17.59,19.8c-4.6,9.37-9.8,19.99-20.31,25.74
		c-9.62,5.27-19.57,6.32-28.76,3.06c-9.22-3.28-16.95-10.62-20.71-19.66c-10.65-25.62-15.82-54-19.96-76.82
		c-4.55-25-6.99-37.14-12.92-39.85c-1.28-0.6-3.35-0.96-5.9,0.57c-5.57,3.35-10.83,14.62-16.9,27.64
		c-5.38,11.49-11.46,24.52-16.85,28.48c-6.25,4.6-17.86,8.7-28.61,6.91c-7.77-1.31-14.14-5.45-18.91-12.3l-2.18-3.16
		c-4.35-6.34-5.97-8.71-11.68-11.38l-1.61-0.76l-1.08,1.42c-5.46,7.07-6.39,16.3-7.29,25.24c-0.28,2.88-0.58,5.75-1.02,8.51
		c-1.95,11.55,5.02,22.25,13.08,34.61c8.75,13.45,18.69,28.7,22.26,50.45c3.26,19.52-54.48,58.78-82.95,74.74
		c-45.39,25.71-138.74,37.57-174.69,1.28c-9.97-10.08-15.78-22.93-17.46-28.32c-13.88-44.68-4.88-72.14,3.82-98.66
		c5.68-17.33,11.05-33.71,10.26-54.12c-0.52-12.9-8.72-18.12-14.84-20.91l-0.77-0.2c-7.55-0.62-14.27,9.05-23.91,22.27
		c-15.13,20.74-35.83,49.15-67.28,49.15c-19.1,0-22.71-8.84-26.52-18.2c-3.22-7.91-6.55-16.09-19.03-17.61l-1.99-0.24l-8.36,36.9
		c-1.27,3.23-2.28,5.27-2.96,6.67c-1.9,3.89-1.8,4.85,0.82,7.99c2.52,3.01,8.4,10.08,18.75,32.84
		c23.98,52.66,21.68,56.76-6.62,77.95c-65.9,49.22-123.63,73.14-176.46,73.14c-50.81,0-121.19-32.77-121.19-94.33
		c0-5.97,1.66-17.81,3.43-30.36c3.62-25.73,5.77-42.94,2.89-47.86l-1.19-2.04l-1.96,1.32c-6.6,4.44-7.13,6.7-9.63,17.52
		c-11.33,48.89-18.24,100.32,7.7,145.34c18.4,31.62,61.89,62.03,117.97,62.03c7.19,0,14.59-0.5,22.17-1.56
		c50.53-7.16,110.87-41.53,138.57-60.72c57.02-39.59,57.15-66.4,57.29-137.86c24.51-1.96,44.11-18.15,56.36-31.59
		c9.26-10.25,23.97-28.8,34.69-42.56c1.62-2.07,2.63-3.01,3.51-3.85l0.94-0.9c0.34-0.34,1.48-1.38,2.18-0.84
		c0.74,0.57,1.17,2.54-0.24,4.95c-10.35,17.75-44.22,97.59-20.66,163.91c15.73,44.28,58.93,68.67,121.64,68.67
		c52.48,0,111.49-37.38,138.17-59.55l37.53-35.12c6.98-9.16,16.41-22.6,17.71-33.74c0.29-2.68,0.65-5.35,1.02-8.01
		c0.65-4.79,1.33-9.74,1.61-14.84c0.64-13.32-0.77-22.36-2.13-31.11c-0.65-4.14-1.32-8.42-1.75-13.12c1.5-0.7,3.32-1.33,5.36-2.04
		c8.34-2.89,19.76-6.87,30.25-21.36c6.82-9.47,9.9-21.8,12.36-31.71c1.13-4.53,2.15-8.65,3.36-11.89c4.78,11.45,6.8,28.29,8.94,46
		c5.12,42.31,11.47,94.95,61.89,94.95c23.72,0,37.28-22.2,43.02-34.7c0.42,0.53,0.84,1.1,1.3,1.69
		c7.09,9.38,21.85,28.94,52.42,23.36c19.38-3.49,26.98-16.35,33.52-30.14l6.77-10.81c6.43,15.82,23.23,29.73,40.27,32.72
		c14,2.49,26.21-2.6,34.36-14.31C1631.64,344.78,1639.54,307.45,1634.25,282.92"/>
	<path style="clip-path:url(#SVGID_00000158009900357574471170000005775460824266435456_);fill:#853135;" d="M562.32,278.59
		l0.38,3.78c5.42,53.84,12.84,127.57,52.34,156.41c15.77,11.52,35.57,14.93,58.87,10.16c1.19,4.47,1.97,7.76,2.55,10.16l0.74,3.02
		c0.57,2.17,1.02,3.43,1.9,4.36c1.06,1.09,2.3,1.27,3.86,1.49c0.13,0.01,0.24,0.03,0.38,0.03c1.99,0,4.72-2.07,5.42-3.48
		c2.53-5.02,2.38-19.05,2.26-23.59c36.08-24.67,46.62-40.12,46.62-92.31c0-22.02-5.27-33.05-14.97-45.69
		c-8.87-11.66-17.52-16.42-25.91-14.08c-19.15,5.36-27.82,47.17-28.74,55.21c-0.57,5.61-0.74,14.81-0.93,24.53
		c-0.21,11.95-0.47,25.36-1.57,31.46c-14.92,1.35-28.05-2.81-38.94-12.29c-30.83-26.91-39.19-90.45-40.79-139.01
		c-0.87-23.99-12.77-214.31-24.03-229.93l-1.41-1.97l-1.84,1.57c-6.69,5.73-19.18,37.39-16.6,49.04
		c8.65,38.12,12.01,90.99,15.26,142.11C558.78,234.49,560.27,258.04,562.32,278.59 M704.85,337.53
		c7.76,4.13,16.46,15.78,19.97,26.82c-4.97,10.67-19.72,22.91-34.3,28.66c0.14-4.06,0.11-8.32,0.08-12.47
		C690.45,362.27,690.3,343.39,704.85,337.53"/>
	<path style="clip-path:url(#SVGID_00000158009900357574471170000005775460824266435456_);fill:#853135;" d="M540.04,335.87
		l-1.52-0.23c-8.56-1.35-18.71-1.83-28.52-2.3c-8.82-0.42-17.93-0.85-26.05-1.9c-22.18-2.96-63.2-13.94-93.69-22.64
		c-47.93-13.68-102.26-29.18-133.9,20.89c-18.61,29.46-10.33,52.85-1.56,77.61c1.23,3.5,2.52,7.09,3.71,10.72
		c-9.17-9.07-14.41-21.28-19.91-34.11c-7.36-17.12-14.95-34.83-32.56-48.53l-1.08-0.85l-1.25,0.61
		c-20.47,10.02-40.24,35.33-52.86,67.68c-3.19,8.15-5.21,21.26-7.56,36.43c-4.44,28.82-9.99,64.71-25.93,71.01
		c-6.68,2.62-15.19-0.18-25.32-8.3c-28.77-23.08-41.15-101.58-36.71-143.36c0.52-4.88,1.38-10.36,2.24-15.67
		c2.83-17.81,4.18-28.01-0.94-30.26c-0.96-0.42-2.01-0.29-2.93,0.33c-5.73,3.8-15.23,37.24-15.23,66.16v22.68
		c0,41.48,20.88,108.96,47.8,133.78c14.39,13.26,26.37,19.8,36.38,19.8c2.54,0,4.94-0.42,7.23-1.26
		c19.18-7.02,23.95-42.12,27.77-70.32c1.19-8.88,2.34-17.26,3.79-23.52c4.15-18.36,20.31-66.45,45.34-71.41
		c8.1,7.29,12.11,18.48,16.34,30.31c2.88,8.06,5.87,16.39,10.31,23.66c17.48,28.67,28.96,33.46,36.55,36.62
		c3.67,1.54,5.89,2.45,7.41,5.31c1.31,3.81,0.91,6.45,0.48,9.26c-0.53,3.47-1.12,7.4,1.72,13.05l1.21,2.4l2.13-1.63
		c4.99-3.85,6.21-9.05,7.28-13.66c0.48-2.04,0.93-3.99,1.67-5.79c60.95,7.09,87.6-9.1,140.23-41.08l7.97-4.84
		c13.37-8.1,25.17-16.58,36.57-24.79c7.55-5.43,15.34-11.05,23.56-16.52c9.41-6.25,16.27-8.91,21.28-10.86
		c5.71-2.21,9.83-3.81,12.46-8.95c3.01-5.9,7.67-37.98,6.41-44L540.04,335.87z M462.2,378.6c-17.43,14.37-76.85,46.44-94.4,52.45
		c-12.43,4.25-54.53,17.31-74.42,7.25c-4.67-2.36-7.66-5.78-9.16-10.41c-3.75-11.66-7.5-21.08-10.8-29.38
		c-10.27-25.8-13.75-34.49,7.29-46.42c8.43-4.76,18.81-7.14,31.38-7.14c9.6,0,20.47,1.38,32.7,4.15L462.2,378.6z"/>
	<path style="clip-path:url(#SVGID_00000158009900357574471170000005775460824266435456_);" d="M76.14,250.31l-1.87,2.04
		c-0.63,1.61-1.84,4.11-3.63,7.52c-6.79,12.39-12.56,18.59-17.33,18.59c-10.45,0-15.68-10.53-15.68-31.59
		c0-12.74,3.9-33.55,11.71-62.43c6.24-21.14,9.37-32.82,9.37-35.03H58.1l-0.35,0.13c-1.48,1.87-3.19,4.76-5.16,8.66
		c-19.51,38.49-29.27,74.97-29.27,109.45v4.08c0,5.35,0.35,10.11,1.06,14.27c2.49,16.9,9.48,25.34,20.95,25.34h0.82
		c14.37,0,24.68-19.62,30.91-58.85c-0.23-1.45-0.5-2.17-0.82-2.17H76.14z"/>
	<path style="clip-path:url(#SVGID_00000158009900357574471170000005775460824266435456_);" d="M2279.01,493.28
		c6.93,5.55,12.3,8.32,16.08,8.32c2.44,0,4.01-0.5,4.72-1.5c0.35-1,1.37-1.5,3.02-1.5h0.72c3.32,0,9.75,10.78,19.29,32.35
		c3.26,8.44,4.89,13.82,4.89,16.11c0,4.04,0.62,6.07,1.86,6.07h0.36c0.47,0,1.09-0.23,1.86-0.67c2.43-2.11,4-4,4.72-5.7
		c2.08-3.29,4.33-9.64,6.75-19.02c6.58-31.67,13.42-47.5,20.54-47.5h0.35c3.14,0,6.07,1.41,8.8,4.2c3.14,3.54,5.22,5.32,6.23,5.32
		h0.18c1.31,0,2.64-1.08,4-3.23c2.25-4.55,3.38-7.99,3.38-10.34v-0.52c0-1.16-0.42-2.48-1.25-3.97
		c-5.28-8.49-10.73-12.74-16.36-12.74c-7.65,0-14.61,5.94-20.89,17.83c-0.89,1.3-2.05,4.37-3.47,9.22
		c-3.67,11.34-6.73,22.54-9.16,33.64c0,1.3-0.59,3.14-1.77,5.54l-0.36-0.15l-2.21-10.41c-2.2-8.04-4.54-14.4-7.03-19.1
		c-9.83-18.13-21.24-27.2-34.22-27.2h-0.28c-0.24,0-0.53,0.13-0.88,0.38c-2.62,2.69-5.37,6.34-8.28,10.93
		c-3.43,4.95-5.16,7.67-5.16,8.16C2275.45,489.2,2276.63,491.03,2279.01,493.28"/>
	<path style="clip-path:url(#SVGID_00000158009900357574471170000005775460824266435456_);fill:#853135;" d="M1696.43,404.79
		c41.36-16.33,70.74-29.83,88.16-40.49c27.37,10.04,58.77,15.06,94.21,15.06c19.29,0,31.73-6.44,37.31-19.3
		c7.77-15.39,11.67-32.34,11.67-50.87c0-18.83-3.9-32.65-11.67-41.43c-6.21-8.48-21.14-19.47-44.77-32.98
		c-23.63-13.5-38.24-24.48-43.84-32.96c10.25,4.09,15.38,4.09,15.38,0c0-1.88-1.71-3.77-5.13-5.65
		c-31.09-21.03-49.89-31.55-56.43-31.55c-2.49,0-4.65,5.57-6.53,16.72c-1.86,11.14-2.49,17.35-1.87,18.6
		c1.26,3.45,3.74,6.12,7.47,8.01c-9.33,10.98-18.81,27.69-28.45,50.14c-9.65,22.45-14.46,39.79-14.46,52.05
		c0,11.61,2.64,21.5,7.92,29.66c-24.88,11-47.58,21.04-68.1,30.14c-36.37,16.01-71.36,42.07-104.95,78.17
		c-41.98,44.28-75.71,66.41-101.22,66.41c-29.23,0-43.84-16.01-43.84-48.04c0-24.49,7.62-49.29,22.85-74.41
		c12.75-21.98,3.58-27.63-9.78-7.54c-18.98,28.27-28.46,58.09-28.46,89.48c0,25.75,7.62,45.69,22.86,59.81
		c12.74,12.88,28.91,19.31,48.51,19.31c24.26,0,53.02-17.42,86.29-52.28c27.98-28.87,48.04-48.19,60.17-57.93
		C1649.32,426.92,1671.55,414.21,1696.43,404.79 M1844.75,271.52c48.21,26.36,71.06,44.1,68.57,53.2c-0.62,4.39-7.31,6.6-20.06,6.6
		c-13.98,0-35.91-3.3-65.76-9.9C1833.71,313.27,1839.47,296.63,1844.75,271.52 M1770.59,254.09c9.33-10.36,17.73-15.54,25.19-15.54
		c8.39,0,16.01,7.38,22.85,22.14c5.91,12.24,8.87,21.65,8.87,28.24c0,6.29-9.96,14.6-29.86,24.96
		c-27.37-6.27-41.05-17.27-41.05-32.96C1756.59,273.39,1761.26,264.45,1770.59,254.09"/>
	<path style="clip-path:url(#SVGID_00000158009900357574471170000005775460824266435456_);fill:#853135;" d="M1944.5,235.21
		c1.55,20.19,4.64,40.12,7.57,58.57l13.29,116.51c1.23,12.51-1.71,53.5,2.46,60.06c42.96-20.43,9.9-219.92,5.87-259.3l-9.17-103.31
		c8.28,9,29.63,15.77,32.01,12.86c0.65-0.81,0.08-1.41-0.86-3.73c-4.23-10.59-15.27-27.99-25.13-42.47
		c-6.14-9-12.61-21.22-18.17-29.89c-5.11-7.92-11.28-21.42-19.63-24.39c-9.12,6.69-5.41,14.36-8.49,25.14
		c-9.43,32.57-13.44,26.74-0.63,50.4C1933.69,114.24,1942.81,212.05,1944.5,235.21"/>
	<path style="clip-path:url(#SVGID_00000158009900357574471170000005775460824266435456_);" d="M1697.08,535.23
		c-3.55,3.58-8.63,12.88-10.64,17.9c51.95-17.71,58.76-18.78,111.39-39.1c1.25-2.23,14.48-21.98,10.16-18.88
		C1755.36,515.38,1750.19,514.81,1697.08,535.23"/>
	<path style="clip-path:url(#SVGID_00000158009900357574471170000005775460824266435456_);" d="M786.47,536.33
		c-3.38,3.23-8.67,11.99-10.9,16.8c45.73-12.75,51.59-13.17,98.17-28.46c1.28-2.1,14.58-20.49,10.6-17.81
		C837.77,522.06,833.47,520.99,786.47,536.33"/>
	<path style="clip-path:url(#SVGID_00000158009900357574471170000005775460824266435456_);" d="M2407.19,341.94h-0.33l-0.2,0.06
		c-0.84,0.98-1.82,2.5-2.93,4.55c-11.08,20.16-16.63,39.27-16.63,57.36v2.13c0,2.81,0.2,5.29,0.59,7.48
		c1.42,8.85,5.4,13.28,11.91,13.28h0.47c8.16,0,14.01-10.29,17.56-30.84c-0.13-0.76-0.29-1.13-0.47-1.13h-0.06l-1.07,1.07
		c-0.35,0.84-1.03,2.16-2.06,3.94c-3.85,6.5-7.13,9.75-9.83,9.75c-5.95,0-8.92-5.52-8.92-16.56c0-6.68,2.21-17.59,6.65-32.72
		C2405.41,349.22,2407.19,343.1,2407.19,341.94"/>
	<path style="clip-path:url(#SVGID_00000158009900357574471170000005775460824266435456_);" d="M1912.16,389.69h-0.33l-0.2,0.06
		c-0.84,0.98-1.82,2.5-2.93,4.55c-11.08,20.16-16.63,39.27-16.63,57.36v2.13c0,2.81,0.2,5.29,0.59,7.48
		c1.42,8.85,5.4,13.28,11.91,13.28h0.47c8.16,0,14.01-10.29,17.56-30.84c-0.13-0.76-0.29-1.13-0.47-1.13h-0.06l-1.07,1.07
		c-0.35,0.84-1.03,2.16-2.06,3.94c-3.85,6.5-7.13,9.75-9.83,9.75c-5.95,0-8.92-5.52-8.92-16.56c0-6.68,2.21-17.59,6.65-32.72
		C1910.39,396.97,1912.16,390.85,1912.16,389.69"/>
	<path style="clip-path:url(#SVGID_00000158009900357574471170000005775460824266435456_);" d="M1755.55,402.97h-0.33l-0.2,0.06
		c-0.84,0.98-1.82,2.5-2.93,4.55c-11.08,20.16-16.63,39.27-16.63,57.36v2.13c0,2.81,0.2,5.29,0.59,7.48
		c1.42,8.85,5.4,13.28,11.91,13.28h0.47c8.16,0,14.01-10.29,17.56-30.84c-0.13-0.76-0.29-1.13-0.47-1.13h-0.06l-1.07,1.07
		c-0.35,0.84-1.03,2.16-2.06,3.94c-3.85,6.5-7.13,9.75-9.83,9.75c-5.95,0-8.92-5.52-8.92-16.56c0-6.68,2.21-17.59,6.65-32.72
		C1753.77,410.25,1755.55,404.13,1755.55,402.97"/>
	<path style="clip-path:url(#SVGID_00000158009900357574471170000005775460824266435456_);" d="M1494.91,402.97h-0.33l-0.2,0.06
		c-0.84,0.98-1.82,2.5-2.93,4.55c-11.08,20.16-16.63,39.27-16.63,57.36v2.13c0,2.81,0.2,5.29,0.59,7.48
		c1.42,8.85,5.4,13.28,11.91,13.28h0.47c8.16,0,14.01-10.29,17.56-30.84c-0.13-0.76-0.29-1.13-0.47-1.13h-0.06l-1.07,1.07
		c-0.35,0.84-1.03,2.16-2.06,3.94c-3.85,6.5-7.13,9.75-9.83,9.75c-5.95,0-8.92-5.52-8.92-16.56c0-6.68,2.21-17.59,6.65-32.72
		C1493.13,410.25,1494.91,404.13,1494.91,402.97"/>
	<path style="clip-path:url(#SVGID_00000158009900357574471170000005775460824266435456_);" d="M1701.71,205.07h-0.33l-0.2,0.06
		c-0.84,0.98-1.82,2.5-2.93,4.55c-11.08,20.16-16.63,39.27-16.63,57.36v2.13c0,2.81,0.2,5.29,0.59,7.48
		c1.42,8.85,5.4,13.28,11.91,13.28h0.47c8.16,0,14.01-10.29,17.56-30.84c-0.13-0.76-0.29-1.13-0.47-1.13h-0.06l-1.07,1.07
		c-0.35,0.84-1.03,2.16-2.06,3.94c-3.85,6.5-7.13,9.75-9.83,9.75c-5.95,0-8.92-5.52-8.92-16.56c0-6.68,2.21-17.59,6.65-32.72
		C1699.94,212.34,1701.71,206.22,1701.71,205.07"/>
	<path style="clip-path:url(#SVGID_00000158009900357574471170000005775460824266435456_);" d="M823.26,123.23h-0.33l-0.2,0.06
		c-0.84,0.98-1.82,2.5-2.93,4.55c-11.08,20.16-16.63,39.27-16.63,57.36v2.13c0,2.81,0.2,5.29,0.59,7.48
		c1.42,8.85,5.4,13.28,11.91,13.28h0.47c8.16,0,14.01-10.29,17.56-30.84c-0.13-0.76-0.29-1.13-0.47-1.13h-0.06l-1.07,1.07
		c-0.35,0.84-1.03,2.16-2.06,3.94c-3.85,6.5-7.13,9.75-9.83,9.75c-5.95,0-8.92-5.52-8.92-16.56c0-6.68,2.21-17.59,6.65-32.72
		C821.48,130.51,823.26,124.39,823.26,123.23"/>
	<path style="clip-path:url(#SVGID_00000158009900357574471170000005775460824266435456_);" d="M1546.58,165.66h-0.33l-0.2,0.06
		c-0.84,0.98-1.82,2.5-2.93,4.55c-11.08,20.16-16.63,39.27-16.63,57.36v2.13c0,2.81,0.2,5.29,0.59,7.48
		c1.42,8.85,5.4,13.28,11.91,13.28h0.47c8.16,0,14.01-10.29,17.56-30.84c-0.13-0.76-0.29-1.13-0.47-1.13h-0.06l-1.07,1.07
		c-0.35,0.84-1.03,2.16-2.06,3.94c-3.85,6.5-7.13,9.75-9.83,9.75c-5.95,0-8.92-5.52-8.92-16.56c0-6.68,2.21-17.59,6.65-32.72
		C1544.81,172.94,1546.58,166.82,1546.58,165.66"/>
	<path style="clip-path:url(#SVGID_00000158009900357574471170000005775460824266435456_);" d="M385.05,188.28h-0.33l-0.2,0.06
		c-0.84,0.98-1.82,2.5-2.93,4.55c-11.08,20.16-16.63,39.27-16.63,57.36v2.13c0,2.81,0.2,5.29,0.59,7.48
		c1.42,8.85,5.4,13.28,11.91,13.28h0.47c8.16,0,14.01-10.29,17.56-30.84c-0.13-0.76-0.29-1.13-0.47-1.13h-0.06l-1.07,1.07
		c-0.35,0.84-1.03,2.16-2.06,3.94c-3.85,6.5-7.13,9.75-9.83,9.75c-5.95,0-8.92-5.52-8.92-16.56c0-6.68,2.21-17.59,6.65-32.72
		C383.27,195.56,385.05,189.44,385.05,188.28"/>
	<path style="clip-path:url(#SVGID_00000158009900357574471170000005775460824266435456_);" d="M1896.9,122.18h-0.33l-0.2,0.06
		c-0.84,0.98-1.82,2.5-2.93,4.55c-11.08,20.16-16.63,39.27-16.63,57.36v2.13c0,2.81,0.2,5.29,0.59,7.48
		c1.42,8.85,5.4,13.28,11.91,13.28h0.47c8.16,0,14.01-10.29,17.56-30.84c-0.13-0.76-0.29-1.13-0.47-1.13h-0.06l-1.07,1.07
		c-0.35,0.84-1.03,2.16-2.06,3.94c-3.85,6.5-7.13,9.75-9.83,9.75c-5.95,0-8.92-5.52-8.92-16.56c0-6.68,2.21-17.59,6.65-32.72
		C1895.12,129.46,1896.9,123.34,1896.9,122.18"/>
	<path style="clip-path:url(#SVGID_00000158009900357574471170000005775460824266435456_);" d="M137.62,119.64
		c-20.15,12.06-36.96,22-50.42,29.83c-5.11,3.26-7.66,5.42-7.66,6.49v0.23c0.08,0.23,0.34,0.34,0.78,0.34c0.3,0,0.75-0.04,1.36-0.11
		c3.53-0.99,16.35-5.73,38.46-14.23c5.86-2.12,11.04-4.48,15.56-7.06c8.65-4.55,17.63-10.32,26.95-17.31
		c3.68-2.27,9.21-6.87,16.58-13.78c7.07-7.21,11.92-12.86,14.55-16.96c10.38,1.22,18.58,2.1,24.59,2.62c1.8,0,3.68-1.36,5.63-4.09
		c5.12-8.66,7.67-15.91,7.67-21.75v-0.69c0-1.51-0.68-3.57-2.04-6.15c-1.42-3.19-3.75-6.91-6.98-11.16
		c-0.91-1.43-3.38-4.14-7.45-8.08c-5.72-5.02-11.05-8.93-16.02-11.73c-6.24-3.95-11.91-5.92-17.03-5.92c-1.57,0-3.04,0.23-4.39,0.69
		c-6.39,2.2-9.58,6.64-9.58,13.32c0,2.65,0.55,6.03,1.69,10.13c0,0.38-0.08,0.57-0.23,0.57c-3.84,6.89-5.75,14.11-5.75,21.62
		c0,9.64,6.8,16.06,20.41,19.25c-2.19,2.27-5.53,5.27-10.04,8.99C161.34,104.65,149.12,112.96,137.62,119.64 M201.45,50.19v-0.11
		c2.48,0.99,4.5,2.01,6.09,3.07c1.87,0.84,4.59,3.11,8.12,6.83c3.82,4.71,5.94,8.58,6.31,11.62c0,1.05-0.38,1.59-1.13,1.59
		c-0.91,0-8.23-1.09-21.98-3.3C200.58,64.73,201.45,58.16,201.45,50.19 M183.74,67.15c-8.12-1.97-12.17-4.37-12.17-7.17v-0.34
		c0-1.13,0.52-2.46,1.57-3.99c4.97-5.99,8.8-8.99,11.51-8.99h0.11c2.25,0,4.02,1.14,5.29,3.42c1.81,4.03,2.7,7.9,2.7,11.62v0.34
		c0,2.2-0.34,4.32-1.01,6.37C189.71,68.18,187.05,67.76,183.74,67.15"/>
	<path style="clip-path:url(#SVGID_00000158009900357574471170000005775460824266435456_);fill:#853135;" d="M2434.98,255.75
		c14.75,0,14.63-1.09,15.28-1.09c2.63,0,8.85-7.78,18.7-23.34c9.83-15.55,13.93-23.34,12.3-23.34c-45.59,0-71.37-4.53-157.94-31.68
		c-28.86-9.6-63.12-22.51-102.8-38.74c-26.23-10.26-43.94-15.39-53.12-15.39c-4.92,0-16.61-0.09-29.4,2.23
		c-14.75,3.31-20.45,7.2-22.74,9.19c-2.29,1.98-7.78,9.59-16.48,22.84c-8.69,13.24-14.5,21.27-13.03,25.18
		c1.92,5.18,26.66,6.83,35.77,7.52c16.69,1.24,44.97,3.61,66.87,5.97c3.31,0.36,6.64-0.71,9.11-2.97c0.03-0.03,0.06-0.05,0.09-0.09
		c3.17-2.92,7.73-3.76,11.78-2.34c49.05,17.27,91.51,34.54,118.43,42.75c-51.1,11.14-103.87,42.75-191.26,50.21
		c-3.94-9.37-9.18-19.06-15.92-29.1c-17.62-25.99-35.96-39.71-55-41.13c-17.98-1.07-33.86,8.37-47.61,28.3
		c-12.34,17.8-18.51,35.78-18.51,53.94c0,30.97,19.05,46.46,57.14,46.46c27.15,0,45.43-4.39,63.99-8.56
		c7.94-1.78,6.88,14.6,6.88,23.5c0,14.25-25.38,40.58-76.15,79.03c-55.71,42.02-102.96,63.02-141.75,63.02
		c-27.52,0-49.11-9.26-64.81-27.77c-15.68-18.51-23.53-41.47-23.53-68.89c0-9.47,1.53-34.32-4.18-23.2
		c-1.58,3.06-9.33,31-9.33,56.84c0,34.54,3.63,62.31,19.85,83.31c17.64,23.14,43.2,34.7,76.69,34.7
		c35.62,0,77.58-17.61,125.89-52.86c41.96-30.26,73.7-61.41,95.2-93.44c11.88-17.51,18.29-43.08,19.34-76.53
		C2264.53,317.61,2397.37,255.75,2434.98,255.75 M2059.27,289.33c-16.93-1.07-25.39-5.16-25.39-12.28c0-3.2,2.21-6.23,6.62-9.08
		c4.41-2.84,8.02-4.27,10.85-4.27c13.04,1.07,25.91,9.42,38.6,25.09C2081.48,289.87,2071.26,290.04,2059.27,289.33"/>
	<path style="clip-path:url(#SVGID_00000158009900357574471170000005775460824266435456_);" d="M2299.1,20.48
		c-67.62,19.68-126,33.73-194.24,53.6c-4.79,4.52-12.1,16.86-15.15,23.9c66.5-16.02,127.11-32.43,194.73-52.1
		C2286.2,43.02,2304.79,16.8,2299.1,20.48"/>
	<path style="clip-path:url(#SVGID_00000158009900357574471170000005775460824266435456_);fill:#853135;" d="M2303.14,426.92
		c0.26,0,0.94-0.24,2.02-0.71c3.24-4.79,7.47-11.95,12.68-21.51c6.7-12.7,10.05-21.43,10.05-26.22c0-1.02-1.18-2.63-3.55-4.81
		c-25.37-19.05-41.35-29.66-47.98-31.85h-0.72c-0.74,0-1.69,0.58-2.83,1.74c-14.82,30.59-22.22,46.08-22.22,46.5
		c0,1.09,0.74,2.01,2.24,2.76c14.2,8.95,28.8,19.05,43.82,30.32c2.97,2.53,5.03,3.78,6.19,3.78H2303.14z"/>
	<path style="clip-path:url(#SVGID_00000158009900357574471170000005775460824266435456_);" d="M2343.39,138.71h0.64
		c11.23,0,19.28-14.23,24.16-42.7c-0.18-1.04-0.39-1.56-0.63-1.56h-0.1l-1.46,1.47c-0.49,1.17-1.43,2.98-2.84,5.46
		c-5.31,8.99-9.82,13.48-13.54,13.48c-8.17,0-12.26-7.64-12.26-22.92c0-9.24,3.04-24.34,9.14-45.28
		c4.89-15.35,7.33-23.82,7.33-25.42h-0.47l-0.26,0.09c-1.17,1.36-2.5,3.45-4.04,6.29c-15.26,27.91-22.88,54.37-22.88,79.39v2.96
		c0,3.89,0.28,7.34,0.82,10.36C2328.95,132.58,2334.42,138.71,2343.39,138.71"/>
	<path style="clip-path:url(#SVGID_00000158009900357574471170000005775460824266435456_);" d="M2233.95,510.2l-1.58,1.43
		c-0.52,1.13-1.53,2.9-3.06,5.28c-5.72,8.72-10.59,13.09-14.6,13.09c-8.8,0-13.22-7.42-13.22-22.23c0-8.95,3.3-23.59,9.87-43.91
		c5.26-14.88,7.89-23.1,7.89-24.65h-0.49l-0.29,0.09c-1.26,1.31-2.7,3.34-4.35,6.09c-16.44,27.06-24.66,52.72-24.66,76.99v2.87
		c0,3.76,0.3,7.11,0.89,10.03c2.1,11.9,7.99,17.84,17.66,17.84h0.69c12.1,0,20.78-13.8,26.05-41.41c-0.2-1.02-0.43-1.52-0.69-1.52
		H2233.95z"/>
	<path style="clip-path:url(#SVGID_00000158009900357574471170000005775460824266435456_);" d="M516.21,244.74l-1.58,1.43
		c-0.52,1.13-1.53,2.9-3.06,5.28c-5.72,8.72-10.59,13.09-14.6,13.09c-8.8,0-13.22-7.42-13.22-22.23c0-8.95,3.3-23.59,9.87-43.91
		c5.26-14.88,7.89-23.1,7.89-24.65h-0.49l-0.29,0.09c-1.26,1.31-2.7,3.34-4.35,6.09c-16.44,27.06-24.66,52.72-24.66,76.99v2.87
		c0,3.76,0.3,7.11,0.89,10.03c2.1,11.9,7.99,17.84,17.66,17.84h0.69c12.1,0,20.78-13.8,26.05-41.41c-0.2-1.02-0.43-1.52-0.69-1.52
		H516.21z"/>
	<path style="clip-path:url(#SVGID_00000158009900357574471170000005775460824266435456_);" d="M165.02,237.48l-1.58,1.43
		c-0.52,1.13-1.53,2.9-3.06,5.28c-5.72,8.72-10.59,13.09-14.6,13.09c-8.8,0-13.22-7.42-13.22-22.23c0-8.95,3.3-23.59,9.87-43.91
		c5.26-14.88,7.89-23.1,7.89-24.65h-0.49l-0.29,0.09c-1.26,1.31-2.7,3.34-4.35,6.09c-16.44,27.06-24.66,52.72-24.66,76.99v2.87
		c0,3.76,0.3,7.11,0.89,10.03c2.1,11.9,7.99,17.84,17.66,17.84h0.69c12.1,0,20.78-13.8,26.05-41.41c-0.2-1.02-0.43-1.52-0.69-1.52
		H165.02z"/>
	<path style="clip-path:url(#SVGID_00000158009900357574471170000005775460824266435456_);" d="M314.82,91.11l-1.58,1.43
		c-0.52,1.13-1.53,2.89-3.06,5.28c-5.72,8.72-10.59,13.09-14.6,13.09c-8.8,0-13.22-7.42-13.22-22.23c0-8.95,3.3-23.59,9.87-43.91
		c5.26-14.88,7.89-23.1,7.89-24.65h-0.49l-0.29,0.09c-1.26,1.31-2.7,3.34-4.35,6.09c-16.44,27.06-24.66,52.72-24.66,76.99v2.87
		c0,3.76,0.3,7.11,0.89,10.03c2.1,11.9,7.99,17.84,17.66,17.84h0.69c12.1,0,20.78-13.8,26.05-41.41c-0.2-1.02-0.43-1.52-0.69-1.52
		H314.82z"/>
	<path style="clip-path:url(#SVGID_00000158009900357574471170000005775460824266435456_);" d="M529.33,510.2l-1.58,1.43
		c-0.52,1.13-1.53,2.9-3.06,5.28c-5.72,8.72-10.59,13.09-14.6,13.09c-8.8,0-13.22-7.42-13.22-22.23c0-8.95,3.3-23.59,9.87-43.91
		c5.26-14.88,7.89-23.1,7.89-24.65h-0.49l-0.29,0.09c-1.26,1.31-2.7,3.34-4.35,6.09c-16.44,27.06-24.66,52.72-24.66,76.99v2.87
		c0,3.76,0.3,7.11,0.89,10.03c2.1,11.9,7.99,17.84,17.66,17.84h0.69c12.1,0,20.78-13.8,26.05-41.41c-0.2-1.02-0.43-1.52-0.69-1.52
		H529.33z"/>
	<path style="clip-path:url(#SVGID_00000158009900357574471170000005775460824266435456_);" d="M221.86,510.2l-1.58,1.43
		c-0.52,1.13-1.53,2.9-3.06,5.28c-5.72,8.72-10.59,13.09-14.6,13.09c-8.8,0-13.22-7.42-13.22-22.23c0-8.95,3.3-23.59,9.87-43.91
		c5.26-14.88,7.89-23.1,7.89-24.65h-0.49l-0.29,0.09c-1.26,1.31-2.7,3.34-4.35,6.09c-16.44,27.06-24.66,52.72-24.66,76.99v2.87
		c0,3.76,0.3,7.11,0.89,10.03c2.1,11.9,7.99,17.84,17.66,17.84h0.69c12.1,0,20.78-13.8,26.05-41.41c-0.2-1.02-0.43-1.52-0.69-1.52
		H221.86z"/>
	<path style="clip-path:url(#SVGID_00000158009900357574471170000005775460824266435456_);" d="M961.29,91.11l-1.58,1.43
		c-0.52,1.13-1.53,2.89-3.06,5.28c-5.72,8.72-10.59,13.09-14.6,13.09c-8.8,0-13.22-7.42-13.22-22.23c0-8.95,3.3-23.59,9.87-43.91
		c5.26-14.88,7.89-23.1,7.89-24.65h-0.49l-0.3,0.09c-1.25,1.31-2.69,3.34-4.34,6.09c-16.44,27.06-24.66,52.72-24.66,76.99v2.87
		c0,3.76,0.3,7.11,0.89,10.03c2.1,11.9,7.99,17.84,17.66,17.84h0.69c12.1,0,20.78-13.8,26.05-41.41c-0.2-1.02-0.43-1.52-0.69-1.52
		H961.29z"/>
	<path style="clip-path:url(#SVGID_00000158009900357574471170000005775460824266435456_);" d="M775.92,91.11l-1.58,1.43
		c-0.52,1.13-1.53,2.89-3.06,5.28c-5.72,8.72-10.59,13.09-14.6,13.09c-8.8,0-13.22-7.42-13.22-22.23c0-8.95,3.3-23.59,9.87-43.91
		c5.26-14.88,7.89-23.1,7.89-24.65h-0.49l-0.29,0.09c-1.26,1.31-2.7,3.34-4.35,6.09c-16.44,27.06-24.66,52.72-24.66,76.99v2.87
		c0,3.76,0.3,7.11,0.89,10.03c2.1,11.9,7.99,17.84,17.66,17.84h0.69c12.1,0,20.78-13.8,26.05-41.41c-0.2-1.02-0.43-1.52-0.69-1.52
		H775.92z"/>
	<path style="clip-path:url(#SVGID_00000158009900357574471170000005775460824266435456_);" d="M1674.84,510.2l-1.58,1.43
		c-0.52,1.13-1.53,2.9-3.06,5.28c-5.72,8.72-10.59,13.09-14.6,13.09c-8.8,0-13.22-7.42-13.22-22.23c0-8.95,3.3-23.59,9.87-43.91
		c5.26-14.88,7.89-23.1,7.89-24.65h-0.49l-0.29,0.09c-1.26,1.31-2.7,3.34-4.35,6.09c-16.44,27.06-24.66,52.72-24.66,76.99v2.87
		c0,3.76,0.3,7.11,0.89,10.03c2.1,11.9,7.99,17.84,17.66,17.84h0.69c12.1,0,20.78-13.8,26.05-41.41c-0.2-1.02-0.43-1.52-0.69-1.52
		H1674.84z"/>
	<path style="clip-path:url(#SVGID_00000158009900357574471170000005775460824266435456_);" d="M2480.82,510.2l-1.58,1.43
		c-0.52,1.13-1.53,2.9-3.06,5.28c-5.72,8.72-10.59,13.09-14.6,13.09c-8.8,0-13.22-7.42-13.22-22.23c0-8.95,3.3-23.59,9.87-43.91
		c5.26-14.88,7.89-23.1,7.89-24.65h-0.49l-0.29,0.09c-1.26,1.31-2.7,3.34-4.35,6.09c-16.44,27.06-24.66,52.72-24.66,76.99v2.87
		c0,3.76,0.3,7.11,0.89,10.03c2.1,11.9,7.99,17.84,17.66,17.84h0.69c12.1,0,20.78-13.8,26.05-41.41c-0.2-1.02-0.43-1.52-0.69-1.52
		H2480.82z"/>
	<path style="clip-path:url(#SVGID_00000158009900357574471170000005775460824266435456_);" d="M2071.59,91.11l-1.58,1.43
		c-0.52,1.13-1.53,2.89-3.06,5.28c-5.72,8.72-10.59,13.09-14.6,13.09c-8.8,0-13.22-7.42-13.22-22.23c0-8.95,3.3-23.59,9.87-43.91
		c5.26-14.88,7.89-23.1,7.89-24.65h-0.49l-0.29,0.09c-1.26,1.31-2.7,3.34-4.35,6.09c-16.44,27.06-24.66,52.72-24.66,76.99v2.87
		c0,3.76,0.3,7.11,0.89,10.03c2.1,11.9,7.99,17.84,17.66,17.84h0.69c12.1,0,20.78-13.8,26.05-41.41c-0.2-1.02-0.43-1.52-0.69-1.52
		H2071.59z"/>
	<path style="clip-path:url(#SVGID_00000158009900357574471170000005775460824266435456_);" d="M1862.15,91.11l-1.58,1.43
		c-0.52,1.13-1.53,2.89-3.06,5.28c-5.72,8.72-10.59,13.09-14.6,13.09c-8.8,0-13.22-7.42-13.22-22.23c0-8.95,3.3-23.59,9.87-43.91
		c5.26-14.88,7.89-23.1,7.89-24.65h-0.49l-0.3,0.09c-1.24,1.31-2.69,3.34-4.34,6.09c-16.44,27.06-24.66,52.72-24.66,76.99v2.87
		c0,3.76,0.3,7.11,0.89,10.03c2.1,11.9,7.99,17.84,17.66,17.84h0.69c12.1,0,20.78-13.8,26.05-41.41c-0.2-1.02-0.43-1.52-0.69-1.52
		H1862.15z"/>
	<path style="clip-path:url(#SVGID_00000158009900357574471170000005775460824266435456_);" d="M2134.53,517.65l-1.17,1.18
		c-0.39,0.94-1.16,2.4-2.28,4.38c-4.26,7.2-7.87,10.81-10.87,10.81c-6.55,0-9.83-6.12-9.83-18.37c0-7.4,2.45-19.5,7.34-36.29
		c3.91-12.3,5.87-19.1,5.87-20.38h-0.38l-0.21,0.08c-0.93,1.08-2.01,2.77-3.23,5.04c-12.22,22.37-18.34,43.58-18.34,63.63v2.37
		c0,3.11,0.21,5.88,0.65,8.3c1.57,9.83,5.95,14.74,13.14,14.74h0.5c9,0,15.47-11.42,19.38-34.23c-0.15-0.84-0.33-1.26-0.52-1.26
		H2134.53z"/>
	<path style="clip-path:url(#SVGID_00000158009900357574471170000005775460824266435456_);" d="M2480.96,332.86l-1.3,1.31
		c-0.44,1.04-1.27,2.65-2.52,4.84c-4.7,7.97-8.72,11.96-12.01,11.96c-7.26,0-10.88-6.77-10.88-20.32c0-8.19,2.7-21.57,8.11-40.15
		c4.34-13.6,6.5-21.1,6.5-22.53h-0.42l-0.24,0.08c-1.03,1.21-2.21,3.06-3.57,5.57c-13.52,24.75-20.29,48.2-20.29,70.38v2.62
		c0,3.44,0.24,6.5,0.73,9.18c1.74,10.87,6.58,16.3,14.53,16.3h0.57c9.96,0,17.1-12.62,21.43-37.85c-0.16-0.93-0.35-1.4-0.58-1.4
		H2480.96z"/>
	<path style="clip-path:url(#SVGID_00000158009900357574471170000005775460824266435456_);" d="M2480.96,151.53l-1.3,1.31
		c-0.44,1.04-1.27,2.65-2.52,4.84c-4.7,7.97-8.72,11.96-12.01,11.96c-7.26,0-10.88-6.77-10.88-20.32c0-8.19,2.7-21.57,8.11-40.15
		c4.34-13.6,6.5-21.1,6.5-22.53h-0.42l-0.24,0.08c-1.03,1.21-2.21,3.06-3.57,5.57c-13.52,24.75-20.29,48.2-20.29,70.38v2.62
		c0,3.44,0.24,6.5,0.73,9.18c1.74,10.87,6.58,16.3,14.53,16.3h0.57c9.96,0,17.1-12.62,21.43-37.85c-0.16-0.93-0.35-1.4-0.58-1.4
		H2480.96z"/>
	<path style="clip-path:url(#SVGID_00000158009900357574471170000005775460824266435456_);" d="M2382.44,53.1
		c6.38,5.32,11.32,7.99,14.82,7.99c2.23,0,3.67-0.48,4.33-1.43c0.33-0.97,1.26-1.45,2.79-1.45h0.65c3.06,0,8.97,10.37,17.75,31.11
		c3.01,8.1,4.5,13.27,4.5,15.48c0,3.89,0.58,5.83,1.72,5.83h0.33c0.44,0,1.01-0.22,1.72-0.65c2.23-2.02,3.67-3.85,4.33-5.47
		c1.91-3.17,3.99-9.27,6.23-18.28c6.05-30.42,12.35-45.65,18.9-45.65h0.33c2.89,0,5.58,1.35,8.1,4.04c2.89,3.4,4.8,5.12,5.72,5.12
		h0.16c1.21,0,2.43-1.04,3.69-3.1c2.07-4.37,3.11-7.68,3.11-9.94v-0.5c0-1.1-0.38-2.37-1.14-3.82c-4.85-8.15-9.87-12.24-15.05-12.24
		c-7.03,0-13.44,5.71-19.23,17.14c-0.82,1.24-1.87,4.19-3.19,8.85c-3.37,10.89-6.19,21.68-8.43,32.33c0,1.24-0.54,3.02-1.64,5.32
		l-0.33-0.14l-2.04-10.01c-2.02-7.73-4.18-13.85-6.46-18.36c-9.06-17.42-19.56-26.13-31.5-26.13h-0.25c-0.21,0-0.49,0.13-0.82,0.36
		c-2.4,2.6-4.93,6.09-7.61,10.51c-3.16,4.75-4.74,7.36-4.74,7.85C2379.17,49.19,2380.25,50.94,2382.44,53.1"/>
	<path style="clip-path:url(#SVGID_00000158009900357574471170000005775460824266435456_);" d="M1768.69,58.23
		c-4.73,1.19-11.23,1.42-15.73-0.25c-0.06-0.44-0.13-1.03-0.06-1.64c2.49-6.29,4.79-12.86,6.5-19.35c0.11-2.7,0.21-5.41,0.33-8.11
		c-0.64-1.56-1.28-3.12-1.75-4.56c-1.85-1.71-3.67-3.28-6.14-4.01c-1.5-0.11-3.13-0.2-4.62-0.17c-3.6,0.9-6.36,2.45-9.39,4.32
		c-1.47,1.23-2.8,2.45-4.29,3.68c-4.36,5.49-8.14,12.09-11.85,17.94c-1.77,4.85-4.11,9.93-4.36,15.05c0.28,1,0.42,2.18,0.7,3.34
		c1.3,4.47,3.87,7.29,7.63,10.11c1.43,0.86,2.85,1.57,4.43,2.27c-0.36,0.65-0.74,1.14-1.13,1.64c-0.15,0.03-0.15,0.03-0.29,0.04
		c-0.31,1.09-2.99,3.36-3.77,4.22c-2.94,2.6-5.73,5.21-8.53,7.8c-3.26,2.35-6.26,4.52-9.23,6.84c-10.17,8.75-21.27,16.13-32.7,23.25
		c-10.43,5.5-20.71,10.98-31.18,16.33c-1.36,0.93-2.73,1.84-4.1,2.77c-1.26,0.6-4.1,1.56-4.7,2.68c-0.03,2.25,1.55,1.75,3.33,1.83
		c3.91-1.99,9.12-1.75,13.17-3.76c8.74-2.45,17.48-4.89,26.37-7.35c5.07-2.13,9.72-5.27,14.55-8.11c0.96-0.72,2.05-1.46,3.14-2.2
		c2.15-1.77,4.45-3.54,6.75-5.33c1.79-1.12,3.41-2.37,5.16-3.78c3.45-2.08,6.59-5.46,9.68-7.95c3.17-3.24,6.31-6.48,9.48-9.71
		c4.5-5.5,9.22-11.62,14.55-16.48c4.41,0.94,9.43,0.76,13.9,0.94c3.91-0.79,4.4-0.41,6.83-3.54c3.36-5.21,5.41-11.3,7.53-16.95
		C1768.84,59.41,1768.77,58.82,1768.69,58.23 M1745.15,55.97c-4.46-0.18-7.73-2.62-11.13-4.88c-0.01-0.15-0.04-0.29,0.09-0.46
		c-1.35-0.13-2.57-2.82-3.13-3.8c0-1.19,0.78-2.03,1.38-3.16c0.15-0.01,0.15-0.01,0.29-0.04c0,0-0.01-0.14,0.11-0.3
		c3.04-1.73,5.72-2.82,9.07-0.99c2.59,1.77,3.47,2.84,4.7,5.68c0.03,1.35,0.03,2.54,0.19,3.86
		C1746.45,53.26,1745.89,54.82,1745.15,55.97"/>
	<path style="clip-path:url(#SVGID_00000158009900357574471170000005775460824266435456_);" d="M1594.76,20.13
		c5.57,0,9.58,2.63,12.01,7.9c1.31,3.17,1.96,7.25,1.96,12.27c0,9.57-2,20.29-6,32.16h0.25c8.1,5.09,12.15,10.06,12.15,14.89v1.97
		c0,2.73-1.43,7.3-4.31,13.71c-8.26,19.95-12.4,36.16-12.4,48.65c0,11.07,2.3,18.14,6.92,21.22c1.57,0.79,3.04,1.18,4.44,1.18h0.78
		c4.01,0,8.93-5.36,14.75-16.08c1.31-2.55,2.4-3.82,3.27-3.82l0.26,0.39v1.98c-4.62,27.41-12.66,41.12-24.16,41.12
		c-9.39,0-15.02-6.59-16.84-19.77c-0.26-2.98-0.39-5.57-0.39-7.77v-3.03c0-10.54,4.05-27.38,12.14-50.49
		c2.44-7.29,3.66-11.11,3.66-11.47c0-1.75-3.57-4.79-10.7-9.09c0-0.18-0.3-0.27-0.92-0.27c-3.04,4.75-9.18,11.91-18.4,21.48
		c-0.35,0-2.49,1.89-6.4,5.68c-0.26,0-1.79,1.27-4.57,3.82c-7.75,5.97-15.46,11.42-23.12,16.34c-14.36,9.57-30.55,17.45-48.56,23.59
		c-20.2,8.18-31.94,12.25-35.25,12.25h-0.26c-0.26,0-0.39-0.13-0.39-0.39v-0.39c0-1.66,3.66-4.52,10.97-8.57
		c36.9-21.97,62.44-37.56,76.63-46.79c9.58-6.5,18.45-13.09,26.64-19.77c4.62-3.77,9.06-7.86,13.32-12.25
		c-16.54-8.7-24.81-17.84-24.81-27.41v-0.66c0-14.86,8.75-27.91,26.25-39.15C1588.11,21.27,1591.8,20.13,1594.76,20.13
		 M1572.7,51.76c0,3.52,6.61,8.66,19.85,15.43h0.13c0.96-3.09,1.43-6.34,1.43-9.76V57.3c0-6.59-1.52-11.07-4.57-13.45
		c-1.22-0.52-2.35-0.79-3.4-0.79h-0.52c-2.88,0-6.84,1.98-11.88,5.93C1573.05,50.05,1572.7,50.97,1572.7,51.76"/>
	<path style="clip-path:url(#SVGID_00000158009900357574471170000005775460824266435456_);" d="M1114.52,430.77h0.55
		c9.76,0,16.75-12.37,20.99-37.09c-0.15-0.91-0.34-1.36-0.55-1.36h-0.08l-1.27,1.28c-0.43,1.02-1.25,2.59-2.46,4.74
		c-4.62,7.81-8.54,11.72-11.77,11.72c-7.11,0-10.65-6.64-10.65-19.91c0-8.02,2.64-21.14,7.95-39.34
		c4.24-13.33,6.36-20.68,6.36-22.08h-0.4l-0.24,0.09c-1.01,1.17-2.18,3-3.5,5.45c-13.26,24.25-19.88,47.24-19.88,68.96v2.58
		c0,3.36,0.24,6.36,0.72,8.99C1101.98,425.45,1106.73,430.77,1114.52,430.77"/>
	<path style="clip-path:url(#SVGID_00000158009900357574471170000005775460824266435456_);" d="M1203.06,378.63h0.55
		c9.76,0,16.75-12.37,20.99-37.09c-0.15-0.91-0.34-1.36-0.55-1.36h-0.08l-1.27,1.28c-0.43,1.02-1.24,2.59-2.46,4.74
		c-4.62,7.81-8.54,11.72-11.77,11.72c-7.11,0-10.65-6.64-10.65-19.91c0-8.02,2.64-21.14,7.95-39.34
		c4.24-13.33,6.36-20.68,6.36-22.08h-0.4l-0.24,0.09c-1.01,1.17-2.18,3-3.5,5.45c-13.26,24.25-19.88,47.24-19.88,68.96v2.58
		c0,3.36,0.24,6.36,0.72,8.99C1190.52,373.31,1195.27,378.63,1203.06,378.63"/>
	<path style="clip-path:url(#SVGID_00000158009900357574471170000005775460824266435456_);" d="M799.87,440.71h0.55
		c9.76,0,16.75-12.37,20.99-37.09c-0.15-0.91-0.34-1.36-0.55-1.36h-0.08l-1.27,1.28c-0.43,1.02-1.25,2.59-2.46,4.74
		c-4.62,7.81-8.54,11.72-11.77,11.72c-7.11,0-10.65-6.64-10.65-19.91c0-8.02,2.64-21.14,7.95-39.34
		c4.24-13.33,6.36-20.68,6.36-22.08h-0.4l-0.24,0.09c-1.01,1.17-2.18,3-3.5,5.45c-13.26,24.25-19.88,47.24-19.88,68.96v2.58
		c0,3.36,0.24,6.36,0.72,8.99C787.33,435.39,792.07,440.71,799.87,440.71"/>
	<path style="clip-path:url(#SVGID_00000158009900357574471170000005775460824266435456_);" d="M1425.2,274.66h0.55
		c9.76,0,16.75-12.37,20.99-37.09c-0.15-0.91-0.34-1.36-0.55-1.36h-0.08l-1.27,1.28c-0.43,1.02-1.25,2.59-2.46,4.74
		c-4.62,7.81-8.54,11.72-11.77,11.72c-7.11,0-10.65-6.64-10.65-19.91c0-8.02,2.64-21.14,7.95-39.34
		c4.24-13.33,6.36-20.68,6.36-22.08h-0.4l-0.24,0.09c-1.01,1.17-2.18,3-3.5,5.45c-13.26,24.25-19.88,47.24-19.88,68.96v2.58
		c0,3.36,0.24,6.36,0.72,8.99C1412.66,269.34,1417.4,274.66,1425.2,274.66"/>
	<path style="clip-path:url(#SVGID_00000158009900357574471170000005775460824266435456_);" d="M1224.18,225.85h0.55
		c9.76,0,16.75-12.37,20.99-37.09c-0.15-0.91-0.34-1.36-0.55-1.36h-0.08l-1.27,1.28c-0.43,1.02-1.24,2.59-2.46,4.74
		c-4.62,7.81-8.54,11.72-11.77,11.72c-7.11,0-10.65-6.64-10.65-19.91c0-8.02,2.64-21.14,7.95-39.34
		c4.24-13.33,6.36-20.68,6.36-22.08h-0.4l-0.24,0.09c-1.01,1.17-2.18,3-3.5,5.45c-13.26,24.25-19.88,47.24-19.88,68.96v2.58
		c0,3.36,0.24,6.36,0.72,8.99C1211.64,220.52,1216.38,225.85,1224.18,225.85"/>
	<path style="clip-path:url(#SVGID_00000158009900357574471170000005775460824266435456_);" d="M1430.52,53.1
		c6.38,5.33,11.32,7.99,14.81,7.99c2.23,0,3.67-0.48,4.33-1.43c0.33-0.97,1.26-1.43,2.79-1.43h0.65c3.06,0,8.97,10.36,17.75,31.1
		c3.01,8.1,4.5,13.27,4.5,15.48c0,3.89,0.58,5.83,1.72,5.83h0.33c0.44,0,1.01-0.22,1.72-0.65c2.23-2.02,3.67-3.85,4.33-5.47
		c1.91-3.17,3.99-9.27,6.23-18.28c6.05-30.42,12.35-45.64,18.9-45.64h0.33c2.89,0,5.58,1.33,8.1,4.03c2.89,3.4,4.8,5.12,5.72,5.12
		h0.16c1.21,0,2.43-1.04,3.68-3.1c2.08-4.37,3.11-7.68,3.11-9.94v-0.5c0-1.1-0.38-2.37-1.14-3.82c-4.85-8.15-9.87-12.24-15.05-12.24
		c-7.03,0-13.44,5.71-19.23,17.14c-0.82,1.24-1.87,4.19-3.19,8.85c-3.37,10.89-6.19,21.68-8.43,32.33c0,1.24-0.54,3.02-1.64,5.32
		l-0.33-0.14l-2.04-10.01c-2.02-7.73-4.18-13.85-6.46-18.36c-9.06-17.42-19.56-26.13-31.5-26.13h-0.25c-0.21,0-0.49,0.13-0.82,0.36
		c-2.4,2.6-4.93,6.09-7.61,10.51c-3.16,4.75-4.74,7.36-4.74,7.85C1427.25,49.19,1428.34,50.94,1430.52,53.1"/>
	<path style="clip-path:url(#SVGID_00000158009900357574471170000005775460824266435456_);" d="M1099.63,53.1
		c6.38,5.33,11.32,7.99,14.81,7.99c2.23,0,3.67-0.48,4.33-1.43c0.33-0.97,1.26-1.43,2.79-1.43h0.65c3.06,0,8.97,10.36,17.75,31.1
		c3.01,8.1,4.5,13.27,4.5,15.48c0,3.89,0.58,5.83,1.72,5.83h0.33c0.44,0,1.01-0.22,1.72-0.65c2.23-2.02,3.67-3.85,4.33-5.47
		c1.91-3.17,3.99-9.27,6.23-18.28c6.05-30.42,12.35-45.64,18.9-45.64h0.33c2.89,0,5.58,1.33,8.1,4.03c2.89,3.4,4.8,5.12,5.72,5.12
		h0.16c1.21,0,2.43-1.04,3.68-3.1c2.08-4.37,3.11-7.68,3.11-9.94v-0.5c0-1.1-0.38-2.37-1.14-3.82c-4.85-8.15-9.87-12.24-15.05-12.24
		c-7.03,0-13.44,5.71-19.23,17.14c-0.82,1.24-1.87,4.19-3.19,8.85c-3.37,10.89-6.19,21.68-8.43,32.33c0,1.24-0.54,3.02-1.64,5.32
		l-0.33-0.14l-2.04-10.01c-2.02-7.73-4.18-13.85-6.46-18.36c-9.06-17.42-19.56-26.13-31.5-26.13h-0.25c-0.21,0-0.49,0.13-0.82,0.36
		c-2.4,2.6-4.93,6.09-7.61,10.51c-3.16,4.75-4.74,7.36-4.74,7.85C1096.36,49.19,1097.44,50.94,1099.63,53.1"/>
	<path style="clip-path:url(#SVGID_00000158009900357574471170000005775460824266435456_);" d="M797.39,53.1
		c6.38,5.33,11.32,7.99,14.82,7.99c2.23,0,3.67-0.48,4.33-1.43c0.33-0.97,1.26-1.43,2.79-1.43h0.65c3.06,0,8.97,10.36,17.75,31.1
		c3.01,8.1,4.5,13.27,4.5,15.48c0,3.89,0.58,5.83,1.72,5.83h0.33c0.44,0,1.01-0.22,1.72-0.65c2.23-2.02,3.67-3.85,4.33-5.47
		c1.91-3.17,3.99-9.27,6.23-18.28c6.05-30.42,12.35-45.64,18.9-45.64h0.33c2.89,0,5.58,1.33,8.1,4.03c2.89,3.4,4.8,5.12,5.72,5.12
		h0.16c1.21,0,2.43-1.04,3.68-3.1c2.08-4.37,3.11-7.68,3.11-9.94v-0.5c0-1.1-0.38-2.37-1.14-3.82c-4.85-8.15-9.87-12.24-15.05-12.24
		c-7.03,0-13.44,5.71-19.23,17.14c-0.82,1.24-1.87,4.19-3.19,8.85c-3.37,10.89-6.19,21.68-8.43,32.33c0,1.24-0.54,3.02-1.63,5.32
		l-0.33-0.14l-2.04-10.01c-2.02-7.73-4.18-13.85-6.46-18.36c-9.06-17.42-19.56-26.13-31.5-26.13h-0.25c-0.21,0-0.49,0.13-0.82,0.36
		c-2.4,2.6-4.93,6.09-7.61,10.51c-3.16,4.75-4.74,7.36-4.74,7.85C794.12,49.19,795.2,50.94,797.39,53.1"/>
	<path style="clip-path:url(#SVGID_00000158009900357574471170000005775460824266435456_);" d="M618.53,53.1
		c6.38,5.33,11.32,7.99,14.82,7.99c2.23,0,3.67-0.48,4.33-1.43c0.33-0.97,1.26-1.43,2.79-1.43h0.65c3.06,0,8.97,10.36,17.75,31.1
		c3.01,8.1,4.5,13.27,4.5,15.48c0,3.89,0.58,5.83,1.72,5.83h0.33c0.44,0,1.01-0.22,1.72-0.65c2.23-2.02,3.67-3.85,4.33-5.47
		c1.91-3.17,3.99-9.27,6.23-18.28c6.05-30.42,12.35-45.64,18.9-45.64h0.33c2.89,0,5.58,1.33,8.1,4.03c2.89,3.4,4.8,5.12,5.72,5.12
		h0.16c1.21,0,2.43-1.04,3.68-3.1c2.08-4.37,3.11-7.68,3.11-9.94v-0.5c0-1.1-0.38-2.37-1.14-3.82c-4.85-8.15-9.87-12.24-15.05-12.24
		c-7.03,0-13.44,5.71-19.23,17.14c-0.82,1.24-1.87,4.19-3.19,8.85c-3.37,10.89-6.19,21.68-8.43,32.33c0,1.24-0.54,3.02-1.63,5.32
		l-0.33-0.14l-2.04-10.01c-2.02-7.73-4.18-13.85-6.46-18.36c-9.06-17.42-19.56-26.13-31.5-26.13h-0.25c-0.21,0-0.49,0.13-0.82,0.36
		c-2.4,2.6-4.93,6.09-7.61,10.51c-3.16,4.75-4.74,7.36-4.74,7.85C615.26,49.19,616.34,50.94,618.53,53.1"/>
	<path style="clip-path:url(#SVGID_00000158009900357574471170000005775460824266435456_);" d="M348.73,53.1
		c6.38,5.33,11.32,7.99,14.82,7.99c2.23,0,3.67-0.48,4.33-1.43c0.33-0.97,1.26-1.43,2.79-1.43h0.65c3.06,0,8.97,10.36,17.75,31.1
		c3.01,8.1,4.5,13.27,4.5,15.48c0,3.89,0.58,5.83,1.72,5.83h0.33c0.44,0,1.01-0.22,1.72-0.65c2.23-2.02,3.67-3.85,4.33-5.47
		c1.91-3.17,3.99-9.27,6.23-18.28c6.05-30.42,12.35-45.64,18.9-45.64h0.33c2.89,0,5.58,1.33,8.1,4.03c2.89,3.4,4.8,5.12,5.72,5.12
		h0.16c1.21,0,2.43-1.04,3.68-3.1c2.08-4.37,3.11-7.68,3.11-9.94v-0.5c0-1.1-0.38-2.37-1.14-3.82c-4.85-8.15-9.87-12.24-15.05-12.24
		c-7.03,0-13.44,5.71-19.23,17.14c-0.82,1.24-1.87,4.19-3.19,8.85c-3.37,10.89-6.19,21.68-8.43,32.33c0,1.24-0.54,3.02-1.63,5.32
		l-0.33-0.14l-2.04-10.01c-2.02-7.73-4.18-13.85-6.46-18.36c-9.06-17.42-19.56-26.13-31.5-26.13h-0.25c-0.21,0-0.49,0.13-0.82,0.36
		c-2.4,2.6-4.93,6.09-7.61,10.51c-3.16,4.75-4.74,7.36-4.74,7.85C345.46,49.19,346.55,50.94,348.73,53.1"/>
	<path style="clip-path:url(#SVGID_00000158009900357574471170000005775460824266435456_);" d="M1085.81,535.23
		c-4.53,3.58-11,12.88-13.58,17.9c66.3-17.71,74.99-18.78,142.14-39.1c1.6-2.23,18.47-21.98,12.97-18.88
		C1160.18,515.38,1153.57,514.81,1085.81,535.23"/>
	<path style="clip-path:url(#SVGID_00000158009900357574471170000005775460824266435456_);" d="M618.8,241.62
		c-4.53,3.58-11,12.88-13.58,17.9c66.3-17.71,74.98-18.78,142.14-39.1c1.6-2.23,18.47-21.98,12.97-18.88
		C693.17,221.77,686.56,221.2,618.8,241.62"/>
	<path style="clip-path:url(#SVGID_00000158009900357574471170000005775460824266435456_);" d="M1275.41,493.28
		c6.93,5.55,12.3,8.32,16.09,8.32c2.44,0,4.01-0.5,4.72-1.5c0.35-1,1.37-1.5,3.02-1.5h0.72c3.32,0,9.75,10.78,19.29,32.35
		c3.26,8.44,4.89,13.82,4.89,16.11c0,4.04,0.62,6.07,1.86,6.07h0.35c0.48,0,1.11-0.23,1.87-0.67c2.43-2.11,4-4,4.72-5.7
		c2.08-3.29,4.33-9.64,6.75-19.02c6.58-31.67,13.42-47.5,20.54-47.5h0.35c3.14,0,6.07,1.41,8.8,4.2c3.14,3.54,5.22,5.32,6.23,5.32
		h0.18c1.31,0,2.64-1.08,4-3.23c2.25-4.55,3.38-7.99,3.38-10.34v-0.52c0-1.16-0.41-2.48-1.24-3.97
		c-5.28-8.49-10.73-12.74-16.36-12.74c-7.65,0-14.61,5.94-20.89,17.83c-0.89,1.3-2.05,4.37-3.47,9.22
		c-3.67,11.34-6.73,22.54-9.16,33.64c0,1.3-0.59,3.14-1.77,5.54l-0.36-0.15l-2.21-10.41c-2.2-8.04-4.54-14.4-7.03-19.1
		c-9.83-18.13-21.24-27.2-34.22-27.2h-0.28c-0.24,0-0.53,0.13-0.88,0.38c-2.62,2.69-5.37,6.34-8.28,10.93
		c-3.43,4.95-5.16,7.67-5.16,8.16C1271.85,489.2,1273.03,491.03,1275.41,493.28"/>
	<path style="clip-path:url(#SVGID_00000158009900357574471170000005775460824266435456_);" d="M1351.4,393.75l-1.58,1.43
		c-0.52,1.13-1.53,2.9-3.06,5.28c-5.72,8.72-10.59,13.09-14.6,13.09c-8.8,0-13.22-7.42-13.22-22.23c0-8.95,3.3-23.59,9.87-43.91
		c5.26-14.88,7.89-23.1,7.89-24.65h-0.49l-0.29,0.09c-1.26,1.31-2.7,3.34-4.35,6.09c-16.44,27.06-24.66,52.72-24.66,76.99v2.87
		c0,3.76,0.3,7.11,0.89,10.03c2.1,11.9,7.99,17.84,17.66,17.84h0.69c12.1,0,20.78-13.8,26.05-41.41c-0.2-1.02-0.43-1.52-0.69-1.52
		H1351.4z"/>
</g>
</svg>
