<?xml version="1.0" encoding="utf-8"?>
<!-- Generator: Adobe Illustrator 28.0.0, SVG Export Plug-In . SVG Version: 6.00 Build 0)  -->
<svg version="1.1" id="Layer_1" xmlns="http://www.w3.org/2000/svg" xmlns:xlink="http://www.w3.org/1999/xlink" x="0px" y="0px"
	 viewBox="0 0 2593.25 573.12" style="enable-background:new 0 0 2593.25 573.12;" xml:space="preserve">
<style type="text/css">
	
		.st0{clip-path:url(#SVGID_00000015315440219362165820000014432663304770745261_);fill-rule:evenodd;clip-rule:evenodd;fill:#853135;}
	.st1{clip-path:url(#SVGID_00000015315440219362165820000014432663304770745261_);fill-rule:evenodd;clip-rule:evenodd;}
	.st2{clip-path:url(#SVGID_00000015315440219362165820000014432663304770745261_);}
	.st3{clip-path:url(#SVGID_00000015315440219362165820000014432663304770745261_);fill:#853135;}
	.st4{clip-path:url(#SVGID_00000137831812891961726630000001551482566998244265_);fill:#853135;}
	.st5{clip-path:url(#SVGID_00000137831812891961726630000001551482566998244265_);}
	.st6{fill-rule:evenodd;clip-rule:evenodd;fill:#853135;}
	.st7{fill-rule:evenodd;clip-rule:evenodd;}
	.st8{fill:#853135;}
</style>
<g>
	<path class="st8" d="M221.31,62.9c-2.43-1.93-4.66-4.16-6.69-6.69c-2.03-2.53-3.04-4.56-3.04-6.28c0-1.72,0-2.74,0-3.24
		s0.2-1.42,0.51-2.74c0.41-1.32,0.91-3.24,1.62-5.98c0.71-2.64,1.82-6.18,3.24-10.74c2.43-4.66,5.78-7.91,9.93-9.93
		c4.26-2.13,8.01-3.14,11.45-3.14c1.62,0,3.34,0.41,5.17,1.11c1.82,0.71,2.74,2.03,2.74,3.95c0,0.71-0.2,1.82-0.51,3.24
		c-0.41,1.42-0.91,3.04-1.52,4.76c-0.61,1.62-1.11,3.14-1.72,4.46c-0.61,1.32-1.22,2.33-1.62,3.04h-0.81c-1.11,0-2.03-0.3-2.64-1.01
		c-0.61-0.71-1.62-1.11-3.14-1.11c-1.42,0-3.55,0.41-6.49,1.22c-2.84,0.91-4.26,2.23-4.26,4.16c0,1.52,0.81,2.94,2.43,4.36
		c1.72,1.42,3.65,2.64,5.78,3.65c2.23,0.91,4.36,1.72,6.59,2.33c2.13,0.61,3.85,0.91,4.97,0.91c0.51,0,1.22-0.1,2.23-0.2
		c0.91-0.1,1.52-0.2,1.82-0.2l17.33-7.5l-5.47,13.99c-0.91,1.72-1.62,2.84-2.13,3.34c-0.51,0.41-1.62,1.11-3.24,2.13
		c-10.14,5.57-19.86,10.84-29.09,16.01c-9.22,5.27-18.14,12.16-26.55,20.78c0.2-1.22,0.91-3.55,2.03-6.99
		c1.01-3.55,1.93-6.18,2.64-8.11c1.52-4.16,4.26-7.6,8.31-10.54C215.33,69.08,218.68,66.04,221.31,62.9L221.31,62.9z"/>
	<path class="st7" d="M790.38,123.91c-3.58,3.81-6.65,5.33-10.1,4.9c-8.06-0.87-11.64-6.53-15.09-11.97
		c-4.35,5.66-5.12,18.72-17.65,16.11c-19.31-4.03-11.13-40.92-9.59-49.74c0.38-1.31,0.64-2.5,1.79-3.59c0,0.33,0.13,0.54,0.26,0.76
		c-0.26,6.09-0.64,12.08-1.02,18.07c1.02,6.64,2.81,14.26,10.87,17.52c2.17,0.87,4.73,0.87,7.67-0.76c2.17-1.52,3.07-3.27,4.48-5.44
		c0.51-8.16-0.38-16.33,0.26-24.49c0.38-4.24,1.15-9.69,3.96-10.45c0.13,0.33,0.38,0.76,0.51,1.09c0.26,6.09,0.64,11.97,1.02,17.96
		c0.9,4.24,1.79,8.49,4.6,12.19c4.22,3.81,9.97,8.16,16.37,5.22c-0.26-5.12-1.79-10.34-3.2-15.45c-0.9-3.26-1.53-6.53-2.69-9.8
		c-0.26-5.22,1.79-10.45,3.32-15.35c1.92-1.74,1.92-0.44,2.81,0.54c1.41,8.27,3.45,16.22,5.12,24.27
		C796.13,105.52,795.75,114.45,790.38,123.91L790.38,123.91z"/>
	<path class="st7" d="M822.69,17c-32.38,13.67-65.95,22.99-98.62,34.89c-12.84,4.6-11.72,2.19-16.25,8.05
		c-2.61,3.65-4.6,7.28-6.71,11c-0.91,1.52-1.7,2.95-1.98,4.35c15.96-5.02,104.86-34.91,118.5-41.76c3.28-1.73,5.87-6,9.53-11.46
		c1.27-1.98,4.39-5.57,3.77-8C830,14.14,824.32,16.28,822.69,17z"/>
	<g>
		<path class="st7" d="M162.25,232.33c-4.07,5.09-7.56,7.13-11.49,6.54c-9.16-1.16-13.23-8.72-17.16-16
			c-4.94,7.56-5.82,25.01-20.07,21.52c-21.96-5.38-12.65-54.68-10.91-66.46c0.44-1.74,0.73-3.34,2.04-4.8
			c0,0.44,0.15,0.73,0.29,1.02c-0.29,8.14-0.73,16.14-1.16,24.14c1.16,8.87,3.2,19.05,12.36,23.41c2.47,1.16,5.38,1.16,8.73-1.02
			c2.47-2.04,3.49-4.36,5.09-7.27c0.58-10.91-0.44-21.81,0.29-32.72c0.44-5.67,1.31-12.94,4.51-13.96c0.15,0.44,0.44,1.02,0.58,1.45
			c0.29,8.14,0.73,16,1.16,23.99c1.02,5.67,2.04,11.34,5.24,16.29c4.8,5.09,11.34,10.91,18.61,6.98
			c-0.29-6.83-2.04-13.81-3.64-20.65c-1.02-4.36-1.75-8.72-3.05-13.09c-0.29-6.98,2.04-13.96,3.78-20.5
			c2.18-2.33,2.18-0.58,3.2,0.73c1.6,11.05,3.93,21.67,5.82,32.43C168.8,207.76,168.36,219.68,162.25,232.33L162.25,232.33z"/>
		<path class="st7" d="M173.66,244.62c-22.58,9.53-45.99,16.03-68.78,24.33c-8.96,3.21-8.17,1.53-11.33,5.62
			c-1.82,2.55-3.21,5.08-4.68,7.67c-0.63,1.06-1.19,2.06-1.38,3.03c11.13-3.5,73.13-24.35,82.64-29.12c2.29-1.2,4.09-4.18,6.64-7.99
			c0.89-1.38,3.06-3.89,2.63-5.58C178.76,242.63,174.8,244.12,173.66,244.62z"/>
	</g>
	<path class="st7" d="M645.14,17c-32.38,13.67-107.38,31.28-140.05,43.17c-12.84,4.6-11.72,2.19-16.25,8.05
		c-2.61,3.65-4.6,7.28-6.71,11c-0.91,1.52-1.7,2.95-1.98,4.35c15.96-5.02,146.28-43.2,159.92-50.05c3.28-1.73,5.87-6,9.53-11.46
		c1.27-1.98,4.39-5.57,3.77-8C652.45,14.14,646.76,16.28,645.14,17z"/>
	<path d="M415.9,141.94c1.85,0,6.88,4.05,15.08,12.15c6.16,7.57,10.47,14.37,12.93,20.43c4.1,10.24,6.16,21.45,6.16,33.64
		c0,14.95-4.36,31.33-13.08,49.13c-5.13,12.19-7.7,20.87-7.7,26.03v1.2c0,7.03,1.64,11.93,4.93,14.69c1.74,1.25,3.54,1.87,5.39,1.87
		h0.62c4.41,0,9.54-5.07,15.39-15.22l0.62-0.4h0.77v2c0,2.67-1.8,8.77-5.39,18.29c-4.41,9.26-9.75,13.88-16.01,13.88h-0.62
		c-8,0-12.83-5.47-14.47-16.42c-0.31-2.31-0.46-4.81-0.46-7.48v-3.34c0-10.86,4.87-27.19,14.62-49c3.49-8.99,5.23-17.8,5.23-26.43
		v-0.93c0-19.58-10.93-38.89-32.79-57.94c-0.41-0.8-0.62-1.38-0.62-1.74v-0.53c0-0.62,1.23-2.76,3.69-6.41
		c2.67-4.27,4.41-6.76,5.23-7.48H415.9z"/>
	<path class="st6" d="M737.45,189.78c5.57,5.45,33.43,24.82,40.52,24.44c4.81-5.83,15.07-30.52,15.2-37.86
		c-5.45-4.43-31.28-19.38-37.86-21.91C747.58,160.78,741.5,178.38,737.45,189.78L737.45,189.78z"/>
	<path d="M413.96,97.58h0.46c8.05,0,13.83-10.11,17.33-30.33c-0.13-0.74-0.28-1.12-0.46-1.12h-0.07l-1.05,1.05
		c-0.35,0.83-1.03,2.12-2.03,3.87c-3.81,6.39-7.05,9.58-9.72,9.58c-5.86,0-8.8-5.43-8.8-16.28c0-6.56,2.19-17.29,6.56-32.17
		c3.5-10.9,5.25-16.91,5.25-18.05h-0.33l-0.2,0.07c-0.83,0.96-1.79,2.45-2.89,4.46c-10.94,19.82-16.41,38.62-16.41,56.39v2.1
		c0,2.76,0.2,5.21,0.59,7.35C403.61,93.23,407.53,97.58,413.96,97.58z"/>
	<path d="M32.22,124.42h0.61c10.64,0,18.28-13.36,22.9-40.08c-0.17-0.98-0.38-1.47-0.61-1.47h-0.09l-1.39,1.39
		c-0.46,1.1-1.36,2.81-2.69,5.12c-5.03,8.44-9.31,12.67-12.84,12.67c-7.75,0-11.63-7.17-11.63-21.52c0-8.68,2.89-22.85,8.68-42.51
		c4.63-14.4,6.94-22.36,6.94-23.86h-0.43l-0.26,0.09c-1.1,1.27-2.37,3.24-3.82,5.9c-14.46,26.2-21.69,51.04-21.69,74.53v2.78
		c0,3.64,0.26,6.88,0.78,9.72C18.54,118.66,23.72,124.42,32.22,124.42z"/>
	<path d="M35.92,237.63h0.67c11.66,0,20.02-14.12,25.09-42.37c-0.19-1.04-0.41-1.56-0.66-1.56h-0.1l-1.52,1.47
		c-0.51,1.16-1.49,2.97-2.95,5.41c-5.51,8.93-10.2,13.39-14.07,13.39c-8.49,0-12.74-7.58-12.74-22.74c0-9.17,3.17-24.15,9.5-44.93
		c5.07-15.22,7.6-23.63,7.6-25.22h-0.47l-0.29,0.09c-1.2,1.34-2.6,3.42-4.18,6.24c-15.84,27.69-23.76,53.95-23.76,78.77v2.93
		c0,3.85,0.29,7.27,0.86,10.27C20.93,231.55,26.6,237.63,35.92,237.63z"/>
	<path d="M69.19,47.61c6.67,5.51,11.82,8.27,15.47,8.27c2.34,0,3.85-0.5,4.53-1.49c0.34-0.99,1.31-1.49,2.91-1.49h0.68
		c3.19,0,9.37,10.73,18.55,32.18c3.13,8.39,4.7,13.73,4.7,16.01c0,4.02,0.6,6.03,1.79,6.03h0.34c0.46,0,1.05-0.22,1.79-0.67
		c2.34-2.09,3.85-3.97,4.53-5.66c1.99-3.28,4.16-9.58,6.5-18.92c6.33-31.48,12.91-47.22,19.74-47.22h0.34
		c3.02,0,5.84,1.39,8.46,4.17c3.02,3.53,5.01,5.29,5.98,5.29h0.17c1.25,0,2.54-1.07,3.85-3.2c2.17-4.52,3.25-7.94,3.25-10.28V30.1
		c0-1.14-0.4-2.46-1.2-3.95c-5.07-8.44-10.31-12.66-15.73-12.66c-7.35,0-14.05,5.91-20.09,17.73c-0.86,1.29-1.97,4.35-3.33,9.16
		c-3.53,11.27-6.47,22.42-8.8,33.44c0,1.29-0.57,3.13-1.71,5.51l-0.34-0.15l-2.14-10.35c-2.11-7.99-4.36-14.32-6.75-18.99
		C103.23,31.82,92.27,22.8,79.79,22.8h-0.26c-0.23,0-0.51,0.12-0.85,0.37c-2.51,2.68-5.16,6.31-7.95,10.87
		c-3.3,4.92-4.96,7.62-4.96,8.12C65.77,43.56,66.91,45.37,69.19,47.61z"/>
	<path class="st8" d="M186.69,498.16l-12.71,26.57c-6.34-5.27-12.59-9.95-18.75-14.04c-9.78-6.64-16.53-10.66-20.26-12.09
		c-0.95,0-1.81,0.5-2.58,1.51l-12.44,25.41c-3.14,6.16-4.71,9.72-4.71,10.66l0.18,0.98c10.43,6.64,20.7,13.68,30.84,21.15
		c5.45,4.27,8.5,6.4,9.15,6.4h0.18c0.89,0,1.81-0.53,2.75-1.6c6.28-10.84,10.84-19.93,13.68-27.28h0.36l25.77,17.33
		c7.7,5.75,11.88,8.62,12.53,8.62c0.77-0.12,1.48-0.5,2.13-1.16c3.44-5.45,6.61-10.72,9.51-15.82c5.33-9.83,8-16.59,8-20.26v-0.8
		c0-0.18-0.98-1.27-2.93-3.29c-19.25-14.51-31.72-22.72-37.41-24.62C188.97,495.85,187.87,496.62,186.69,498.16z"/>
	<path d="M222.51,225.69c5.7,0,9.79-7.12,12.27-21.35c-0.09-0.52-0.2-0.79-0.33-0.79h-0.05l-0.74,0.74
		c-0.25,0.59-0.73,1.49-1.44,2.73c-2.7,4.5-4.99,6.75-6.88,6.75c-4.15,0-6.23-3.82-6.23-11.46c0-4.62,1.55-12.17,4.65-22.64
		c2.48-7.67,3.72-11.91,3.72-12.71h-0.23l-0.14,0.05c-0.59,0.68-1.27,1.73-2.04,3.14c-7.75,13.95-11.62,27.18-11.62,39.69v1.48
		c0,1.94,0.14,3.67,0.42,5.17c0.99,6.13,3.76,9.2,8.32,9.2H222.51z"/>
	<path d="M146.39,369.77l-1.23,1.23c-0.41,0.97-1.2,2.48-2.38,4.52c-4.45,7.46-8.23,11.19-11.34,11.19
		c-6.85,0-10.27-6.34-10.27-19.01c0-7.66,2.55-20.18,7.66-37.56c4.09-12.72,6.13-19.75,6.13-21.08h-0.38l-0.23,0.08
		c-0.97,1.12-2.1,2.86-3.37,5.21c-12.78,23.15-19.16,45.1-19.16,65.84v2.45c0,3.22,0.23,6.08,0.69,8.58
		c1.64,10.17,6.21,15.25,13.72,15.25h0.54c9.4,0,16.15-11.8,20.24-35.41c-0.15-0.87-0.33-1.3-0.54-1.3H146.39z"/>
	<path class="st8" d="M873.13,10.87l-2.05,1.17c-7.04,3.99-13.23,18.81-17.75,29.62l-1.45,3.44c-5.67,13.78-3.47,18.31,0.58,24.55
		c1.98,3.06,4.24,6.54,5.55,12.78c1.71,7.86,1.62,19.47,1.55,30.7c-0.05,6.6-0.1,12.83,0.22,18.29l12.49,137.54
		c1.46,10.75,8.73,65.89,8.73,95.04c0,10.51-11.77,20.89-25.18,22.21c-19.22,1.9-33.71-13.94-39.33-42.23
		c-1.35-6.95-2.82-16.8-4.51-28.2c-4.75-32.01-10.67-71.86-19.72-85.22l-1.04-1.54l-1.73,0.67c-7.22,2.79-7.87,5.81-9.6,13.88
		c-0.7,3.22-1.65,7.63-3.32,13.47c-5.76,20.17-1.12,41.55,3.36,62.21c3.43,15.8,6.67,30.72,4.89,43.74
		c-0.98,7.43-6,14.77-13.76,20.14c-9.07,6.27-20.39,8.65-30.31,6.35c-23.79-5.51-23.93-24.6-24.01-37.24
		c-0.03-4.42-0.05-7.62-1.09-9.69l-1.21-2.42l-2.22,1.56c-8.51,6.01-12.01,13.71-15.71,21.87c-4.89,10.78-9.96,21.93-27.52,31.71
		c-10.99,6.14-21.55,7.25-29.82,3.14c-8.33-4.16-13.87-13.38-15.61-26.13l-2.99-14.85l-2.45,0.72c-7.78,2.3-8.82,3.44-11.21,8.81
		c-0.65,1.46-1.47,3.33-2.8,5.78c-8.24,15.17-23.73,33.03-42.47,37.67c-10.8,2.68-21.35,0.65-31.36-6.02
		c-10.48-7.03-10.49-11.7-10.51-23.02c-0.01-3.66-0.02-7.82-0.39-12.84l-0.19-2.63l-2.59,0.52c-9.88,1.99-16.21,11.33-22.92,21.22
		c-4.31,6.34-8.77,12.9-14.16,17.28c-11.18,8.98-35.84,20.07-54.51,11.62c-28.98-12.91-31.34-46.97-33.84-83.02
		c-0.66-9.49-1.35-19.31-2.55-28.67c-2.68-21.26-3.49-44.26-4.27-66.51c-0.87-24.95-1.78-50.74-5.31-74.69
		c-1.45-9.8-2.42-20.03-3.36-29.92c-1.23-12.86-2.49-26.16-4.84-39.24c-1.37-8.07-2.88-16.48-4.39-24.96
		c-2.43-13.56-4.93-27.59-6.98-40.52l-0.45-2.88l-2.71,1.09c-15.13,6.05-21.64,46.37-21.16,51.78c0.98,11.02,3.5,25.18,5.92,38.87
		c1.36,7.63,2.67,15.06,3.67,21.65c6.11,40.39,9.81,92.13,13.4,142.16c2.81,39.35,5.72,80.03,9.78,114.37
		c4.05,34.62,16.67,56.95,38.79,68.38c10.14,3.96,19.54,5.69,28.26,5.69c29.66,0,51.49-19.97,68.14-40.12
		c8.87,23.77,34.54,36.19,54.57,32.89c22.84-3.74,38-24.98,49.06-40.49l0.84-1.17c1.81,2.64,2.84,4.95,3.85,7.2
		c1.73,3.85,3.36,7.48,8.24,11.61c16.71,13.85,32.6,12.75,42.99,9.4c16.97-5.48,31.9-21.34,38.28-40.23
		c1.48,2.01,2.93,4.17,4.43,6.42c9.22,13.78,20.66,30.92,50.53,23.92c21.37-5.04,30.75-25.07,37.59-39.69l1.45-3.07
		c0.8-1.67,1.25-2.72,1.53-3.41c8.35,27.65,27.34,42.49,53.48,41.65c0.52-0.01,1.21,0,1.97,0.02c1.88,0.06,3.98,0.11,5.42-0.22
		c16.01-3.64,22.67-11.4,28.75-23.56c26.53-52.32,21.22-104.38,15.59-159.5c-1.87-18.41-3.82-37.45-4.65-57.04
		c-0.56-13.98-2.07-27.39-3.53-40.36c-1.7-15.14-3.32-29.51-3.53-44.53c3.73,3.07,5.84,7.3,7.75,11.13
		c2.66,5.34,5.71,11.4,12.94,8.07l0.6-0.4c11.01-10.13-36.46-114.68-37-115.67L873.13,10.87z"/>
	<path class="st8" d="M293.76,283.68c1.13-2.86,2.43-5.74,3.77-8.75c6.92-15.39,15.52-34.53,9.64-69.37
		c-2.99-17.53-10.32-30.4-17.41-42.85c-3.26-5.72-6.39-11.23-9.11-17.11c4.6,3.47,9.89,6.57,14.58,6.18l1.57-0.13l0.45-1.51
		c3.84-12.67-39.24-64.61-42.92-67.83c-1.24-1.04-1.76-1.54-2.03-1.8c-0.53-0.52-0.85-0.74-1.58-0.95
		c-0.31-0.09-0.97-0.29-2.78-1.07l-1.44-0.63l-1.12,1.1c-9.65,9.48-11.94,38.29-11.8,52.2l0.01,1.06l0.81,0.69
		c10.07,8.53,10.69,11.74,12.04,18.78c1.25,6.49,3.16,16.29,13.08,35.21c6.26,12.03,12.21,21.45,17.01,29.02
		c7.53,11.91,12.08,19.1,10.21,24.08c-2.52,6.73-17.04,12.04-50.81,22.16c-4.01,1.2-7.23,1.76-10.07,2.24
		c-8.43,1.44-12.67,2.66-16.99,14.34c-1.76,4.95-8.51,24.88-9.42,31.99l-0.18,1.42l1.19,0.8c17.87,12.07,42.9,15.19,67.1,18.21
		c24.33,3.03,47.35,5.91,55.8,18.17c-17.51,26.17-96.74,69.54-136.75,82.45c-25.18,8.13-73.53,17.73-114.41-9.27
		c-9.3-6.14-27.95-28.16-32.51-42.65c-12.6-40.15-2.93-76.83,9-113.99c0.85-2.64,1.67-5.26,2.44-7.71
		c9.64-24.77,6.16-26.61,4.67-27.4c-1.34-0.71-2.84-0.78-4.32-0.21c-6.77,2.56-13.59,19.57-14.94,23.1
		c-1.09,2.5-2.16,5.05-3.21,7.64c-19.35,48.24-31.18,118.03-6.31,169.26c15.4,31.77,39.19,51.68,70.74,59.18
		c9.74,2.31,19.82,3.37,30.08,3.37c55.14,0,115.53-30.5,154.73-60.47c4.72-3.62,9.37-6.96,13.88-10.2
		c26.87-19.31,50.09-35.99,53.37-87.41C352.05,298.29,324.93,289.42,293.76,283.68z"/>
	<path class="st8" d="M956.75,77.17c1.43,4.92,1.71,12.14,1.96,18.52c0.11,2.72,0.21,5.31,0.4,7.64L985,318.27
		c3.28,19.32,5.49,40.38,5.89,56.31v0.02c0.07,2.27,0.17,4.49,0.26,6.66c0.28,6.59,0.54,12.82,0.21,18.52
		c-0.14,1.93-0.31,3.71-0.47,5.39c-0.79,8.03-1.41,14.37,4.37,21.15l1.26,1.48l1.68-0.98c7.02-4.09,7.69-7.33,8.81-12.71
		c0.25-1.22,0.55-2.61,0.95-4.21c0.81-3.21,1.66-6.1,2.49-8.93c0.88-3.01,1.75-5.97,2.54-9.21c2.39-10.24,5.17-25.77,5.98-37.37
		c1.89-24.25,0.4-51.77-4.43-81.78c-3.11-19.79-16.91-131.53-17.57-151.69c4.59,2,7.01,5.36,9.54,8.88
		c3.29,4.57,6.69,9.28,14.54,10.62c1.45,0.25,2.92-0.2,4.03-1.22c1.12-1.02,1.69-2.46,1.57-3.94c-1.66-21.56-25.2-70.61-39.27-99.93
		c-5.3-11.06-9.89-20.61-10.3-22.56l-0.59-2.81l-2.62,1.16c-11.99,5.28-25.9,41.04-25.87,42.25c-0.95,6.22,1.81,10.69,4.48,15.02
		C954.14,71.09,955.85,73.86,956.75,77.17z"/>
	<path class="st8" d="M1709.77,274.48c-1.1-2.63-1.98-4.82-2.87-7.03c-3.76-9.34-4.45-11.02-10.56-11.75
		c-0.85-0.1-1.9-0.22-3.21-0.47l-2.96-0.55l-0.88,2.88c-1.7,5.57-2.76,12.65-3.83,19.72c-0.72,4.71-1.39,9.16-2.25,12.97
		c-1.99,8.73-2.14,10.19-0.08,13.38c0.54,0.84,1.21,1.88,2.04,4.3c1.36,4.02,2.43,9.12-0.27,10.58
		c-6.31,3.44-27.33-6.47-33.45-14.33c-8.4-10.83-9.66-18.46-10.78-25.21c-0.79-4.81-1.61-9.79-4.88-14.99l-2.67-4.27l-9.96,14.1
		c-1.29,2.58-1.94,4.6-2.61,6.7c-0.28,0.85-0.56,1.75-0.93,2.73c-9.62,26.43-29.42,39.95-44.76,41.63
		c-10.59,1.06-19.33-3.07-24.81-11.66c-6.12-9.63-5.38-15.36-4.61-21.44c0.66-5.1,1.35-10.37-2.17-17.09l-1.54-2.94l-2.94,1.49
		c-8.93,4.46-13.89,11.86-19.64,20.47c-6.97,10.39-14.86,22.18-32.4,30.95c-16.76,8.41-30.05,9.88-40.63,4.48
		c-23.31-11.88-30.46-55.31-37.36-97.31c-6.11-37.2-11.89-72.35-29.25-84.39l-2.32-1.61l-1.98,2c-9.92,9.99-11.44,22.43-13.04,35.62
		c-1.86,15.07-3.96,32.16-20.55,47.39c-10.59,9.73-20.75,14.3-30.36,13.5c-15.25-1.15-26.5-15.16-33.27-23.59
		c-2.81-3.5-4.67-5.81-6.46-6.83l-2.73-1.54l-1.75,2.61c-6.65,10.08-11.79,32.18-11.94,45.18c-0.17,6.89,5.74,17.26,13.22,30.4
		c14.22,24.99,33.71,59.2,13.26,78.03c-18.01,16.56-34.97,31.47-60.37,46.21c-21.63,12.68-45.26,25.72-71.47,35.29
		c-66.49,23.87-121.86,17.49-164.61-18.95c-46.74-39.81-37.46-87.94-29.96-126.78c2.29-11.88,4.46-23.11,4.53-32.55l0.03-4.62
		l-4.4,1.39c-18.82,5.97-33.73,77.05-22.68,135.5c8.29,43.85,37.96,117.42,143.52,117.42c5.31,0,10.79-0.19,16.31-0.55
		c26.57-1.85,60.39-14.74,84.09-25.22c33.54-14.88,107.05-64.23,121.76-96.99c13.59-30.9,14.87-78.54,14.91-93.35
		c0.75-1.44,1.42-2.69,1.67-2.8c1.53-0.11,4.08-0.3,8.99-2.28c36.65-14.74,43.57-51.22,47.72-73.12c0.05-0.24,0.09-0.48,0.14-0.71
		c3.88,15.44,6.29,32.22,8.66,48.67c4.7,32.75,9.57,66.61,26.46,89.6c17.28,23.63,38.3,27.07,52.82,25.8
		c24.23-2.2,49.77-20.01,63.44-43.86c1.26,2.32,2.28,4.65,3.29,6.96c2.64,6.05,5.36,12.31,12.35,17.89
		c6.54,5.26,20.01,13.72,36.5,11.16c24.25-3.91,32.84-18.03,41.26-31.87c2.01-3.3,4.07-6.69,6.38-9.99
		c1.99,2.88,3.48,5.54,4.86,7.98c4.56,8.11,8.49,15.11,25.55,22.28c17.16,7.15,31.21,5.47,41.72-5.04
		C1717.34,343.75,1715.41,287.99,1709.77,274.48z"/>
	<path class="st6" d="M1332.24,107.18c6.05,5.91,36.3,26.95,44.13,26.54c5.09-6.32,16.22-33.13,16.5-41.11
		c-5.91-4.81-33.96-20.9-41.11-23.79C1343.38,75.83,1336.78,94.94,1332.24,107.18L1332.24,107.18z"/>
	<path class="st7" d="M1434.52,13.25c-1.27,0.04-9.22,2.18-11.45,2.88c-45.54,14.52-91.9,23.01-137.66,34.97
		c-17.82,4.76-15.97,1.61-22.95,8.98c-3.8,4.6-6.91,9.19-10.33,14.01c-1.33,1.85-2.68,3.83-3.14,5.56
		c22.16-4.79,145.89-34.12,165.25-41.82c4.54-1.8,8.49-7.22,14.15-14.27C1430.4,21.01,1435.15,16.59,1434.52,13.25z"/>
	<path class="st6" d="M1092.23,215.4c6.64,6.49,39.84,29.58,48.29,29.12c5.73-6.94,17.96-36.37,18.11-45.12
		c-6.49-5.28-37.27-23.09-45.12-26.1C1104.3,180.84,1097.06,201.82,1092.23,215.4L1092.23,215.4z"/>
	<path d="M1657.89,13.25c5.82,0,10,2.73,12.55,8.18c1.36,3.27,2.05,7.5,2.05,12.68c0,9.91-2.09,21-6.27,33.28h0.27
		c8.46,5.27,12.68,10.41,12.68,15.41v2.05c0,2.82-1.5,7.55-4.5,14.18c-8.64,20.64-12.96,37.41-12.96,50.32
		c0,11.46,2.41,18.77,7.23,21.96c1.64,0.82,3.18,1.23,4.64,1.23h0.82c4.18,0,9.32-5.55,15.41-16.64c1.36-2.64,2.5-3.95,3.41-3.95
		l0.27,0.41v2.05c-4.82,28.37-13.23,42.55-25.23,42.55c-9.82,0-15.68-6.82-17.59-20.46c-0.27-3.09-0.41-5.77-0.41-8.05v-3.14
		c0-10.91,4.23-28.32,12.68-52.23c2.55-7.55,3.82-11.5,3.82-11.86c0-1.82-3.73-4.96-11.18-9.41c0-0.18-0.32-0.27-0.95-0.27
		c-3.18,4.91-9.59,12.32-19.23,22.23c-0.36,0-2.59,1.95-6.68,5.86c-0.27,0-1.86,1.32-4.77,3.95c-8.09,6.18-16.14,11.82-24.14,16.91
		c-15,9.91-31.91,18.05-50.73,24.41c-21.09,8.46-33.37,12.68-36.82,12.68h-0.27c-0.27,0-0.41-0.14-0.41-0.41v-0.41
		c0-1.73,3.82-4.68,11.46-8.86c38.55-22.73,65.23-38.87,80.05-48.41c10-6.73,19.27-13.55,27.82-20.46
		c4.82-3.91,9.46-8.14,13.91-12.68c-17.27-9-25.91-18.46-25.91-28.37V57.3c0-15.37,9.14-28.87,27.41-40.5
		C1650.94,14.43,1654.8,13.25,1657.89,13.25z M1634.85,45.98c0,3.64,6.91,8.96,20.73,15.96h0.14c1-3.18,1.5-6.55,1.5-10.09v-0.14
		c0-6.82-1.59-11.46-4.77-13.91c-1.27-0.55-2.45-0.82-3.55-0.82h-0.55c-3,0-7.14,2.05-12.41,6.14
		C1635.21,44.21,1634.85,45.16,1634.85,45.98z"/>
	<path d="M1215.27,178.22h0.58c10.19,0,17.5-12.79,21.93-38.37c-0.17-0.94-0.36-1.41-0.58-1.41h-0.08l-1.33,1.33
		c-0.44,1.05-1.3,2.69-2.57,4.9c-4.82,8.08-8.92,12.13-12.29,12.13c-7.42,0-11.13-6.87-11.13-20.6c0-8.31,2.77-21.87,8.31-40.7
		c4.43-13.79,6.65-21.4,6.65-22.84h-0.42l-0.25,0.08c-1.05,1.22-2.27,3.1-3.65,5.65c-13.84,25.08-20.77,48.87-20.77,71.35v2.66
		c0,3.49,0.25,6.59,0.75,9.3C1202.17,172.71,1207.13,178.22,1215.27,178.22z"/>
	<path d="M1107.85,424.8h0.58c10.19,0,17.5-12.79,21.93-38.37c-0.17-0.94-0.36-1.41-0.58-1.41h-0.08l-1.33,1.33
		c-0.44,1.05-1.3,2.69-2.57,4.9c-4.82,8.08-8.92,12.13-12.29,12.13c-7.42,0-11.13-6.87-11.13-20.6c0-8.31,2.77-21.87,8.31-40.7
		c4.43-13.79,6.65-21.4,6.65-22.84h-0.42l-0.25,0.08c-1.05,1.22-2.27,3.1-3.65,5.65c-13.84,25.08-20.77,48.87-20.77,71.35v2.66
		c0,3.49,0.25,6.59,0.75,9.3C1094.75,419.29,1099.71,424.8,1107.85,424.8z"/>
	<path d="M1200.34,365.36h0.58c10.19,0,17.5-12.79,21.93-38.37c-0.17-0.94-0.36-1.41-0.58-1.41h-0.08l-1.33,1.33
		c-0.44,1.05-1.3,2.69-2.57,4.9c-4.82,8.08-8.92,12.13-12.29,12.13c-7.42,0-11.13-6.87-11.13-20.6c0-8.31,2.77-21.87,8.31-40.7
		c4.43-13.79,6.65-21.4,6.65-22.84h-0.42l-0.25,0.08c-1.05,1.22-2.27,3.1-3.65,5.65c-13.84,25.08-20.77,48.87-20.77,71.35v2.66
		c0,3.49,0.25,6.59,0.75,9.3C1187.24,359.85,1192.2,365.36,1200.34,365.36z"/>
	<path d="M1472.48,258.02h0.58c10.19,0,17.5-12.79,21.93-38.37c-0.17-0.94-0.36-1.41-0.58-1.41h-0.08l-1.33,1.33
		c-0.44,1.05-1.3,2.69-2.57,4.9c-4.82,8.08-8.92,12.13-12.29,12.13c-7.42,0-11.13-6.87-11.13-20.6c0-8.31,2.77-21.87,8.31-40.7
		c4.43-13.79,6.65-21.4,6.65-22.84h-0.42l-0.25,0.08c-1.05,1.22-2.27,3.1-3.65,5.65c-13.84,25.08-20.77,48.87-20.77,71.35v2.66
		c0,3.49,0.25,6.59,0.75,9.3C1459.39,252.51,1464.34,258.02,1472.48,258.02z"/>
	<path d="M1072.84,47.36c6.67,5.51,11.82,8.27,15.47,8.27c2.34,0,3.85-0.5,4.53-1.49c0.34-0.99,1.31-1.49,2.91-1.49h0.68
		c3.19,0,9.37,10.73,18.55,32.18c3.13,8.39,4.7,13.73,4.7,16.01c0,4.02,0.6,6.03,1.79,6.03h0.34c0.46,0,1.05-0.22,1.79-0.67
		c2.34-2.09,3.85-3.97,4.53-5.66c1.99-3.28,4.16-9.58,6.5-18.92c6.33-31.48,12.91-47.22,19.74-47.22h0.34
		c3.02,0,5.84,1.39,8.46,4.17c3.02,3.53,5.01,5.29,5.98,5.29h0.17c1.25,0,2.54-1.07,3.85-3.2c2.17-4.52,3.25-7.94,3.25-10.28v-0.52
		c0-1.14-0.4-2.46-1.2-3.95c-5.07-8.44-10.31-12.66-15.73-12.66c-7.35,0-14.05,5.91-20.09,17.73c-0.85,1.29-1.97,4.35-3.33,9.16
		c-3.53,11.27-6.47,22.42-8.8,33.44c0,1.29-0.57,3.13-1.71,5.51l-0.34-0.15l-2.14-10.35c-2.11-7.99-4.36-14.32-6.75-18.99
		c-9.46-18.02-20.43-27.04-32.91-27.04h-0.26c-0.23,0-0.51,0.12-0.85,0.37c-2.51,2.68-5.16,6.31-7.95,10.87
		c-3.3,4.92-4.96,7.62-4.96,8.12C1069.42,43.32,1070.56,45.13,1072.84,47.36z"/>
	<path d="M523.88,147.39c6.67,5.51,11.82,8.27,15.47,8.27c2.34,0,3.85-0.5,4.53-1.49c0.34-0.99,1.31-1.49,2.91-1.49h0.68
		c3.19,0,9.37,10.73,18.55,32.18c3.13,8.39,4.7,13.73,4.7,16.01c0,4.02,0.6,6.03,1.79,6.03h0.34c0.46,0,1.05-0.22,1.79-0.67
		c2.34-2.09,3.85-3.97,4.53-5.66c1.99-3.28,4.16-9.58,6.5-18.92c6.33-31.48,12.91-47.22,19.74-47.22h0.34
		c3.02,0,5.84,1.39,8.46,4.17c3.02,3.53,5.01,5.29,5.98,5.29h0.17c1.25,0,2.54-1.07,3.85-3.2c2.17-4.52,3.25-7.94,3.25-10.28v-0.52
		c0-1.14-0.4-2.46-1.2-3.95c-5.07-8.44-10.31-12.66-15.73-12.66c-7.35,0-14.05,5.91-20.09,17.73c-0.86,1.29-1.97,4.35-3.33,9.16
		c-3.53,11.27-6.47,22.42-8.8,33.44c0,1.29-0.57,3.13-1.71,5.51l-0.34-0.15l-2.14-10.35c-2.11-7.99-4.36-14.32-6.75-18.99
		c-9.46-18.02-20.43-27.04-32.91-27.04h-0.26c-0.23,0-0.51,0.12-0.85,0.37c-2.51,2.68-5.16,6.31-7.95,10.87
		c-3.3,4.92-4.96,7.62-4.96,8.12C520.46,143.34,521.6,145.15,523.88,147.39z"/>
	<path d="M1469.76,47.36c6.67,5.51,11.82,8.27,15.47,8.27c2.34,0,3.85-0.5,4.53-1.49c0.34-0.99,1.31-1.49,2.91-1.49h0.68
		c3.19,0,9.37,10.73,18.55,32.18c3.13,8.39,4.7,13.73,4.7,16.01c0,4.02,0.6,6.03,1.79,6.03h0.34c0.46,0,1.05-0.22,1.79-0.67
		c2.34-2.09,3.85-3.97,4.53-5.66c1.99-3.28,4.16-9.58,6.5-18.92c6.33-31.48,12.91-47.22,19.74-47.22h0.34
		c3.02,0,5.84,1.39,8.46,4.17c3.02,3.53,5.01,5.29,5.98,5.29h0.17c1.25,0,2.54-1.07,3.85-3.2c2.17-4.52,3.25-7.94,3.25-10.28v-0.52
		c0-1.14-0.4-2.46-1.2-3.95c-5.07-8.44-10.31-12.66-15.73-12.66c-7.35,0-14.05,5.91-20.09,17.73c-0.85,1.29-1.97,4.35-3.33,9.16
		c-3.53,11.27-6.47,22.42-8.8,33.44c0,1.29-0.57,3.13-1.71,5.51l-0.34-0.15l-2.14-10.35c-2.11-7.99-4.36-14.32-6.75-18.99
		c-9.46-18.02-20.43-27.04-32.91-27.04h-0.26c-0.23,0-0.51,0.12-0.85,0.37c-2.51,2.68-5.16,6.31-7.95,10.87
		c-3.3,4.92-4.96,7.62-4.96,8.12C1466.34,43.32,1467.48,45.13,1469.76,47.36z"/>
	<path d="M1299.77,502.79c7.24,5.74,12.85,8.6,16.81,8.6c2.54,0,4.18-0.52,4.92-1.55c0.37-1.03,1.42-1.55,3.16-1.55h0.74
		c3.47,0,10.18,11.16,20.15,33.48c3.41,8.73,5.11,14.29,5.11,16.66c0,4.19,0.65,6.28,1.95,6.28h0.37c0.5,0,1.15-0.23,1.95-0.7
		c2.54-2.17,4.18-4.13,4.92-5.89c2.17-3.41,4.52-9.97,7.06-19.69c6.87-32.76,14.02-49.14,21.45-49.14h0.37
		c3.28,0,6.35,1.45,9.19,4.34c3.28,3.67,5.45,5.5,6.5,5.5h0.19c1.36,0,2.76-1.11,4.18-3.33c2.35-4.7,3.53-8.27,3.53-10.7v-0.54
		c0-1.19-0.43-2.56-1.3-4.11c-5.51-8.78-11.21-13.18-17.09-13.18c-7.99,0-15.26,6.15-21.82,18.45c-0.93,1.34-2.14,4.52-3.62,9.53
		c-3.84,11.73-7.03,23.33-9.56,34.8c0,1.34-0.62,3.26-1.86,5.74l-0.37-0.16l-2.32-10.77c-2.29-8.32-4.74-14.91-7.34-19.76
		c-10.28-18.76-22.2-28.13-35.75-28.13h-0.28c-0.25,0-0.56,0.13-0.93,0.39c-2.72,2.79-5.6,6.56-8.64,11.32
		c-3.59,5.12-5.39,7.93-5.39,8.45C1296.05,498.58,1297.29,500.47,1299.77,502.79z"/>
	<path d="M699.6,502.79c7.24,5.74,12.85,8.6,16.81,8.6c2.54,0,4.18-0.52,4.92-1.55c0.37-1.03,1.42-1.55,3.16-1.55h0.74
		c3.47,0,10.18,11.16,20.15,33.48c3.41,8.73,5.11,14.29,5.11,16.66c0,4.19,0.65,6.28,1.95,6.28h0.37c0.5,0,1.15-0.23,1.95-0.7
		c2.54-2.17,4.18-4.13,4.92-5.89c2.17-3.41,4.52-9.97,7.06-19.69c6.87-32.76,14.02-49.14,21.45-49.14h0.37
		c3.28,0,6.35,1.45,9.19,4.34c3.28,3.67,5.45,5.5,6.5,5.5h0.19c1.36,0,2.76-1.11,4.18-3.33c2.35-4.7,3.53-8.27,3.53-10.7v-0.54
		c0-1.19-0.43-2.56-1.3-4.11c-5.51-8.78-11.21-13.18-17.09-13.18c-7.99,0-15.26,6.15-21.82,18.45c-0.93,1.34-2.14,4.52-3.62,9.53
		c-3.84,11.73-7.03,23.33-9.57,34.8c0,1.34-0.62,3.26-1.86,5.74l-0.37-0.16l-2.32-10.77c-2.29-8.32-4.74-14.91-7.34-19.76
		c-10.28-18.76-22.2-28.13-35.75-28.13h-0.28c-0.25,0-0.56,0.13-0.93,0.39c-2.72,2.79-5.6,6.56-8.64,11.32
		c-3.59,5.12-5.39,7.93-5.39,8.45C695.88,498.58,697.12,500.47,699.6,502.79z"/>
	<path d="M414.97,506.04c6.86,5.43,12.17,8.15,15.93,8.15c2.41,0,3.96-0.49,4.66-1.47c0.35-0.98,1.35-1.47,2.99-1.47h0.7
		c3.29,0,9.65,10.58,19.1,31.73c3.23,8.27,4.84,13.54,4.84,15.79c0,3.97,0.62,5.95,1.85,5.95h0.35c0.47,0,1.09-0.22,1.85-0.66
		c2.41-2.06,3.96-3.92,4.66-5.58c2.05-3.23,4.28-9.45,6.69-18.65c6.51-31.04,13.29-46.56,20.33-46.56h0.35
		c3.11,0,6.01,1.37,8.71,4.11c3.11,3.48,5.16,5.21,6.16,5.21h0.18c1.29,0,2.61-1.05,3.96-3.16c2.23-4.46,3.34-7.83,3.34-10.13v-0.51
		c0-1.13-0.41-2.42-1.23-3.89c-5.22-8.32-10.62-12.48-16.19-12.48c-7.57,0-14.46,5.83-20.68,17.48c-0.88,1.27-2.02,4.28-3.43,9.03
		c-3.64,11.11-6.66,22.11-9.06,32.97c0,1.27-0.59,3.08-1.76,5.43l-0.35-0.15l-2.2-10.21c-2.17-7.88-4.49-14.12-6.95-18.73
		c-9.74-17.77-21.03-26.66-33.88-26.66h-0.26c-0.23,0-0.53,0.12-0.88,0.37c-2.58,2.64-5.31,6.22-8.18,10.72
		c-3.4,4.85-5.1,7.52-5.1,8C411.45,502.05,412.62,503.84,414.97,506.04z"/>
	<path d="M2372.66,502.79c7.24,5.74,12.85,8.6,16.81,8.6c2.54,0,4.18-0.52,4.92-1.55c0.37-1.03,1.42-1.55,3.16-1.55h0.74
		c3.47,0,10.18,11.16,20.15,33.48c3.41,8.73,5.11,14.29,5.11,16.66c0,4.19,0.65,6.28,1.95,6.28h0.37c0.5,0,1.15-0.23,1.95-0.7
		c2.54-2.17,4.18-4.13,4.92-5.89c2.17-3.41,4.52-9.97,7.06-19.69c6.87-32.76,14.02-49.14,21.45-49.14h0.37
		c3.28,0,6.35,1.45,9.19,4.34c3.28,3.67,5.45,5.5,6.5,5.5h0.19c1.36,0,2.76-1.11,4.18-3.33c2.35-4.7,3.53-8.27,3.53-10.7v-0.54
		c0-1.19-0.43-2.56-1.3-4.11c-5.51-8.78-11.21-13.18-17.09-13.18c-7.99,0-15.26,6.15-21.82,18.45c-0.93,1.34-2.14,4.52-3.62,9.53
		c-3.84,11.73-7.03,23.33-9.56,34.8c0,1.34-0.62,3.26-1.86,5.74l-0.37-0.16l-2.32-10.77c-2.29-8.32-4.74-14.91-7.34-19.76
		c-10.28-18.76-22.2-28.13-35.75-28.13h-0.28c-0.25,0-0.56,0.13-0.93,0.39c-2.72,2.79-5.6,6.56-8.64,11.32
		c-3.59,5.12-5.39,7.93-5.39,8.45C2368.94,498.58,2370.18,500.47,2372.66,502.79z"/>
	<path class="st8" d="M1764.09,411.24c43.21-16.89,73.91-30.86,92.09-41.9c28.59,10.39,61.39,15.59,98.42,15.59
		c20.14,0,33.14-6.66,38.98-19.98c8.12-15.91,12.18-33.45,12.18-52.62c0-19.49-4.06-33.79-12.18-42.88
		c-6.49-8.77-22.08-20.14-46.77-34.11c-24.69-13.97-39.95-25.34-45.8-34.11c10.72,4.22,16.08,4.22,16.08,0
		c0-1.95-1.79-3.9-5.36-5.85c-32.48-21.76-52.13-32.64-58.95-32.64c-2.59,0-4.87,5.76-6.82,17.29s-2.6,17.95-1.96,19.25
		c1.3,3.57,3.9,6.33,7.79,8.28c-9.74,11.37-19.65,28.67-29.72,51.89c-10.07,23.22-15.11,41.17-15.11,53.85
		c0,12.01,2.76,22.25,8.28,30.69c-25.98,11.37-49.7,21.76-71.14,31.18c-38,16.56-74.54,43.52-109.63,80.88
		c-43.85,45.8-79.1,68.7-105.73,68.7c-30.53,0-45.79-16.56-45.79-49.69c0-25.34,7.96-51,23.87-76.99
		c13.32-22.74,19.98-34.76,19.98-36.06c0-1.95-0.97-2.92-2.92-2.92c-4.22,0-13.32,10.39-27.28,31.18
		c-19.82,29.24-29.73,60.1-29.73,92.58c0,26.64,7.96,47.26,23.88,61.88c13.32,13.32,30.21,19.98,50.67,19.98
		c25.34,0,55.39-18.03,90.14-54.08c29.24-29.88,50.19-49.86,62.86-59.93C1714.88,434.14,1738.1,420.98,1764.09,411.24z
		 M1919.04,273.35c50.35,27.28,74.22,45.63,71.62,55.05c-0.65,4.55-7.63,6.83-20.95,6.83c-14.62,0-37.52-3.41-68.7-10.24
		C1907.51,316.55,1913.52,299.34,1919.04,273.35z M1841.56,255.32c9.75-10.72,18.52-16.08,26.31-16.08c8.77,0,16.72,7.63,23.87,22.9
		c6.17,12.67,9.26,22.41,9.26,29.23c0,6.5-10.39,15.11-31.18,25.82c-28.59-6.49-42.88-17.86-42.88-34.11
		C1826.95,275.29,1831.82,266.04,1841.56,255.32z"/>
	<path class="st8" d="M2023.24,234.48c1.61,20.88,4.84,41.51,7.91,60.6l13.88,120.55c1.29,12.94-1.78,55.35,2.58,62.14
		c44.87-21.14,10.33-227.53,6.13-268.27l-9.58-106.89c8.65,9.31,30.96,16.32,33.44,13.3c0.68-0.83,0.08-1.46-0.89-3.85
		c-4.41-10.96-15.96-28.96-26.26-43.95c-6.4-9.32-13.17-21.95-18.98-30.92c-5.33-8.2-11.78-22.16-20.5-25.24
		c-9.52,6.92-5.65,14.86-8.88,26.01c-9.85,33.69-14.04,27.67-0.65,52.14C2011.94,109.32,2021.46,210.53,2023.24,234.48z"/>
	<path d="M1764.78,546.2c-3.71,3.7-9.01,13.32-11.12,18.53c54.27-18.32,61.38-19.43,116.36-40.46c1.3-2.3,15.12-22.73,10.61-19.53
		C1825.66,525.67,1820.25,525.07,1764.78,546.2z"/>
	<path d="M1066.31,546.2c-4.73,3.7-11.5,13.32-14.18,18.53c69.25-18.32,78.33-19.43,148.48-40.46c1.66-2.3,19.29-22.73,13.54-19.53
		C1144,525.67,1137.1,525.07,1066.31,546.2z"/>
	<path d="M2506.56,346.21h-0.35l-0.21,0.07c-0.88,1.01-1.9,2.58-3.06,4.7c-11.58,20.86-17.37,40.64-17.37,59.34v2.21
		c0,2.9,0.21,5.48,0.63,7.74c1.48,9.16,5.63,13.75,12.44,13.75h0.49c8.52,0,14.64-10.64,18.34-31.92c-0.14-0.78-0.3-1.17-0.49-1.17
		h-0.07l-1.11,1.11c-0.37,0.88-1.09,2.23-2.15,4.08c-4.03,6.72-7.46,10.09-10.28,10.09c-6.21,0-9.31-5.71-9.31-17.13
		c0-6.91,2.32-18.19,6.95-33.85C2504.7,353.74,2506.56,347.41,2506.56,346.21z"/>
	<path d="M1989.45,395.62h-0.35l-0.21,0.07c-0.88,1.01-1.9,2.58-3.06,4.7c-11.58,20.86-17.37,40.64-17.37,59.34v2.21
		c0,2.9,0.21,5.48,0.63,7.74c1.48,9.16,5.63,13.75,12.44,13.75h0.49c8.52,0,14.64-10.64,18.34-31.92c-0.14-0.78-0.3-1.17-0.49-1.17
		h-0.07l-1.11,1.11c-0.37,0.88-1.09,2.23-2.15,4.08c-4.03,6.72-7.46,10.09-10.28,10.09c-6.21,0-9.31-5.71-9.31-17.13
		c0-6.91,2.32-18.19,6.95-33.85C1987.6,403.15,1989.45,396.82,1989.45,395.62z"/>
	<path d="M1825.85,409.36h-0.35l-0.21,0.07c-0.88,1.01-1.9,2.58-3.06,4.7c-11.58,20.86-17.37,40.64-17.37,59.34v2.21
		c0,2.9,0.21,5.48,0.63,7.74c1.48,9.16,5.63,13.75,12.44,13.75h0.49c8.52,0,14.64-10.64,18.34-31.92c-0.14-0.78-0.3-1.17-0.49-1.17
		h-0.07l-1.11,1.11c-0.37,0.88-1.09,2.23-2.15,4.08c-4.03,6.72-7.46,10.09-10.28,10.09c-6.21,0-9.31-5.71-9.31-17.13
		c0-6.91,2.32-18.19,6.95-33.85C1824,416.89,1825.85,410.55,1825.85,409.36z"/>
	<path d="M1555.49,401.07h-0.35l-0.21,0.07c-0.88,1.01-1.9,2.58-3.06,4.7c-11.58,20.86-17.37,40.64-17.37,59.34v2.21
		c0,2.9,0.21,5.48,0.63,7.74c1.48,9.16,5.63,13.75,12.44,13.75h0.49c8.52,0,14.64-10.64,18.34-31.92c-0.14-0.78-0.3-1.17-0.49-1.17
		h-0.07l-1.11,1.11c-0.37,0.88-1.09,2.23-2.15,4.08c-4.03,6.72-7.46,10.09-10.28,10.09c-6.21,0-9.31-5.71-9.31-17.13
		c0-6.91,2.32-18.19,6.95-33.85C1553.63,408.6,1555.49,402.27,1555.49,401.07z"/>
	<path d="M1769.61,204.6h-0.35l-0.21,0.07c-0.88,1.01-1.9,2.58-3.06,4.7c-11.58,20.86-17.37,40.64-17.37,59.34v2.21
		c0,2.9,0.21,5.48,0.63,7.74c1.48,9.16,5.63,13.75,12.44,13.75h0.49c8.52,0,14.64-10.64,18.34-31.92c-0.14-0.78-0.3-1.17-0.49-1.17
		h-0.07l-1.11,1.11c-0.37,0.88-1.09,2.23-2.15,4.08c-4.03,6.72-7.46,10.09-10.28,10.09c-6.21,0-9.31-5.71-9.31-17.13
		c0-6.91,2.32-18.19,6.95-33.85C1767.76,212.13,1769.61,205.79,1769.61,204.6z"/>
	<path d="M1610.27,153.05h-0.35l-0.21,0.07c-0.88,1.01-1.9,2.58-3.06,4.7c-11.58,20.86-17.37,40.64-17.37,59.34v2.21
		c0,2.9,0.21,5.48,0.63,7.74c1.48,9.16,5.63,13.75,12.44,13.75h0.49c8.52,0,14.64-10.64,18.34-31.92c-0.14-0.78-0.3-1.17-0.49-1.17
		h-0.07l-1.11,1.11c-0.37,0.88-1.09,2.23-2.15,4.08c-4.03,6.72-7.46,10.09-10.28,10.09c-6.21,0-9.31-5.71-9.31-17.13
		c0-6.91,2.32-18.19,6.95-33.85C1608.42,160.58,1610.27,154.25,1610.27,153.05z"/>
	<path d="M1973.5,118.84h-0.35l-0.21,0.07c-0.88,1.01-1.9,2.58-3.06,4.7c-11.58,20.86-17.37,40.64-17.37,59.34v2.21
		c0,2.9,0.21,5.48,0.63,7.74c1.48,9.16,5.63,13.75,12.44,13.75h0.49c8.52,0,14.64-10.64,18.34-31.92c-0.14-0.78-0.3-1.17-0.49-1.17
		h-0.07l-1.11,1.11c-0.37,0.88-1.09,2.23-2.15,4.08c-4.03,6.72-7.46,10.09-10.28,10.09c-6.21,0-9.31-5.71-9.31-17.13
		c0-6.91,2.32-18.19,6.95-33.85C1971.65,126.37,1973.5,120.04,1973.5,118.84z"/>
	<path class="st8" d="M2535.59,257.04c15.41,0,15.28-1.13,15.96-1.13c2.74,0,9.25-8.05,19.53-24.14
		c10.28-16.1,14.56-24.15,12.85-24.15c-47.62,0-74.55-4.69-164.98-32.78c-30.14-9.93-65.94-23.29-107.39-40.08
		c-27.41-10.62-45.91-15.93-55.5-15.93c-5.14,0-17.35-0.08-30.71,2.32c-15.42,3.43-21.36,7.45-23.76,9.51
		c-2.39,2.05-8.13,9.93-17.21,23.64c-9.08,13.7-15.15,22.01-13.62,26.06c2.02,5.36,27.85,7.06,37.37,7.77
		c17.43,1.29,46.97,3.74,69.85,6.18c3.45,0.37,6.94-0.73,9.51-3.07c0.03-0.03,0.07-0.06,0.1-0.09c3.31-3.02,8.07-3.9,12.3-2.42
		c51.24,17.87,95.59,35.73,123.72,44.24c-53.38,11.52-108.5,44.22-199.79,51.94c-4.11-9.7-9.6-19.72-16.63-30.12
		c-18.41-26.89-37.57-41.07-57.46-42.55c-18.78-1.1-35.36,8.66-49.73,29.28c-12.89,18.41-19.34,37.02-19.34,55.81
		c0,32.04,19.89,48.07,59.68,48.07c28.36,0,47.46-4.54,66.85-8.85c8.28-1.84,7.19,15.11,7.19,24.32c0,14.73-26.52,41.99-79.56,81.76
		c-58.2,43.47-107.56,65.2-148.07,65.2c-28.73,0-51.3-9.58-67.69-28.73s-24.59-42.91-24.59-71.28c0-9.8,1.61-35.5-4.36-24
		c-1.65,3.18-9.75,32.08-9.75,58.81c0,35.73,3.79,64.47,20.74,86.2c18.42,23.94,45.12,35.9,80.11,35.9
		c37.2,0,81.04-18.23,131.51-54.7c43.83-31.31,76.98-63.53,99.45-96.68c12.41-18.11,19.1-44.57,20.21-79.18
		C2357.54,321.05,2496.3,257.04,2535.59,257.04z M2143.12,291.78c-17.68-1.1-26.52-5.34-26.52-12.71c0-3.31,2.3-6.44,6.91-9.39
		c4.6-2.94,8.38-4.41,11.33-4.41c13.62,1.1,27.07,9.75,40.33,25.96C2166.33,292.34,2155.65,292.52,2143.12,291.78z"/>
	<path d="M2393.65,13.62c-70.64,20.36-131.63,34.89-202.91,55.45c-5.01,4.68-12.64,17.45-15.83,24.73
		c69.47-16.58,132.79-33.55,203.42-53.91C2380.18,36.94,2399.6,9.81,2393.65,13.62z"/>
	<path class="st8" d="M2397.87,434.14c0.28,0,0.99-0.25,2.12-0.74c3.39-4.94,7.8-12.36,13.24-22.25
		c6.99-13.14,10.49-22.18,10.49-27.12c0-1.06-1.24-2.72-3.71-4.98c-26.49-19.71-43.19-30.69-50.12-32.95h-0.74
		c-0.78,0-1.77,0.6-2.97,1.8c-15.47,31.64-23.2,47.68-23.2,48.1c0,1.13,0.78,2.08,2.33,2.86c14.83,9.25,30.09,19.71,45.77,31.36
		c3.11,2.61,5.26,3.92,6.46,3.92H2397.87z"/>
	<path d="M2439.92,135.95h0.67c11.73,0,20.14-14.73,25.24-44.18c-0.19-1.08-0.41-1.63-0.67-1.63h-0.1l-1.53,1.53
		c-0.51,1.21-1.5,3.09-2.96,5.64c-5.55,9.31-10.26,13.96-14.15,13.96c-8.54,0-12.81-7.9-12.81-23.71c0-9.56,3.19-25.18,9.56-46.85
		c5.1-15.87,7.65-24.64,7.65-26.3h-0.48l-0.29,0.1c-1.21,1.4-2.61,3.57-4.21,6.5c-15.94,28.88-23.91,56.26-23.91,82.14v3.06
		c0,4.02,0.29,7.59,0.86,10.71C2424.84,129.6,2430.55,135.95,2439.92,135.95z"/>
	<path d="M2325.59,520.3l-1.65,1.48c-0.55,1.17-1.61,3-3.19,5.47c-5.98,9.03-11.06,13.54-15.25,13.54c-9.21,0-13.81-7.67-13.81-23
		c0-9.27,3.44-24.42,10.3-45.44c5.5-15.39,8.24-23.89,8.24-25.5h-0.51l-0.31,0.09c-1.31,1.36-2.82,3.46-4.53,6.31
		c-17.17,28.01-25.76,54.56-25.76,79.66v2.97c0,3.89,0.31,7.36,0.93,10.39c2.2,12.3,8.35,18.45,18.45,18.45h0.72
		c12.64,0,21.71-14.28,27.2-42.84c-0.21-1.05-0.45-1.58-0.72-1.58H2325.59z"/>
	<path d="M363.26,520.3l-1.65,1.48c-0.55,1.17-1.61,3-3.19,5.47c-5.98,9.03-11.06,13.54-15.25,13.54c-9.21,0-13.81-7.67-13.81-23
		c0-9.27,3.43-24.42,10.3-45.44c5.5-15.39,8.24-23.89,8.24-25.5h-0.51l-0.31,0.09c-1.31,1.36-2.82,3.46-4.53,6.31
		c-17.17,28.01-25.76,54.56-25.76,79.66v2.97c0,3.89,0.31,7.36,0.93,10.39c2.2,12.3,8.35,18.45,18.45,18.45h0.72
		c12.64,0,21.71-14.28,27.2-42.84c-0.21-1.05-0.45-1.58-0.72-1.58H363.26z"/>
	<path d="M54.5,527.1l-1.4,1.26c-0.47,0.99-1.37,2.54-2.71,4.63c-5.06,7.64-9.37,11.47-12.92,11.47c-7.8,0-11.69-6.49-11.69-19.48
		c0-7.85,2.91-20.68,8.73-38.48c4.65-13.04,6.98-20.24,6.98-21.6h-0.44l-0.26,0.08c-1.11,1.15-2.39,2.93-3.84,5.34
		c-14.54,23.72-21.82,46.2-21.82,67.46v2.51c0,3.3,0.26,6.23,0.79,8.8c1.86,10.42,7.07,15.63,15.62,15.63h0.61
		c10.7,0,18.38-12.09,23.04-36.28c-0.17-0.89-0.38-1.33-0.61-1.33H54.5z"/>
	<path d="M934.58,520.3l-1.65,1.48c-0.55,1.17-1.61,3-3.19,5.47c-5.98,9.03-11.06,13.54-15.25,13.54c-9.21,0-13.81-7.67-13.81-23
		c0-9.27,3.43-24.42,10.3-45.44c5.5-15.39,8.24-23.89,8.24-25.5h-0.51l-0.31,0.09c-1.31,1.36-2.82,3.46-4.53,6.31
		c-17.17,28.01-25.76,54.56-25.76,79.66v2.97c0,3.89,0.31,7.36,0.93,10.39c2.2,12.3,8.35,18.45,18.45,18.45h0.72
		c12.64,0,21.71-14.28,27.2-42.84c-0.21-1.05-0.45-1.58-0.72-1.58H934.58z"/>
	<path d="M626.2,522.71l-1.56,1.4c-0.52,1.11-1.53,2.84-3.02,5.17c-5.65,8.54-10.46,12.8-14.42,12.8c-8.71,0-13.06-7.25-13.06-21.75
		c0-8.77,3.25-23.09,9.75-42.97c5.2-14.56,7.8-22.6,7.8-24.12h-0.49l-0.29,0.09c-1.23,1.29-2.66,3.27-4.29,5.96
		c-16.24,26.48-24.36,51.59-24.36,75.33v2.81c0,3.68,0.29,6.96,0.88,9.82c2.08,11.63,7.89,17.45,17.44,17.45h0.68
		c11.95,0,20.53-13.51,25.73-40.52c-0.19-0.99-0.42-1.49-0.68-1.49H626.2z"/>
	<path d="M1385.39,391.86l-1.65,1.48c-0.55,1.17-1.61,3-3.19,5.47c-5.98,9.03-11.06,13.54-15.25,13.54c-9.21,0-13.81-7.67-13.81-23
		c0-9.27,3.43-24.42,10.3-45.44c5.5-15.39,8.24-23.89,8.24-25.5h-0.51l-0.31,0.09c-1.31,1.36-2.82,3.46-4.53,6.31
		c-17.17,28.01-25.76,54.56-25.76,79.66v2.97c0,3.89,0.31,7.36,0.93,10.39c2.2,12.3,8.35,18.45,18.45,18.45h0.72
		c12.64,0,21.71-14.28,27.2-42.84c-0.21-1.05-0.45-1.58-0.72-1.58H1385.39z"/>
	<path d="M1741.54,520.3l-1.65,1.48c-0.55,1.17-1.61,3-3.19,5.47c-5.98,9.03-11.06,13.54-15.25,13.54c-9.21,0-13.81-7.67-13.81-23
		c0-9.27,3.44-24.42,10.3-45.44c5.5-15.39,8.24-23.89,8.24-25.5h-0.51l-0.31,0.09c-1.31,1.36-2.82,3.46-4.53,6.31
		c-17.17,28.01-25.76,54.56-25.76,79.66v2.97c0,3.89,0.31,7.36,0.93,10.39c2.2,12.3,8.35,18.45,18.45,18.45h0.72
		c12.64,0,21.71-14.28,27.2-42.84c-0.21-1.05-0.45-1.58-0.72-1.58H1741.54z"/>
	<path d="M2583.48,520.3l-1.65,1.48c-0.55,1.17-1.61,3-3.19,5.47c-5.98,9.03-11.06,13.54-15.25,13.54c-9.21,0-13.81-7.67-13.81-23
		c0-9.27,3.44-24.42,10.3-45.44c5.5-15.39,8.24-23.89,8.24-25.5h-0.51l-0.31,0.09c-1.31,1.36-2.82,3.46-4.53,6.31
		c-17.17,28.01-25.76,54.56-25.76,79.66v2.97c0,3.89,0.31,7.36,0.93,10.39c2.2,12.3,8.35,18.45,18.45,18.45h0.72
		c12.64,0,21.71-14.28,27.2-42.84c-0.21-1.05-0.45-1.58-0.72-1.58H2583.48z"/>
	<path d="M2156,86.7l-1.65,1.48c-0.55,1.17-1.61,3-3.19,5.47c-5.98,9.03-11.06,13.54-15.25,13.54c-9.21,0-13.81-7.67-13.81-23
		c0-9.27,3.43-24.42,10.3-45.44c5.5-15.39,8.24-23.89,8.24-25.5h-0.51l-0.31,0.09c-1.31,1.36-2.82,3.46-4.53,6.31
		c-17.17,28.01-25.76,54.56-25.76,79.66v2.97c0,3.89,0.31,7.36,0.93,10.39c2.2,12.3,8.35,18.45,18.45,18.45h0.72
		c12.64,0,21.71-14.28,27.2-42.84c-0.21-1.05-0.45-1.58-0.72-1.58H2156z"/>
	<path d="M1942.95,86.7l-1.65,1.48c-0.55,1.17-1.61,3-3.19,5.47c-5.98,9.03-11.06,13.54-15.25,13.54c-9.21,0-13.81-7.67-13.81-23
		c0-9.27,3.43-24.42,10.3-45.44c5.5-15.39,8.24-23.89,8.24-25.5h-0.51l-0.31,0.09c-1.31,1.36-2.82,3.46-4.53,6.31
		c-17.17,28.01-25.76,54.56-25.76,79.66v2.97c0,3.89,0.31,7.36,0.93,10.39c2.2,12.3,8.35,18.45,18.45,18.45h0.72
		c12.64,0,21.71-14.28,27.2-42.84c-0.21-1.05-0.45-1.58-0.72-1.58H1942.95z"/>
	<path d="M2221.74,528.01l-1.23,1.23c-0.41,0.97-1.2,2.48-2.38,4.52c-4.45,7.46-8.23,11.19-11.34,11.19
		c-6.85,0-10.27-6.34-10.27-19.01c0-7.66,2.55-20.18,7.66-37.56c4.09-12.72,6.13-19.75,6.13-21.08h-0.38l-0.23,0.08
		c-0.97,1.12-2.1,2.86-3.37,5.21c-12.78,23.15-19.16,45.1-19.16,65.84v2.45c0,3.22,0.23,6.08,0.69,8.58
		c1.64,10.17,6.21,15.25,13.72,15.25h0.54c9.4,0,16.15-11.8,20.24-35.41c-0.15-0.87-0.33-1.3-0.54-1.3H2221.74z"/>
	<path d="M571.54,293.64l-1.33,1.33c-0.44,1.05-1.3,2.69-2.58,4.9c-4.82,8.09-8.92,12.13-12.3,12.13c-7.42,0-11.14-6.87-11.14-20.61
		c0-8.31,2.77-21.88,8.31-40.72c4.43-13.79,6.65-21.41,6.65-22.85h-0.42l-0.25,0.08c-1.05,1.22-2.27,3.1-3.66,5.65
		c-13.85,25.1-20.77,48.89-20.77,71.38v2.66c0,3.49,0.25,6.59,0.75,9.31c1.77,11.02,6.73,16.54,14.87,16.54h0.58
		c10.19,0,17.51-12.8,21.94-38.39c-0.17-0.94-0.36-1.41-0.58-1.41H571.54z"/>
	<path d="M686.75,243.8l-1.33,1.33c-0.44,1.05-1.3,2.69-2.58,4.9c-4.82,8.09-8.92,12.13-12.3,12.13c-7.42,0-11.14-6.87-11.14-20.61
		c0-8.31,2.77-21.88,8.31-40.72c4.43-13.79,6.65-21.41,6.65-22.85h-0.42l-0.25,0.08c-1.05,1.22-2.27,3.1-3.66,5.65
		c-13.85,25.1-20.77,48.89-20.77,71.38v2.66c0,3.49,0.25,6.59,0.75,9.31c1.77,11.02,6.73,16.54,14.87,16.54h0.58
		c10.19,0,17.51-12.8,21.94-38.39c-0.17-0.94-0.36-1.41-0.58-1.41H686.75z"/>
	<path d="M2583.62,336.81l-1.36,1.36c-0.45,1.07-1.33,2.74-2.63,5c-4.92,8.25-9.1,12.38-12.54,12.38c-7.57,0-11.36-7.01-11.36-21.02
		c0-8.48,2.83-22.32,8.48-41.53c4.52-14.07,6.78-21.84,6.78-23.31h-0.42l-0.25,0.08c-1.07,1.24-2.32,3.16-3.73,5.76
		c-14.13,25.6-21.19,49.87-21.19,72.81v2.71c0,3.56,0.25,6.72,0.76,9.49c1.81,11.25,6.87,16.87,15.17,16.87h0.59
		c10.4,0,17.86-13.05,22.38-39.16c-0.17-0.96-0.37-1.44-0.59-1.44H2583.62z"/>
	<path d="M2583.62,149.21l-1.36,1.36c-0.45,1.07-1.33,2.74-2.63,5c-4.92,8.25-9.1,12.38-12.54,12.38c-7.57,0-11.36-7.01-11.36-21.02
		c0-8.48,2.83-22.32,8.48-41.53c4.52-14.07,6.78-21.84,6.78-23.31h-0.42l-0.25,0.08c-1.07,1.24-2.32,3.16-3.73,5.76
		c-14.13,25.6-21.19,49.87-21.19,72.81v2.71c0,3.56,0.25,6.73,0.76,9.49c1.81,11.25,6.87,16.87,15.17,16.87h0.59
		c10.4,0,17.86-13.05,22.38-39.16c-0.17-0.96-0.37-1.44-0.59-1.44H2583.62z"/>
	<path d="M2480.71,47.37c6.67,5.51,11.82,8.27,15.47,8.27c2.34,0,3.85-0.5,4.53-1.49c0.34-0.99,1.31-1.49,2.91-1.49h0.68
		c3.19,0,9.37,10.73,18.55,32.18c3.13,8.39,4.7,13.73,4.7,16.01c0,4.02,0.6,6.03,1.79,6.03h0.34c0.46,0,1.05-0.22,1.79-0.67
		c2.34-2.09,3.85-3.97,4.53-5.66c1.99-3.28,4.16-9.58,6.5-18.92c6.33-31.48,12.91-47.22,19.74-47.22h0.34
		c3.02,0,5.84,1.39,8.46,4.17c3.02,3.53,5.01,5.29,5.98,5.29h0.17c1.25,0,2.54-1.07,3.85-3.2c2.17-4.52,3.25-7.94,3.25-10.28v-0.52
		c0-1.14-0.4-2.46-1.2-3.95c-5.07-8.44-10.31-12.66-15.73-12.66c-7.35,0-14.05,5.91-20.09,17.73c-0.86,1.29-1.97,4.35-3.33,9.16
		c-3.53,11.27-6.47,22.42-8.8,33.44c0,1.29-0.57,3.13-1.71,5.51l-0.34-0.15l-2.14-10.35c-2.11-7.99-4.36-14.32-6.75-18.99
		c-9.46-18.02-20.43-27.04-32.91-27.04h-0.26c-0.23,0-0.51,0.12-0.85,0.37c-2.51,2.68-5.16,6.31-7.95,10.87
		c-3.3,4.92-4.96,7.62-4.96,8.12C2477.29,43.32,2478.43,45.13,2480.71,47.37z"/>
	<path d="M1839.59,52.68c-4.95,1.24-11.74,1.47-16.45-0.27c-0.06-0.46-0.13-1.07-0.06-1.7c2.59-6.51,5-13.3,6.78-20.02
		c0.12-2.8,0.23-5.6,0.35-8.39c-0.67-1.62-1.34-3.24-1.83-4.72c-1.93-1.77-3.83-3.39-6.4-4.15c-1.56-0.11-3.28-0.21-4.82-0.17
		c-3.76,0.93-6.65,2.53-9.82,4.47c-1.55,1.27-2.93,2.53-4.48,3.81c-4.56,5.67-8.5,12.5-12.39,18.56
		c-1.85,5.02-4.29,10.28-4.56,15.57c0.29,1.05,0.44,2.26,0.74,3.46c1.35,4.62,4.04,7.54,7.97,10.45c1.5,0.89,2.99,1.64,4.63,2.36
		c-0.38,0.67-0.78,1.18-1.18,1.69c-0.15,0.02-0.15,0.02-0.3,0.04c-0.33,1.12-3.12,3.48-3.94,4.36c-3.07,2.7-5.99,5.39-8.9,8.07
		c-3.41,2.44-6.54,4.68-9.65,7.08c-10.64,9.06-22.22,16.69-34.15,24.06c-10.9,5.69-21.65,11.36-32.57,16.9
		c-1.43,0.95-2.86,1.9-4.28,2.85c-1.32,0.63-4.29,1.62-4.92,2.78c-0.02,2.32,1.62,1.81,3.48,1.88c4.08-2.06,9.53-1.81,13.76-3.88
		c9.13-2.53,18.26-5.06,27.54-7.61c5.3-2.21,10.16-5.44,15.21-8.39c0.99-0.74,2.13-1.5,3.28-2.26c2.25-1.83,4.65-3.67,7.05-5.52
		c1.87-1.16,3.56-2.45,5.39-3.92c3.6-2.15,6.88-5.65,10.12-8.22c3.3-3.35,6.59-6.7,9.89-10.05c4.7-5.69,9.64-12.03,15.21-17.05
		c4.61,0.97,9.85,0.78,14.52,0.97c4.08-0.82,4.59-0.42,7.13-3.67c3.51-5.39,5.66-11.69,7.87-17.53
		C1839.74,53.9,1839.67,53.28,1839.59,52.68z M1814.99,50.33c-4.67-0.19-8.08-2.7-11.63-5.04c-0.01-0.15-0.03-0.3,0.1-0.48
		c-1.41-0.13-2.69-2.91-3.28-3.92c0-1.24,0.82-2.11,1.45-3.27c0.15-0.02,0.15-0.02,0.3-0.04c0,0-0.02-0.15,0.12-0.32
		c3.18-1.79,5.98-2.91,9.47-1.03c2.71,1.83,3.62,2.95,4.92,5.88c0.02,1.39,0.02,2.63,0.19,4
		C1816.34,47.54,1815.77,49.15,1814.99,50.33z"/>
</g>
</svg>
