<?xml version="1.0" encoding="utf-8"?>
<!-- Generator: Adobe Illustrator 28.0.0, SVG Export Plug-In . SVG Version: 6.00 Build 0)  -->
<svg version="1.1" id="Layer_1" xmlns="http://www.w3.org/2000/svg" xmlns:xlink="http://www.w3.org/1999/xlink" x="0px" y="0px"
	 viewBox="0 0 2682.32 573.12" style="enable-background:new 0 0 2682.32 573.12;" xml:space="preserve">
<style type="text/css">
	
		.st0{clip-path:url(#SVGID_00000035530803237136570530000007714118186788669091_);fill-rule:evenodd;clip-rule:evenodd;fill:#853135;}
	.st1{clip-path:url(#SVGID_00000035530803237136570530000007714118186788669091_);fill-rule:evenodd;clip-rule:evenodd;}
	.st2{clip-path:url(#SVGID_00000035530803237136570530000007714118186788669091_);}
	.st3{clip-path:url(#SVGID_00000035530803237136570530000007714118186788669091_);fill:#853135;}
	.st4{clip-path:url(#SVGID_00000111870421816638739010000017700957986803938468_);fill:#853135;}
	.st5{clip-path:url(#SVGID_00000111870421816638739010000017700957986803938468_);}
	.st6{fill-rule:evenodd;clip-rule:evenodd;fill:#853135;}
	.st7{fill-rule:evenodd;clip-rule:evenodd;}
	.st8{fill:#853135;}
</style>
<g>
	<path class="st6" d="M882.02,356.19c4.66,23.09,13.37,58.69,52.53,58.58c125.67-0.55,34.21-260.85,53.66-296.71
		c9.39,2.06,10.9,14.21,25.52,13.66c2.07-12.42-17.65-49.94-23.72-60.84c-14.49-25.93-13.52-48.82-23.32-59.45
		c-7.86,2.76-6.48,5.66-9.1,13.52c-4.69,13.66-13.79,32-16.42,44.55c5.11,7.03,12.14,11.72,14.48,24.28
		c1.38,7.31,2.35,23.58,2.9,32.01c3.45,49.8,14.77,148.84,23.18,197.67c2.21,12.97,5.24,20.14-3.46,28.97
		c-17.52,17.65-55.73,27.18-72.14-5.94c-14.76-29.65-9.24-88.42-30.07-115.04c-6.21,2.48-12.97,9.94-15.45,16l-2.62,10.76
		c-10.9,48.15-51.45,65.52-72.42,48.15c-13.79-11.31-10.76-30.35-27.73-30.77c-3.87,9.66-6.08,23.18-7.04,34.21
		c-2.07,23.17,39.17,62.08,31.32,88.56c-4.83,15.87-73.25,55.05-94.22,66.5c-49.25,27.04-60.69,30.9-110.08,52.83
		c-18.35,8.14-108.43,33.52-115.88,45.11c2.62,2.48-1.65,1.79,5.38,3.17l48.42-10.62c20.41-3.86,40.56-6.34,61.11-9.52
		c47.6-7.44,61.94-10.48,103.87-34.07c33.66-19.04,103.73-54.9,114.22-95.87c6.21-23.73,0.83-37.66,4.97-57.8
		c57.38-8.14,47.17-59.46,67.46-74.22c2.14,5.51,5.74,19.76,7.46,30.77C875.66,319.91,880.79,350.08,882.02,356.19"/>
	<path class="st6" d="M383.23,88.66c7.06,6.89,42.34,31.43,51.31,30.94c6.09-7.37,19.08-38.64,19.4-47.94
		c-6.89-5.62-39.77-24.38-47.94-27.74C396.06,52.1,388.36,74.39,383.23,88.66"/>
	<path class="st7" d="M882.36,79.99c-3.86,4.83-7.18,6.76-10.9,6.21c-8.69-1.1-12.56-8.28-16.14-15.17
		c-4.83,7.17-5.65,23.72-19.04,20.41c-20.97-5.11-12.14-51.87-10.49-63.04c0.41-1.66,0.7-3.17,1.93-4.56c0,0.42,0.14,0.7,0.41,0.97
		c-0.41,7.73-0.82,15.31-1.1,22.9c0.96,8.41,2.9,18.07,11.59,22.07c2.35,1.25,5.11,1.25,8.28-0.82c2.35-1.93,3.31-4.14,4.83-6.9
		c0.69-10.34-0.41-20.69,0.27-31.03c0.41-5.38,1.24-12.27,4.27-13.24c0.15,0.41,0.42,0.97,0.56,1.38
		c0.41,7.73,0.69,15.17,1.24,22.76c0.96,5.38,1.8,10.76,4.83,15.45c4.69,4.82,10.9,10.34,17.65,6.62
		c-0.27-6.48-1.92-13.11-3.45-19.59c-0.96-4.14-1.66-8.28-2.76-12.42c-0.41-6.62,1.8-13.23,3.45-19.45c2.07-2.21,2.07-0.69,3.03,0.7
		c1.52,10.48,3.73,20.55,5.52,30.76C888.56,56.68,888.15,68,882.36,79.99"/>
	<path class="st7" d="M787.46,149.29c24.42-10.07,100.43-41.24,119.6-47.04c4.83-1.38,8-7.59,12.97-14.9
		c1.79-2.62,6.07-7.3,5.23-10.49c-1.24,0.14-8.83,2.76-10.89,3.73c-27.87,9.65-108.29,36.55-119.6,50.48
		c-3.87,5.11-8.41,10.35-9.8,16.69C784.7,148.88,784.15,150.67,787.46,149.29"/>
	<path class="st7" d="M481.19,527.03c24.55-10.07,100.56-41.24,119.74-46.9c4.69-1.52,8-7.73,12.97-15.04
		c1.79-2.48,6.07-7.3,5.24-10.49c-1.25,0.14-8.84,2.76-11.04,3.73c-27.73,9.65-108.29,36.69-119.46,50.48
		c-3.87,5.11-8.41,10.49-9.8,16.69C478.57,526.62,477.88,528.42,481.19,527.03"/>
	<path d="M704,11.42h1.62c4.33,0,8.83,4.38,13.51,13.15c0.6,1.56,0.9,2.82,0.9,3.79v0.17c0,3.73-1.37,8.05-4.14,12.98
		c-0.83,0.83-1.56,1.26-2.16,1.26h-0.71c-2.16-1.8-4.14-4.02-5.95-6.66c-2.4-2.04-4.56-3.06-6.48-3.06
		c-6.37,0-12.44,16.57-18.2,49.72c-2.28,9.25-4.38,15.86-6.31,19.82c3.36,0,8.35,2.28,14.96,6.85c3.84,2.52,8.22,6.49,13.15,11.9
		c2.28,3,3.6,5.58,3.96,7.74c0,2.16-2.4,7.74-7.2,16.75c0,0.6-3.01,1.62-9.01,3.06c-10.33,2.76-17.84,5.04-22.52,6.85
		c-3.13,1.32-6.49,3.48-10.09,6.49c-0.71,0.71-1.08,1.2-1.08,1.44c10.33,31.58,15.5,61.98,15.5,91.16v2.16
		c0,9.37-1.2,19.22-3.6,29.55c-0.6,1.44-1.08,2.16-1.45,2.16c-0.83,0-1.26-8.23-1.26-24.68c-0.72-11.05-1.92-21.8-3.6-32.25
		c0-1.44-3.36-18.8-10.09-52.07c-1.2-6.48-1.81-11.11-1.81-13.87v-0.18c0-15.01,5.46-25.1,16.4-30.26
		c3.84-1.69,8.05-3.24,12.61-4.68v-0.18c-3.84-3.6-7.32-5.41-10.45-5.41c-1.92,0.12-5.22,3.36-9.91,9.73
		c-1.2,1.32-2.11,1.98-2.7,1.98c-0.36,0-0.54-0.48-0.54-1.44v-1.62c0-6.12,1.5-13.15,4.5-21.08c0.96-2.04,2.28-4.02,3.97-5.95
		c1.56-1.68,3.18-2.76,4.87-3.24c-3.36-12.61-7.09-23.55-11.17-32.79c-5.53-12.61-9.25-18.92-11.17-18.92
		c-2.16,0-3.24,0.66-3.24,1.98c-0.96,0.84-2.34,1.26-4.14,1.26c-3,0-7.44-3.06-13.33-9.19c-1.92-2.28-2.89-4.08-2.89-5.4v-0.54
		c0.24-2.4,3.48-8.29,9.73-17.66c0.95-0.83,1.74-1.26,2.34-1.26c11.77,0,21.8,9.67,30.09,29.01c2.04,4.68,4.02,11.4,5.94,20.17
		l1.45,8.65h0.36c0.96-1.81,1.68-4.93,2.16-9.38c3-14.89,6.12-27.74,9.37-38.55C692.05,17.91,698,11.42,704,11.42"/>
	<path class="st8" d="M161.27,467.44l-12.76,26.67c-6.36-5.29-12.64-9.99-18.83-14.1c-9.81-6.65-16.59-10.71-20.34-12.13
		c-0.94,0-1.81,0.5-2.58,1.51l-12.49,25.52c-3.14,6.19-4.72,9.75-4.72,10.71l0.17,0.98c10.47,6.66,20.79,13.74,30.95,21.23
		c5.47,4.28,8.54,6.42,9.19,6.42h0.17c0.9,0,1.81-0.53,2.77-1.6c6.31-10.89,10.89-20.02,13.74-27.39h0.36l25.87,17.4
		c7.73,5.77,11.92,8.65,12.57,8.65c0.77-0.12,1.48-0.5,2.14-1.16c3.46-5.47,6.64-10.76,9.55-15.87c5.35-9.87,8.03-16.65,8.03-20.34
		v-0.81c0-0.17-0.98-1.27-2.94-3.3c-19.33-14.57-31.85-22.8-37.56-24.71C163.56,465.12,162.46,465.89,161.27,467.44"/>
	<path class="st8" d="M886.43,152.24l-13.45,28.13c-6.71-5.58-13.33-10.54-19.85-14.87c-10.35-7.02-17.5-11.28-21.45-12.79
		c-1,0-1.91,0.54-2.72,1.6l-13.17,26.9c-3.33,6.53-4.99,10.29-4.99,11.29l0.18,1.04c11.04,7.02,21.92,14.49,32.65,22.39
		c5.77,4.52,9,6.77,9.69,6.77h0.19c0.93,0,1.91-0.57,2.91-1.7c6.64-11.48,11.48-21.1,14.48-28.88h0.38l27.29,18.35
		c8.16,6.08,12.58,9.12,13.26,9.12c0.82-0.12,1.57-0.53,2.26-1.22c3.64-5.77,6.99-11.36,10.06-16.75
		c5.65-10.41,8.47-17.56,8.47-21.46v-0.84c0-0.18-1.04-1.35-3.11-3.48c-20.38-15.36-33.58-24.05-39.6-26.06
		C888.84,149.79,887.68,150.61,886.43,152.24"/>
	<path class="st6" d="M1089.39,382.35c0.31,9.5,0.93,18.16,0.47,26.1c-0.78,11.35-2.97,18.01,3.44,25.53
		c7.82-4.54,6.72-7.23,8.91-15.88c1.71-6.81,3.59-12.2,5.16-18.58c2.65-11.35,5.31-26.96,6.09-38.02
		c2.19-28.23-0.31-57.16-4.53-83.41c-2.81-17.87-19.53-151.06-17.96-159.43c16.09,4.25,12.96,20.57,30.47,21.27
		c0.93-27.38-49.22-120.42-50.94-128.52c-11.25,4.97-25.15,41-25.15,41.57c-1.41,9.22,6.41,14.19,8.9,23.41
		c2.19,7.52,1.88,19.43,2.5,27.23l26.56,220.58C1086.27,341.64,1088.93,363.91,1089.39,382.35"/>
	<path class="st6" d="M643.39,355.91c23.03-21.38,40.42,0.96,45.52,24.42C671.66,376.18,649.46,370.39,643.39,355.91 M356.88,137.82
		c11.31-9.8,16-45.52-1.66-54.08c-32.69-15.73-97.38,66.63-113.8,106.49c-19.87,47.87-3.03,84.15,47.59,86.08
		c20.83,0.82,56.15-1.8,62.21,13.93c4,10.35-23.87,27.18-35.45,36.28c-24.14,19.04-63.31,40.69-95.73,53.66
		c-37.8,15.03-86.77,22.48-126.78,5.24c-37.79-16.14-58.21-44.97-60.97-87.73c-4.56-71.33,20.21-86.1,17.45-104.58
		c-20.97,4.27-31.24,64.3-32.48,84.29c-2.35,36.14,1.37,61.53,14.07,92.97c3.58,8.69,8.41,14.07,13.11,20.7
		c10.75,15.59,21.51,25.38,38.49,33.79l11.86,6.07c61.67,27.18,119.87-6.07,155.05-18.34c-3.59,19.17-10.9,31.31-11.45,55.45
		c-2.07,76.42,50.48,77.81,110.9,48.56c29.66-14.21,59.04-36.42,79.18-54.08c22.63-20,39.87-41.52,46.49-84.42
		c4.56,6.62,17.11,78.22,63.18,80.14c49.53,2.21,65.39-55.86,75.32-68.42l9.1,8.7c16.28,19.72,65.39,34.07,81.66,33.66
		c7.73-8.96,12.14-23.18,16-35.73c7.59-24.83-7.73-58.63-19.59-79.59c-23.32-41.67-63.04,16.83-69.94,22.62
		c-2.48,2.07-1.65,0.96-3.86,2.76c-4.56,3.72-7.45,6.89-11.86,12.97c-15.04,20.27-12.42,35.31-48.56,52.97
		c-33.24,16.28-52-14.34-61.39-34.9c-8.41-18.2-20-104.15-40.42-161.94c-4.55-13.24-10.06-23.18-16.27-35.45l-13.38-24.83
		c-2.04-3.22-3.62-4.6-4.67-5.24c-1.27-0.8-2.56,0.75-3.13,1.83c-7.78,14.6-6.72,46.19-1.45,59.69
		c10.07,25.8,44.14,148.85,40.01,168.57c-3.72,17.8-53.39,58.22-70.63,69.39c-26.49,16.97-58.77,39.04-97.8,42.21
		c-57.38,4.69-50.48-46.49-31.17-82.21c3.58-6.75,66.07-44.83,79.46-60.42c21.93-25.52,36.96-81.25,12.41-102.22
		c-30.9-26.48-86.9,4.69-105.66-34.62c-0.56-10.07,35.45-45.66,44.28-52.98C342.95,117.12,344.46,133.54,356.88,137.82"/>
	<path d="M37.79,187.81h0.5c8.64,0,14.85-10.86,18.61-32.57c-0.14-0.8-0.31-1.21-0.49-1.21h-0.07l-1.13,1.13
		c-0.37,0.89-1.1,2.28-2.18,4.16c-4.09,6.86-7.57,10.3-10.44,10.3c-6.3,0-9.45-5.83-9.45-17.49c0-7.05,2.35-18.57,7.05-34.55
		c3.76-11.7,5.65-18.16,5.65-19.38h-0.35l-0.21,0.07c-0.89,1.04-1.92,2.63-3.1,4.8c-11.75,21.29-17.62,41.48-17.62,60.56v2.25
		c0,2.96,0.21,5.6,0.63,7.9C26.67,183.14,30.87,187.81,37.79,187.81"/>
	<path d="M765.34,191.74l-0.93,0.94c-0.31,0.74-0.92,1.89-1.81,3.45c-3.39,5.69-6.27,8.54-8.65,8.54c-5.22,0-7.84-4.84-7.84-14.5
		c0-5.85,1.95-15.4,5.85-28.65c3.12-9.71,4.68-15.06,4.68-16.08h-0.29l-0.17,0.05c-0.74,0.86-1.6,2.19-2.58,3.98
		c-9.74,17.66-14.62,34.4-14.62,50.23v1.87c0,2.46,0.17,4.64,0.53,6.54c1.25,7.75,4.73,11.63,10.46,11.63h0.41
		c7.17,0,12.32-9,15.43-27.01c-0.12-0.66-0.26-0.99-0.41-0.99H765.34z"/>
	<path d="M586.9,160.31l-0.93,0.94c-0.31,0.74-0.92,1.89-1.81,3.45c-3.39,5.69-6.27,8.54-8.65,8.54c-5.22,0-7.84-4.84-7.84-14.5
		c0-5.85,1.95-15.4,5.85-28.65c3.12-9.71,4.68-15.06,4.68-16.08h-0.29l-0.17,0.05c-0.74,0.86-1.6,2.19-2.58,3.98
		c-9.74,17.66-14.62,34.4-14.62,50.22v1.88c0,2.46,0.17,4.64,0.53,6.54c1.25,7.75,4.73,11.63,10.46,11.63h0.41
		c7.17,0,12.32-9,15.43-27.01c-0.12-0.66-0.26-0.99-0.41-0.99H586.9z"/>
	<path d="M54.29,69.31l-1.21,1.12c-0.4,0.88-1.17,2.25-2.33,4.11c-4.36,6.77-8.07,10.16-11.13,10.16c-6.72,0-10.08-5.75-10.08-17.25
		c0-6.97,2.51-18.33,7.53-34.1c4.01-11.56,6.02-17.94,6.02-19.15H42.7l-0.22,0.07c-0.95,1.02-2.06,2.59-3.31,4.73
		c-12.54,21.02-18.8,40.95-18.8,59.79V81c0,2.93,0.22,5.52,0.68,7.79c1.6,9.24,6.09,13.85,13.46,13.85h0.53
		c9.22,0,15.84-10.72,19.86-32.15c-0.15-0.79-0.33-1.18-0.53-1.18H54.29z"/>
	<path d="M270.5,77.46l-1.44,1.34c-0.49,1.05-1.41,2.69-2.8,4.91c-5.22,8.12-9.67,12.17-13.34,12.17c-8.06,0-12.08-6.89-12.08-20.68
		c0-8.33,3.01-21.95,9.02-40.85c4.8-13.85,7.2-21.49,7.2-22.93h-0.45l-0.27,0.08c-1.14,1.22-2.46,3.12-3.96,5.67
		c-15.02,25.18-22.53,49.05-22.53,71.62v2.67c0,3.5,0.27,6.62,0.81,9.34c1.92,11.06,7.3,16.6,16.13,16.6h0.63
		c11.05,0,18.98-12.84,23.79-38.52c-0.18-0.94-0.39-1.42-0.63-1.42H270.5z"/>
	<path d="M93.75,45.67c6.69,5.54,11.87,8.3,15.53,8.3c2.35,0,3.87-0.5,4.56-1.5c0.34-0.99,1.31-1.49,2.91-1.49h0.69
		c3.2,0,9.4,10.77,18.61,32.3c3.15,8.42,4.72,13.78,4.72,16.08c0,4.04,0.6,6.06,1.81,6.06h0.34c0.46,0,1.06-0.22,1.81-0.67
		c2.35-2.1,3.86-3.99,4.55-5.68c2-3.29,4.18-9.62,6.52-18.99c6.35-31.6,12.96-47.4,19.82-47.4h0.35c3.02,0,5.86,1.39,8.49,4.18
		c3.03,3.54,5.04,5.32,6.01,5.32h0.17c1.26,0,2.55-1.07,3.87-3.22c2.17-4.54,3.25-7.97,3.25-10.32V28.1c0-1.15-0.39-2.47-1.2-3.96
		c-5.09-8.48-10.35-12.71-15.78-12.71c-7.38,0-14.11,5.93-20.16,17.79c-0.86,1.3-1.98,4.36-3.35,9.2
		c-3.55,11.31-6.5,22.5-8.84,33.57c0,1.29-0.57,3.13-1.71,5.53l-0.34-0.15l-2.14-10.39c-2.12-8.03-4.38-14.38-6.78-19.06
		c-9.5-18.09-20.5-27.15-33.03-27.15h-0.26c-0.23,0-0.51,0.13-0.86,0.38c-2.51,2.69-5.18,6.33-7.97,10.92
		c-3.32,4.94-4.98,7.65-4.98,8.15C90.32,41.61,91.46,43.42,93.75,45.67"/>
	<path d="M470.91,45.67c6.69,5.54,11.87,8.3,15.53,8.3c2.35,0,3.87-0.5,4.56-1.5c0.34-0.99,1.31-1.49,2.91-1.49h0.69
		c3.2,0,9.4,10.77,18.61,32.3c3.15,8.42,4.72,13.78,4.72,16.08c0,4.04,0.61,6.06,1.81,6.06h0.34c0.46,0,1.06-0.22,1.81-0.67
		c2.35-2.1,3.86-3.99,4.55-5.68c2-3.29,4.18-9.62,6.52-18.99c6.35-31.6,12.96-47.4,19.82-47.4h0.35c3.02,0,5.86,1.39,8.49,4.18
		c3.03,3.54,5.04,5.32,6.01,5.32h0.16c1.26,0,2.55-1.07,3.87-3.22c2.17-4.54,3.25-7.97,3.25-10.32V28.1c0-1.15-0.39-2.47-1.2-3.96
		c-5.09-8.48-10.35-12.71-15.78-12.71c-7.38,0-14.11,5.93-20.16,17.79c-0.86,1.3-1.98,4.36-3.35,9.2
		c-3.55,11.31-6.5,22.5-8.84,33.57c0,1.29-0.57,3.13-1.71,5.53l-0.34-0.15l-2.14-10.39c-2.12-8.03-4.38-14.38-6.78-19.06
		c-9.5-18.09-20.5-27.15-33.03-27.15h-0.26c-0.23,0-0.51,0.13-0.86,0.38c-2.52,2.69-5.18,6.33-7.98,10.92
		c-3.31,4.94-4.97,7.65-4.97,8.15C467.48,41.61,468.62,43.42,470.91,45.67"/>
	<path d="M195.75,220.46c-40.97,12.78-44.79,11.76-86.14,24.66c-2.94,2.82-7.49,10.55-9.39,14.81
		c40.26-10.62,45.43-10.9,86.41-23.77C187.74,234.32,199.23,218.14,195.75,220.46"/>
	<path d="M179.49,212.55c6.6-11.75,6.91-22.81,4.4-35.24c-1.89-10.12-4.4-19.98-6.29-30.1c-1.1-1.36-1.1-2.84-3.29-0.68
		c-1.89,6.08-4.4,12.56-4.09,19.04c1.41,4.05,2.04,8.1,3.14,12.15c1.72,6.34,3.77,12.68,4.08,19.16c-7.85,3.65-14.92-1.75-20.1-6.48
		c-3.46-4.59-4.56-9.85-5.66-15.12c-0.63-7.42-0.94-14.85-1.41-22.27c-0.16-0.4-0.32-0.94-0.63-1.35c-3.46,0.94-4.4,7.56-4.71,12.96
		c-0.79,10.12,0.31,20.25-0.47,30.37c-1.58,2.57-2.68,4.86-5.5,6.75c-3.46,2.03-6.6,2.03-9.42,0.81c-9.9-3.91-12.1-13.36-13.2-21.6
		c0.48-7.42,0.79-14.85,1.26-22.41c-0.16-0.27-0.47-0.54-0.47-0.94c-1.26,1.35-1.58,2.83-2.2,4.45
		c-1.73,10.93-11.93,56.71,11.93,61.7c15.4,3.24,16.34-12.97,21.68-19.98c4.24,6.75,8.64,13.77,18.38,14.85
		C171.32,219.16,174.93,217.28,179.49,212.55"/>
	<path class="st8" d="M1795.18,274.57c-1.17-2.81-2.11-5.13-2.88-7.06c-3.73-9.25-3.96-9.81-8.72-10.38c-0.9-0.1-2-0.23-3.38-0.5
		l-0.92-0.17l-0.28,0.89c-1.65,5.42-2.71,12.45-3.73,19.24c-0.73,4.86-1.43,9.45-2.32,13.43c-1.99,8.73-1.88,9.36-0.4,11.65
		c0.58,0.89,1.37,2.13,2.29,4.83c2.42,7.11,1.96,11.63-1.37,13.43c-7.88,4.28-30.26-6.94-36.53-15.01
		c-8.8-11.34-10.12-19.3-11.27-26.33c-0.8-4.82-1.55-9.38-4.58-14.22l-0.82-1.32l-7.78,10.98c-1.19,2.38-1.81,4.26-2.45,6.25
		c-0.29,0.93-0.61,1.9-1.01,2.98c-10,27.48-30.75,41.56-46.88,43.33c-11.45,1.17-21.08-3.29-27.12-12.78
		c-6.6-10.4-5.77-16.85-4.97-23.09c0.64-4.99,1.25-9.69-1.94-15.76l-0.48-0.92l-0.91,0.46c-8.4,4.2-13.22,11.4-18.81,19.73
		c-7.15,10.68-15.25,22.79-33.42,31.88c-17.54,8.79-31.58,10.27-42.9,4.49c-24.46-12.46-31.72-56.65-38.75-99.39
		c-6.06-36.85-11.78-71.66-28.38-83.18l-0.71-0.49l-0.62,0.62c-9.39,9.45-10.86,21.55-12.43,34.36
		c-1.91,15.54-4.06,33.16-21.37,49.04c-11.07,10.17-21.88,15-32.23,14.16c-16.33-1.23-28.04-15.8-35.03-24.51
		c-2.57-3.21-4.43-5.52-5.84-6.32l-0.85-0.48l-0.53,0.8c-6.46,9.79-11.46,31.36-11.61,44.13c-0.15,6.26,5.64,16.42,12.97,29.3
		c14.66,25.75,34.76,61.05,12.87,81.21c-18.17,16.71-35.29,31.76-61.01,46.68c-21.81,12.79-45.64,25.94-72.14,35.62
		c-67.57,24.26-123.94,17.72-167.54-19.45c-47.96-40.84-38.49-89.9-30.89-129.32c2.28-11.88,4.45-23.11,4.53-32.41l0.01-1.43
		l-1.37,0.43c-16.08,5.09-32.59,72.92-21.16,133.36c8.37,44.24,37.96,115.97,141.78,115.97c5.21,0,10.61-0.17,16.2-0.55
		c26.33-1.83,60.02-14.66,83.63-25.12c33.39-14.81,106.51-63.78,121.05-96.16c13.62-30.98,14.76-78.94,14.77-93.34
		c2.31-4.46,2.34-4.46,3.85-4.57c1.4-0.11,3.74-0.28,8.32-2.13c35.61-14.33,42.41-50.15,46.47-71.56c0.73-3.9,1.41-7.42,2.14-10.26
		c5.53,18.1,8.46,38.54,11.31,58.36c4.67,32.6,9.52,66.31,26.14,88.93c16.75,22.91,36.94,26.17,50.92,24.95
		c24.98-2.27,50.97-21.25,63.79-46.4c2.45,3.65,4.02,7.26,5.55,10.76c2.65,6.09,5.15,11.83,11.72,17.07
		c6.26,5.04,19.12,13.13,34.8,10.72c23.29-3.76,31.25-16.86,39.69-30.71c2.61-4.29,5.31-8.73,8.52-12.97
		c3.09,4.03,5.11,7.63,6.9,10.83c4.55,8.08,8.14,14.47,24.52,21.35c16.29,6.79,29.51,5.27,39.34-4.55
		C1802.23,342.6,1800.53,287.36,1795.18,274.57"/>
	<path class="st6" d="M1418.35,105.71c6.08,5.94,36.44,27.06,44.31,26.63c5.11-6.34,16.29-33.26,16.56-41.26
		c-5.94-4.83-34.1-20.98-41.27-23.88C1429.53,74.25,1422.9,93.43,1418.35,105.71"/>
	<path class="st7" d="M1521.02,11.42c-1.27,0.05-9.26,2.19-11.5,2.9c-45.71,14.57-92.25,23.1-138.19,35.1
		c-17.89,4.78-16.04,1.62-23.04,9.01c-3.82,4.62-6.93,9.24-10.37,14.07c-1.34,1.85-2.69,3.84-3.16,5.58
		c22.25-4.8,146.46-34.26,165.89-41.98c4.55-1.81,8.52-7.25,14.21-14.33C1516.89,19.21,1521.65,14.78,1521.02,11.42"/>
	<path class="st6" d="M1177.4,214.35c6.66,6.52,39.99,29.69,48.48,29.24c5.76-6.97,18.02-36.51,18.18-45.3
		c-6.52-5.3-37.41-23.18-45.3-26.2C1189.52,179.66,1182.25,200.72,1177.4,214.35"/>
	<path d="M1745.26,11.42c5.85,0,10.05,2.74,12.6,8.21c1.37,3.29,2.05,7.53,2.05,12.73c0,9.95-2.1,21.09-6.3,33.41h0.27
		c8.49,5.3,12.74,10.45,12.74,15.47v2.05c0,2.83-1.51,7.58-4.52,14.24c-8.67,20.71-13.01,37.55-13.01,50.51
		c0,11.5,2.41,18.85,7.25,22.04c1.65,0.82,3.2,1.24,4.66,1.24h0.82c4.2,0,9.35-5.57,15.47-16.71c1.37-2.65,2.5-3.97,3.42-3.97
		l0.27,0.41v2.05c-4.84,28.48-13.28,42.71-25.32,42.71c-9.86,0-15.75-6.85-17.66-20.53c-0.28-3.11-0.41-5.8-0.41-8.08v-3.14
		c0-10.95,4.24-28.43,12.73-52.44c2.56-7.58,3.83-11.55,3.83-11.92c0-1.82-3.74-4.97-11.23-9.44c0-0.18-0.31-0.27-0.95-0.27
		c-3.2,4.93-9.63,12.36-19.3,22.32c-0.37,0-2.6,1.96-6.71,5.88c-0.28,0-1.87,1.32-4.79,3.97c-8.12,6.21-16.2,11.87-24.23,16.97
		c-15.06,9.95-32.03,18.12-50.92,24.51c-21.18,8.49-33.5,12.73-36.96,12.73h-0.27c-0.27,0-0.41-0.14-0.41-0.41v-0.4
		c0-1.74,3.83-4.7,11.5-8.9c38.7-22.82,65.48-39.02,80.36-48.6c10.04-6.75,19.35-13.6,27.93-20.53c4.84-3.93,9.49-8.18,13.96-12.74
		c-17.34-9.03-26.01-18.52-26.01-28.48v-0.68c0-15.43,9.17-28.98,27.52-40.67C1738.28,12.61,1742.16,11.42,1745.26,11.42
		 M1722.12,44.28c0,3.65,6.94,8.99,20.81,16.02h0.14c1.01-3.2,1.51-6.57,1.51-10.14v-0.14c0-6.85-1.6-11.49-4.79-13.96
		c-1.28-0.55-2.47-0.82-3.56-0.82h-0.55c-3.02,0-7.17,2.05-12.46,6.16C1722.49,42.5,1722.12,43.45,1722.12,44.28"/>
	<path d="M1300.92,177.03h0.59c10.23,0,17.56-12.84,22.01-38.52c-0.17-0.94-0.36-1.42-0.58-1.42h-0.08l-1.34,1.34
		c-0.44,1.05-1.3,2.69-2.58,4.92c-4.84,8.11-8.95,12.17-12.34,12.17c-7.45,0-11.17-6.89-11.17-20.68c0-8.34,2.78-21.96,8.33-40.86
		c4.45-13.84,6.67-21.48,6.67-22.93h-0.41l-0.26,0.08c-1.05,1.23-2.27,3.12-3.67,5.67c-13.89,25.18-20.84,49.05-20.84,71.63v2.67
		c0,3.5,0.25,6.61,0.75,9.34C1287.77,171.5,1292.74,177.03,1300.92,177.03"/>
	<path d="M1193.08,424.57h0.59c10.23,0,17.56-12.84,22.01-38.52c-0.17-0.94-0.36-1.42-0.58-1.42h-0.08l-1.34,1.34
		c-0.44,1.05-1.3,2.69-2.58,4.92c-4.84,8.11-8.95,12.17-12.34,12.17c-7.45,0-11.17-6.89-11.17-20.68c0-8.34,2.78-21.96,8.33-40.86
		c4.45-13.84,6.67-21.48,6.67-22.93h-0.41l-0.26,0.08c-1.05,1.23-2.27,3.12-3.67,5.67c-13.89,25.18-20.84,49.05-20.84,71.63v2.67
		c0,3.5,0.25,6.61,0.75,9.34C1179.94,419.04,1184.9,424.57,1193.08,424.57"/>
	<path d="M1285.93,364.89h0.59c10.23,0,17.56-12.84,22.01-38.52c-0.16-0.94-0.36-1.42-0.58-1.42h-0.08l-1.34,1.34
		c-0.44,1.05-1.3,2.69-2.58,4.92c-4.84,8.11-8.95,12.17-12.34,12.17c-7.45,0-11.17-6.89-11.17-20.68c0-8.34,2.78-21.96,8.33-40.86
		c4.45-13.84,6.67-21.48,6.67-22.93h-0.41l-0.26,0.08c-1.05,1.23-2.27,3.12-3.67,5.67c-13.89,25.18-20.84,49.05-20.84,71.63v2.67
		c0,3.5,0.25,6.61,0.75,9.34C1272.78,359.37,1277.75,364.89,1285.93,364.89"/>
	<path d="M1559.13,257.14h0.59c10.23,0,17.56-12.84,22.01-38.52c-0.16-0.94-0.36-1.42-0.58-1.42h-0.08l-1.34,1.34
		c-0.44,1.05-1.3,2.69-2.58,4.92c-4.84,8.11-8.95,12.17-12.34,12.17c-7.45,0-11.17-6.89-11.17-20.68c0-8.34,2.78-21.96,8.33-40.86
		c4.45-13.84,6.67-21.48,6.67-22.93h-0.41l-0.26,0.08c-1.05,1.23-2.27,3.12-3.67,5.67c-13.9,25.18-20.84,49.05-20.84,71.63v2.67
		c0,3.5,0.25,6.61,0.75,9.34C1545.99,251.61,1550.95,257.14,1559.13,257.14"/>
	<path d="M1157.94,45.67c6.69,5.54,11.87,8.3,15.53,8.3c2.35,0,3.87-0.5,4.56-1.5c0.34-0.99,1.31-1.49,2.91-1.49h0.69
		c3.2,0,9.4,10.77,18.61,32.3c3.15,8.42,4.72,13.78,4.72,16.08c0,4.04,0.6,6.06,1.81,6.06h0.34c0.46,0,1.06-0.22,1.81-0.67
		c2.35-2.1,3.86-3.99,4.55-5.68c2-3.29,4.18-9.62,6.52-18.99c6.35-31.6,12.96-47.4,19.82-47.4h0.35c3.02,0,5.86,1.39,8.49,4.18
		c3.03,3.54,5.04,5.32,6.01,5.32h0.17c1.26,0,2.55-1.07,3.87-3.22c2.17-4.54,3.25-7.97,3.25-10.32V28.1c0-1.15-0.39-2.47-1.2-3.96
		c-5.09-8.48-10.35-12.71-15.78-12.71c-7.38,0-14.11,5.93-20.16,17.79c-0.86,1.3-1.98,4.36-3.35,9.2
		c-3.55,11.31-6.5,22.5-8.84,33.57c0,1.29-0.57,3.13-1.71,5.53l-0.34-0.15l-2.14-10.39c-2.12-8.03-4.38-14.38-6.78-19.06
		c-9.5-18.09-20.5-27.15-33.03-27.15h-0.26c-0.23,0-0.51,0.13-0.86,0.38c-2.52,2.69-5.18,6.33-7.98,10.92
		c-3.31,4.94-4.97,7.65-4.97,8.15C1154.51,41.61,1155.65,43.42,1157.94,45.67"/>
	<path d="M1556.4,45.67c6.69,5.54,11.87,8.3,15.53,8.3c2.35,0,3.87-0.5,4.56-1.5c0.34-0.99,1.31-1.49,2.91-1.49h0.69
		c3.2,0,9.4,10.77,18.61,32.3c3.15,8.42,4.72,13.78,4.72,16.08c0,4.04,0.6,6.06,1.81,6.06h0.34c0.46,0,1.06-0.22,1.81-0.67
		c2.35-2.1,3.86-3.99,4.55-5.68c2-3.29,4.18-9.62,6.52-18.99c6.35-31.6,12.96-47.4,19.83-47.4h0.35c3.02,0,5.86,1.39,8.49,4.18
		c3.03,3.54,5.04,5.32,6.01,5.32h0.17c1.26,0,2.55-1.07,3.87-3.22c2.17-4.54,3.25-7.97,3.25-10.32V28.1c0-1.15-0.39-2.47-1.2-3.96
		c-5.09-8.48-10.35-12.71-15.78-12.71c-7.38,0-14.11,5.93-20.16,17.79c-0.86,1.3-1.98,4.36-3.35,9.2
		c-3.55,11.31-6.5,22.5-8.84,33.57c0,1.29-0.57,3.13-1.71,5.53l-0.34-0.15l-2.14-10.39c-2.12-8.03-4.38-14.38-6.78-19.06
		c-9.5-18.09-20.5-27.15-33.03-27.15h-0.26c-0.23,0-0.51,0.13-0.86,0.38c-2.52,2.69-5.18,6.33-7.98,10.92
		c-3.31,4.94-4.97,7.65-4.97,8.15C1552.97,41.61,1554.1,43.42,1556.4,45.67"/>
	<path d="M1357.7,502.86c7.27,5.76,12.9,8.63,16.87,8.63c2.55,0,4.2-0.51,4.94-1.56c0.38-1.04,1.43-1.55,3.17-1.55h0.74
		c3.48,0,10.23,11.2,20.24,33.61c3.42,8.76,5.12,14.34,5.12,16.73c0,4.21,0.65,6.31,1.96,6.31h0.37c0.5,0,1.15-0.24,1.96-0.71
		c2.55-2.17,4.2-4.14,4.94-5.91c2.17-3.42,4.54-10.01,7.08-19.76c6.9-32.89,14.08-49.33,21.54-49.33h0.38
		c3.29,0,6.37,1.45,9.22,4.35c3.3,3.68,5.47,5.53,6.53,5.53h0.18c1.37,0,2.77-1.12,4.2-3.35c2.36-4.72,3.54-8.29,3.54-10.73v-0.55
		c0-1.19-0.43-2.57-1.3-4.12c-5.54-8.82-11.26-13.23-17.16-13.23c-8.02,0-15.32,6.17-21.91,18.51c-0.93,1.36-2.14,4.55-3.64,9.58
		c-3.85,11.77-7.06,23.42-9.61,34.93c0,1.35-0.61,3.27-1.86,5.76l-0.38-0.16l-2.33-10.82c-2.3-8.35-4.76-14.96-7.37-19.83
		c-10.31-18.83-22.28-28.25-35.89-28.25h-0.28c-0.25,0-0.56,0.13-0.93,0.39c-2.73,2.8-5.63,6.58-8.67,11.36
		c-3.6,5.13-5.41,7.96-5.41,8.48C1353.97,498.64,1355.22,500.52,1357.7,502.86"/>
	<path d="M800.44,502.86c7.27,5.76,12.9,8.63,16.87,8.63c2.55,0,4.2-0.51,4.94-1.56c0.38-1.04,1.43-1.55,3.17-1.55h0.74
		c3.48,0,10.23,11.2,20.24,33.61c3.42,8.76,5.12,14.34,5.12,16.73c0,4.21,0.65,6.31,1.96,6.31h0.37c0.5,0,1.15-0.24,1.96-0.71
		c2.55-2.17,4.2-4.14,4.94-5.91c2.17-3.42,4.54-10.01,7.08-19.76c6.9-32.89,14.08-49.33,21.54-49.33h0.38
		c3.29,0,6.37,1.45,9.23,4.35c3.29,3.68,5.46,5.53,6.53,5.53h0.18c1.37,0,2.77-1.12,4.2-3.35c2.36-4.72,3.54-8.29,3.54-10.73v-0.55
		c0-1.19-0.43-2.57-1.3-4.12c-5.54-8.82-11.26-13.23-17.16-13.23c-8.02,0-15.32,6.17-21.91,18.51c-0.93,1.36-2.14,4.55-3.64,9.58
		c-3.85,11.77-7.06,23.42-9.61,34.93c0,1.35-0.61,3.27-1.86,5.76l-0.38-0.16l-2.33-10.82c-2.3-8.35-4.76-14.96-7.37-19.83
		c-10.31-18.83-22.28-28.25-35.89-28.25h-0.27c-0.25,0-0.56,0.13-0.93,0.39c-2.73,2.8-5.63,6.58-8.67,11.36
		c-3.6,5.13-5.41,7.96-5.41,8.48C796.71,498.64,797.95,500.52,800.44,502.86"/>
	<path d="M2462.79,502.86c7.27,5.76,12.9,8.63,16.87,8.63c2.55,0,4.2-0.51,4.94-1.56c0.38-1.04,1.43-1.55,3.17-1.55h0.74
		c3.48,0,10.23,11.2,20.24,33.61c3.42,8.76,5.12,14.34,5.12,16.73c0,4.21,0.65,6.31,1.96,6.31h0.37c0.5,0,1.15-0.24,1.96-0.71
		c2.55-2.17,4.2-4.14,4.94-5.91c2.17-3.42,4.54-10.01,7.08-19.76c6.9-32.89,14.08-49.33,21.54-49.33h0.38
		c3.29,0,6.37,1.45,9.22,4.35c3.3,3.68,5.47,5.53,6.54,5.53h0.18c1.37,0,2.77-1.12,4.2-3.35c2.36-4.72,3.54-8.29,3.54-10.73v-0.55
		c0-1.19-0.43-2.57-1.3-4.12c-5.54-8.82-11.25-13.23-17.16-13.23c-8.02,0-15.32,6.17-21.91,18.51c-0.93,1.36-2.14,4.55-3.64,9.58
		c-3.85,11.77-7.06,23.42-9.61,34.93c0,1.35-0.61,3.27-1.86,5.76l-0.38-0.16l-2.33-10.82c-2.3-8.35-4.76-14.96-7.37-19.83
		c-10.31-18.83-22.28-28.25-35.89-28.25h-0.27c-0.25,0-0.56,0.13-0.93,0.39c-2.73,2.8-5.63,6.58-8.67,11.36
		c-3.6,5.13-5.41,7.96-5.41,8.48C2459.06,498.64,2460.31,500.52,2462.79,502.86"/>
	<path class="st8" d="M1851.86,410.95c43.38-16.97,74.19-30.98,92.45-42.07c28.7,10.43,61.63,15.65,98.8,15.65
		c20.22,0,33.26-6.68,39.13-20.05c8.16-15.98,12.24-33.58,12.24-52.82c0-19.57-4.08-33.91-12.24-43.04
		c-6.52-8.81-22.17-20.22-46.95-34.24c-24.78-14.02-40.11-25.44-45.97-34.24c10.76,4.24,16.14,4.24,16.14,0
		c0-1.95-1.8-3.91-5.38-5.87c-32.61-21.85-52.33-32.77-59.19-32.77c-2.6,0-4.89,5.78-6.84,17.36c-1.96,11.57-2.61,18.01-1.96,19.32
		c1.3,3.58,3.91,6.36,7.82,8.31c-9.77,11.41-19.71,28.78-29.83,52.1c-10.11,23.31-15.16,41.33-15.16,54.05
		c0,12.06,2.77,22.34,8.31,30.81c-26.08,11.41-49.89,21.85-71.42,31.31c-38.15,16.63-74.83,43.69-110.05,81.19
		c-44.02,45.98-79.41,68.97-106.15,68.97c-30.65,0-45.97-16.63-45.97-49.89c0-25.43,7.99-51.2,23.97-77.28
		c13.36-22.82,20.05-34.89,20.05-36.2c0-1.95-0.98-2.93-2.94-2.93c-4.23,0-13.36,10.43-27.39,31.3
		c-19.89,29.36-29.84,60.34-29.84,92.95c0,26.74,7.99,47.44,23.98,62.11c13.37,13.37,30.33,20.05,50.87,20.05
		c25.43,0,55.6-18.09,90.49-54.29c29.35-30.01,50.38-50.06,63.09-60.17C1802.46,433.94,1825.78,420.73,1851.86,410.95
		 M2007.42,272.53c50.54,27.39,74.51,45.81,71.89,55.27c-0.65,4.56-7.65,6.85-21.03,6.85c-14.67,0-37.66-3.42-68.97-10.27
		C1995.84,315.89,2001.87,298.61,2007.42,272.53 M1929.64,254.43c9.78-10.76,18.59-16.14,26.41-16.14c8.8,0,16.79,7.66,23.96,23
		c6.21,12.71,9.3,22.49,9.3,29.34c0,6.53-10.44,15.17-31.31,25.92c-28.7-6.52-43.04-17.93-43.04-34.23
		C1914.97,274.48,1919.85,265.19,1929.64,254.43"/>
	<path class="st8" d="M2112.02,234.82c1.62,20.96,4.86,41.67,7.94,60.83l13.94,121.02c1.29,13-1.79,55.56,2.58,62.38
		c45.05-21.22,10.38-228.41,6.16-269.31l-9.61-107.31c8.68,9.35,31.08,16.39,33.56,13.35c0.69-0.83,0.07-1.46-0.89-3.87
		c-4.44-11-16.02-29.07-26.36-44.12c-6.43-9.35-13.23-22.03-19.06-31.03c-5.35-8.24-11.83-22.25-20.59-25.34
		c-9.56,6.95-5.66,14.92-8.91,26.11c-9.88,33.82-14.1,27.78-0.65,52.34C2100.67,109.17,2110.24,210.77,2112.02,234.82"/>
	<path d="M1852.56,546.43c-3.72,3.72-9.05,13.37-11.15,18.6c54.48-18.4,61.62-19.5,116.8-40.61c1.31-2.31,15.18-22.82,10.66-19.6
		C1913.67,525.83,1908.24,525.22,1852.56,546.43"/>
	<path d="M1151.38,546.43c-4.75,3.72-11.55,13.37-14.23,18.6c69.52-18.4,78.63-19.5,149.05-40.61c1.67-2.31,19.37-22.82,13.59-19.6
		C1229.37,525.83,1222.44,525.22,1151.38,546.43"/>
	<path d="M2597.21,345.67h-0.35l-0.21,0.07c-0.88,1.02-1.91,2.58-3.07,4.71c-11.62,20.94-17.43,40.8-17.43,59.57v2.23
		c0,2.91,0.21,5.5,0.62,7.76c1.49,9.2,5.66,13.8,12.48,13.8h0.49c8.55,0,14.69-10.68,18.41-32.04c-0.14-0.79-0.3-1.18-0.49-1.18
		h-0.06l-1.12,1.12c-0.37,0.87-1.09,2.24-2.16,4.09c-4.04,6.75-7.49,10.13-10.32,10.13c-6.23,0-9.35-5.74-9.35-17.2
		c0-6.93,2.33-18.26,6.98-33.98C2595.35,353.23,2597.21,346.87,2597.21,345.67"/>
	<path d="M2078.1,395.27h-0.35l-0.21,0.07c-0.88,1.01-1.91,2.58-3.07,4.71c-11.62,20.94-17.43,40.8-17.43,59.57v2.23
		c0,2.91,0.21,5.5,0.62,7.76c1.49,9.2,5.66,13.8,12.48,13.8h0.49c8.55,0,14.69-10.68,18.41-32.04c-0.14-0.79-0.3-1.18-0.49-1.18
		h-0.06l-1.12,1.11c-0.37,0.88-1.09,2.25-2.16,4.1c-4.04,6.75-7.49,10.13-10.32,10.13c-6.23,0-9.35-5.74-9.35-17.2
		c0-6.93,2.33-18.26,6.98-33.98C2076.24,402.83,2078.1,396.47,2078.1,395.27"/>
	<path d="M1913.87,409.06h-0.35l-0.21,0.07c-0.88,1.02-1.91,2.58-3.07,4.71c-11.62,20.94-17.43,40.8-17.43,59.57v2.23
		c0,2.91,0.21,5.5,0.62,7.76c1.49,9.2,5.66,13.8,12.48,13.8h0.49c8.55,0,14.69-10.68,18.41-32.04c-0.14-0.79-0.3-1.18-0.49-1.18
		h-0.06l-1.12,1.12c-0.37,0.87-1.09,2.24-2.16,4.09c-4.04,6.75-7.49,10.13-10.32,10.13c-6.23,0-9.35-5.74-9.35-17.2
		c0-6.93,2.33-18.26,6.98-33.98C1912.01,416.62,1913.87,410.26,1913.87,409.06"/>
	<path d="M1647.71,400.75h-0.35l-0.21,0.07c-0.88,1.01-1.91,2.58-3.07,4.71c-11.62,20.94-17.43,40.8-17.43,59.57v2.23
		c0,2.91,0.21,5.5,0.62,7.76c1.49,9.2,5.66,13.8,12.48,13.8h0.49c8.55,0,14.69-10.68,18.41-32.04c-0.14-0.79-0.3-1.18-0.49-1.18
		h-0.06l-1.12,1.11c-0.37,0.88-1.09,2.25-2.16,4.1c-4.04,6.75-7.49,10.13-10.32,10.13c-6.23,0-9.35-5.74-9.35-17.2
		c0-6.93,2.33-18.26,6.98-33.98C1645.84,408.31,1647.71,401.95,1647.71,400.75"/>
	<path d="M854.99,372.18h-0.35l-0.21,0.07c-0.88,1.02-1.91,2.58-3.07,4.71c-11.62,20.94-17.43,40.8-17.43,59.57v2.23
		c0,2.91,0.21,5.5,0.62,7.76c1.49,9.2,5.66,13.8,12.48,13.8h0.49c8.55,0,14.69-10.68,18.41-32.04c-0.14-0.79-0.3-1.18-0.49-1.18
		h-0.06l-1.12,1.12c-0.37,0.87-1.09,2.24-2.16,4.09c-4.04,6.75-7.49,10.13-10.32,10.13c-6.23,0-9.35-5.74-9.35-17.2
		c0-6.93,2.33-18.26,6.97-33.98C853.13,379.74,854.99,373.38,854.99,372.18"/>
	<path d="M766.88,11.42h-0.35l-0.21,0.07c-0.88,1.01-1.91,2.58-3.07,4.71c-11.62,20.94-17.43,40.8-17.43,59.57V78
		c0,2.91,0.21,5.5,0.62,7.76c1.49,9.2,5.66,13.8,12.48,13.8h0.49c8.55,0,14.69-10.68,18.41-32.04c-0.14-0.79-0.3-1.18-0.49-1.18
		h-0.06l-1.12,1.11c-0.37,0.88-1.09,2.25-2.16,4.1c-4.04,6.75-7.49,10.13-10.32,10.13c-6.23,0-9.35-5.74-9.35-17.2
		c0-6.93,2.33-18.26,6.97-33.98C765.02,18.98,766.88,12.62,766.88,11.42"/>
	<path d="M1857.41,203.51h-0.35l-0.21,0.07c-0.88,1.01-1.91,2.58-3.07,4.71c-11.62,20.94-17.43,40.8-17.43,59.57v2.23
		c0,2.91,0.21,5.5,0.62,7.76c1.49,9.2,5.66,13.8,12.48,13.8h0.49c8.55,0,14.69-10.68,18.41-32.04c-0.14-0.79-0.3-1.18-0.49-1.18
		h-0.06l-1.12,1.11c-0.37,0.88-1.09,2.25-2.16,4.1c-4.04,6.75-7.49,10.13-10.32,10.13c-6.23,0-9.35-5.74-9.35-17.2
		c0-6.93,2.33-18.26,6.97-33.98C1855.55,211.07,1857.41,204.71,1857.41,203.51"/>
	<path d="M1698.62,155.45h-0.35l-0.21,0.07c-0.88,1.01-1.91,2.58-3.07,4.71c-11.62,20.94-17.43,40.8-17.43,59.57v2.23
		c0,2.91,0.21,5.5,0.62,7.76c1.49,9.2,5.66,13.8,12.48,13.8h0.49c8.55,0,14.69-10.68,18.41-32.04c-0.14-0.79-0.3-1.18-0.49-1.18
		h-0.06l-1.12,1.11c-0.37,0.88-1.09,2.25-2.16,4.1c-4.04,6.75-7.49,10.13-10.32,10.13c-6.23,0-9.35-5.74-9.35-17.2
		c0-6.93,2.33-18.26,6.98-33.98C1696.76,163.01,1698.62,156.65,1698.62,155.45"/>
	<path d="M2062.09,117.42h-0.35l-0.21,0.07c-0.88,1.02-1.91,2.58-3.07,4.71c-11.62,20.94-17.43,40.8-17.43,59.57V184
		c0,2.91,0.21,5.5,0.62,7.76c1.49,9.2,5.66,13.8,12.48,13.8h0.49c8.55,0,14.69-10.68,18.41-32.04c-0.14-0.79-0.3-1.18-0.49-1.18
		h-0.06l-1.12,1.11c-0.37,0.88-1.09,2.25-2.16,4.1c-4.04,6.75-7.49,10.13-10.32,10.13c-6.23,0-9.35-5.74-9.35-17.2
		c0-6.93,2.33-18.26,6.98-33.98C2060.23,124.98,2062.09,118.62,2062.09,117.42"/>
	<path d="M1972.54,91.26c-16.32,9.68-29.93,17.66-40.84,23.93c-4.13,2.62-6.21,4.35-6.21,5.21v0.18c0.06,0.18,0.28,0.27,0.63,0.27
		c0.25,0,0.61-0.03,1.1-0.09c2.86-0.79,13.24-4.6,31.15-11.42c4.75-1.7,8.95-3.59,12.6-5.66c7-3.66,14.28-8.28,21.83-13.89
		c2.99-1.82,7.46-5.51,13.43-11.05c5.73-5.78,9.65-10.32,11.79-13.61c8.4,0.97,15.04,1.68,19.92,2.1c1.46,0,2.98-1.09,4.56-3.28
		c4.14-6.95,6.21-12.76,6.21-17.45v-0.55c0-1.22-0.55-2.86-1.65-4.93c-1.15-2.56-3.04-5.54-5.66-8.95
		c-0.72-1.15-2.74-3.32-6.02-6.48c-4.63-4.02-8.95-7.16-12.98-9.41c-5.05-3.16-9.65-4.75-13.79-4.75c-1.27,0-2.47,0.18-3.56,0.55
		c-5.18,1.76-7.76,5.33-7.76,10.69c0,2.13,0.45,4.84,1.37,8.13c0,0.3-0.06,0.46-0.18,0.46c-3.11,5.54-4.66,11.32-4.66,17.35
		c0,7.74,5.51,12.89,16.53,15.44c-1.77,1.82-4.48,4.23-8.13,7.21C1991.75,79.23,1981.85,85.9,1972.54,91.26 M2024.24,35.54v-0.09
		c2.01,0.79,3.65,1.61,4.93,2.47c1.52,0.67,3.71,2.5,6.58,5.48c3.1,3.78,4.8,6.88,5.11,9.32c0,0.85-0.31,1.27-0.92,1.27
		c-0.73,0-6.67-0.88-17.81-2.65C2023.53,47.2,2024.24,41.94,2024.24,35.54 M2009.9,49.15c-6.58-1.59-9.86-3.5-9.86-5.76v-0.27
		c0-0.91,0.42-1.98,1.27-3.2c4.02-4.81,7.13-7.21,9.32-7.21h0.09c1.82,0,3.25,0.92,4.29,2.74c1.47,3.23,2.19,6.33,2.19,9.32v0.27
		c0,1.76-0.27,3.46-0.82,5.11C2014.73,49.97,2012.57,49.64,2009.9,49.15"/>
	<path class="st8" d="M2626.37,256.15c15.47,0,15.33-1.14,16.02-1.14c2.75,0,9.28-8.07,19.6-24.23s14.62-24.24,12.9-24.24
		c-47.8,0-74.84-4.71-165.61-32.9c-30.26-9.97-66.2-23.39-107.8-40.24c-27.51-10.66-46.08-15.99-55.71-15.99
		c-5.16,0-17.42-0.08-30.83,2.33c-15.48,3.44-21.44,7.48-23.85,9.54c-2.4,2.06-8.16,9.96-17.28,23.73
		c-9.11,13.76-15.21,22.09-13.67,26.16c2.03,5.38,27.96,7.09,37.51,7.8c17.5,1.29,47.16,3.75,70.12,6.21
		c3.46,0.37,6.97-0.73,9.54-3.08c0.04-0.04,0.06-0.06,0.1-0.09c3.33-3.03,8.1-3.92,12.35-2.44c51.44,17.94,95.97,35.87,124.2,44.42
		c-53.58,11.56-108.92,44.39-200.57,52.14c-4.12-9.73-9.63-19.8-16.69-30.24c-18.49-26.99-37.72-41.24-57.69-42.71
		c-18.85-1.1-35.5,8.7-49.92,29.4c-12.94,18.48-19.41,37.16-19.41,56.02c0,32.17,19.97,48.26,59.91,48.26
		c28.47,0,47.64-4.56,67.11-8.88c8.31-1.85,7.21,15.16,7.21,24.41c0,14.79-26.63,42.15-79.87,82.08
		c-58.43,43.64-107.98,65.46-148.65,65.46c-28.84,0-51.5-9.61-67.95-28.84c-16.45-19.23-24.68-43.08-24.68-71.55
		c0-9.83,1.61-35.64-4.38-24.1c-1.65,3.19-9.78,32.21-9.78,59.03c0,35.87,3.8,64.72,20.81,86.54c18.5,24.02,45.3,36.04,80.43,36.04
		c37.35,0,81.35-18.3,132.01-54.91c44-31.43,77.28-63.77,99.84-97.05c12.46-18.18,19.17-44.74,20.28-79.48
		C2447.62,320.41,2586.91,256.15,2626.37,256.15 M2232.37,291.03c-17.75-1.11-26.63-5.36-26.63-12.76c0-3.33,2.31-6.46,6.94-9.42
		c4.62-2.96,8.41-4.44,11.37-4.44c13.67,1.11,27.17,9.8,40.48,26.06C2255.67,291.59,2244.95,291.78,2232.37,291.03"/>
	<path d="M2483.86,11.79c-70.91,20.44-132.14,35.03-203.69,55.67c-5.03,4.69-12.69,17.52-15.89,24.83
		c69.74-16.65,133.3-33.69,204.21-54.13C2470.35,35.21,2489.84,7.97,2483.86,11.79"/>
	<path class="st8" d="M2488.1,433.94c0.28,0,0.99-0.25,2.13-0.74c3.4-4.97,7.84-12.41,13.3-22.34
		c7.02-13.19,10.53-22.27,10.53-27.23c0-1.06-1.25-2.73-3.73-5c-26.59-19.78-43.36-30.81-50.31-33.08h-0.74
		c-0.78,0-1.77,0.61-2.98,1.81c-15.53,31.77-23.29,47.86-23.29,48.28c0,1.14,0.78,2.09,2.34,2.88
		c14.89,9.28,30.21,19.78,45.95,31.48c3.13,2.62,5.29,3.93,6.49,3.93H2488.1z"/>
	<path d="M2530.31,134.59h0.67c11.78,0,20.23-14.78,25.34-44.35c-0.19-1.08-0.41-1.63-0.67-1.63h-0.1l-1.53,1.54
		c-0.51,1.22-1.5,3.11-2.98,5.66c-5.56,9.34-10.3,14.01-14.21,14.01c-8.57,0-12.86-7.94-12.86-23.8c0-9.61,3.2-25.28,9.6-47.04
		c5.12-15.94,7.68-24.74,7.68-26.4h-0.48l-0.29,0.09c-1.22,1.41-2.62,3.58-4.23,6.53c-15.99,28.99-24,56.48-24,82.46v3.07
		c0,4.03,0.28,7.62,0.86,10.75C2515.18,128.22,2520.91,134.59,2530.31,134.59"/>
	<path d="M2415.55,520.44l-1.66,1.48c-0.55,1.18-1.61,3.02-3.21,5.5c-5.99,9.06-11.1,13.59-15.31,13.59
		c-9.24,0-13.86-7.7-13.86-23.09c0-9.31,3.45-24.52,10.34-45.62c5.52-15.45,8.28-23.99,8.28-25.6h-0.51l-0.31,0.09
		c-1.31,1.37-2.83,3.47-4.56,6.33c-17.24,28.11-25.86,54.76-25.86,79.96v2.98c0,3.91,0.31,7.39,0.93,10.43
		c2.21,12.35,8.38,18.52,18.52,18.52h0.72c12.69,0,21.79-14.33,27.3-43c-0.2-1.05-0.45-1.59-0.72-1.59H2415.55z"/>
	<path d="M574.08,288.83l-1.66,1.49c-0.55,1.17-1.61,3.01-3.21,5.49c-5.99,9.06-11.1,13.59-15.31,13.59
		c-9.24,0-13.86-7.7-13.86-23.09c0-9.31,3.45-24.52,10.34-45.62c5.52-15.45,8.28-23.99,8.28-25.6h-0.51l-0.31,0.09
		c-1.31,1.37-2.83,3.47-4.56,6.33c-17.24,28.11-25.86,54.76-25.86,79.96v2.98c0,3.91,0.31,7.39,0.93,10.43
		c2.21,12.35,8.38,18.52,18.52,18.52h0.72c12.68,0,21.79-14.33,27.3-43c-0.2-1.05-0.45-1.59-0.72-1.59H574.08z"/>
	<path d="M1006.67,520.44l-1.66,1.48c-0.55,1.18-1.61,3.02-3.21,5.5c-5.99,9.06-11.1,13.59-15.31,13.59
		c-9.24,0-13.86-7.7-13.86-23.09c0-9.31,3.45-24.52,10.34-45.62c5.52-15.45,8.28-23.99,8.28-25.6h-0.51l-0.31,0.09
		c-1.31,1.37-2.83,3.47-4.56,6.33c-17.24,28.11-25.86,54.76-25.86,79.96v2.98c0,3.91,0.31,7.39,0.93,10.43
		c2.21,12.35,8.38,18.52,18.52,18.52h0.72c12.68,0,21.79-14.33,27.3-43c-0.2-1.05-0.45-1.59-0.72-1.59H1006.67z"/>
	<path d="M63.25,520.44l-1.66,1.48c-0.55,1.18-1.61,3.02-3.21,5.5c-5.99,9.06-11.1,13.59-15.31,13.59c-9.24,0-13.86-7.7-13.86-23.09
		c0-9.31,3.45-24.52,10.34-45.62c5.52-15.45,8.28-23.99,8.28-25.6h-0.51l-0.31,0.09c-1.31,1.37-2.83,3.47-4.56,6.33
		C25.22,481.24,16.6,507.9,16.6,533.09v2.98c0,3.91,0.31,7.39,0.93,10.43c2.21,12.35,8.38,18.52,18.52,18.52h0.72
		c12.68,0,21.79-14.33,27.3-43c-0.2-1.05-0.45-1.59-0.72-1.59H63.25z"/>
	<path d="M1471.69,391.5l-1.66,1.49c-0.55,1.17-1.61,3.01-3.21,5.49c-5.99,9.06-11.1,13.59-15.31,13.59
		c-9.24,0-13.86-7.7-13.86-23.09c0-9.31,3.45-24.52,10.34-45.62c5.52-15.45,8.28-23.99,8.28-25.6h-0.51l-0.31,0.09
		c-1.31,1.37-2.83,3.47-4.56,6.33c-17.24,28.11-25.86,54.76-25.86,79.96v2.98c0,3.91,0.31,7.39,0.93,10.43
		c2.21,12.35,8.38,18.52,18.52,18.52h0.72c12.68,0,21.79-14.33,27.3-43c-0.2-1.05-0.45-1.59-0.72-1.59H1471.69z"/>
	<path d="M1829.23,520.44l-1.66,1.48c-0.55,1.18-1.61,3.02-3.21,5.5c-5.99,9.06-11.1,13.59-15.31,13.59
		c-9.24,0-13.86-7.7-13.86-23.09c0-9.31,3.45-24.52,10.34-45.62c5.52-15.45,8.28-23.99,8.28-25.6h-0.51l-0.31,0.09
		c-1.31,1.37-2.83,3.47-4.56,6.33c-17.24,28.11-25.86,54.76-25.86,79.96v2.98c0,3.91,0.31,7.39,0.93,10.43
		c2.21,12.35,8.38,18.52,18.52,18.52h0.72c12.69,0,21.79-14.33,27.3-43c-0.2-1.05-0.45-1.59-0.72-1.59H1829.23z"/>
	<path d="M2674.43,520.44l-1.66,1.48c-0.55,1.18-1.61,3.02-3.2,5.5c-6,9.06-11.11,13.59-15.32,13.59c-9.24,0-13.86-7.7-13.86-23.09
		c0-9.31,3.45-24.52,10.34-45.62c5.52-15.45,8.28-23.99,8.28-25.6h-0.51l-0.31,0.09c-1.31,1.37-2.83,3.47-4.56,6.33
		c-17.24,28.11-25.86,54.76-25.86,79.96v2.98c0,3.91,0.31,7.39,0.93,10.43c2.21,12.35,8.38,18.52,18.52,18.52h0.72
		c12.69,0,21.79-14.33,27.3-43c-0.2-1.05-0.45-1.59-0.72-1.59H2674.43z"/>
	<path d="M2245.29,85.15l-1.66,1.48c-0.55,1.18-1.61,3.02-3.21,5.5c-5.99,9.06-11.1,13.59-15.31,13.59
		c-9.24,0-13.86-7.7-13.86-23.09c0-9.31,3.45-24.52,10.34-45.62c5.52-15.45,8.28-23.99,8.28-25.6h-0.51l-0.31,0.09
		c-1.31,1.37-2.83,3.47-4.56,6.33c-17.24,28.11-25.86,54.76-25.86,79.96v2.98c0,3.91,0.31,7.39,0.93,10.43
		c2.21,12.35,8.38,18.52,18.52,18.52h0.72c12.68,0,21.79-14.33,27.3-43c-0.2-1.05-0.45-1.59-0.72-1.59H2245.29z"/>
	<path d="M2311.29,528.17l-1.23,1.23c-0.41,0.98-1.21,2.49-2.39,4.55c-4.46,7.49-8.26,11.23-11.38,11.23
		c-6.87,0-10.31-6.36-10.31-19.08c0-7.69,2.57-20.26,7.69-37.7c4.11-12.78,6.16-19.83,6.16-21.16h-0.39l-0.23,0.07
		c-0.97,1.13-2.11,2.88-3.39,5.23c-12.82,23.23-19.23,45.27-19.23,66.1v2.46c0,3.24,0.23,6.1,0.69,8.62
		c1.64,10.21,6.23,15.31,13.78,15.31h0.54c9.44,0,16.2-11.84,20.31-35.54c-0.16-0.87-0.33-1.31-0.54-1.31H2311.29z"/>
	<path d="M1545.18,528.17l-1.23,1.23c-0.41,0.98-1.21,2.49-2.39,4.55c-4.46,7.49-8.26,11.23-11.38,11.23
		c-6.87,0-10.31-6.36-10.31-19.08c0-7.69,2.57-20.26,7.69-37.7c4.11-12.78,6.16-19.83,6.16-21.16h-0.39l-0.23,0.07
		c-0.97,1.13-2.11,2.88-3.38,5.23c-12.83,23.23-19.24,45.27-19.24,66.1v2.46c0,3.24,0.23,6.1,0.69,8.62
		c1.64,10.21,6.23,15.31,13.78,15.31h0.54c9.44,0,16.2-11.84,20.31-35.54c-0.16-0.87-0.33-1.31-0.54-1.31H1545.18z"/>
	<path d="M413.13,362.91l-1.23,1.23c-0.41,0.98-1.21,2.49-2.39,4.55c-4.46,7.49-8.26,11.23-11.38,11.23
		c-6.87,0-10.31-6.36-10.31-19.08c0-7.69,2.57-20.26,7.69-37.7c4.11-12.78,6.16-19.83,6.16-21.16h-0.39l-0.23,0.07
		c-0.97,1.13-2.11,2.88-3.39,5.23c-12.82,23.24-19.23,45.27-19.23,66.1v2.46c0,3.24,0.23,6.1,0.69,8.62
		c1.64,10.21,6.23,15.31,13.78,15.31h0.54c9.44,0,16.2-11.84,20.31-35.54c-0.16-0.87-0.33-1.31-0.54-1.31H413.13z"/>
	<path d="M168.01,336.89l-1.23,1.23c-0.41,0.98-1.21,2.49-2.39,4.55c-4.46,7.49-8.26,11.23-11.38,11.23
		c-6.87,0-10.31-6.36-10.31-19.08c0-7.69,2.57-20.26,7.69-37.7c4.11-12.78,6.16-19.83,6.16-21.16h-0.38l-0.23,0.07
		c-0.97,1.13-2.11,2.88-3.39,5.23c-12.82,23.23-19.23,45.27-19.23,66.1v2.46c0,3.24,0.23,6.1,0.69,8.62
		c1.64,10.21,6.23,15.31,13.78,15.31h0.54c9.44,0,16.2-11.84,20.31-35.54c-0.16-0.87-0.33-1.31-0.54-1.31H168.01z"/>
	<path d="M2674.58,336.24l-1.37,1.37c-0.45,1.07-1.33,2.75-2.63,5.01c-4.94,8.29-9.14,12.43-12.59,12.43
		c-7.61,0-11.41-7.04-11.41-21.11c0-8.51,2.84-22.4,8.51-41.69c4.54-14.12,6.81-21.92,6.81-23.4h-0.43l-0.26,0.08
		c-1.07,1.25-2.32,3.18-3.74,5.79c-14.18,25.69-21.27,50.06-21.27,73.09v2.72c0,3.57,0.26,6.75,0.76,9.53
		c1.82,11.28,6.89,16.93,15.23,16.93h0.6c10.44,0,17.93-13.11,22.46-39.31c-0.16-0.96-0.37-1.45-0.6-1.45H2674.58z"/>
	<path d="M2674.58,147.91l-1.37,1.37c-0.45,1.07-1.33,2.75-2.63,5.01c-4.94,8.29-9.14,12.43-12.59,12.43
		c-7.61,0-11.41-7.04-11.41-21.11c0-8.51,2.84-22.4,8.51-41.69c4.54-14.12,6.81-21.92,6.81-23.4h-0.43l-0.26,0.08
		c-1.07,1.25-2.32,3.18-3.74,5.79c-14.18,25.69-21.27,50.06-21.27,73.09v2.72c0,3.57,0.26,6.75,0.76,9.52
		c1.82,11.29,6.89,16.94,15.23,16.94h0.6c10.44,0,17.93-13.11,22.46-39.31c-0.16-0.96-0.37-1.45-0.6-1.45H2674.58z"/>
	<path d="M2571.26,45.67c6.69,5.54,11.87,8.3,15.53,8.3c2.35,0,3.87-0.5,4.56-1.5c0.34-0.99,1.31-1.49,2.91-1.49h0.69
		c3.2,0,9.4,10.77,18.61,32.3c3.15,8.42,4.72,13.78,4.72,16.08c0,4.04,0.6,6.06,1.81,6.06h0.34c0.46,0,1.06-0.22,1.81-0.67
		c2.35-2.1,3.86-3.99,4.55-5.68c2-3.29,4.18-9.62,6.52-18.99c6.35-31.6,12.96-47.4,19.83-47.4h0.35c3.02,0,5.86,1.39,8.49,4.18
		c3.03,3.54,5.04,5.32,6.01,5.32h0.17c1.26,0,2.55-1.07,3.87-3.22c2.17-4.54,3.25-7.97,3.25-10.32V28.1c0-1.15-0.39-2.47-1.2-3.96
		c-5.09-8.48-10.35-12.71-15.78-12.71c-7.38,0-14.11,5.93-20.16,17.79c-0.86,1.3-1.98,4.36-3.35,9.2
		c-3.55,11.31-6.5,22.5-8.84,33.57c0,1.29-0.57,3.13-1.71,5.53l-0.34-0.15l-2.14-10.39c-2.12-8.03-4.38-14.38-6.78-19.06
		c-9.5-18.09-20.5-27.15-33.03-27.15h-0.26c-0.23,0-0.51,0.13-0.86,0.38c-2.51,2.69-5.18,6.33-7.98,10.92
		c-3.31,4.94-4.97,7.65-4.97,8.15C2567.83,41.61,2568.97,43.42,2571.26,45.67"/>
	<path d="M1927.65,50.99c-4.97,1.25-11.78,1.48-16.51-0.27c-0.05-0.46-0.13-1.06-0.05-1.7c2.6-6.54,5.01-13.35,6.81-20.1
		c0.12-2.81,0.23-5.62,0.35-8.42c-0.67-1.63-1.34-3.25-1.84-4.75c-1.93-1.77-3.85-3.4-6.42-4.16c-1.57-0.11-3.29-0.21-4.84-0.17
		c-3.77,0.93-6.68,2.55-9.85,4.49c-1.55,1.28-2.94,2.55-4.5,3.82c-4.57,5.69-8.53,12.56-12.43,18.63
		c-1.86,5.04-4.31,10.31-4.57,15.63c0.28,1.04,0.44,2.27,0.74,3.47c1.36,4.65,4.05,7.57,8,10.49c1.5,0.9,3,1.65,4.65,2.37
		c-0.38,0.67-0.79,1.18-1.19,1.7c-0.15,0.02-0.15,0.02-0.3,0.05c-0.33,1.13-3.13,3.49-3.96,4.37c-3.08,2.71-6.01,5.41-8.94,8.1
		c-3.42,2.45-6.56,4.7-9.68,7.1c-10.68,9.09-22.31,16.75-34.29,24.15c-10.94,5.71-21.73,11.4-32.69,16.97
		c-1.44,0.95-2.87,1.91-4.31,2.87c-1.32,0.62-4.3,1.62-4.93,2.79c-0.02,2.33,1.62,1.81,3.49,1.89c4.1-2.06,9.57-1.81,13.82-3.9
		c9.16-2.54,18.32-5.08,27.64-7.64c5.32-2.21,10.19-5.46,15.27-8.42c0.99-0.74,2.14-1.5,3.29-2.27c2.25-1.83,4.67-3.68,7.08-5.54
		c1.88-1.17,3.58-2.47,5.42-3.94c3.61-2.15,6.9-5.67,10.16-8.25c3.31-3.36,6.62-6.73,9.94-10.09c4.72-5.71,9.68-12.07,15.26-17.12
		c4.63,0.98,9.89,0.79,14.58,0.98c4.1-0.82,4.61-0.42,7.15-3.69c3.53-5.4,5.68-11.72,7.91-17.59
		C1927.81,52.22,1927.74,51.61,1927.65,50.99 M1902.96,48.65c-4.68-0.19-8.11-2.71-11.68-5.06c-0.01-0.16-0.04-0.31,0.1-0.49
		c-1.41-0.13-2.69-2.91-3.29-3.93c0-1.24,0.82-2.12,1.46-3.28c0.15-0.03,0.15-0.03,0.3-0.05c0,0-0.02-0.15,0.12-0.32
		c3.19-1.8,6-2.92,9.5-1.04c2.71,1.83,3.64,2.97,4.94,5.91c0.02,1.39,0.02,2.63,0.18,4.01
		C1904.32,45.84,1903.74,47.47,1902.96,48.65"/>
</g>
</svg>
