<?xml version="1.0" encoding="UTF-8"?>
<svg id="Layer_1" data-name="Layer 1" xmlns="http://www.w3.org/2000/svg" viewBox="0 0 1670.59 741.54">
  <defs>
    <style>
      .cls-1 {
        stroke-width: 0px;
      }
    </style>
  </defs>
  <path class="cls-1" d="m630.56,310.68c.96,10.46.95,10.61,11.66,11.15,15.75.79,29.63-5.32,43.14-12.39,4.68-2.45,9.08-5.43,13.86-8.32.48.77,1.36,1.54,1.23,2.05-1.83,7.05,3.37,9.58,8.13,10.82,8.15,2.13,16.65,4.23,24.97,4.1,15.11-.24,30.21-2.04,45.29-3.41,2.57-.23,5-1.77,7.58-2.29.92-.18,2.09.89,3.15,1.38-.51,1.05-.73,2.6-1.56,3.09-10.13,5.94-11.88,19.95-2.86,28.29,4.58,4.24,10.34,7.19,15.46,10.87,1.5,1.08,2.65,2.67,3.95,4.02-1.43,1.14-2.73,2.5-4.31,3.36-6.84,3.72-13.94,7-20.59,11.04-3.59,2.18-6.49,5.84-5.01,10.52,1.44,4.55,4.92,7.29,9.73,8.43,1.7.4,4.44,1.76,4.47,2.75.06,1.78-1.14,4.15-2.58,5.33-4.03,3.29-10.07,4.87-10.53,11.14-.5,6.81,2.95,12.5,6.7,17.9,2.97,4.27,3,4.26-1.89,7.37,1.67,3.11,3.42,6.26,5.06,9.46.7,1.36,1.18,2.83,1.76,4.24-1.54.34-3.09,1.03-4.61.97-23.02-1.02-45.98-.73-68.85,2.39-26.17,3.57-50.58,12.94-74.84,22.78-4.32,1.75-8.54,3.77-12.93,5.34-1.31.47-3.03-.2-4.56-.34.83-1.39,1.32-3.44,2.54-4.08,23.61-12.35,47.42-24.17,72.4-33.71,17.37-6.63,33.91-15.46,50.8-23.33.22-.1.3-.49.97-1.65-4.89,1.86-8.99,3.53-13.17,4.99-12.09,4.22-24.11,8.7-36.37,12.39-6.47,1.95-10.72-.95-14.25-7.77-2.74-5.3-1.7-10.44,3.09-14.86,7.83-7.23,15.76-14.36,23.54-21.64,7.89-7.38,15.65-14.9,22.9-23.1-5.82,3.94-11.56,7.98-17.47,11.77-4.2,2.69-8.48,5.31-12.97,7.48-4.47,2.16-6.22.96-7.05-4-1.18-7.01-2.36-14.01-4.72-20.86.58,5.85.74,11.79,1.86,17.54,1.54,7.94-1.3,13.87-6.84,19.15-13.14,12.53-26.06,25.29-39.34,37.67-9.87,9.2-19.78,18.43-30.4,26.71-6.29,4.9-7,11.01-7.82,18.2,2.53.35,4.81.59,7.06.98,5.35.92,6.18,2.35,3.42,6.9-3.02,4.98-6.62,9.6-9.58,14.61-1.55,2.62-2.95,5.68-3.2,8.64-.59,6.96-.3,13.99-.67,20.97-.2,3.72,1.02,4.91,4.79,4.86,27.16-.37,54.32-.48,81.48-.79,32.82-.37,65.64-.87,98.47-1.27,8.65-.1,17.31-.02,26.17-1.04-.9-.39-1.79-.83-2.71-1.17-4.53-1.64-9.05-4.55-13.62-4.65-32.65-.77-65.31-1.25-97.96-1.24-23.27,0-46.47-1.23-69.68-2.3-3.14-.14-6.36-.51-9.35-1.42-1.56-.47-2.71-2.34-4.04-3.57,1.56-.84,3.11-2.38,4.67-2.38,5.64,0,11.27.51,17.51-.03-1.75-1.51-3.64-2.88-5.22-4.55-2.96-3.13-5.92-6.29-8.5-9.73-.8-1.07-1.07-3.67-.36-4.48.96-1.08,3.29-1.8,4.73-1.45,3.36.81,6.63,2.18,9.79,3.65,5.86,2.72,11.61,5.67,18.1,7.9-2.64-3.61-5.38-7.15-7.89-10.84-2.8-4.13-5.73-8.23-8-12.65-2.37-4.61.06-7.99,5.03-6.92,15.12,3.27,29.74.07,44.51-2.49,4.62-.8,10.02-1.28,14.18.34,11.45,4.46,22.79,4.23,34.37,1.62,3.78-.85,6.77-.36,10.3,1.73,3.21,1.89,7.61,2.18,11.52,2.35,8.32.35,16.66.31,24.98.13,5.52-.12,8.7,2.58,9.31,7.67.59,4.9.48,9.94.15,14.88-.19,2.94.49,4.25,3.45,4.78,3.91.7,7.74,1.86,11.06,2.69,1.63-3.03,3.24-6.04,5.22-9.73-3.19-1.94-6.86-4.07-10.41-6.37-5.51-3.56-5.52-6.26.25-9.16,4.08-2.05,4.3-4.43,1.31-7.24-5.82-5.47-11.88-10.67-17.74-16.1-.96-.89-1.36-2.36-2.02-3.57,1.34-.29,2.79-1.08,4-.79,29.92,7.12,60.44,9.85,90.95,12.94,34.98,3.53,68.09,14.04,99.82,28.96,2.34,1.1,4.11,3.41,6.14,5.16-2.04,1.68-4.07,3.37-6.12,5.02-.51.41-1.1.7-1.97,1.25.4,1.66.81,3.32,1.59,6.51,6.47-9.77,15.95-15.87,17.39-27.41.39-3.14.95-6.26,1.64-9.35,1.74-7.78,2.09-15.1-2.53-22.43-3.03-4.8-4.39-10.64-7.38-15.76.77,3.69,1.6,7.37,2.3,11.07.37,1.96.71,3.96.69,5.93-.05,4.74-3.49,6.88-7.29,4.09-4.26-3.12-7.9-7.08-11.81-10.68-.69-.64-1.36-1.29-2.8-1.33,2.75,3.37,5.56,6.7,8.23,10.13,4.09,5.26,8.26,10.47,12.07,15.93,2.95,4.22,1.48,7.28-3.73,7.03-7.62-.37-15.36-.92-22.76-2.64-44.92-10.47-89.77-21.29-134.63-32.01-2.9-.69-5.78-1.45-8.75-2.2-.34-4.54,2.05-4.08,5.01-3.46,32.91,6.96,65.84,13.85,98.77,20.74,6.14,1.29,12.3,2.54,18.45,3.8.15-.42.3-.84.45-1.25-5.33-2.41-10.64-4.88-16.01-7.22-37.41-16.3-74.86-32.52-112.24-48.9-6.55-2.87-12.9-6.24-19.13-9.74-1.54-.86-2.28-3.14-3.38-4.76,1.96-.37,4.21-1.55,5.85-.99,14.33,4.93,28.69,9.81,42.77,15.4,37.77,15,75.4,30.35,113.09,45.55,1.2.49,2.43.92,4.28.52-1.59-1.17-3.15-2.39-4.78-3.5-50.95-34.7-101.92-69.37-152.84-104.12-1.92-1.31-3.37-3.33-5.04-5.02,2.42-.62,4.81-1.62,7.27-1.79,17.61-1.24,35.22-2.3,52.84-3.47,2.98-.2,5.62-.36,6.66-4.41.89-3.48,4.19-2.49,6.7-1.24,4.92,2.45,9.6,5.45,14.68,7.49,22.9,9.17,44.74,5.02,65.93-5.82.3-.15.7-.29.83-.54,3.37-6.85,7.34-3.57,11.88-1.15,11.76,6.28,24.49,9.5,37.76,10.54,2.28.18,4.59.03,7.47.03,0-5.64.22-10.93-.07-16.19-.26-4.72,1.81-6.8,6.32-6.93,6.33-.18,12.65-.49,18.98-.48,3.11,0,4.39-.76,4.3-4.24-.16-6.65.11-13.32.53-19.97.23-3.67-.67-5.89-4.72-5.67-7.97.42-15.93.94-23.9,1.31-3.1.14-3.24,2.17-3.36,4.46-.44,8.48-.8,16.98-1.49,25.44-.14,1.7-1.6,3.29-2.45,4.93-1.53-1.06-3.87-1.79-4.46-3.23-3.31-8.16-6.38-16.42-9.16-24.77-1.52-4.56,1.4-7.32,5.45-7.74,7.4-.77,8.86-4.91,9.24-11.57,1.18-20.79,3.06-41.54,4.64-62.31.49-6.37-1.89-11.97-6.01-16.44-3.12-3.39-2.68-5.72.8-7.44,4.78-2.35,5.57-5.76,5.55-10.8-.07-12.81.63-25.62,1.23-38.42.33-7.03,2.08-8.98,8.94-10.61,3.23-.77,6.54-1.61,9.83-1.65,4.97-.07,6.85-2.37,6.59-7.07-.08-1.46.12-2.93.19-4.29-10.89-4.16-15.93-.68-26.8,18.18-4-1.05-3.88-1.01-2.64-4.66,1.98-5.82,3.89-11.67,5.62-17.57,1.22-4.15-.06-7.6-2.83-11.04-1.55-1.92-2.52-5.23-2.09-7.62.81-4.52,2.3-9.1,4.42-13.18,5.73-11,6.55-22.97,7.6-34.9,1.18-13.41,1.95-26.85,3.16-40.25.16-1.71,1.91-3.28,2.92-4.92.92,1.53,2.75,3.15,2.62,4.59-2.05,22.82,4.73,44.58,7.77,66.78.78,5.7.92,11.5,5.28,16.23,1.18,1.28.54,4.29.66,6.5.41,7.6-3.74,15.66,2.97,22.66,1.61,1.68,2.77,5.64,1.91,7.55-6.78,14.99-5.06,30.72-4.63,46.31.2,7.08-.17,14.23,3.07,21.06,1.33,2.79,2.22,6.88-1.78,9.41-.41.26-.35,1.42-.33,2.16.44,17.95,1,35.91,1.31,53.86.11,6.15-.41,12.32-.61,18.48-.13,4.06.24,7.34,3.52,10.98,2.94,3.25,4.25,9.15,4.08,13.8-.38,10.45-1.93,20.88-3.42,31.25-.47,3.3.38,4.42,3.43,5.11,20.03,4.51,39.8,3.89,58.94-3.73,5.98-2.38,11.24-6.55,16.89-9.94,3.04,2.42,6.52,5.47,10.27,8.14,15.09,10.74,31.08,9.3,47.11,2.79,9.49-3.86,19.37-7.4,25.61-16.49.39-.57,1.97-.98,2.47-.66.84.55,1.61,1.68,1.8,2.68,1.98,10.56,1.95,10.7,12.78,10.56,12.35-.16,24.62-.99,36.33-5.58,1.11-.43,2.72.42,4.09.67.15.49.29.97.44,1.46-5.75,5.41-11.5,10.82-17.24,16.25-1.69,1.6-3.5,3.12-4.98,4.9-3.12,3.76-3.87,7.86-.3,11.71,3.1,3.35,1.4,4.42-1.84,5.92-6.91,3.2-13.85,6.46-20.32,10.45-4.53,2.79-7.93,6.8-8.3,12.92-.12,2.02-2.71,4.51-4.79,5.69-5.79,3.27-11.94,5.89-17.87,8.91-5.84,2.98-9.95,7.29-12.35,13.72-1.02,2.74-4.55,4.91-7.41,6.52-5.33,3.01-11.11,5.22-16.5,8.16-3.57,1.95-5.59,5.02-4.68,9.54.88,4.42-1.53,6.59-5.74,6.88-4.32.29-8.67.17-12.97.6-7.47.75-10.34,3.68-10.67,11.07-.18,4.01-1.81,5.78-5.83,5.56-35.84-1.98-66.86,12.83-97.71,28.17-1.03.51-1.95,1.28-2.86,2-.33.26-.48.76-1.02,1.67,3.08.36,5.82.7,8.55.99,3.17.34,5.27,2.09,4.59,5.25-2.52,11.7-5.22,23.37-8.24,34.94-.43,1.65-3.02,2.74-4.88,4.32,1.26,45.84,5.49,92.15,1.62,139.02,1.16,0,3.44-.26,5.63.07,2.5.37,4.89,1.39,7.37,1.89,3.94.79,7.92,1.37,12.43,2.14.25-5.8.53-10.58.66-15.37.98-34.8,1.98-69.61,2.84-104.41.14-5.82-.45-11.65-.49-17.48-.02-3.1-1.01-4.79-4.26-5.56-3.03-.72-6.03-2.03-8.7-3.65-1.24-.75-1.64-2.87-2.43-4.37,1.39-.65,2.94-2.06,4.14-1.82,5.31,1.1,11.55.28,14.73,6.52.44.86,2.24,1.28,3.47,1.46,6.43.91,12.86,1.92,19.33,2.39,3.92.29,4.94,1.72,4.84,5.6-.88,33.31-1.54,66.62-2.25,99.93-.03,1.56,0,3.13.98,4.74.69-5.39,1.71-10.76,2-16.18.5-9.33,6.64-13.65,14.21-16.69,4.77-1.91,7.84.26,8.39,5.93.6,6.3.66,12.65,1.18,18.95.46,5.64,1.03,11.28,1.94,16.86.71,4.39,10.67,8.89,14.49,6.57.92-.56,1.25-2.53,1.35-3.88.85-11.12,1.53-22.25,2.39-33.37.17-2.13.47-4.49,1.52-6.27,1.51-2.55,3.53-6.22,5.74-6.53,2.21-.31,5.94,2.37,7.2,4.72,3.04,5.66,5.58,11.74,7.3,17.93,1.86,6.71,2.47,13.75,3.78,20.61.56,2.95,1.51,5.83,2.28,8.74.69,0,1.38,0,2.07-.01,1.05-5.59,2.16-11.17,3.13-16.77,1.37-7.87,2.5-15.78,3.98-23.62.92-4.88,3.62-7.99,9.08-8.34,2.61-.17,5.15-1.32,7.74-1.94,5.44-1.32,8.51.82,8.39,6.49-.11,4.63-1.14,9.24-1.68,13.86-.71,6.11-1.51,12.22-1.92,18.36-.28,4.29,1.97,6.89,6.43,7.29,6.13.54,12.26,1.15,18.39,1.59,2.74.2,4.17-1.05,4.44-4.05,2.56-28.73,4.75-57.47,3.14-86.34-.18-3.32-.69-6.63-1.3-9.9-1.37-7.32-2.39-8.11-9.85-8.28-29.48-.67-58.96-1.25-88.44-2.07-7.65-.21-15.29-1.02-22.89-1.94-1.8-.22-3.4-1.99-5.1-3.04,1.77-1.18,3.48-3.29,5.31-3.4,13.46-.81,26.95-1.41,40.43-1.73,26.65-.62,53.3-1.12,79.96-1.43,4.92-.06,7.02-1.78,6.78-6.67-.18-3.61-.03-7.24-.03-11.36-2.11,0-3.89-.04-5.66,0-45.8,1.17-91.59,2.43-137.4,3.43-8.31.18-16.64-.68-24.95-1.14-1.65-.09-3.47-.17-4.88-.89-1.59-.81-2.81-2.33-4.2-3.55,1.25-1.35,2.29-3.57,3.77-3.91,7.28-1.69,14.65-3.07,22.05-4.19,5.89-.89,11.86-1.25,17.82-2.56-2.32-.41-4.7-.64-6.96-1.29-2.59-.75-3.98-3.23-1.8-4.83,7.24-5.3,14.41-12.7,22.55-14.2,8.12-1.49,14.71-5.16,21.97-7.86.77-.29,1.5-.73,2.19-1.19,6.75-4.56,7.5-6.21.76-10.51-1.42-.91-3.17-3.78-2.71-4.63.82-1.53,3.15-2.94,4.96-3.11,8.12-.76,16.28-1.04,24.42-1.57,1.65-.11,3.28-.58,4.94-.74,3.4-.34,5.35-1.19,4.67-5.56-.8-5.12,2.23-7.8,7.69-6.9,7.55,1.24,14.97,3.21,22.46,4.8,2.89.62,5.81,1.07,9.32.5-1.12-1.03-2.44-1.92-3.33-3.13-1.38-1.88-2.47-3.98-3.68-5.98,2.16-1.27,4.26-3.5,6.49-3.64,9.13-.57,18.31-.84,27.46-.61,37.97.98,75.93,2.19,113.9,3.29,2.81.08,5.61.01,8.56-1.09-6.23-1.27-12.42-2.73-18.69-3.78-28.08-4.7-56.17-9.33-84.28-13.83-4.09-.65-8.35-.21-12.45-.82-2.07-.31-3.97-1.83-5.94-2.81.99-1.94,1.7-4.09,3.04-5.75,1.44-1.79,3.93-2.81,5.1-4.7,1.39-2.23,2.9-5.18,2.54-7.55-.97-6.43,2.01-10.09,7.07-12.95,5.94-3.35,12.04-6.47,17.71-10.24,5.83-3.87,9.96-9.02,10.9-16.54.26-2.1,3.29-4.14,5.44-5.67,5.25-3.72,11.03-6.75,16.02-10.77,5.26-4.23,7.69-10.28,8.36-17.05,1.03-10.29,3.27-12.77,13.58-14.77,7.03-1.37,14.13-2.37,21.18-3.62,6.78-1.2,6.9-1.45,5.79-8.02-.33-1.96-.65-3.96-.66-5.94-.05-5.88,2.98-8.04,8.36-5.61,7.43,3.36,14.68,7.13,22.01,10.71,1.05.51,2.15.91,3.2,1.41,10.75,5.05,20.66,3.88,29.69-3.95.88-.76,1.94-1.32,2.79-2.1,7.06-6.45,13.95-7.28,23.06-2.66,18.73,9.5,38.41,7.79,57.89,1.51,3.48-1.12,6.87-2.53,10.33-3.73,4.71-1.63,8.29-.9,11.87,3.34,1.98,2.34,6.53,3.91,9.7,3.6,12.04-1.19,24.11-2.73,35.93-5.26,7.19-1.54,13.41-1.58,19.33,3.01,1.31,1.01,2.9,1.63,4.29,2.55,9.8,6.47,20.28,8.02,31.5,4.51,6.52-2.04,13.08-3.93,19.54-6.14,3.14-1.07,5.21-1.42,6.25,2.7,1.27,5.05,5.51,6,9.93,5.31,6.39-.98,12.7-2.42,19.19-3.69,2.09,3.16-.02,4.19-2.42,5.41-29.69,15.11-59.67,29.69-88.94,45.58-33.36,18.12-66.06,37.46-99.1,56.2-13.3,7.54-23.39,18.55-33.28,29.87-4.16,4.76-8.68,9.22-13.3,13.54-1.22,1.14-3.42,1.23-5.17,1.81.07-2.11-.7-4.83.33-6.22,7.6-10.33,15.5-20.43,23.42-30.53,16.45-20.98,32.96-41.9,49.44-62.85.49-.62.87-1.33.4-2.75-6.62,7.95-13.23,15.9-19.86,23.85-9.59,11.51-19.15,23.06-28.83,34.5-1.59,1.88-3.6,3.5-5.67,4.86-5.06,3.31-9.08,1.39-9.16-4.61-.1-8.32.26-16.65.59-24.97.34-8.46.87-16.91,1.32-25.36-.4-.12-.81-.23-1.21-.35-.52,1.54-1.18,3.06-1.53,4.64-4.03,18.38-7.97,36.78-12.04,55.16-.61,2.74-1.45,5.51-2.72,8-.73,1.44-2.58,3.3-3.83,3.24-1.57-.08-3.76-1.62-4.44-3.1-1.94-4.21-3.13-8.76-4.85-13.09-6.74-17.03-13.55-34.03-20.38-51.03-.59-1.46-1.46-2.8-3.34-3.78,1.26,5.25,2.29,10.56,3.83,15.73,3.95,13.25,8.19,26.4,12.15,39.65.94,3.16,1.58,6.51,1.73,9.8.25,5.52-3,7.53-8.09,5.17-2.1-.97-3.97-2.42-5.94-3.66-16.05-10.14-32.09-20.29-48.14-30.42-.8-.51-1.73-.8-3.09-.5,4.2,3.33,8.44,6.61,12.59,10.01,3.99,3.28,7.94,6.61,11.78,10.06,1.33,1.2,3.3,2.89,3.2,4.24-.37,5.37,3.75,5.75,7.02,7.41,16.01,8.12,32.03,16.24,47.92,24.6,4.56,2.4,6.44,6.36,6.5,11.92.33,33.15.81,66.31,1.74,99.44.65,23.14,1.94,46.26,3.25,69.37.4,7.05,1.62,7.61,8.51,6.57.99-.15,2.02-.56,2.95-.4.97.18,1.84.91,2.76,1.4-.48.8-.78,2.03-1.48,2.33-7.99,3.47-16.17,6.62-25.08,5.1-4.74-.81-7.47-4.03-7.72-9.09-.9-18.14-1.61-36.29-2.83-54.4-2.41-35.9-4.88-71.8-7.78-107.66-1.11-13.72-11.51-18.08-22.82-9.88-20.77,15.07-41.29,30.47-61.96,45.68-2.9,2.13-6.05,3.92-8.89,5.74-3.72-2.92-1.85-4.84-.04-7.02,11.29-13.58,22.52-27.2,33.72-40.85,1.32-1.61,2.36-3.46,3.53-5.2-.32-.32-.65-.65-.97-.97-3.77,2.77-7.62,5.45-11.31,8.34-6.16,4.83-12.18,9.84-18.32,14.69-1.56,1.23-3.29,2.29-5.08,3.15-5.63,2.74-9.32.68-9.34-5.57-.02-6.57.6-13.14-.15-20.04-1.52,4.09-3.32,8.1-4.48,12.29-2.14,7.7-3.67,15.57-5.92,23.23-.85,2.88-2.57,7.23-4.61,7.68-4.54,1-4.57-4.19-6.05-7.09-5.29-10.38-10.42-20.83-15.69-31.21-.85-1.68-2.15-3.13-3.25-4.68-.46.16-.93.32-1.39.49.52,2.61.63,5.4,1.64,7.81,3.79,9.05,7.87,17.97,11.86,26.94.61,1.37,1.64,2.64,1.88,4.06.33,1.93.08,3.97.08,5.95-2.02-.23-4.4.14-6-.8-5.59-3.29-11.17-6.71-16.29-10.68-12.37-9.6-25.59-15.09-41.81-12.8-8.8,1.24-17.91.22-27.18.22,4.67,1.39,9.3,2.82,13.96,4.16,18.4,5.3,36.89,10.33,55.18,15.99,5.29,1.64,10.14,4.87,14.98,7.74,3.56,2.11,4.65,5.59,4.7,9.81.61,51.82,2.19,103.6,7.86,155.17.17,1.59.57,3.15.86,4.72.48-.01.96-.03,1.44-.04.45-7.47,1.38-14.94,1.26-22.4-.55-33.64-1.43-67.28-2.11-100.92-.23-11.49-.41-22.99-.23-34.48.04-2.28,1.28-5.84,2.92-6.52,3.44-1.43,7.29.21,8.85,3.68,1.59,3.53,2.72,7.58,2.82,11.44,1.01,37.14,1.74,74.28,2.6,111.42.19,8.33.52,16.65.85,24.98.07,1.72.38,3.43,1.4,5.12.68-1.85,1.23-3.76,2.06-5.53,1.93-4.11,4.67-7.57,9.59-7.74,19.98-.67,39.96-1.18,59.94-1.69,3.89-.1,6.15,1.47,4.51,6.53,11.68.86,23.07,2.82,33.49-3.55.14-.67.29-1.34.43-2.01-3.74-1.88-7.56-3.6-11.17-5.7-1.46-.85-2.45-2.51-3.65-3.81,1.62-.71,3.24-2.05,4.85-2.03,26.32.36,52.63.94,78.95,1.33,3.38.05,5.29,1.01,5.81,4.55.84,5.76,1.91,11.48,2.95,17.21.85,4.71-.97,7.35-5.79,7.93-18.19,2.17-36.36,4.53-54.58,6.52-22.69,2.48-45.4,4.67-68.11,6.99-1.08.11-2.15.36-3.24,1.66,6.69.38,13.37.95,20.07,1.11,27.65.66,55.3,1.2,82.96,1.76,7.83.16,15.67.11,23.49.43,1.6.07,3.15,1.36,4.72,2.09-1.69.66-3.38,1.89-5.06,1.89-18,.02-36,.13-53.99-.34-23.98-.62-47.94-1.7-71.91-2.65-3.82-.15-7.69-.35-11.43-1.09-2.01-.4-3.78-2.01-5.66-3.07,1.7-1.25,3.28-3.35,5.12-3.62,12.51-1.87,25.06-3.54,37.64-4.93,31.3-3.44,62.62-6.64,93.91-10.07,8.24-.9,8.22-1.14,6.97-9.36-1.95-12.79-1.95-12.69-14.62-12.82-18.49-.18-36.98-.53-55.47-.8-1.09-.02-2.18,0-3.21,0-.08.59-.18.82-.11.89,7.03,7.34,5.88,11.99-4.1,14.82-10.81,3.07-21.8,2.64-32.62.02-2.04-.49-3.58-3.09-5.72-5.06-9.14,0-19.28-.12-29.41.04-7.83.12-15.65.69-23.47.86-4.03.09-6.75,1.81-7.98,5.55-1.6,4.89-2.75,9.94-4.51,14.78-.63,1.74-2.45,3.05-3.72,4.56-.85-1.66-2.35-3.29-2.44-4.99-.94-18.47-1.88-36.94-2.39-55.42-.88-32.31-1.42-64.62-2.21-96.93-.1-4.18.07-8.78-5.85-11.24-.24,3.14-.67,5.71-.6,8.26.87,30.64,2.13,61.28,2.61,91.92.3,19.14-.47,38.3-.94,57.44-.08,3.11-.76,6.3-1.74,9.26-.46,1.38-2.38,3.24-3.53,3.16-1.3-.09-3.3-1.94-3.56-3.3-1.49-7.67-3.26-15.39-3.65-23.15-2.31-46.58-4.44-93.17-6.17-139.77-.24-6.58-2.67-10.66-8.23-12.71-11.86-4.36-23.82-8.5-35.91-12.16-15.3-4.64-30.77-8.7-46.16-13.04-1.44-.41-3.03-.75-4.16-1.63-1.4-1.09-2.39-2.7-3.56-4.08,1.57-.85,3.16-2.45,4.71-2.43,11.49.19,22.97.73,34.46,1.09,3.93.12,7.87.02,12.07-.92-2.86-1.68-5.87-3.17-8.52-5.12-.99-.73-1.17-2.54-1.73-3.86,1.4-.19,3.01-.91,4.18-.47,6.8,2.53,13.51,5.32,20.23,8.06.73.3,1.95.81,1.96,1.26.19,5.59,5.22,6.41,8.59,8.7,7.37,4.99,14.93,9.7,23.24,13.9-.9-1.87-1.9-3.69-2.67-5.61-3.77-9.4-7.84-18.71-11.01-28.31-1.11-3.37-2.93-8.84,1.6-10.81,4.68-2.03,6.96,3.17,8.73,6.38,5.89,10.62,11.25,21.52,16.79,32.32.65,1.27,1.19,2.59,2.81,3.89,1.14-4.93,1.93-9.97,3.5-14.75,3.21-9.78,6.68-19.49,10.43-29.08.68-1.74,3.23-2.76,4.92-4.11.75,2.05,2.19,4.13,2.12,6.15-.25,6.98-1.1,13.95-1.58,20.93-.14,2.07.16,4.17.31,7.44,3.06-1.8,5.43-2.9,7.45-4.44,9.25-7.09,18.38-14.35,27.63-21.45,1.83-1.41,3.9-2.67,6.06-3.42,1.34-.46,3.83-.38,4.41.44.84,1.18,1.03,3.57.39,4.9-1.59,3.27-3.58,6.41-5.82,9.29-7.55,9.72-15.27,19.31-22.52,29.7,1.46-.99,2.96-1.92,4.38-2.97,17.01-12.58,34.05-25.12,50.98-37.8,5.65-4.23,11.5-4.67,17.88-2.15,5.69,2.24,9.43,5.74,9.96,12.35,1.8,22.41,4.26,44.78,5.71,67.22,2.03,31.42,3.4,62.88,5.02,94.33.5,9.76,3.93,12.04,13.37,8.9-3.67-19.57-3.73-39.38-4.21-59.14-.96-39.97-1.74-79.94-2.4-119.92-.07-4.13-1.84-6.8-5.02-8.47-15.17-7.95-30.16-16.35-45.77-23.32-15.33-6.85-31.35-12.18-47.06-18.18-1.38-.53-2.74-1.1-4.08-1.64,1.01-4.03,1.03-4.1,4.77-2.87,9.34,3.06,18.64,6.21,27.97,9.28,1.71.56,3.49.93,5.24,1.39.44-.47.88-.95,1.32-1.42-1.39-.93-2.86-1.77-4.17-2.81-9.53-7.56-19.13-15.03-28.46-22.83-2.55-2.14-6.5-6.99-5.93-7.76,3.23-4.39,7.04-.49,9.87,1.2,20.3,12.09,40.39,24.55,60.54,36.9,2.05,1.25,4.07,2.54,6.11,3.81.48-.28.97-.55,1.45-.83-.9-4.09-1.56-8.24-2.75-12.25-4.25-14.37-8.8-28.65-12.97-43.05-1.43-4.94-2.38-10.07-2.9-15.19-.21-2.06,1.32-4.3,2.06-6.46,1.74,1.23,4.3,2.07,5.09,3.75,5.83,12.34,11.62,24.71,16.8,37.33,4.23,10.31,7.6,20.98,11.37,31.48.43,1.2.97,2.35,2.06,4.94,1.22-3.66,2.25-6.01,2.79-8.47,3.81-17.41,7.43-34.87,11.34-52.25,1.09-4.85,2.74-9.62,4.58-14.25.7-1.75,2.66-3,4.04-4.47,1.04,1.87,3,3.75,2.96,5.6-.22,12.32-.98,24.63-1.34,36.95-.22,7.26-.04,14.54-.04,22.94,2.37-1.67,4.47-2.64,5.87-4.22,7.48-8.49,14.82-17.11,22.14-25.75,10.33-12.2,20.51-24.53,30.92-36.66,2.47-2.88,5.47-5.39,8.52-7.68,1.23-.93,3.26-.8,4.92-1.15-.05,1.84.48,3.99-.28,5.45-1.77,3.37-4.01,6.54-6.36,9.55-18.66,23.9-37.39,47.74-56.09,71.6-1.18,1.5-2.28,3.06-2.83,5.1,4.29-4.31,8.02-9.47,12.98-12.77,16.61-11.08,33.18-22.39,50.65-32.01,43.34-23.85,87.16-46.82,130.79-70.13,1.7-.91,3.44-1.77,4.77-2.46-4.41-2.85-8.62-5.57-14.01-9.05-5.52,1.58-12.83,3.69-20.17,5.76-10.66,3.01-21.23,2.4-30.17-4.14-10.18-7.44-20.15-7.52-31.89-4.4-9.96,2.65-20.7,2.86-31.11,3.01-3.55.05-7.72-2.72-10.58-5.33-2.96-2.71-5.41-1.92-8.16-.86-11.57,4.46-23.36,7.83-35.86,8.22-13.07.41-25.63-1.68-37.16-8.02-4.47-2.46-8.15-2.03-11.97.86-2.79,2.11-5.68,4.09-8.44,6.24-8.96,7.02-18.74,8.32-29.13,3.9-7.19-3.06-14.2-6.57-21.29-9.88-2.68-1.25-5.36-2.51-9.33-4.38.46,3.89.68,6.72,1.15,9.51,1.31,7.7.31,9.44-7.46,11.02-8.15,1.66-16.36,3.06-24.57,4.43-5.58.93-8.33,3.88-8.71,9.7-1.05,15.96-11.53,24.85-24.67,31.27-3.41,1.67-5.57,3.09-6.2,7.25-1.08,7.02-5.99,11.86-11.64,15.6-5.68,3.76-11.75,6.93-17.72,10.24-3.84,2.13-6.19,4.74-5.15,9.6,1.01,4.72-1.31,8.38-4.73,11.43-1.46,1.31-2.94,2.6-5.27,4.65,8.44.7,15.92.72,23.15,2.03,37.36,6.75,74.67,13.82,111.97,20.9,1.22.23,2.19,1.81,3.28,2.76-1.5.98-3.01,2.8-4.51,2.8-15.32-.06-30.65-.31-45.97-.71-37.31-.95-74.61-2.03-111.91-2.98-3.45-.09-6.91.44-11.69.78,2.85,2.73,5.05,4.4,6.66,6.53.97,1.28,1.8,3.61,1.26,4.82-.56,1.25-2.96,2.53-4.39,2.37-5.92-.68-11.81-1.8-17.66-2.97-4.57-.91-9.05-2.25-13.62-3.17-4.58-.92-6.1.36-4.53,4.5,1.93,5.09-.77,6.4-4.61,6.9-8.57,1.12-17.17,2.01-25.77,2.89-2.07.21-4.18.03-6.22.03,0,1.05-.13,1.49.02,1.63,6.73,6.47,6.76,10.3-1.22,15.11-8.61,5.19-17.32,9.96-27.85,11.49-5.67.83-10.69,6.05-16.01,9.29.14.72.27,1.43.41,2.15,6.89,0,13.78-.1,20.66.02,34.48.59,68.97.97,103.44,2.02,9.74.3,19.43,2.52,29.11,4.09,5.22.85,8.02,4.16,8.68,9.51,2.28,18.51,4.89,36.98,6.99,55.52,4.13,36.41,7.97,72.85,12.04,109.27.27,2.4,1.3,4.75,2.22,7.02,1.14,2.83,1.06,4.43-2.7,4.17-41.67-2.87-83.24.96-124.85,1.93-19.81.46-39.6,1.8-59.41,2.74-8.19.39-10.07-2.18-7.09-9.7.55-1.39,1.45-2.78,1.54-4.21.51-8.11,6.22-10.17,12.72-10.5,17.96-.91,35.93-1.9,53.9-1.99,27.49-.14,54.98.81,82.47.59,12.92-.1,11.18.39,10.29-10.97-3.18-40.35-6.85-80.67-10.35-121-.04-.48-.27-.95-.37-1.3-12.67,3.35-25.61,2.46-38.41,2.63-24.48.31-48.96.09-73.45.09-.02.71-.03,1.41-.05,2.12,8.18.26,16.36.59,24.54.76,22.49.47,44.98.81,67.46,1.33,9.81.23,12.7,2.15,13.48,12.04,1.24,15.74,1.97,31.58,1.63,47.35-.36,16.8-2.34,33.56-3.36,50.36-.31,5.01-2.63,7.61-7.41,7.29-7.95-.53-15.93-1.19-23.78-2.51-5.46-.92-6.78-5.87-6.45-10.47.61-8.45,1.8-16.86,3.08-25.25,1.85-12.2-.28-9.73-8.14-8.13-6.36,1.29-8.62,4.71-9.41,10.29-1.29,9.07-2.52,18.15-3.92,27.2-.43,2.78-.89,5.74-2.2,8.14-1.05,1.94-3.3,4.18-5.22,4.39-1.5.17-4.05-2.27-4.83-4.1-1.42-3.31-1.93-7.02-2.73-10.58-1.99-8.92-3.6-17.95-6.04-26.74-1.11-4-3.82-7.55-5.81-11.31-.6,0-1.19.02-1.79.03-.85,2.15-2.25,4.24-2.45,6.45-1.12,12.26-2.1,24.53-2.83,36.82-.38,6.41-1.25,7.87-7.73,7.14-16.01-1.79-15.91-1.68-17.96-16.93-1.17-8.73-1.24-17.61-1.85-26.42-.12-1.76-.46-3.5-.7-5.27-8.19,1.43-12.07,4.84-13.13,11.91-1.18,7.9-1.94,15.87-2.92,23.8-.33,2.64-.37,5.42-1.29,7.86-.72,1.9-2.59,3.37-3.95,5.03-.97-1.76-2.74-3.49-2.79-5.28-.43-15.65-.92-31.32-.69-46.97.33-22.82,1.18-45.63,1.98-68.44.13-3.78-.88-5.35-4.88-5.53-5.62-.25-11.21-1.19-16.68-1.82-1.18,46.54-2.36,92.9-3.55,139.68,5.92-.68,6.18,2.72,5.78,7.11-.81,8.79-1.06,17.63-1.99,26.41-.31,2.94.56,7.97-4,7.88-4.79-.09-3.92-5.18-4.14-8.35-.46-6.63-.45-13.32-.32-19.97.19-9.28-.1-9.65-9.92-8.61-.52,8.72-1.08,17.47-1.57,26.22-.37,6.54-1.7,8.98-8.27,9.72-9.72,1.11-19.56,1.17-29.36,1.55-2.65.1-5.34-.51-7.98-.34-5.68.37-8.58-2.78-10.31-7.59-3.91-10.88-4.32-22.18-3.53-33.53.32-4.64,3.67-5.9,7.38-2.98,3.51,2.76,6.76,5.85,9.89,8.59,1.77-4.04,1.48-3.9-1.91-7.11-1.73-1.63-3.3-4.47-3.27-6.75.4-40.31,1.05-80.63,1.69-120.94.03-2.15.24-4.39.92-6.41.51-1.5,1.91-2.69,2.91-4.02,1.29,1.24,3.4,2.3,3.72,3.75,1.04,4.7,1.93,9.53,1.97,14.32.3,32.31.38,64.62.52,96.94.03,6.63,0,13.27,0,21.29,5.39-1.51,10.78-2.73,15.9-4.67,1.18-.45,1.98-3.35,2.01-5.15.34-18.15.93-36.31.56-54.45-.47-23.15-1.87-46.27-2.59-69.42-.16-5.01-1.25-7.68-6.95-7.41-3.77.18-7.74-.41-11.34-1.55-2.73-.87-5.58-2.68-7.36-4.9-2.97-3.71-12.51-5-15.81-1.49-3.2,3.39-6.2,7.01-9.67,10.09-1.66,1.47-4.21,1.92-6.36,2.83-.25-2.17-.85-4.37-.68-6.51.25-3.1,1.05-6.16,1.67-9.51h-11.08c-.1.4-.19.8-.29,1.2,1.67,1.28,3.5,2.41,4.97,3.89,1.06,1.07,1.64,2.61,2.43,3.94-1.37.76-2.7,1.65-4.14,2.22-.88.35-1.95.21-4,.38,3.3,3.69,6.41,6.61,8.8,10.03,1.6,2.29,3.04,5.29,3.06,7.98.23,34.33.28,68.67.04,103-.02,2.93-2.25,5.97-3.86,8.73-.85,1.45-2.57,2.4-4.6,4.19,4.6.69,8.31,1.27,12.03,1.81,4.06.59,5.98,2.73,6.17,7.02.45,9.81,1.14,19.62,2.04,29.41.27,2.91,1.19,5.9,2.45,8.56,2.15,4.53,1.67,6-3.52,6.01-12.49.03-24.98-.36-37.48-.46-6.49-.05-12.94-1.66-19.43,1.84-2.72,1.47-7.13.09-10.7-.46-.97-.15-2.37-2.07-2.29-3.08.08-1.01,1.7-1.98,2.79-2.77.47-.35,1.29-.23,1.95-.31,8.83-1.03,9.34-1.02,9.39-10.19.16-30.98-.07-61.96-.14-92.94-.02-7.64,0-15.28-.72-23.02-6.65,5.84-13.15,12.93-12.47,20.78.74,8.59-3.11,15.55-3.57,23.31-.7,11.79-.23,23.66-.43,35.48-.14,8.33-2.3,10.51-10.53,11.4-12.91,1.38-13.99.44-13.45-12.22.52-12.32,1.11-24.63,1.73-36.94.16-3.09.17-5.67-3.37-7.37-3.25-1.56-3.07-4.14-.64-6.93,1.11-1.27,1.85-3.5,1.66-5.17-.71-6.48-3.28-12.22-8.4-16.5-4.11-3.44-7.09-2.89-8.82,2.08-2.24,6.45-4.34,13.02.2,19.62.95,1.38,1.37,4.63.51,5.49-4.49,4.44-3.22,9.91-3.28,15.07-.13,10.66-.03,21.33.2,31.99.09,3.98-1.5,6.02-5.39,6.15-4.48.15-8.98.28-13.46.14-4.26-.13-6.12-2.32-5.81-6.83.91-13.3,1.68-26.6,2.13-39.92.08-2.27-1.31-4.88-2.7-6.85-1.89-2.68-2.05-4.43.54-6.81,1.36-1.24,2.77-4.24,2.17-5.51-3.01-6.4-6.33-12.73-10.24-18.62-2.21-3.34-5.77-3-7.41.9-2.12,5.02-3.77,10.28-5.11,15.57-.32,1.24,1.54,2.94,2.13,4.53.8,2.18,2.54,5,1.81,6.59-5.12,11.12-3.02,22.99-4.19,34.49-.54,5.3-.6,10.64-.79,15.97-.14,3.95-2.13,6.18-5.97,6.76-3.94.59-7.89,1.24-11.86,1.58-3.14.27-4.09-1.16-3.93-4.56.77-16.62,1.2-33.26,1.57-49.9.03-1.34-1.02-3.03-2.08-4.02-3-2.78-2.69-5.61.41-7.39,3.15-1.8,3.55-4.38,2.27-6.66-3.05-5.41-6.45-10.68-10.31-15.54-2.17-2.74-5.64-2.08-6.89,1.15-2.26,5.84-3.81,11.97-5.53,18.01-.19.65.18,1.87.71,2.25,4.41,3.24,3.58,6.54,1.14,10.78-1.36,2.37-1.13,5.81-1.18,8.78-.19,12.16-.19,24.33-.28,36.49-.06,8.36-2.92,11.02-11.29,10.57-.5-.03-1.01-.02-1.49-.14-3.86-.98-8.14-1.24-11.45-3.16-4.31-2.49-.76-7-.95-10.55-.66-12.47-.58-24.98-1.06-37.46-.08-2.13-1.28-4.32-2.31-6.3-1.83-3.51-1.89-6.63,2.06-8.34,3.51-1.51,3.97-3.87,2.6-6.78-1.91-4.03-3.69-8.28-6.43-11.71-3.95-4.92-9.07-4.27-11.19,1.63-2.34,6.51-4.25,13.42-4.79,20.28-1.26,16.1-1.5,32.27-2.37,48.4-.11,2.12-1.48,4.17-2.27,6.25-.95-2-2.67-3.97-2.72-6-.72-27.31-1.26-54.63-1.66-81.94-.03-1.95,1.27-3.99,2.22-5.86,2.28-4.49,4.72-8.9,7.1-13.35-.37-.64-.75-1.28-1.12-1.91-4.65.35-9.34.39-13.93,1.1-12.42,1.94-11.93,2.05-11.65,14.57.59,26.32.62,52.64.91,78.97.07,6,.03,12.01.52,17.98.39,4.76-1.82,6.47-6.04,6.36-4.81-.12-9.61-.46-14.27-.69,1.22-38.78,2.42-77.09,3.67-116.87-9.53-.86-20.28-1.84-31.39-2.84,0,1.6-.23,2.46.03,3.12,5.26,13.5,5.59,27.66,5.62,41.86.04,18.17.07,36.33-.07,54.5-.03,3.31.62,5.05,4.27,5.82,5.13,1.08,5.6,3.37,2.15,7.19-1.01,1.11-1.83,2.45-3,3.33-1.34,1.01-3.29,2.54-4.39,2.16-1.26-.44-2.74-2.78-2.64-4.2.35-4.96-2.27-5.86-6.34-5.83-4.33.04-8.67-.55-12.98-.32-4.34.23-5.9-1.24-5.75-5.69.55-17.15,1.03-34.31,1.12-51.47.1-19.98-.24-39.96-.37-59.94,0-.8.15-1.59.23-2.46,9.65.59,19.03,1.42,28.43,1.68,31.64.87,63.28,1.82,94.93,2.2,47.15.57,94.31.69,141.47.96,8.33.05,16.66-.27,24.99-.14,4.13.06,5.99-1.91,5.8-5.66-.21-4.13-.73-8.29-1.62-12.33-.24-1.08-2.2-2.34-3.51-2.53-42.31-6.04-84.78-8.31-127.53-6.3-23.79,1.12-47.64.78-71.47,1.02-33.66.34-67.31.68-100.97.82-4.27.02-5.3,1.54-5.35,5.5-.45,34.82-1.05,69.63-1.68,104.44-.14,7.99-.54,15.99-.89,23.97-.06,1.31-.24,2.71-.77,3.89-.33.73-1.37,1.41-2.18,1.54-.48.08-1.5-.87-1.65-1.51-.41-1.76-.72-3.61-.68-5.41.77-42.98,1.59-85.95,2.4-128.92.02-.82,0-1.63,0-2.92h-31.91c0,2.17,0,3.95,0,5.73-.07,42.16-.12,84.33-.22,126.49,0,4.2,1.07,9.16-5.8,9.32-.68.02-1.32,2.02-1.98,3.11.2.58.4,1.15.6,1.73,7.78,0,15.56-.1,23.34.03,6.83.11,13.65.7,20.48.67,3.85-.02,4.68,1.19,4.41,5-.58,8.12-.77,16.3-.52,24.43.1,3.34,1.36,6.8,2.76,9.91,1.7,3.79,1.2,5.25-3.17,5-9.14-.52-18.31-1.06-27.39-2.23-22.13-2.84-44.27-1.03-66.4-.67-27.15.45-54.31.84-81.44,1.96-14.12.59-28.15,2.86-42.25,4.06-10.12.86-20.28,1.17-30.42,1.78-4.17.25-5.89-1.28-5.87-5.76.24-48.33.1-96.66.55-144.98.14-15.13,1.87-30.24,2.7-45.38.41-7.51,4.48-11.21,11.28-13.93,16.8-6.73,34.55-9.65,51.94-13.92,21.83-5.36,43.88-9.85,65.83-14.73,1.55-.34,3.07-.79,5.62-1.46-4.58-2.9-8.28-5.1-11.82-7.51-6.53-4.45-7.05-6.19-4.66-13.79.38-1.2.54-2.46.95-4.34-4.2.36-7.79.68-11.39.97-1.99.16-3.98.41-5.98.4-10.09-.01-11.56-1.9-8.59-11.86-5.61,0-11.01,0-16.4,0-6.21.01-11.73-1.56-16.42-6.01-5.68-5.39-12.62-8.4-20.33-9.98-4.53-.93-8.93-2.63-13.28-4.28-4.16-1.58-6.39-4.48-5.65-9.32.34-2.26.07-4.67-.26-6.96-.61-4.23-3.05-7-7.37-7.67-2.79-.43-5.62-.63-8.45-.77-11.04-.53-15.96-4.62-18.33-15.37-.29-1.3-.58-2.61-.71-3.93-1.1-11.17-1.46-11.45-12.84-9.65-.16.03-.33.04-.5.07-17.12,2.79-23.05-.83-28.47-17.39-.21-.63-.33-1.29-.51-1.93-3.03-10.44-1.38-10.6-13.47-7.34-3.37.91-6.81,1.66-10.26,2.12-8.3,1.1-14.31-2.62-17.1-10.45-.72-2.03-1.2-4.17-1.53-6.29-1.35-8.67-2.68-9.97-11.68-8.4-9.5,1.67-18.97,3.73-28.28,6.26-13.77,3.75-27.27,3.77-40.79-.93-3.13-1.09-6.41-2.27-9.66-2.41-3.5-.15-7.82-.23-10.45,1.59-7.73,5.36-15.87,5.83-24.37,3.68-8.06-2.04-15.99-4.62-23.9-7.19-4.84-1.57-9.39-1.68-14.01.69-15.84,8.16-32.26,7.06-48.69,2.43-5.69-1.6-10.89-1.57-16.62-.13-6.67,1.68-13.67,2.06-21.68,3.16,48.38,34.83,95.41,70.3,145.76,100.96.44-.44.88-.89,1.33-1.33-1.35-1.94-2.56-4-4.07-5.8-15.32-18.24-30.72-36.41-46.04-54.65-3.43-4.08-6.81-8.21-9.9-12.55-.85-1.2-.55-3.22-.78-4.87,1.78.09,4.19-.55,5.25.37,9.82,8.47,19.71,16.9,28.97,25.96,9.28,9.08,17.83,18.9,26.79,28.32,1.65,1.73,3.67,3.11,5.52,4.64.39-.2.79-.41,1.18-.61-.92-7.19-1.83-14.38-2.76-21.57-1.64-12.56-3.39-25.1-4.82-37.68-.19-1.7,1.2-3.57,1.87-5.37,1.34,1.36,3.6,2.55,3.87,4.1,2.6,14.72,4.87,29.5,7.24,44.27.98,6.15,1.96,12.29,2.94,18.44.65.15,1.3.3,1.95.45,1.63-2.12,3.37-4.17,4.88-6.38,10.15-14.85,20.21-29.76,30.39-44.58,1.5-2.18,3.21-4.36,5.26-5.98,1.47-1.16,3.67-1.38,5.55-2.02.4,1.97,1.55,4.14,1.07,5.86-1.29,4.63-3.16,9.1-5.01,13.56-2.68,6.46-5.63,12.81-8.29,19.28-1.13,2.76-2.08,5.65-2.61,8.57-.88,4.75.55,6.2,5.04,4.59,7.2-2.58,14.15-5.84,21.27-8.64,14.26-5.6,28.54-11.13,42.87-16.54,2.29-.87,4.87-1.27,7.33-1.35,4.18-.13,5.87,2.85,3.35,6.19-2.08,2.75-4.72,5.19-7.46,7.31-10.67,8.25-21.51,16.3-32.23,24.49-2.01,1.54-3.77,3.4-5.65,5.12.21.39.43.77.64,1.16,10.29-2.54,20.59-5.03,30.86-7.62,19.38-4.88,38.74-9.81,58.11-14.71,1.45-.37,2.94-.94,4.39-.87,1.4.07,2.77.84,4.15,1.3-.94,1.27-1.62,3.17-2.87,3.71-11.79,5.05-23.73,9.74-35.51,14.81-4.96,2.14-9.63,4.94-14.44,7.45.11.52.22,1.05.33,1.57,2.18.19,4.39.69,6.54.51,22.23-1.87,44.45-3.85,66.68-5.81,2.68-.24,5.51-.93,6.5,4.04-4.87,1.1-9.73,2.52-14.69,3.27-22.73,3.42-45.48,6.64-68.22,9.99-2.23.33-4.4,1.1-6.72,1.69,4.2,7.8,41.52,38.57,53.62,44.08-1.43-3.05-2.47-5.34-3.58-7.59-3.81-7.77-7.81-15.46-11.34-23.36-.79-1.77.02-4.27.09-6.43,2.24.47,5.15.2,6.62,1.52,6.43,5.78,12.41,12.06,18.63,18.08,4.85,4.7,9.81,9.3,15.64,14.81,1.56-7.61,2.73-13.74,4.09-19.82,1.06-4.71,2.2-9.41,3.68-14,.36-1.12,2.19-1.78,3.35-2.65.75,1.29,2.35,2.76,2.12,3.84-1.06,5.02-2.63,9.94-3.99,14.9-1.51,5.52-2.99,11.04-4.48,16.56.46.3.92.61,1.37.91,1.94-.7,3.99-1.19,5.79-2.15,11.18-5.93,22.25-12.09,33.51-17.87,2.59-1.33,6.1-4.95,8.48-.63.75,1.36-1.98,5.31-3.9,7.33-2.7,2.83-6.13,4.95-8.84,8.28,2.99-1.13,6.02-2.16,8.96-3.41,7.35-3.13,14.6-6.53,22.04-9.45,1.78-.7,4.14.08,6.23.19-.97,1.7-1.52,4.13-2.98,4.99-8.89,5.19-17.73,10.59-27.08,14.83-14.4,6.53-29.12,12.41-43.87,18.12-9.79,3.8-14.66,9.82-15.87,20.86-4.68,42.93-8.58,85.87-8.66,129.08,0,.33,0,.67,0,1q.08,11.1,10.91,10.3c1-.07,2.1-.41,2.97-.1,1.54.54,2.95,1.47,4.41,2.24-.79,1.51-1.24,3.91-2.44,4.39-8.28,3.29-16.56,6.83-25.18,8.96-5.82,1.44-8.28-1.92-8.06-8.17,1.53-44.96,3.82-89.91,1.49-134.9-.21-3.99-.72-7.96-1.08-11.94-.55-5.97-2.7-11.12-6.69-15.77-15.23-17.75-31.69-34.19-50.23-48.51-5.49-4.24-11.41-6.24-18.19-4.69-10.38,2.37-20.71,4.91-31.01,7.62-1.24.33-2.56,1.98-3.03,3.31-2.73,7.69-6.1,15.3-7.54,23.26-1.53,8.43-1.5,17.21-1.56,25.83-.31,43.99-.43,87.99-.6,131.98-.03,7.21.04,6.9-6.87,5.84-6.9-1.05-13.94-1.21-20.87-2.09-7.12-.9-8.06-2.24-8.1-9.26-.34-53.82-.69-107.65-1.13-161.47-.02-1.86-.48-4.16-1.62-5.51-15.04-17.83-30.35-35.41-48.27-50.51-5.87-4.95-11.76-7.37-19.61-4.62-10.68,3.74-21.62,3.29-32.11-.61-4.8,6.8-5.08,6.84-12.98,4.71-4.34-1.17-8.74-2.11-13.13-3.11-.77-.18-1.6-.1-1.71-.11-2.31,3.31-4.31,6.18-6.58,9.44,24.42,9.69,49.21,19.52,74,29.36.18-.38.37-.77.55-1.15-3.77-2.31-7.7-4.39-11.23-7.02-1.57-1.17-2.34-3.43-3.47-5.19,2.1-.09,4.44-.84,6.26-.17,13.8,5.02,25.32,13.85,37.08,22.35,5.57,4.03,8.14,8.42,8.37,15.58,1.44,44.29,3.39,88.57,5.31,132.84.2,4.55-.75,6.79-5.89,6.54-4.04-.2-8.13.64-12.2,1.02-.11.5-.21,1-.32,1.49,3.02,1.39,5.98,2.93,9.08,4.13,4.35,1.68,8.84,2.99,13.16,4.7,1.13.45,1.9,1.83,2.83,2.78-1.25.52-2.49,1.49-3.74,1.5-7.65.07-15.33-.44-22.95.03-3.39.21-6.66,2.29-9.99,3.49-2.65.96-5.28,2.05-8,2.76-4.32,1.13-8.72,1.99-13.01,3.35,7.48,0,14.96-.07,22.43.02,7.16.09,14.33.1,21.46.58,7.59.51,8.72,3.02,4.78,9.5-.33.54-.59,1.12-1.35,2.56,6.3,0,12,.07,17.69-.01,36.14-.54,72.29-1.25,108.43-1.59,9.8-.09,19.65.62,29.42,1.54,7.38.69,8.27,2.67,5.65,9.5-2.5,6.52-1.89,8.17,5.2,9.4,7.03,1.21,14.22,1.52,21.34,2.18,2.15.2,4.39-.03,6.46.46,1.51.35,2.82,1.55,4.22,2.38-1.5.63-3.02,1.85-4.48,1.79-21.8-.95-43.59-2.18-65.39-3.1-10.48-.44-20.97-.4-31.46-.53-1.61-.02-3.23.24-4.93.38,2.07,6.68,1.22,7.92-5.63,8.43-3.15.23-6.33.28-9.49.28-39.5.01-79,0-118.5,0-1.33,0-2.72.19-3.98-.11-.97-.23-1.78-1.1-2.67-1.68.9-.74,1.69-1.82,2.72-2.14,1.22-.38,2.64-.12,3.97-.12,41.16-.07,82.33-.14,123.49-.23,1.32,0,2.63-.16,3.94-.24-.1-8.02.17-8.64,8.45-8.58,18.65.14,37.31.67,55.96,1.04,1.63.03,3.27,0,4.16,0,1.04-4.9,1.98-9.32,3.09-14.57-5.04-.46-10.11-1.35-15.17-1.33-34.65.09-69.31.32-103.96.63-11.66.1-23.31.71-34.97.71-2.76,0-5.51-1.53-8.27-2.35.91-2.5,1.82-5,2.71-7.51.16-.45.24-.94.61-2.43-6.84-.2-13.42-.71-19.98-.53-20.48.59-40.96,1.44-61.43,2.18-.83.03-1.81.35-2.47.02-1.33-.66-2.49-1.67-3.73-2.53,1.06-.82,2.02-2.18,3.19-2.39,10-1.79,20.06-3.29,30.07-5.04,6.39-1.12,12.81-2.24,19.08-3.87,3.44-.89,6.58-2.89,9.91-4.25,1.98-.81,4.04-1.58,6.13-1.93,3.41-.56,6.89-.75,11.68-1.24-3.71-2-6.55-3.22-9.02-4.97-1.35-.95-3.1-3.01-2.84-4.15.35-1.53,2.29-3.44,3.87-3.8,5.13-1.18,10.41-1.72,15.08-2.42,0-10.14.31-20.09-.05-30.02-1.3-35.8-2.88-71.58-4.17-107.38-.14-4.02-2.01-6.46-5.24-7.63-12.18-4.43-24.61-8.18-36.68-12.87-27.64-10.73-55.13-21.86-82.68-32.83-.77-.31-1.71-.47-2.26-1.01-1.05-1.02-1.88-2.27-2.8-3.42,1.35-.33,2.74-1.07,4.03-.92,4.63.5,9.23,1.28,13.83,2,3.8.6,5.88-.82,5.5-4.82-.37-3.83,1.24-4.73,4.73-3.82,6.12,1.59,12.31,2.91,18.42,4.54,2.83.75,5.03,1.22,4.84-2.89-.15-3.15,1.75-3.81,4.23-2.88,12.75,4.78,25.35,3.45,38.24.19,3.61-.91,8.93.49,12.02,2.78,8.14,6.01,15.99,12.6,23.04,19.85,10.79,11.1,20.9,22.87,31.04,34.58,1.67,1.92,2.78,5.01,2.81,7.57.45,44.32.68,88.65.98,132.97.07,9.83.37,19.66.3,29.49-.02,3.37,1.21,4.91,4.47,5.18,7.28.59,14.55,1.26,22.46,1.95.14-2.08.35-3.82.36-5.57.22-47.33.23-94.66.81-141.98.09-7.3,2.54-14.62,4.29-21.84,1.24-5.12,3.12-10.09,5.23-16.76-6.28,0-11.51.23-16.72-.06-6.14-.34-12.29-.87-18.37-1.8-4.39-.67-10.25-8.22-9.45-12.5.41-2.22,2.44-5.17,4.43-5.91,12.04-4.49,24.56-6.16,37.27-3.56,8.25,1.69,10.33,5.24,9.18,13.66-.22,1.61-.38,3.23-.66,5.62,4.77-1.25,9.02-2.38,13.27-3.47,27.66-7.13,31.03-6.67,52.29,12.4,11.63,10.43,22.12,22.14,33.43,32.95,9.46,9.05,13.1,20.19,13.13,32.83.07,33.81.15,67.62,0,101.43-.05,11.99-.61,23.99-1.22,35.97-.21,4.21,1.56,5.67,5.24,4.72,5.63-1.45,11.16-3.32,17.26-5.17-1.03-1.12-1.15-1.35-1.25-1.34-11.67.75-12.38.32-12.27-13.41.2-23.97,1.15-47.97,2.88-71.88,1.65-22.75,4.8-45.38,7.1-68.08.61-6,3.66-9.94,8.89-12.25,13.24-5.85,26.55-11.53,39.83-17.28,1.04-.45,2.05-.95,2.97-1.94-1.69.3-3.39.84-5.07.81-1.33-.02-3.64-.53-3.77-1.18-.27-1.32.18-3.4,1.15-4.25,3.29-2.89,6.92-5.38,9.92-8.82-7.41,4.02-14.79,8.07-22.23,12.04-4.85,2.59-9.72,5.61-15.53,3.58-3.35-1.17-7.08-2.31-9.59-4.61-7.72-7.08-14.93-14.73-22.36-22.14-1.73-1.72-3.58-3.34-5.37-5-.39.26-.78.51-1.17.77,1.96,3.9,3.91,7.81,5.88,11.71,2.93,5.8,6.06,11.5,8.71,17.43.82,1.83.36,4.23.48,6.37-2.28-.22-5.09.34-6.75-.8-9.89-6.76-19.79-13.57-29.13-21.05-8.56-6.85-16.62-14.37-24.55-21.97-5.29-5.07-4.37-7.84,2.84-9.83,4.64-1.28,9.4-2.12,15.41-3.44-3.03-.55-4.98-.54-6.58-1.28-1.93-.89-4.74-2.2-5.03-3.72-.3-1.62,1.45-4.46,3.1-5.47,5.51-3.39,11.38-6.2,17.12-9.21,1.39-.73,2.84-1.35,3.9-3.06-6.4,1.61-12.8,3.22-19.21,4.82-13.74,3.42-27.43,7.03-41.24,10.09-3.03.67-6.5-.59-9.76-.96,1.56-2.87,2.44-6.55,4.78-8.46,9.93-8.11,20.31-15.66,30.47-23.49,3.76-2.9,7.36-6,11.03-9.01-.19-.42-.39-.85-.58-1.27-1.81.44-3.7.66-5.4,1.34-18.56,7.39-37.08,14.88-55.64,22.28-3.08,1.23-6.22,2.5-9.46,3.06-5.87,1.02-9.33-2.09-8.19-7.92,1.13-5.83,3.12-11.55,5.3-17.1,3.02-7.69,6.57-15.17,9.89-22.74-.45-.28-.9-.55-1.35-.83-4.2,5.76-8.57,11.41-12.56,17.32-6.91,10.21-13.59,20.57-20.37,30.86-.82,1.25-1.65,2.52-2.6,3.66-3.95,4.74-6.6,4.76-11.24-.17-4.49,4.41-8.27,1.34-11.42-1.88-10.01-10.24-19.69-20.8-29.62-31.12-5.33-5.54-10.91-10.83-16.38-16.23-.36.35-.73.69-1.09,1.04,3.26,3.86,6.54,7.72,9.79,11.59,12.43,14.79,24.92,29.54,37.25,44.41,2.21,2.67,4.01,5.75,5.58,8.85.62,1.23.69,3.54-.08,4.43-.79.91-3.2,1.37-4.37.84-5.15-2.31-10.45-4.54-15.08-7.72-37.08-25.46-74.05-51.07-110.97-76.76-9.3-6.47-18.35-13.29-27.39-20.12-1.54-1.16-2.45-3.16-3.65-4.77,1.81-.49,3.63-1.41,5.43-1.4,9.86.09,19.57-.16,29.13-3.36,3.2-1.07,7.4-.65,10.74.39,17.3,5.4,34.24,6.68,50.97-2.01,5.58-2.9,11.35-1.45,17.02.35,7.45,2.36,14.89,4.82,22.47,6.73,7.17,1.81,13.97,1.19,20.47-3.39,2.83-1.99,7.15-2.36,10.83-2.52,3.06-.13,6.37.67,9.24,1.84,16.66,6.77,33.15,5.06,49.89.13,7.94-2.34,16.25-3.8,24.49-4.62,9.46-.95,12.13,1.9,12.91,11.43.93,11.42,6.55,15.59,17.84,13.19,2.77-.59,5.5-1.34,8.24-2.07,10.89-2.89,12.64-1.81,15.67,8.85,1.13,3.98,2.51,7.98,4.41,11.64,3.98,7.7,7.8,9.19,16.38,7.63,4.24-.77,8.57-1.49,12.85-1.5,6.02-.02,8.32,2.5,9.02,8.43.44,3.79.67,7.67,1.64,11.33,1.76,6.64,5.49,9.35,12.22,9.66,2.33.11,4.66.16,6.98.36,10.09.88,14.45,5.62,14.69,15.88q.19,8.18,7.81,10.8c1.73.59,3.47,1.29,5.27,1.54,10.24,1.48,18.81,6.2,26.65,12.78,2.14,1.8,5.29,3,8.09,3.27,5.95.58,11.98.36,17.97.47,7.44.13,8.57,1.97,5.37,8.73-.28.58-.44,1.22-1.1,3.09,5.97-.27,11.32-.48,16.67-.76,1.83-.1,3.64-.54,5.46-.55,5.11-.02,6.81,2.37,5.39,7.38q-2.41,8.52,5.16,13.31c2.82,1.77,5.88,3.22,8.51,5.22,1.71,1.3,2.85,3.35,4.25,5.06-1.82,1.14-3.51,2.88-5.49,3.32-19.01,4.28-38.08,8.32-57.11,12.48-5.99,1.31-11.95,2.8-17.94,5.18,1.61.1,3.23.24,4.84.31,40.78,1.58,81.56,3.19,122.35,4.65,4.11.15,5.75,1.78,5.61,5.7-.05,1.33-.15,2.76.3,3.96.37.99,1.5,1.69,2.3,2.51.74-.87,1.99-1.68,2.12-2.63.67-5.11,1.14-10.26,1.51-15.4.3-4.23,1.49-7.56,6.96-7.55,0-4.44-.11-8.58.06-12.72.06-1.48.79-2.94,1.21-4.41,1.56.81,3.12,1.63,5.27,2.75.51-1.06,1.45-2.67,2.07-4.4,1.62-4.53,4.12-5.34,7.71-2.06,2.55,2.33,4.77,5.03,8.13,8.62,0-3.87-.27-6.6.11-9.24.2-1.4,1.32-3.45,2.39-3.72,1.1-.28,3.01.97,3.93,2.08,1.55,1.87,2.6,4.16,4.65,7.6,1.4-4.56,2.42-7.88,3.75-12.19-14.04,0-27.11-.03-40.19.02-2.97.01-2.59,2.07-2.55,4.24.1,5.46.09,10.95-.41,16.38-.14,1.53-2.15,2.89-3.3,4.32-1.12-1.42-3.19-2.82-3.2-4.25-.06-7.55.81-15.12.47-22.64-.15-3.24-1.52-7.67-3.91-9.38-30.38-21.79-63.33-36.86-101.65-36.61-4.87.03-7.91-1.61-10.82-5.42-3.2-4.2-7.21-7.84-11.13-11.42-4.62-4.22-10.24-6.29-16.52-5.63-3.16.33-4.28-1.11-5.61-3.6-5.12-9.62-12.43-16.92-23.42-19.43-3.32-.76-6.88-.47-10.32-.65-.27-.44-.55-.89-.82-1.33,2.08-1.39,4.16-2.78,7.06-4.72-2.16-2.29-4.07-5.3-6.8-7.02-7.43-4.7-15.14-8.99-22.88-13.17-3.8-2.05-7.99-3.36-11.88-5.25-3.53-1.71-3.56-3.41-.4-5.6,6.18-4.27,7.57-10.16,2.62-16.18-4.18-5.08-9.45-9.31-14.48-13.63-3-2.57-6.46-4.6-9.71-6.88-.04-.54-.08-1.07-.12-1.61,1.61-.38,3.35-1.36,4.82-1.05,16.37,3.42,32.77,3.4,49.15.43,6.01-1.09,6.33-2.41,3.75-7.59-.69-1.4-.63-3.62,0-5.07.42-.98,2.74-2.07,3.66-1.71,1.44.57,3.37,2.29,3.41,3.58.17,4.56,3,6.42,6.6,7.66,8.47,2.92,16.92,5.96,25.51,8.49,9.72,2.87,18.81.1,27.4-4.4,1.69-.89,2.6-3.16,4.15-4.47,1.47-1.25,3.3-2.07,4.97-3.08.49,1.56,1.72,3.34,1.34,4.64-1.03,3.53,1.6,3.92,3.46,4.1,8.74.85,17.65,2.65,26.25,1.71,13.83-1.51,27.49-4.77,41.15-7.62,2.15-.45,3.89-2.69,5.92-3.95,2.21-1.37,4.43-2.83,6.85-3.66.89-.3,3.01.85,3.38,1.8.39,1-.23,3.01-1.11,3.78-1.82,1.59-4.1,2.65-7.17,4.52,2.35,1.73,3.98,3.27,5.9,4.24,1.75.89,3.81,1.66,5.72,1.63,15.41-.23,30.82-.67,47.45-1.07-2.69-6.34-4.76-10.97-6.63-15.67-2.67-6.71-.21-16.93,5.46-21.38,1.67-1.31,4.2-1.84,6.41-2.1,2.92-.35,5.92-.09,9.28-.09.23-3.93.43-7.37.67-11.32-5.01,2.11-5.85-.32-5.42-4.51,1.73-16.72,3.58-33.44,4.84-50.19.31-4.14-1.22-8.48-2.26-12.63-1.9-7.57-1.54-8.17,5.28-11.36,1.44-.67,2.7-3.12,2.9-4.88,1.24-10.92,2.39-21.87,3.08-32.84.35-5.6,2.71-8.89,7.97-10.61,5.38-1.75,10.59-4.02,15.97-5.77,3.49-1.13,5.02-3.82,4.66-6.77-.19-1.55-2.93-2.99-4.76-4.07-1.39-.82-3.13-1.12-4.76-1.43-8.02-1.54-9.41-.53-10.68,7.5-.08.49-.21.98-.3,1.47-.59,3.16-.11,7.29-5.12,6.95-3.47-.24-6.99-6.67-5.53-10.37.87-2.21,2.4-4.69,4.35-5.84,3.4-2,4.28-4.69,4.38-8.21.15-5.15.97-10.33.59-15.43-.38-4.97,1.28-8.16,5.73-9.81,2.84-1.06,3.74-2.79,3.52-5.68-.45-5.97-.55-11.97-1.05-17.94-.83-9.86,1.45-19.14,4.35-28.44,1.9-6.09,2.77-12.5,4.39-18.69,1.64-6.27,3.54-12.48,5.6-18.62.32-.94,2.11-1.39,3.23-2.07.66,1.32,2.09,2.81,1.85,3.94-1.25,5.85-3.33,11.55-4.3,17.43-.62,3.72-.42,7.84.5,11.5,1.09,4.31,4.36,8.2,4.88,12.49.82,6.81,1.52,14.17-.2,20.64-2.99,11.28-1.43,21.71,1.88,32.36.45,1.45-.15,3.23-.26,4.85-1.3-.99-2.81-1.78-3.85-2.99-3.15-3.67-6.84-6.1-13.49-6.4,1.59,2.67,2.25,4.82,3.71,6,2.3,1.86,5.05,3.22,7.74,4.54,4.87,2.39,6.89,5.95,5.4,11.36-.53,1.92-.44,4.01-1.04,5.9-1.04,3.31-.38,5.71,1.8,8.62,1.43,1.91,1.66,5.96.64,8.26-7.47,16.89-6.9,35.17-9.59,52.87-.21,1.4,1.33,3.1,2.16,4.61,1.73,3.16,4.19,6.09,5.12,9.46,1.16,4.19-2.04,7.65-6.19,7.87-4.45.24-7.45-2.85-7.24-7.49.04-.83.15-1.66.26-2.48,1.11-8.11-.35-9.75-8.76-9.81q-12.89-.09-13.94,12.77c-.2,2.47-.41,4.95-.66,7.95,5.58.81,11,1.3,16.3,2.41,20.38,4.25,16.97,1.1,15.67,19.55-1.09,15.46-2.6,30.88-3.83,46.33-.12,1.56-.11,3.5.69,4.7,3.8,5.66,3.47,18.8-1.35,23.44-1.05,1.02-3.92.15-5.95.13.53-6.92,1.04-13.83,1.62-21.52-8.97-1.18-17.36-2.29-26.3-3.47,0,2.9-.05,4.54,0,6.17.43,11.31.44,11.28,11.6,12.85,4.93.69,10.08.99,13.17,5.87Zm-226.32,320.09c-.61-.03-1.23-.06-1.84-.09-1.2,2.95-2.99,5.8-3.48,8.87-1.47,9.2-2.54,18.46-3.55,27.72-1.73,15.74-2.16,16.04-17.94,14.84-4.24-.32-5.68-1.8-5.46-6.16,1.25-24.12,2.39-48.25,3.23-72.38.41-11.94.07-23.91.07-36.09-1.46-.29-3.15-.38-4.66-.97-2.31-.9-4.14-3.37-1.84-4.82,2.6-1.64,8.01-3.07,9.24-1.77,3.14,3.3,6.43,2.75,9.9,2.75,5.66,0,11.33-.16,16.99-.28,41.63-.89,83.26-1.79,124.89-2.65,5.77-.12,11.55-.02,17.75-.02,0-3.06-.18-6.35.05-9.61.26-3.83-1.11-5.17-5.09-5.17-19.66,0-39.32.08-58.97-.55-30.46-.99-60.9-2.41-91.33-3.97-5.41-.28-10.98-1.43-16.05-3.33-6.51-2.44-12.28.07-13.44,6.94-.42,2.46-.98,4.93-1.07,7.41-.92,25.13-2.24,50.26-2.49,75.39-.35,35.31.11,70.63.24,105.95,0,1.43.2,2.86.37,5.07,82.15-7.55,163.96-11.73,245.32-6.24v-35.62c-6.31,0-12.08.03-17.85,0-14.82-.08-29.64-.17-44.45-.29-4.44-.03-6.39,1.46-6.09,6.51.39,6.44-.23,12.97-.88,19.42-.17,1.7-2.03,3.23-3.53,5.45-3.43-7.37-2.7-20.33,1.49-39.29-.27-.17-.53-.44-.82-.48-.82-.13-1.65-.18-2.49-.23-7.7-.39-7.39-.39-7.49-8.17-.17-12.81-.66-25.61-1.28-38.41-.13-2.6-1.41-5.14-2.15-7.71-.56.03-1.11.05-1.67.08-.72,2.63-1.87,5.21-2.09,7.88-.83,9.95-1.6,19.92-1.95,29.89-.54,15.38-.54,15.54-15.91,15.14-8.23-.21-9.39-1.71-9.07-9.75.55-13.96.88-27.93,1.02-41.9.03-2.53-1.28-5.08-1.97-7.61-.51.05-1.02.09-1.53.14-.58,1.82-1.48,3.61-1.69,5.48-.84,7.44-1.56,14.89-2.13,22.35-.65,8.46-1.06,16.95-1.65,25.42-.23,3.22-1.82,5.26-5.3,5.47-6.47.39-12.93,1.13-19.4,1.18-6.23.05-6.72-1.1-7.29-7.42-1.2-13.42-2.61-26.83-4.27-40.2-.38-3.08-2.09-6-3.19-8.99l-1.99-.02c-1.19,3.47-3.04,6.87-3.45,10.43-1.14,10.08-1.86,20.22-2.41,30.35-.72,13.29-2.38,14.96-15.82,14.59-7-.19-8.58-2.02-8.86-9.02-.51-12.47-1.15-24.93-2.06-37.37-.2-2.76-1.72-5.43-2.62-8.15Zm150.71,51.67c0-2.02,0-3.51,0-4.99.21-41.8.46-83.59.56-125.39,0-2.29-1.11-4.58-1.7-6.87-.66,2.27-1.88,4.54-1.9,6.82-.09,13.82.22,27.65.07,41.47-.02,1.83-1.88,3.64-2.88,5.46-.77-1.73-2.12-3.43-2.21-5.18-.38-7.98-.64-15.99-.44-23.97.11-4.21-1.44-5.61-5.42-5.52-4.33.1-8.66-.34-12.99-.26-37.64.75-75.27,1.62-112.91,2.32-11.43.21-22.88.03-34.7.03,0,3.28.04,5.08,0,6.88-.38,13.32-.66,26.64-1.2,39.95-.81,20.14-1.81,40.27-2.67,60.41-.05,1.22.4,3.5.81,3.54,3.6.4,7.34.9,10.82.25,1.16-.22,2.18-3.64,2.46-5.71,1.49-11.05,2.53-22.16,4.16-33.19.47-3.18,1.9-6.45,3.69-9.15,2.87-4.31,7.66-4.06,9.96.57,1.66,3.35,2.84,7.21,3.11,10.93.85,11.61,1.11,23.27,1.77,34.9.09,1.61.99,4.47,1.7,4.53,3.91.34,8.1.68,11.72-.48,1.4-.45,1.92-4.77,2.21-7.4,1.41-12.55,2.35-25.15,4.03-37.66.56-4.17,2.33-9.13,7.71-9.07,5.21.05,6.48,5,7.12,8.99,1.95,12.14,3.76,24.33,4.92,36.56,1.14,12.01.79,12.36,12.98,10.99,12-1.35,10.91,1.64,11.91-12.44.91-12.79,1.47-25.61,2.71-38.36.4-4.08,1.25-9.74,6.82-9.6,5.39.13,6.47,5.55,6.54,9.78.24,13.62.2,27.27-.28,40.88-.34,9.58-.74,9.56,9.05,9.05.17,0,.33-.04.5-.03,5.06.51,6.44-2.06,6.52-6.77.17-10.15.56-20.32,1.44-30.43.4-4.55,1.66-9.21,3.5-13.39,1.85-4.2,6.23-4.13,8.54-.11,1.37,2.4,2.52,5.24,2.7,7.95.8,12.11,1.24,24.24,1.77,36.37.1,2.41.02,4.83.02,7.34h27.46Zm449.2-174.95c2.29-.81,5.27-1.48,7.87-2.87,6.44-3.44,12.49-7.66,19.08-10.76,25.54-12.03,51.33-23.38,80.45-23.01,3.07.04,6.14-.26,9.1-.4,1.1-11.46,5.29-15.55,16.23-16.31,3.49-.24,7.03-.02,10.46-.55,1.19-.19,3.15-2.21,3-3.08-1-5.69,1.74-9.63,6.05-12.18,5.84-3.45,12.23-5.95,18.21-9.17,2.02-1.09,4.45-2.8,5.12-4.76,2.32-6.79,6.83-11.38,12.9-14.59,5.88-3.11,11.99-5.79,17.9-8.87,1.49-.78,3.59-2.26,3.68-3.54.65-9.51,7.49-14.16,14.36-18.57,4.84-3.11,10.2-5.42,15.55-8.2-2.43-5.06-2.86-10.09.77-14.63,2.06-2.58,4.58-4.81,6.92-7.17,2.2-2.22,4.43-4.41,6.95-6.92-10.82.83-20.74,1.82-30.68,2.28-6.66.31-13.4-.06-14.54-7.96-10.17,4.55-19.91,9.59-30.11,13.32-15.15,5.53-30.1,4.8-43.99-4.37-3.29-2.17-6.47-4.52-9.26-6.48-25.15,16.22-51.92,17.39-80.26,11.16-5.99,34.26-11.73,68.19-13.95,102.91,1.35-.58,1.88-1.61,2.63-2.45,23.63-26.68,47.26-53.36,70.95-79.99,3.32-3.73,6.85-7.28,10.51-10.66.83-.77,2.64-.47,4-.66-.09,1.35.26,2.97-.36,4.01-1.53,2.56-3.45,4.89-5.31,7.24-23.44,29.67-46.9,59.32-70.34,88.99-1.04,1.32-1.98,2.72-2.96,4.08,2.39-.19,3.88-1.14,5.31-2.18,13.47-9.8,26.92-19.63,40.38-29.43,35.55-25.88,71.1-51.76,106.68-77.61,2.42-1.76,4.96-3.41,7.65-4.69,1.08-.52,2.71.1,4.09.2-.3,1.31-.23,2.91-.97,3.88-1.3,1.7-3.01,3.11-4.69,4.47-31.55,25.35-62.82,51.05-94.78,75.87-21.29,16.54-43.48,31.94-65.45,47.59-7.21,5.14-11.21,3-12.36-5.84-.28-2.15-.61-4.3-1.1-7.68-2.14,2.86-3.22,4.77-4.75,6.21-1.05.99-2.98,2.09-4.04,1.73-1-.34-1.94-2.53-1.91-3.88.06-3.14.6-6.29,1.14-9.4.92-5.25,1.96-10.47,3-15.7,1.03-5.2,2.13-10.38,3.2-15.57-8.08,25.03-20.39,48.75-22.3,76.2Zm-221.71-109.81c-.46-.2-1.18-.51-1.89-.84-12.88-5.96-14.31-17.5-3.19-26.23,2.22-1.74,4.57-3.37,7.04-4.71,4-2.18,8.16-4.09,13.09-6.54-15.98-8.91-28.04-19.29-19.62-39.58-1.48,0-2.43-.04-3.38,0-16.27.8-32.56,2.38-48.82,2.16-11.43-.15-22.96-2.43-29.88-12.2-10.8,4.58-21.05,9.38-31.63,13.29-10.93,4.04-22.4,4.11-34.56,1.49-3.63,32.25-7.17,63.68-10.7,95.11.37.17.73.34,1.1.51,20.66-33.03,41.33-66.07,61.89-98.93,5.01,1.32,3.19,3.87,2,6.23-18.45,36.57-36.91,73.14-55.37,109.71-3.41,6.76-6.85,13.51-10.28,20.27,2.86-.93,4.85-2.53,6.71-4.27,19.67-18.46,39.29-36.97,58.98-55.39,4.72-4.42,6.43-9.31,5.55-15.98-2.02-15.35-3.27-30.8-4.6-46.22-.14-1.62,1.27-3.37,1.96-5.06,1.23,1.32,3.16,2.46,3.59,4.01,2.02,7.38,3.78,14.84,5.35,22.33,1.97,9.36,3.66,18.78,5.69,29.27,6.67-4.23,12.9-7.71,18.61-11.9,16.1-11.83,32-23.93,47.94-35.99,2.19-1.65,4.08-3.1,5.69.92-14.07,13.53-28.03,27.11-42.16,40.51-13.41,12.72-26.98,25.28-40.5,37.88-3.07,2.86-4.73,5.98-2.57,10.16,2.66,5.16,5.4,6.68,10.79,5.31,4.35-1.1,8.67-2.41,12.88-3.95,16.73-6.11,33.38-12.45,50.15-18.45,2.58-.92,5.64-.53,8.33-.74,3.63-3.75,7.68-7.92,11.81-12.19Zm208.05,67.5c.63-.41,1.25-.82,1.88-1.23-.25-1.93-.24-3.93-.78-5.78-5-16.92-9.98-33.85-15.21-50.7-4.68-15.1-9.76-30.08-14.39-45.2-.53-1.72.72-3.99,1.15-6.01,1.88,1.18,4.66,1.93,5.49,3.63,3.36,6.86,6.55,13.87,9.01,21.09,8.51,24.9,16.67,49.92,25.01,74.87.81,2.41,1.94,4.72,3.5,8.44.58-2.35.81-3.08.94-3.84,5.78-34.14,7.33-68.52,5.71-103.08-.15-3.29-1.69-3.74-4.4-3.79-15.6-.3-30.19-4.56-44.2-11.24-1.4-.67-3.83-.44-5.23.35-25.88,14.55-52.26,18.02-79.55,4-2.61-1.34-5.19-2.74-7.78-4.12.1.61.21,1.23.31,1.84-2.92,1.3-5.75,3.46-8.76,3.76-15.41,1.5-30.87,2.5-46.31,3.7-1.81.14-3.61.38-6.36.67,55.3,37.7,109.52,74.66,163.74,111.62-.06-1.29-.5-2.14-1.11-2.86-13.79-16.27-27.69-32.43-41.35-48.8-9.18-10.99-18.14-22.17-26.92-33.49-1.79-2.3-5.86-5.33-2.47-8.48,3.58-3.33,6.31,1.1,8.74,3.09,3.72,3.04,7.21,6.47,10.3,10.15,18.85,22.46,37.52,45.06,56.36,67.53,4.02,4.8,8.45,9.24,12.7,13.85Zm-70.69,84.65c.34,5.81,1,10.77.83,15.71-.2,5.71-2.86,7.9-8.6,8.06-5.99.17-11.99.41-17.98.37-54.47-.37-108.95-.62-163.42-1.29-30.48-.37-60.94-1.45-91.41-2.25-4.42-.12-8.83-.46-14.01-.74v110.53h19.27c0-11.5.16-22.8-.03-34.09-.38-22.57,1.96-45.38-6.07-67.29-1.43-3.9.82-6.2,4.9-5.9,10.62.78,21.23,1.74,31.84,2.68,4.32.38,5.2,2.77,4.74,6.93-1.07,9.56-1.87,19.18-2.21,28.8-.64,18.48-.75,36.97-1.32,55.45-.26,8.41-1.1,16.81-1.72,25.71h12.01c0-1.42.02-2.54,0-3.67-.61-34.8-1.26-69.59-1.74-104.39-.03-1.89.9-5.01,2.17-5.5,9.18-3.56,18.65-6.21,28.68-4.37,3.38.62,4.95,3.14,4.05,6.29-1.09,3.79-2.29,7.83-4.55,10.96-7.36,10.18-2.24,21.17-3.2,31.75,1.2-2.33,1.66-4.78,2.44-7.13.83-2.52,1.72-5.07,3-7.38,3.51-6.37,10.65-7.84,15.92-2.84,3.06,2.9,5.57,6.64,7.49,10.43,4.53,8.93,3.77,11.61-3.38,17.1,1.06,2.8,2.85,5.45,2.96,8.17.52,13.47.7,26.96.78,40.44.04,7.13,0,7.32,7.17,8.21.83.1,1.66.15,2.49.19,6.01.28,6.98-.5,7.06-6.63.16-12.16-.04-24.33.32-36.48.12-4.04,1.57-8.03,2.28-12.06.17-.97.19-2.46-.38-2.99-3.24-2.98-2.99-6.71-2-10.23,1.89-6.77,4.26-13.41,6.53-20.4-.7,0-2.31.06-3.92-.01-9.48-.43-18.95-1-28.43-1.31-5.16-.17-7.01-2.74-6.76-7.65.22-4.48.54-9.05-.06-13.46-.51-3.77.63-4.24,3.93-4,9.46.68,18.94,1.32,28.43,1.54,49.46,1.16,98.92,2.18,148.37,3.27,7.26.16,7.58.18,7.98,7.54.95,17.46,1.84,34.93,2.25,52.41.37,15.7.08,31.41.08,46.81,2.98-.68,5-1.43,7.05-1.56,3.98-.26,7.99-.2,11.99-.23,9.61-.06,17.36-7.59,17.36-16.94,0-29.66-.44-59.33.26-88.97.23-9.75-2.24-17.08-9.76-22.91-2.32-1.8-4.42-4.63-7.01-5.19-5.29-1.13-10.83-1.02-16.66-1.46Zm-579.21-190.81c1.84.81,3.37,1.4,4.83,2.15,7.98,4.12,16.2,7.86,23.82,12.56,5.56,3.43,11.2,7.37,12.86,14.59.18.79,1.63,1.55,2.64,1.86,10.46,3.23,17.49,10.49,23.41,19.27,1,1.48,3.24,2.88,4.98,2.97,7.04.36,12.96,3.04,17.93,7.79,3.84,3.67,7.24,7.82,11.14,11.42,1.64,1.51,4.06,3.02,6.15,3.06,35.64.62,67.54,12.32,96.8,32.08,6.3,4.25,13.67,7.5,14.46,16.44,14.32,0,28.11.09,41.9-.14,1.29-.02,3.44-1.9,3.69-3.2,1.52-8.01,2.62-16.11,3.83-24.18.55-3.63,1.04-7.27,1.56-10.91-2.34,1.4-3.45,3.19-4.65,4.92-3.6,5.2-7.13,10.46-10.96,15.49-.73.96-2.74.94-4.16,1.37-.3-1.28-1.06-2.65-.83-3.83,3.44-17.82,7.12-35.59,10.52-53.42,2.49-13.03,4.66-26.12,6.97-39.18-2.29,4.2-3.46,8.65-4.69,13.07-6.74,24.22-13.46,48.45-20.32,72.64-.8,2.82-2.38,5.45-3.79,8.07-1.18,2.2-3.14,4.1-3.86,6.41-1.67,5.41-2.57,6.01-7.64,3.45-2.08-1.05-4.13-2.17-6.14-3.34-26.18-15.28-52.62-30.14-78.46-45.97-39.34-24.1-78.29-48.85-117.34-73.42-4.21-2.65-8.16-5.8-11.87-9.12-1.32-1.18-1.56-3.57-2.29-5.4,1.98-.3,4.03-1.07,5.91-.77,2.24.35,4.45,1.42,6.49,2.51,25.08,13.48,50.14,27,75.19,40.54,4.26,2.31,8.45,4.74,12.68,7.12-.67-1.96-1.9-3.02-3.13-4.09-13.42-11.73-26.88-23.41-40.24-35.21-3.99-3.52-7.78-7.28-11.48-11.11-.71-.74-.54-2.31-.78-3.5,1.23-.16,2.64-.8,3.64-.39,1.97.8,3.81,2.06,5.54,3.34,34.01,25.18,67.99,50.38,101.98,75.59,7.43,5.51,14.83,11.04,22.25,16.57-.02-1.52-.63-2.41-1.34-3.23-14.34-16.66-28.96-33.11-42.97-50.05-10.92-13.2-21.16-26.98-31.57-40.6-1.93-2.52-3.5-5.48.08-8.53-1.69-.66-3.08-.91-4.11-1.67-3.83-2.81-7.13-2.12-11.25.04-7.46,3.9-15.71,6.38-24.14,4.3-12.04-2.97-23.87-6.8-36.45-10.45-5.43,6.29-14.49,5.75-22.99,6.25-8.66.51-17.37.11-26.67.11,19.72,19.24,21.03,22.81,12.87,35.72Zm223.19,95.48l1.33-.46c-1.84-6.33-3.61-12.69-5.54-19-9.73-31.68-19.53-63.33-29.21-95.02-1.02-3.32-1.6-6.83-1.92-10.29-.09-1.02,1.24-2.58,2.31-3.12.58-.29,2.35.84,2.93,1.75,1.06,1.66,1.77,3.59,2.39,5.48,11.94,36.39,23.84,72.8,35.76,109.2.6,1.83,1.28,3.63,1.93,5.45,1.35-1.62,1.82-3.14,2.11-4.7,6-31.58,11.79-63.2,18.1-94.72,1.37-6.82.32-12.53-2.37-18.73-2.27-5.22-5.02-6.44-10.56-5.97-13.59,1.15-27.25,1.65-40.89,1.84-5.5.08-11.16-1.46-14.61-6.33-1.9-2.68-3.53-2.66-6.23-1.78-14.51,4.69-29.45,7.1-44.68,7.6-5.88.19-11.76.03-17.73.03,38.03,41.09,70.9,86.21,106.87,128.75Zm348.2,71.94c-16.53-9.43-32.8-19.15-50.93-25.11-3-.99-6.08-1.82-8.95-3.12-1.12-.51-1.73-2.11-2.58-3.22,1.37-.38,2.72-.96,4.1-1.07.93-.08,1.92.47,2.86.81,23.47,8.5,46.94,17,70.41,25.51,1.47.53,2.93,1.07,5.21,1.9-.71-1.57-.98-2.15-1.23-2.74-2.12-5.04-4.44-10.01-6.22-15.16-.43-1.26.89-3.13,1.41-4.72,1.29.82,3.05,1.35,3.79,2.52,1.87,2.93,3.42,6.09,4.85,9.27,3.48,7.7,6.81,15.45,10.61,24.11,1.75-2.04,3.05-3.39,4.17-4.89,2.39-3.19,4.47-6.64,7.13-9.58,1.13-1.25,4-2.49,5.02-1.9,1.47.86,2.69,3.35,2.74,5.19.1,3.58-.68,7.19-1.12,10.99,1.27.27,2.2.52,3.16.66,8.24,1.2,15.71-7,13.23-14.98-1.71-5.5-.88-9.41,5.46-11.42-1.27-.92-1.73-1.39-2.29-1.65-31.36-14.46-64.01-24.43-98.39-28.54-24.45-2.92-48.89-5.99-73.33-9.02-2.55-.32-5.07-.83-7.6-1.25,3.22,4.64,7.22,8.12,10.6,12.11,4.05,4.79,3.19,8.59-2.03,12-.67.44-1.32.91-2.55,1.77,2.7,1.56,5.09,2.68,7.17,4.21,2.48,1.82,5.62,3.61,6.69,6.17.75,1.78-1.47,4.83-2.17,6.74,2.47,2.3,6.42,4.24,7.1,6.98,1.14,4.65,3.8,4.19,6.92,4.12,25.62-.56,51.24-1.16,76.73,3.27Zm313.4,1.78c.23,3.03.32,4.68.48,6.33,3.11,30.99,6.45,61.95,9.26,92.97,1.81,19.9,2.96,39.86,4.16,59.81.36,6.04-1.03,7.33-7.04,7.83-4.81.4-9.65.69-14.47.65-32.82-.22-65.63-.67-98.45-.75-9.47-.02-18.99.56-28.41,1.57-9.92,1.06-13.07,5.18-13.31,15.52,61.33-1.96,122.67-3.93,184.37-5.91-.62-3.89-1.56-8.42-2.04-12.99-3.99-37.76-7.82-75.54-11.89-113.3-1.48-13.74-3.34-27.44-5.38-41.11-.37-2.5-1.84-5.91-3.8-6.89-3.87-1.93-8.43-2.44-13.5-3.75Zm-502.08-2.97c.07.75.13,1.51.2,2.26,27.64,0,55.27.13,82.91-.2,2.82-.03,5.6-2.91,8.4-4.46l-.41-2.41c-4.69-1.32-9.33-2.86-14.08-3.88-4.43-.95-6.08-3.16-5.57-7.74.51-4.59.5-9.27.29-13.89-.16-3.71-2.33-5.49-6.3-5.42-8.33.14-16.67.19-24.98-.2-4.26-.2-8.97-.5-12.56-2.44-3.34-1.81-6.04-1.89-9.36-1.21-11.28,2.32-22.35,2.41-33.46-1.63-3.95-1.44-8.79-1.1-13.14-.67-10.26,1-20.44,2.74-30.69,3.76-5.13.51-10.35.09-16.7.09,7.73,10.28,15.27,20.29,22.8,30.31.49-.3.98-.6,1.47-.9-.37-4.95-.93-9.9-.98-14.85-.02-1.47,1.4-2.96,2.16-4.43,1.07,1.28,2.79,2.42,3.1,3.87.86,4.05,1.19,8.22,1.65,12.35,1.03,9.34,2.22,9.84,10.05,4.52,7.85-5.33,15.69-10.69,23.8-15.61,1.86-1.13,4.79-.51,7.23-.7-.56,2.22-.59,4.79-1.78,6.59-2.2,3.34-5.07,6.24-7.67,9.32,2.25.16,3.93-.42,5.58-1.07,9.46-3.68,18.84-7.6,28.41-10.98,5.97-2.11,7.67-.32,6.13,6.8,6.55-1.19,12.67-2.41,18.84-3.33,1.32-.2,2.8.7,4.21,1.1-1.1,1.01-2.05,2.57-3.33,2.94-8.17,2.31-16.41,4.36-24.63,6.5-7.19,1.87-14.38,3.75-21.56,5.63Zm185.5,73.12c-31.59,1.22-61.59,2.37-92.35,3.56,8.25,6.16,12.84,14.08,15.64,23.11,1.34,4.3,1.4,8.49-1.19,10.84.68,4.53,1.73,8.05,1.62,11.53-.33,10.48-1.13,20.95-1.72,31.42-.64,11.49-.64,11.33,10.96,10.59,3.86-.25,4.61-1.8,4.53-5.28-.27-10.99-.46-21.99-.19-32.97.11-4.57,1.46-9.12,2.54-15.41-4.84-6.8-2.59-15.61,1.2-24.22,2.34-5.32,7.16-6.68,11.99-4,9.32,5.18,16.21,21.47,11.98,28.8,1.26,4.33,2.9,7.25,2.83,10.13-.35,14.15-1.2,28.28-1.74,42.42-.06,1.47.26,3.77,1.21,4.32,6.36,3.73,14.52-1.01,14.59-8.3.1-10.82-.02-21.65.22-32.47.2-9.11,4.12-17.56,4.01-27.02-.07-5.68,5.4-11.44,8.43-17.14,1.66-3.13,3.41-6.21,5.45-9.89Zm-362.34-157.69c-4.27,3.26-6.83-.41-9.55-2.43-34.18-25.46-68.29-51.01-102.42-76.53-1.57-1.18-3.21-2.27-4.82-3.4-.25.37-.51.74-.76,1.11,8.17,7.06,16.34,14.11,24.5,21.17,7.17,6.21,14.4,12.36,21.44,18.71,1.1.99,1.38,2.9,2.04,4.38-1.66-.19-3.42-.08-4.94-.63-1.85-.68-3.48-1.94-5.22-2.92-30.02-16.91-60.02-33.85-90.07-50.69-4.39-2.46-9.03-4.47-13.56-6.69-.24.46-.49.91-.73,1.37,67.38,44.84,136.96,86.08,207.33,126.33,3.22-7.37,3.62-13.6-.84-20.21.49,2.74,1.18,4.84,1.14,6.93-.05,2.09-.84,4.17-1.31,6.25-1.79-.93-4.03-1.45-5.29-2.86-5.66-6.32-11.03-12.9-16.95-19.9Zm183.35,140.68c0,3.41-.31,7.4.17,11.29.17,1.38,2.12,3.35,3.51,3.6,4.08.72,8.29.98,12.44.94,43.63-.51,87.25-1.02,130.88-1.76,9.64-.16,19.27-1.23,28.9-1.92,3.06-.22,4.71-1.39,4.4-5.05-.29-3.39-1.73-4.02-4.74-4.05-11.32-.1-22.64-.43-33.97-.67-37.3-.79-74.59-1.62-111.89-2.35-9.59-.19-19.19-.03-29.7-.03Zm283.34-380.9c-4.31.63-3.14,2.48-1.87,4.48,3.75,5.89,5.97,12.15,5.3,19.35-1.3,13.93-2.4,27.89-3.49,41.84-.69,8.74-1.21,17.5-1.79,25.92h31.91c0-6.47,0-12.24,0-18.01-.02-18.32.09-36.63-.16-54.95-.08-5.86-2.23-7.57-8.01-7.98-1.66-.12-3.34-.12-5-.02-8.2.5-16.39,1.05-16.89-10.63Zm-416.61,253.21c.43.19.86.37,1.29.56,4.83-7.51,9.68-15,14.44-22.55.5-.79.53-1.91.66-2.89,1.35-9.9,2.81-19.78,3.99-29.7,2.81-23.62,5.37-47.27,8.36-70.87.47-3.73-.17-5.55-3.39-7.57-3.14-1.97-5.67-2.29-9.19-1.3-6.3,1.77-12.8,2.8-19.55,4.2,1.51,3.42,2.66,6.36,4.08,9.16,2.29,4.5,2.51,9,1.53,13.98-4.67,23.68-9.06,47.41-13.53,71.12-1.84,9.76-3.64,19.52-5.46,29.28,1.61-2.11,2.51-4.4,3.14-6.77,9.27-34.56,18.46-69.13,27.83-103.66.71-2.6,3.37-7.13,3.85-6.96,4.56,1.53,2.43,5.55,1.97,8.44-4.04,25.48-8.22,50.94-12.58,76.37-2.25,13.09-4.94,26.11-7.44,39.16Zm320.36,238.52v41.23h49.67c-.57-2.64-1.45-5.34-1.69-8.09-.83-9.62-1.35-19.26-2.24-28.87-.16-1.69-1.39-4.55-2.4-4.68-7.4-.91-14.87-1.72-22.3-1.67-6.64.05-13.28,1.26-21.04,2.07Zm-284.42-407.47c1.35-15.2,2.69-30.08,4-44.97.39-4.48.88-8.96.88-13.45,0-1.12-1.56-3-2.66-3.23-7.49-1.5-15.06-2.63-22.6-3.9-2.59-.44-3.63.71-3.75,3.23-.92,18.62-1.96,37.23-2.7,55.86-.05,1.21,1.98,3.41,3.29,3.61,7.53,1.17,15.13,1.88,23.55,2.84Zm346.69,411.06c-1.8,8.83-.27,25.47,2.58,31.92,1.32,2.98,3.24,4.75,6.82,4.71,8.48-.08,16.96.32,25.43.14,3.94-.08,7.93-.81,11.76-1.78,1.39-.35,3.3-2.2,3.41-3.5.71-8.27,1-16.58,1.39-24.87.15-3.11-1.43-4.27-4.51-4.53-4.79-.4-9.53-1.47-14.32-1.93-3.62-.35-7.3-.3-10.94-.24-6.89.13-2.94,6.07-4.69,8.97-.16.26-.02.71-.19.97-.77,1.16-1.42,2.94-2.47,3.24-1.02.29-2.78-.64-3.69-1.56-3.47-3.54-6.72-7.28-10.59-11.54Zm-599.16-163.41c.08.81.15,1.62.23,2.43,55.32,6.73,110.95,5.1,166.46,5.87.6-7.95.6-7.92-6.11-8.29-16.13-.87-32.24-2.28-48.38-2.54-32.61-.53-65.22-.58-97.83-.48-4.79.02-9.58,1.95-14.38,3Zm292.97-72.77c34.91-11.39,70.79-12.56,105.49-11.8-.16-5.51-.29-10.25-.44-14.99-.02-.49-.1-1-.3-1.44-2.55-5.8-5.12-11.59-7.68-17.36-30.59,18.59-63.67,32.44-97.07,45.6Zm343.63-104.96c2.04,32.54,1.66,65.59-3.78,98.5,1.24-1.08,1.81-2.23,2.2-3.44,5.34-16.62,10.49-33.31,16.04-49.87,3.25-9.7,7.6-19.05,10.58-28.82,2.02-6.63,2.67-13.7,3.66-20.62.43-3.03-1.52-3.68-4.16-2.91-7.78,2.28-15.57,4.54-24.52,7.15Zm-205.48,247.66h-34.91c13,12.82,16.47,23.85,10.46,30.32,3.58,9.57,1.51,19.28,1.81,28.79.31,9.59.07,19.19.07,29.09.54,0,1.84.1,3.11-.02,7.9-.73,8.24-1.06,8.58-8.98.34-7.82.24-15.67,1.01-23.44.72-7.2,2.42-14.29,3.47-21.46.19-1.32-.59-2.85-1.12-4.21-.85-2.21-2.87-4.46-2.64-6.5.98-8.63,2.91-17.06,10.16-23.59Zm229.72-413.6c0-5.86-.06-12.67.02-19.47.08-6.98.11-13.98.48-20.95.34-6.4,5.23-12.11,3.39-18.89-1.01,1.12-1.57,2.38-1.54,3.62.16,5.6-3.14,7.5-8.04,8.03-3.47.37-6.9,1.06-10.37,1.49-4.79.6-6.79,3.22-6.88,8.05-.18,10.3-.72,20.6-1.05,30.9-.11,3.54-.02,7.08-.02,9.99,8.51-.99,16.11-1.87,24.01-2.79Zm10.4,346.82c56.64,2.88,113.17-.17,170.94-2.61-8.45-8.64-152.94-5.73-170.94,2.61Zm-440.32-345.71h22.89c.59-4.36,1.25-9.26,1.9-14.17.66-4.94,1.23-9.89,1.97-14.82.73-4.92,1.53-9.84,2.47-14.73.85-4.41,4.84-8.1,3.3-13.27-1.3,6.85-6.71,8.41-11.99,10.18-4.41,1.49-8.91,2.81-13.07,4.83-1.69.82-3.42,3.21-3.65,5.07-1.46,11.86-2.51,23.77-3.82,36.9Zm406.44,357.33c.72-.21,1.43-.43,2.15-.64,2.3-9.8,4.47-19.63,6.95-29.38,1.05-4.15-.64-5.63-4.37-5.44-6.06.31-12.36,2.08-18.11.96-6.4-1.25-8.36,2.55-11.23,6.13-1.56,1.95-3.01,4-4.73,5.79-3.5,3.66-.5,6.98.77,10.06.67,1.62,3.13,3.15,5.01,3.52,5.2,1.02,10.53,1.41,15.81,2.04,3.91.47,7.89.84,7.76,6.96Zm-191.02-133.88l-.47,1c.87.44,1.73.92,2.62,1.32,19.03,8.38,38.07,16.76,57.11,25.13,25.59,11.25,51.18,22.49,76.77,33.74,3.31,1.46,6.3,3.11,2.24,7.79,9.31,1.31,17.57,2.46,25.83,3.62.27-.51.54-1.03.8-1.54-2.55-3.36-5.07-6.75-7.68-10.07-.34-.44-1.08-.69-1.68-.78-2.95-.45-6.16-.22-8.85-1.3-36.44-14.64-72.78-29.49-109.19-44.2-12.45-5.03-25-9.81-37.51-14.71Zm-267.9,268.45c5.15,1.1,5.77-.78,5.77-3.55.02-6.32.24-12.64.25-18.96.03-35.27.07-70.55-.1-105.82-.01-2.71,2.18-7.81-1.97-7.86-4.46-.06-2.5,5.25-2.55,8.05-.62,33.26-1.01,66.52-1.39,99.78-.11,9.45-.02,18.89-.02,28.34Zm67.55-363.19c1.76-5.94-.57-8.08-4.86-8.79-3.77-.62-7.54-1.23-11.33-1.68-4.17-.49-6.73-2.48-7.14-6.85-.37-3.96-.7-7.93-1.32-11.85-.2-1.26-.96-3.08-1.93-3.46-6.67-2.59-12.55.26-15.23,6.98-1.61,4.03-2.05,7.96,0,12.02,1.71,3.41,3.32,6.89,4.67,10.45,1.17,3.08,3.09,3.91,6.17,3.22,8.01-1.8,16.04-3.47,24.23-5.23,1.68,1.29,3.95,3.04,6.74,5.19Zm-57.28,222h32.09c.4-6.4.64-12.03,1.14-17.63.27-2.95-1.04-3.84-3.69-3.81-8.79.08-17.59-.02-26.37.28-1.09.04-2.97,2.03-3.03,3.19-.31,5.76-.14,11.55-.14,17.97Zm-377.35-61.24c0,.06.01.13.02.19,3.48,0,6.96.04,10.44-.02,1.14-.02,3.15-.04,3.27-.47.95-3.44,2.1-7,1.97-10.48-.06-1.57-2.64-3.93-4.48-4.41-11.94-3.09-23.7-1.16-35.22,2.42-1.08.33-2.57,2.72-2.26,3.57,1.28,3.51,2.6,7.23,7.44,7.54,6.28.4,12.55,1.09,18.82,1.66Zm844.99.44c12-4.5,127.09-91.41,131.74-99.48-15.63,11.47-30.75,22.62-45.92,33.69-25.93,18.93-51.86,37.86-77.92,56.62-2.42,1.74-5.73,2.24-9.28,3.55.22.89.75,3.05,1.38,5.61Zm-18.99-130.15c6.69-1.66,12.91-3.17,19.11-4.78.73-.19,1.8-.87,1.88-1.45.85-5.68,4.83-4.08,8.21-3.42,5.4-17.3,5.63-35.92-.19-41.08,0,8.93-.26,17.2.11,25.44.18,4.03-.59,6.02-5,5.67-2.98-.24-5.99-.13-8.99-.01-18.82.74-16.25-3.67-15.13,19.63ZM635.8,34.19c-1.8,5.36-3.29,9.71-4.72,14.07-4.21,12.78-.33,25.78-.92,38.66-.04.82.95,2.19,1.75,2.46,2.6.88,5.34,1.37,9.25,2.3-4.31-11.11-1.14-21.23,1-31.4,1.95-9.27-1.67-17.14-6.36-26.1Zm-57.6,463.57c-2.19,3.01-3.51,6.38-5.96,7.82-4.22,2.47-3.89,5.43-3.07,9.02h31.23c5.53-9.07,10.41-17.09,15.36-25.2-7.38-2.15-7.43-2.12-9.23,4.09-.46,1.6-.72,3.35-1.58,4.72-1.34,2.14-3.11,4.01-4.7,6-1.82-1.49-3.63-2.99-5.48-4.45-.2-.16-.58-.09-1.15-.17,0,.85.17,1.7-.03,2.45-.57,2.07-1.31,4.1-1.97,6.15-2.04-.85-4.41-1.3-6.03-2.65-2.65-2.21-4.82-5.01-7.39-7.77Zm79.38-127.08c-.31-.19-.62-.37-.93-.56-1.41,2.17-2.85,4.33-4.24,6.52-10.83,17.17-21.44,34.49-32.57,51.47-5.33,8.14-4.13,17.22-6.22,25.8.43.13.85.27,1.28.4,14.23-27.88,28.45-55.75,42.68-83.63ZM1016.92,97.88c6.22-2.58,12.51-5.18,19.33-8.01-2.36-13.89-4.76-27.99-7.16-42.09-.42.04-.84.07-1.26.11-.95,8.56-1.23,17.27-3.05,25.65-1.81,8.31-5.19,16.29-7.86,24.35Zm-396.01,21.85c6.21,1.22,12.62,2.49,19.52,3.85.3-1.52.68-3.26.97-5.01,1.53-9.4,1.88-7.51-5.51-12.01-4.57-2.78-10.15-4.63-10.92-11.83-1.93,1.74-3.82,3.43-3.92,5.23-.37,6.58-.15,13.2-.15,19.77Zm371.71,452.39c-3.06,14.68-3.04,114.48.27,118.59,1.75-40.1,2.65-79.33-.27-118.59Zm49.87-365.01c.94-12.05-3-15.56-15.48-12.79-1.78.39-3.49,1.1-5.27,1.45-4.12.82-4.67,3.26-3.81,6.97.98,4.23,4.1,4.3,7.28,4.35,5.73.09,11.47.03,17.28.03Zm-408.25,297.73c-.6.78-1.21,1.56-1.81,2.35,2.66,2.15,5.35,4.27,7.98,6.45,2.82,2.33,5.7,4.6,8.35,7.12,1.09,1.04,1.56,3.79,2.4,3.83,6.91.32,13.84.18,20.76.18.06-.24.13-.48.19-.73-12.62-6.4-25.25-12.8-37.87-19.2Zm400.86-35.77c14.94-19.41,29.74-38.64,44.54-57.87-1.83.67-3.06,1.86-4.18,3.15-12.39,14.32-24.67,28.74-37.2,42.93-3.16,3.58-4.57,7.16-3.15,11.79Zm-14.86-346.35c6.49-1.2,12.83-2.37,19.81-3.66.15-2.51.35-5.9.6-10.21-7.36,1.31-13.96,2.48-20.41,3.63v10.24Zm-196.63,409.68c26.08,7.79,52.66,4.17,79.08,3.98-26.36-1.33-52.72-2.66-79.08-3.98Zm8.11-3.91c26.14,1.3,52.28,2.6,78.42,3.9.02-.45.05-.89.07-1.34-25.95-5.07-52.21-3.93-78.49-2.56Zm208.03-423.96c-3.47-10.46-4.44-10.9-13.79-6.04-2.64,1.37-5.18,3-7.55,4.8-.86.66-1.09,2.15-1.61,3.26,1.13.43,2.33,1.36,3.37,1.21,6.52-.94,13.01-2.12,19.58-3.23Zm-125.45,276.95c-.58.45-1.17.9-1.75,1.36,16.35,19.43,32.7,38.86,49.06,58.29.41-.34.82-.69,1.23-1.03-16.18-19.54-32.36-39.08-48.54-58.61Zm119.21,42.88c-.32-.06-.63-.12-.95-.18-2.99,14.05-5.99,28.11-8.98,42.16.51.21,1.02.43,1.53.64,1.8-2.66,4.8-5.17,5.18-8.02,1.52-11.48,2.22-23.06,3.22-34.6Zm-30.11-101.82c.51-.08,1.02-.15,1.53-.23.43-7.7.86-15.41,1.32-23.83-2.74.72-4.86.84-6.44,1.82-1.16.72-2.53,2.81-2.24,3.86,1.69,6.19,3.83,12.26,5.82,18.37Zm-293.06,185.4c-8.11,5.56-16.22,11.12-24.33,16.69.13.37.26.73.39,1.1h13.19c-.59-8.86,9.03-10.57,10.75-17.78Zm197.99,10.38c10.13,5,18.64,13.37,30.45,15.01-8.58-8.1-19.52-11.54-30.45-15.01Zm-193.66,3.15c.15.4.31.8.46,1.2,9.72-2.41,19.43-4.82,29.44-7.3-.39-2.01-.69-3.52-1.09-5.57-9.94,4.02-19.38,7.85-28.81,11.67Zm-248.56-179.48c-.44.36-.87.73-1.31,1.09,12.28,14.77,24.56,29.53,36.85,44.3.43-.36.86-.72,1.29-1.07-12.28-14.77-24.55-29.54-36.83-44.31Zm448.82,195.5c3.82,8.51,6.18,9.67,17.18,8.24-5.17-4.46-9.15-9.84-17.18-8.24Zm-350.66-17.6c-.71-.04-1.42-.08-2.13-.12-.5,6.41-1.03,12.83-1.42,19.25-.03.49,1.12,1.55,1.46,1.45.79-.23,1.99-1,2.01-1.57.14-6.33.09-12.67.09-19.01Zm253.48,7.88c.75.08,2.31.25,3.42.37.96-2.05,2.13-3.64,2.38-5.37.2-1.37-.28-3.42-1.24-4.24-1.3-1.11-3.36-1.33-4.56-1.75v10.99Zm174.73,14.41c2.64,3.89,15.74,5.94,20.15,2.77-6.52-.9-13.04-1.79-20.15-2.77Zm-100.74.39c6.85.71,13.7,1.42,20.55,2.13.07-.8.13-1.61.2-2.41-6.77-1.68-13.77-.46-20.75.29Zm60.06-7.5c3.01-.14,5.89.25,6.13-.37,1.15-2.97,1.57-6.21,2.26-9.36l-1.63-.52c-2,3.04-4.01,6.08-6.76,10.26Zm-19.16,2.98c5.67,8.35,7.21,9.27,12.71,8.14-4.66-2.99-8.68-5.56-12.71-8.14Zm35.82,3.04c-6.99-1.56-7.82-.62-7.47,7.92,2.61-2.77,4.76-5.05,7.47-7.92Zm-329.34-340.86c-.94.25-1.88.5-2.82.75.55,2.6,1.1,5.21,1.66,7.81.98-.38,2.85-.9,2.82-1.13-.38-2.5-1.05-4.96-1.65-7.43Zm-33.78,5.84c.22-3.76.39-6.64.57-9.76-4.5,1.31-4.61,3.37-.57,9.76Z"/>
</svg>