<svg xmlns="http://www.w3.org/2000/svg"  viewBox="0 0 32 32" width="256px" height="256px"><path d="M 14.730469 4.0585938 C 11.890344 4.0944684 9.0875519 4.3081094 6.6386719 4.7402344 C 5.444221 4.9516285 4.4692922 5.8664646 4.2148438 7.0683594 C 3.3938512 10.931513 2.2245279 18.463987 3.4042969 23.359375 C 3.9081524 25.451656 5.5985315 27.088737 7.7441406 27.441406 C 12.785016 28.268674 18.917649 28.12768 23.964844 27.542969 C 24.434656 27.490879 25.084325 27.341975 25.710938 27.199219 C 26.336185 27.056773 26.871687 26.925599 26.878906 26.923828 L 26.886719 26.921875 A 1.0002677 1.0002677 0 0 0 27.123047 26.830078 C 27.888809 26.569209 28.454999 25.970426 28.816406 25.296875 C 29.220415 24.543927 29.45691 23.665618 29.625 22.720703 C 29.961181 20.830874 29.993471 18.665201 29.972656 16.974609 C 29.954846 15.509733 28.874896 14.223543 27.392578 14.03125 C 26.713617 13.942851 25.98455 13.912943 25.21875 13.898438 C 25.350649 11.850342 25.517805 9.7567273 25.703125 7.6953125 C 25.848915 6.0797223 24.660756 4.6164805 23.042969 4.4433594 C 20.448015 4.165256 17.570594 4.022719 14.730469 4.0585938 z M 14.75 6.0644531 C 17.508625 6.0290781 20.321032 6.1627441 22.830078 6.4316406 C 23.380291 6.4905196 23.763101 6.9592152 23.712891 7.515625 C 23.502302 9.8581073 23.299001 12.259819 23.160156 14.599609 A 1.0001 1.0001 0 0 0 23.160156 14.601562 A 1.0001 1.0001 0 0 0 23.132812 15.033203 C 22.958352 18.202017 22.932606 21.220288 23.326172 23.660156 C 23.446338 24.404019 23.800592 24.93339 24.138672 25.476562 C 24.028599 25.496713 23.784497 25.551801 23.740234 25.556641 A 1.0001 1.0001 0 0 0 23.734375 25.556641 C 18.837611 26.123928 12.813484 26.247482 8.0683594 25.46875 C 6.7339685 25.249419 5.6717539 24.230297 5.3496094 22.892578 C 4.3615236 18.792569 5.386883 11.175697 6.171875 7.4824219 C 6.2574266 7.0783166 6.564779 6.7835902 6.9863281 6.7089844 C 9.2864481 6.3031093 11.991375 6.0998284 14.75 6.0644531 z M 13.962891 10.035156 C 12.185979 10.040456 10.422082 10.206488 8.8125 10.513672 A 1.0001 1.0001 0 1 0 9.1875 12.476562 C 12.130337 11.914931 15.785945 11.878332 18.804688 12.476562 A 1.0006903 1.0006903 0 1 0 19.195312 10.513672 C 17.530683 10.183788 15.739802 10.029818 13.962891 10.035156 z M 9 14.953125 A 1.0001 1.0001 0 0 0 8.9804688 16.953125 C 8.9866787 16.95325 8.993788 16.953 9 16.953125 C 12.180451 17.016945 15.913597 17.012965 19 16.953125 C 19.006 16.953008 19.013511 16.953242 19.019531 16.953125 A 1.0001 1.0001 0 0 0 19 14.953125 L 9 14.953125 z M 25.095703 15.898438 C 25.850987 15.911594 26.546013 15.937015 27.134766 16.013672 C 27.610448 16.075382 27.966466 16.490877 27.972656 17 C 27.992836 18.639409 27.948816 20.726423 27.65625 22.371094 C 27.509965 23.193429 27.296271 23.901324 27.054688 24.351562 C 26.813102 24.801803 26.617256 24.934034 26.443359 24.970703 A 1.0002677 1.0002677 0 0 0 26.419922 24.976562 A 1.0001 1.0001 0 0 0 26.417969 24.976562 C 26.185353 25.031238 26.102415 25.0126 25.892578 24.796875 C 25.682003 24.580424 25.422311 24.094103 25.300781 23.341797 C 24.978047 21.341038 24.966636 18.730741 25.095703 15.898438 z M 19.037109 19.535156 A 1.0001 1.0001 0 0 0 18.8125 19.5625 C 15.869663 20.124132 12.214054 20.160732 9.1953125 19.5625 A 1.0001 1.0001 0 0 0 8.9960938 19.541016 A 1.0001 1.0001 0 0 0 8.8046875 21.525391 C 12.133946 22.185159 15.968337 22.139759 19.1875 21.525391 A 1.0001 1.0001 0 0 0 19.037109 19.535156 z"/></svg>