<?xml version="1.0" encoding="UTF-8"?>
<svg id="Layer_1" data-name="Layer 1" xmlns="http://www.w3.org/2000/svg" viewBox="0 0 1871.42 998.97">
  <defs>
    <style>
      .cls-1 {
        fill: #fff;
      }

      .cls-1, .cls-2, .cls-3, .cls-4 {
        stroke-width: 0px;
      }

      .cls-2 {
        fill: #f7b117;
      }

      .cls-3 {
        fill: #d94f51;
      }

      .cls-4 {
        fill: #2a95c2;
      }
    </style>
  </defs>
  <path class="cls-1" d="m201.76,553.18c16.29,29.45,41.48,49.79,69.52,66.87,42.24,25.73,88.6,40.88,136.53,51.89,39.44,9.06,79.4,14.61,119.64,18.07,49.15,4.23,98.45,5.34,147.76,4.11,44.19-1.1,88.34-3.23,132.36-7.57,8.09-.8,16.25-1,24.36-1.47.44.62.86.62,1.26-.05,26.52-1.73,53.04-3.46,79.55-5.19.28.6.57.57.85,0,8.94-.46,17.88-.92,26.81-1.38,1.26.94,2.5.91,3.7-.14,22.4-1.22,44.79-2.62,67.21-3.63,57.38-2.58,114.81-3.97,172.24-3.87,40.7.08,81.43.91,122.06,3.7,68.48,4.71,136.41,12.96,202.76,31.52,56.62,15.84,109.98,38.78,159.06,71.42,47.63,31.68,88.73,70.49,125.67,113.92,27.96,32.88,53.16,67.82,76.93,103.8.59.89.94,1.93,1.4,2.89-.29.27-.55.58-.77.91-35.12-31.17-72.49-59.2-113.66-82.01-52.38-29.02-108.2-48.91-166.27-62.81-13-3.11-26.13-5.67-39.21-8.48.41-.99.61-2.14,1.25-2.94,6.21-7.68,6.05-11.72.58-20.29-2.79-4.37-7.02-7.01-10.38-10.64-10.34-11.17-20.71-22.4-31.99-32.58-5.77-5.2-10.93-10.99-16.77-16.12-8.47-7.44-15.87-16.09-23.93-24.01-11.64-11.44-23.12-7.05-30.9,2.82-4.89,6.2-10.47,11.77-15.8,17.42-18.49,19.61-37.91,38.33-56.81,57.56-3.39,3.45-5.66,4.54-9.54.43-10.17-10.75-20.72-21.14-31.22-31.56-15.32-15.2-31.09-29.97-45.98-45.58-9.72-10.18-21.62-6.19-28.97.29-5.78,5.09-10.46,11.42-15.92,16.9-19.19,19.3-38.52,38.46-57.75,57.72-2.74,2.75-5.22,3.4-8.13.26-3.44-3.71-7.09-7.22-10.56-10.9-5.27-5.58-10.57-11.39-16.01-16.49-8.39-7.86-16.48-16.09-24.94-23.9-8.58-7.92-16.37-16.7-24.7-24.91-8.93-8.8-19.38-8.06-28,1.36-5.03,5.5-10.56,10.55-15.7,15.96-23.2,24.37-49.17,46.06-70.2,72.52-2.42.05-4.84.11-7.25.16,0,0,.04,0,.04,0-1.24.23-2.47.45-3.69.68-1.69-.65-3.38-.92-5.02.19-83.86,5.29-167.72,10.4-251.83,9.54-49.32-.5-98.47-3.29-147.38-9.57-19.57-2.51-39.07-5.72-58.32-10.12-.35-.83-.82-1.04-1.46-.26-64.44-13.55-125.44-35.46-179.19-74.59-47.7-34.73-82.77-79.57-105.9-133.81-8.01-18.8-14.48-38.12-19.5-57.91.7-.03,1.41-.07,2.11-.11Z"/>
  <path class="cls-1" d="m1579.91,628.82c-28.38-24.82-59.01-46.36-92.5-63.82-38.7-20.17-79.55-34.55-121.75-45.19-37.93-9.57-76.45-15.92-115.33-20.2-44.84-4.93-89.81-6.96-134.89-8.27-34.56-1.01-69.05,1.29-103.57.22-11.42-.36-22.83-1.21-34.25-.32-2.61-.38-4.12-2.33-5.83-4.03-22.59-22.49-45.14-45.02-67.82-67.43-8.61-8.51-18.12-8.43-26.7.15-25.03,25.02-50.08,50.03-74.87,75.29-4.36,4.44-7.05,4.74-11.49.21-23.99-24.44-48.28-48.58-72.39-72.9-11.81-11.91-21-11.84-32.6-.13-22.9,23.11-46.04,45.98-69,69.02-6.61,6.64-14.25,12.69-15.31,23.06-49.31,1.81-98.64,2.67-147.92-.28-69.61-4.15-138.03-14.26-202.44-43.04-82.47-36.85-135.28-99.18-159.64-185.9-1.29-4.58-3.25-9.08-3.23-15.33,6.26,8.38,11.6,16.07,18.11,22.76,27.65,28.42,61.22,47.71,97.53,62.56,39.19,16.03,80.04,25.82,121.81,32.55,72.98,11.76,146.36,12.31,219.88,8.61,36.01-1.81,71.87-5.93,107.75-9.58,35.01-3.56,70.17-5.77,105.28-8.33,46.75-3.41,93.53-6.06,140.35-8.41,64.69-3.24,129.39-4.38,194.09-1.79,43.08,1.72,86.03,5.46,128.61,12.68,81.69,13.84,158.1,40.5,224.41,91.92,43.88,34.03,80.06,75.18,111.81,120.44,7.93,11.3,16.13,22.43,22.72,34.61-.29.27-.55.55-.8.86Z"/>
  <path class="cls-1" d="m1347.34,301c-40.21-34.88-86.23-59.38-136.55-76.08-47.69-15.82-96.79-24.59-146.73-29.39-23.19-2.23-46.41-3.7-69.64-4.99-.4-.64-.82-.64-1.23,0-62.75-2.55-125.44,1.25-188.17,1.75-23.73.19-47.45,2.25-71.17,3.46-.27-.53-.55-.58-.81.02-6.27.44-12.54.88-18.79,1.32-.46-.62-.88-.55-1.26.09-35.8,3.11-71.61,6.22-107.41,9.35-9.16.8-18.31,1.65-27.46,2.48-.5-.63-.93-.56-1.29.15-32.16,3.21-64.38,5.68-96.62,7.91-37.54,2.6-75.11,4.42-112.73,4.42-62.55,0-124.77-3.61-185.49-20.34-37.16-10.24-72.06-25.37-102.59-49.4C39.53,120.37,15.18,79.12,2.74,30.4,1.67,26.19-.08,22.1,0,16.34c8,11.42,16.92,20.58,27.02,28.51,30.08,23.6,64.77,37.58,101.13,47.85,37.3,10.54,75.44,16.5,114.03,19.65,9.34,6.05,16.02,15.03,24.08,22.49,20.68,19.13,40.26,39.45,60.29,59.28,5.56,5.51,14.5,6.28,21.23,1.81,10.53-7,18.15-17.09,27.11-25.75,17.82-17.24,35.35-34.78,52.55-52.63,4.9-5.09,7.56-4.3,11.78.43,7.16,8.03,14.83,15.6,22.47,23.19,14.59,14.49,29.2,28.97,44.04,43.21,4.72,4.53,8.62,10.27,14.86,12.87,10.53,4.39,17.36-2.28,23.95-8.91,21.5-21.63,42.86-43.41,64.52-64.89,4.06-4.03,6.91-9.31,11.31-12.59,5.81-4.32,5.85-9.06,4.12-14.89-.39-1.34-2.24-2.45-.76-4.13,1.44,4.29,4.14,4.52,8.51,4.19,30.05-2.26,60.16-3.8,90.23-5.91,48.52-3.41,97.11-5.07,145.72-5.94,39.82-.71,79.65.17,119.4,3.28,40.6,3.17,80.72,9.01,120.11,19.72,74.79,20.35,136.87,60.47,187.17,119.22,19.76,23.08,37.39,47.71,53.7,73.3-.41.43-.82.87-1.22,1.3Z"/>
  <path class="cls-4" d="m979.14,828.99c21.03-26.46,47-48.15,70.2-72.52,5.15-5.4,10.67-10.45,15.7-15.96,8.62-9.43,19.07-10.16,28-1.36,8.33,8.21,16.12,16.98,24.7,24.91,8.46,7.81,16.55,16.04,24.94,23.9,5.44,5.1,10.74,10.91,16.01,16.49,3.47,3.68,7.13,7.19,10.56,10.9,2.91,3.14,5.38,2.48,8.13-.26,19.23-19.26,38.56-38.42,57.75-57.72,5.46-5.49,10.14-11.81,15.92-16.9,7.35-6.48,19.26-10.48,28.97-.29,14.89,15.61,30.66,30.38,45.98,45.58,10.5,10.42,21.05,20.81,31.22,31.56,3.89,4.11,6.15,3.02,9.54-.43,18.9-19.22,38.32-37.95,56.81-57.56,5.33-5.65,10.91-11.22,15.8-17.42,7.78-9.87,19.26-14.26,30.9-2.82,8.06,7.92,15.46,16.57,23.93,24.01,5.84,5.13,11,10.92,16.77,16.12,11.28,10.18,21.65,21.41,31.99,32.58,3.37,3.63,7.6,6.27,10.38,10.64,5.46,8.58,5.62,12.62-.58,20.29-.64.8-.84,1.95-1.25,2.94-3.01.08-4.56,2.41-6.39,4.24-25.04,25-50.06,50.02-75.08,75.05-9.82,9.82-18.8,9.5-28.99-.71-25-25.06-50.15-49.96-75.07-75.08-3.25-3.28-5.05-3.41-8.39-.06-24.63,24.79-49.52,49.33-74.23,74.05-12.02,12.02-20.38,11.81-32.33-.24-24.47-24.68-49.28-49.02-73.78-73.66-3.31-3.33-5.43-3.21-8.57,0-13.08,13.33-26.3,26.53-39.54,39.7-13.08,13.01-26.08,26.1-39.45,38.8-6.62,6.29-16.11,5.8-22.56-.61-26.8-26.64-53.47-53.42-80.32-80-5.18-5.12-8.02-10.88-7.67-18.16Z"/>
  <path class="cls-2" d="m601.61,514.49c1.05-10.37,8.69-16.42,15.31-23.06,22.96-23.05,46.1-45.91,69-69.02,11.6-11.71,20.79-11.77,32.6.13,24.11,24.32,48.4,48.46,72.39,72.9,4.45,4.53,7.14,4.23,11.49-.21,24.78-25.27,49.83-50.28,74.87-75.29,8.58-8.58,18.09-8.66,26.7-.15,22.67,22.41,45.23,44.94,67.82,67.43,1.71,1.7,3.22,3.65,5.83,4.03,1.53,3.89,4.62,6.66,7.22,9.74,7.27,8.63,7.56,16.51-.46,24.54-9.95,9.97-19.06,20.72-30,29.84-9.18,7.65-16.29,17.72-25.02,25.98-7.28,6.89-14.25,13.97-20.5,21.76-3.67,4.58-9.15,6.64-13.63,10.08-3.29,2.53-15.19-1.53-18.35-6.17-6.72-9.86-16.6-16.54-24.51-25.23-16.53-18.16-34.57-34.94-51.83-52.44-4.05-4.11-6.4-1.49-9.19,1.33-14.04,14.15-28.08,28.3-42.22,42.35-11.06,10.99-22.29,21.81-33.4,32.74-9.49,9.34-19.63,9.63-28.29-.93-6.02-7.34-14.89-11.44-20-19.51-5.96-9.39-16.2-14.4-23.33-22.74-6.47-7.56-14.76-13.69-20.43-21.89-4.79-6.92-13.05-9.45-17.82-16.24-2.23-3.18-3.85-6.2-4.24-9.97Z"/>
  <path class="cls-3" d="m623.74,91.83c-1.48,1.69.37,2.8.76,4.13,1.72,5.83,1.69,10.57-4.12,14.89-4.4,3.27-7.25,8.56-11.31,12.59-21.65,21.48-43.02,43.25-64.52,64.89-6.59,6.63-13.42,13.3-23.95,8.91-6.23-2.6-10.14-8.34-14.86-12.87-14.84-14.24-29.45-28.71-44.04-43.21-7.64-7.58-15.31-15.16-22.47-23.19-4.22-4.73-6.88-5.51-11.78-.43-17.2,17.85-34.73,35.4-52.55,52.63-8.95,8.66-16.58,18.75-27.11,25.75-6.72,4.47-15.67,3.7-21.23-1.81-20.03-19.83-39.62-40.15-60.29-59.28-8.05-7.45-14.73-16.43-24.08-22.49.2-.4.67-.97.55-1.16-7.18-11.25-3.02-19.86,5.61-28.3,25.75-25.19,51.1-50.79,76.71-76.12,9.12-9.02,18.05-9.04,27.08-.02,24.7,24.66,49.28,49.46,73.85,74.25,6.37,6.42,6.4,6.64,12.68.41,23.7-23.53,47.3-47.16,70.94-70.74,1.56-1.55,3.09-3.14,4.73-4.6,8.55-7.6,17.24-8.26,25.28-.33,27.54,27.15,54.69,54.71,81.97,82.12,1.09,1.09,2.09,2.29,2.14,3.97Z"/>
</svg>